solid OpenSCAD_Model
  facet normal 1 -0 0
    outer loop
      vertex 8 0 3.5
      vertex 8 47.5 0
      vertex 8 47.5 3.5
    endloop
  endfacet
  facet normal 1 0 0
    outer loop
      vertex 8 47.5 0
      vertex 8 0 3.5
      vertex 8 0 0
    endloop
  endfacet
  facet normal -0 0 1
    outer loop
      vertex 0 47.5 3.5
      vertex 8 0 3.5
      vertex 8 47.5 3.5
    endloop
  endfacet
  facet normal 0 0 1
    outer loop
      vertex 8 0 3.5
      vertex 0 47.5 3.5
      vertex 0 0 3.5
    endloop
  endfacet
  facet normal 0 0 -1
    outer loop
      vertex -3.5 0 0
      vertex 8 47.5 0
      vertex 8 0 0
    endloop
  endfacet
  facet normal -0 0 -1
    outer loop
      vertex 8 47.5 0
      vertex -3.5 0 0
      vertex -3.5 47.5 0
    endloop
  endfacet
  facet normal 1 -0 0
    outer loop
      vertex 0 0 6
      vertex 0 47.5 3.5
      vertex 0 47.5 6
    endloop
  endfacet
  facet normal 1 0 0
    outer loop
      vertex 0 47.5 3.5
      vertex 0 0 6
      vertex 0 0 3.5
    endloop
  endfacet
  facet normal 0 1 -0
    outer loop
      vertex 8 47.5 0
      vertex 0 47.5 3.5
      vertex 8 47.5 3.5
    endloop
  endfacet
  facet normal 0 1 0
    outer loop
      vertex -3.5 47.5 0
      vertex 0 47.5 3.5
      vertex 8 47.5 0
    endloop
  endfacet
  facet normal 0 1 0
    outer loop
      vertex 0 47.5 3.5
      vertex -3.5 47.5 0
      vertex -3.5 47.5 2.5
    endloop
  endfacet
  facet normal 0 1 0
    outer loop
      vertex -3.5 47.5 2.5
      vertex 0 47.5 6
      vertex 0 47.5 3.5
    endloop
  endfacet
  facet normal 0 1 0
    outer loop
      vertex 0 47.5 6
      vertex -3.5 47.5 2.5
      vertex -18.5 47.5 6
    endloop
  endfacet
  facet normal 0 1 0
    outer loop
      vertex -18.5 47.5 6
      vertex -3.5 47.5 2.5
      vertex -18.5 47.5 2.5
    endloop
  endfacet
  facet normal 0 -1 0
    outer loop
      vertex -3.5 0 2.5
      vertex 0 0 6
      vertex -18.5 0 6
    endloop
  endfacet
  facet normal 0 -1 0
    outer loop
      vertex -3.5 0 2.5
      vertex -18.5 0 6
      vertex -18.5 0 2.5
    endloop
  endfacet
  facet normal 0 -1 -0
    outer loop
      vertex 0 0 6
      vertex -3.5 0 2.5
      vertex 0 0 3.5
    endloop
  endfacet
  facet normal 0 -1 0
    outer loop
      vertex -3.5 0 0
      vertex 0 0 3.5
      vertex -3.5 0 2.5
    endloop
  endfacet
  facet normal 0 -1 -0
    outer loop
      vertex 0 0 3.5
      vertex -3.5 0 0
      vertex 8 0 0
    endloop
  endfacet
  facet normal 0 -1 0
    outer loop
      vertex 0 0 3.5
      vertex 8 0 0
      vertex 8 0 3.5
    endloop
  endfacet
  facet normal 0 0 1
    outer loop
      vertex -8.37289 34.9808 6
      vertex 0 47.5 6
      vertex -8.30498 35.1898 6
    endloop
  endfacet
  facet normal 0 0 1
    outer loop
      vertex 0 0 6
      vertex -8.2638 12.0943 6
      vertex -8.25 11.875 6
    endloop
  endfacet
  facet normal 0 0 1
    outer loop
      vertex 0 47.5 6
      vertex -8.37289 34.9808 6
      vertex 0 0 6
    endloop
  endfacet
  facet normal 0 0 1
    outer loop
      vertex 0 0 6
      vertex -8.30498 12.3102 6
      vertex -8.2638 12.0943 6
    endloop
  endfacet
  facet normal -0 0 1
    outer loop
      vertex -8.37289 12.5192 6
      vertex 0 0 6
      vertex -8.37289 34.9808 6
    endloop
  endfacet
  facet normal 0 0 1
    outer loop
      vertex 0 0 6
      vertex -8.37289 12.5192 6
      vertex -8.30498 12.3102 6
    endloop
  endfacet
  facet normal -0 0 1
    outer loop
      vertex -8.46646 34.7819 6
      vertex -8.37289 12.5192 6
      vertex -8.37289 34.9808 6
    endloop
  endfacet
  facet normal 0 0 1
    outer loop
      vertex -8.46646 34.7819 6
      vertex -8.46646 12.7181 6
      vertex -8.37289 12.5192 6
    endloop
  endfacet
  facet normal -0 0 1
    outer loop
      vertex -8.58422 34.5964 6
      vertex -8.46646 12.7181 6
      vertex -8.46646 34.7819 6
    endloop
  endfacet
  facet normal 0 0 1
    outer loop
      vertex -8.58422 34.5964 6
      vertex -8.58422 12.9036 6
      vertex -8.46646 12.7181 6
    endloop
  endfacet
  facet normal -0 0 1
    outer loop
      vertex -8.7243 34.427 6
      vertex -8.58422 12.9036 6
      vertex -8.58422 34.5964 6
    endloop
  endfacet
  facet normal 0 0 1
    outer loop
      vertex -8.7243 34.427 6
      vertex -8.7243 13.073 6
      vertex -8.58422 12.9036 6
    endloop
  endfacet
  facet normal -0 0 1
    outer loop
      vertex -8.88451 34.2766 6
      vertex -8.7243 13.073 6
      vertex -8.7243 34.427 6
    endloop
  endfacet
  facet normal 0 0 1
    outer loop
      vertex -8.88451 34.2766 6
      vertex -8.88451 13.2234 6
      vertex -8.7243 13.073 6
    endloop
  endfacet
  facet normal -0 0 1
    outer loop
      vertex -9.0623 34.1474 6
      vertex -8.88451 13.2234 6
      vertex -8.88451 34.2766 6
    endloop
  endfacet
  facet normal 0 0 1
    outer loop
      vertex -9.0623 34.1474 6
      vertex -9.0623 13.3526 6
      vertex -8.88451 13.2234 6
    endloop
  endfacet
  facet normal -0 0 1
    outer loop
      vertex -9.25489 34.0416 6
      vertex -9.0623 13.3526 6
      vertex -9.0623 34.1474 6
    endloop
  endfacet
  facet normal 0 0 1
    outer loop
      vertex -9.25489 34.0416 6
      vertex -9.25489 13.4584 6
      vertex -9.0623 13.3526 6
    endloop
  endfacet
  facet normal -0 0 1
    outer loop
      vertex -9.45922 33.9607 6
      vertex -9.25489 13.4584 6
      vertex -9.25489 34.0416 6
    endloop
  endfacet
  facet normal 0 0 1
    outer loop
      vertex -9.45922 33.9607 6
      vertex -9.45922 13.5393 6
      vertex -9.25489 13.4584 6
    endloop
  endfacet
  facet normal -0 0 1
    outer loop
      vertex -9.67208 33.906 6
      vertex -9.45922 13.5393 6
      vertex -9.45922 33.9607 6
    endloop
  endfacet
  facet normal 0 0 1
    outer loop
      vertex -9.67208 33.906 6
      vertex -9.67208 13.594 6
      vertex -9.45922 13.5393 6
    endloop
  endfacet
  facet normal -0 0 1
    outer loop
      vertex -9.89012 33.8785 6
      vertex -9.67208 13.594 6
      vertex -9.67208 33.906 6
    endloop
  endfacet
  facet normal 0 0 1
    outer loop
      vertex -9.89012 33.8785 6
      vertex -9.89012 13.6215 6
      vertex -9.67208 13.594 6
    endloop
  endfacet
  facet normal -0 0 1
    outer loop
      vertex -10.1099 33.8785 6
      vertex -9.89012 13.6215 6
      vertex -9.89012 33.8785 6
    endloop
  endfacet
  facet normal 0 0 1
    outer loop
      vertex -10.1099 33.8785 6
      vertex -10.1099 13.6215 6
      vertex -9.89012 13.6215 6
    endloop
  endfacet
  facet normal 0 0 1
    outer loop
      vertex -10.3279 33.906 6
      vertex -10.1099 13.6215 6
      vertex -10.1099 33.8785 6
    endloop
  endfacet
  facet normal 0 0 1
    outer loop
      vertex -10.3279 33.906 6
      vertex -10.3279 13.594 6
      vertex -10.1099 13.6215 6
    endloop
  endfacet
  facet normal 0 0 1
    outer loop
      vertex -10.5408 33.9607 6
      vertex -10.3279 13.594 6
      vertex -10.3279 33.906 6
    endloop
  endfacet
  facet normal 0 0 1
    outer loop
      vertex -10.5408 33.9607 6
      vertex -10.5408 13.5393 6
      vertex -10.3279 13.594 6
    endloop
  endfacet
  facet normal 0 0 1
    outer loop
      vertex -10.7451 34.0416 6
      vertex -10.5408 13.5393 6
      vertex -10.5408 33.9607 6
    endloop
  endfacet
  facet normal 0 0 1
    outer loop
      vertex -10.7451 34.0416 6
      vertex -10.7451 13.4584 6
      vertex -10.5408 13.5393 6
    endloop
  endfacet
  facet normal 0 0 1
    outer loop
      vertex -10.9377 34.1474 6
      vertex -10.7451 13.4584 6
      vertex -10.7451 34.0416 6
    endloop
  endfacet
  facet normal 0 0 1
    outer loop
      vertex -10.9377 34.1474 6
      vertex -10.9377 13.3526 6
      vertex -10.7451 13.4584 6
    endloop
  endfacet
  facet normal 0 0 1
    outer loop
      vertex -11.1155 34.2766 6
      vertex -10.9377 13.3526 6
      vertex -10.9377 34.1474 6
    endloop
  endfacet
  facet normal 0 0 1
    outer loop
      vertex -11.1155 34.2766 6
      vertex -11.1155 13.2234 6
      vertex -10.9377 13.3526 6
    endloop
  endfacet
  facet normal 0 0 1
    outer loop
      vertex -11.2757 34.427 6
      vertex -11.1155 13.2234 6
      vertex -11.1155 34.2766 6
    endloop
  endfacet
  facet normal 0 0 1
    outer loop
      vertex -11.2757 34.427 6
      vertex -11.2757 13.073 6
      vertex -11.1155 13.2234 6
    endloop
  endfacet
  facet normal 0 0 1
    outer loop
      vertex -11.4158 34.5964 6
      vertex -11.2757 13.073 6
      vertex -11.2757 34.427 6
    endloop
  endfacet
  facet normal 0 0 1
    outer loop
      vertex -11.4158 34.5964 6
      vertex -11.4158 12.9036 6
      vertex -11.2757 13.073 6
    endloop
  endfacet
  facet normal 0 0 1
    outer loop
      vertex -11.5335 34.7819 6
      vertex -11.4158 12.9036 6
      vertex -11.4158 34.5964 6
    endloop
  endfacet
  facet normal 0 0 1
    outer loop
      vertex -11.5335 34.7819 6
      vertex -11.5335 12.7181 6
      vertex -11.4158 12.9036 6
    endloop
  endfacet
  facet normal 0 0 1
    outer loop
      vertex -11.6271 34.9808 6
      vertex -11.5335 12.7181 6
      vertex -11.5335 34.7819 6
    endloop
  endfacet
  facet normal 0 0 1
    outer loop
      vertex -11.6271 34.9808 6
      vertex -11.6271 12.5192 6
      vertex -11.5335 12.7181 6
    endloop
  endfacet
  facet normal 0 0 1
    outer loop
      vertex -11.695 35.1898 6
      vertex -11.6271 12.5192 6
      vertex -11.6271 34.9808 6
    endloop
  endfacet
  facet normal 0 0 1
    outer loop
      vertex -11.695 35.1898 6
      vertex -11.695 12.3102 6
      vertex -11.6271 12.5192 6
    endloop
  endfacet
  facet normal 0 0 1
    outer loop
      vertex -18.5 47.5 6
      vertex -11.695 35.1898 6
      vertex -11.7362 35.4057 6
    endloop
  endfacet
  facet normal 0 0 1
    outer loop
      vertex -11.695 35.1898 6
      vertex -18.5 47.5 6
      vertex -11.695 12.3102 6
    endloop
  endfacet
  facet normal 0 0 1
    outer loop
      vertex -18.5 47.5 6
      vertex -11.7362 35.4057 6
      vertex -11.75 35.625 6
    endloop
  endfacet
  facet normal 0 0 1
    outer loop
      vertex -18.5 0 6
      vertex -11.695 12.3102 6
      vertex -18.5 47.5 6
    endloop
  endfacet
  facet normal 0 0 1
    outer loop
      vertex -8.2638 35.4057 6
      vertex 0 47.5 6
      vertex -8.25 35.625 6
    endloop
  endfacet
  facet normal 0 0 1
    outer loop
      vertex 0 47.5 6
      vertex -8.2638 35.8443 6
      vertex -8.25 35.625 6
    endloop
  endfacet
  facet normal 0 0 1
    outer loop
      vertex 0 47.5 6
      vertex -8.30498 36.0602 6
      vertex -8.2638 35.8443 6
    endloop
  endfacet
  facet normal 0 0 1
    outer loop
      vertex 0 47.5 6
      vertex -8.37289 36.2692 6
      vertex -8.30498 36.0602 6
    endloop
  endfacet
  facet normal 0 0 1
    outer loop
      vertex 0 47.5 6
      vertex -8.46646 36.4681 6
      vertex -8.37289 36.2692 6
    endloop
  endfacet
  facet normal 0 0 1
    outer loop
      vertex 0 47.5 6
      vertex -8.58422 36.6536 6
      vertex -8.46646 36.4681 6
    endloop
  endfacet
  facet normal 0 0 1
    outer loop
      vertex 0 47.5 6
      vertex -8.7243 36.823 6
      vertex -8.58422 36.6536 6
    endloop
  endfacet
  facet normal 0 0 1
    outer loop
      vertex 0 47.5 6
      vertex -8.88451 36.9734 6
      vertex -8.7243 36.823 6
    endloop
  endfacet
  facet normal 0 0 1
    outer loop
      vertex 0 47.5 6
      vertex -9.0623 37.1026 6
      vertex -8.88451 36.9734 6
    endloop
  endfacet
  facet normal 0 0 1
    outer loop
      vertex 0 47.5 6
      vertex -9.25489 37.2084 6
      vertex -9.0623 37.1026 6
    endloop
  endfacet
  facet normal 0 0 1
    outer loop
      vertex 0 47.5 6
      vertex -9.45922 37.2893 6
      vertex -9.25489 37.2084 6
    endloop
  endfacet
  facet normal 0 0 1
    outer loop
      vertex 0 47.5 6
      vertex -9.67208 37.344 6
      vertex -9.45922 37.2893 6
    endloop
  endfacet
  facet normal 0 0 1
    outer loop
      vertex 0 47.5 6
      vertex -9.89012 37.3715 6
      vertex -9.67208 37.344 6
    endloop
  endfacet
  facet normal -0 0 1
    outer loop
      vertex -18.5 47.5 6
      vertex -9.89012 37.3715 6
      vertex 0 47.5 6
    endloop
  endfacet
  facet normal 0 0 1
    outer loop
      vertex -9.89012 37.3715 6
      vertex -18.5 47.5 6
      vertex -10.1099 37.3715 6
    endloop
  endfacet
  facet normal 0 0 1
    outer loop
      vertex -10.1099 37.3715 6
      vertex -18.5 47.5 6
      vertex -10.3279 37.344 6
    endloop
  endfacet
  facet normal 0 0 1
    outer loop
      vertex -10.3279 37.344 6
      vertex -18.5 47.5 6
      vertex -10.5408 37.2893 6
    endloop
  endfacet
  facet normal 0 0 1
    outer loop
      vertex -10.5408 37.2893 6
      vertex -18.5 47.5 6
      vertex -10.7451 37.2084 6
    endloop
  endfacet
  facet normal 0 0 1
    outer loop
      vertex -10.7451 37.2084 6
      vertex -18.5 47.5 6
      vertex -10.9377 37.1026 6
    endloop
  endfacet
  facet normal 0 0 1
    outer loop
      vertex -10.9377 37.1026 6
      vertex -18.5 47.5 6
      vertex -11.1155 36.9734 6
    endloop
  endfacet
  facet normal 0 0 1
    outer loop
      vertex -11.695 12.3102 6
      vertex -18.5 0 6
      vertex -11.7362 12.0943 6
    endloop
  endfacet
  facet normal 0 0 1
    outer loop
      vertex -11.7362 35.8443 6
      vertex -18.5 47.5 6
      vertex -11.75 35.625 6
    endloop
  endfacet
  facet normal 0 0 1
    outer loop
      vertex -11.695 36.0602 6
      vertex -18.5 47.5 6
      vertex -11.7362 35.8443 6
    endloop
  endfacet
  facet normal 0 0 1
    outer loop
      vertex -11.6271 36.2692 6
      vertex -18.5 47.5 6
      vertex -11.695 36.0602 6
    endloop
  endfacet
  facet normal 0 0 1
    outer loop
      vertex -11.5335 36.4681 6
      vertex -18.5 47.5 6
      vertex -11.6271 36.2692 6
    endloop
  endfacet
  facet normal 0 0 1
    outer loop
      vertex -11.4158 36.6536 6
      vertex -18.5 47.5 6
      vertex -11.5335 36.4681 6
    endloop
  endfacet
  facet normal 0 0 1
    outer loop
      vertex -11.2757 36.823 6
      vertex -18.5 47.5 6
      vertex -11.4158 36.6536 6
    endloop
  endfacet
  facet normal 0 0 1
    outer loop
      vertex -11.1155 36.9734 6
      vertex -18.5 47.5 6
      vertex -11.2757 36.823 6
    endloop
  endfacet
  facet normal 0 0 1
    outer loop
      vertex -8.30498 35.1898 6
      vertex 0 47.5 6
      vertex -8.2638 35.4057 6
    endloop
  endfacet
  facet normal -0 0 1
    outer loop
      vertex -8.2638 11.6557 6
      vertex 0 0 6
      vertex -8.25 11.875 6
    endloop
  endfacet
  facet normal -0 0 1
    outer loop
      vertex -8.30498 11.4398 6
      vertex 0 0 6
      vertex -8.2638 11.6557 6
    endloop
  endfacet
  facet normal -0 0 1
    outer loop
      vertex -8.37289 11.2308 6
      vertex 0 0 6
      vertex -8.30498 11.4398 6
    endloop
  endfacet
  facet normal -0 0 1
    outer loop
      vertex -8.46646 11.0319 6
      vertex 0 0 6
      vertex -8.37289 11.2308 6
    endloop
  endfacet
  facet normal -0 0 1
    outer loop
      vertex -8.58422 10.8464 6
      vertex 0 0 6
      vertex -8.46646 11.0319 6
    endloop
  endfacet
  facet normal -0 0 1
    outer loop
      vertex -8.7243 10.677 6
      vertex 0 0 6
      vertex -8.58422 10.8464 6
    endloop
  endfacet
  facet normal -0 0 1
    outer loop
      vertex -8.88451 10.5266 6
      vertex 0 0 6
      vertex -8.7243 10.677 6
    endloop
  endfacet
  facet normal -0 0 1
    outer loop
      vertex -9.0623 10.3974 6
      vertex 0 0 6
      vertex -8.88451 10.5266 6
    endloop
  endfacet
  facet normal -0 0 1
    outer loop
      vertex -9.25489 10.2916 6
      vertex 0 0 6
      vertex -9.0623 10.3974 6
    endloop
  endfacet
  facet normal -0 0 1
    outer loop
      vertex -9.45922 10.2107 6
      vertex 0 0 6
      vertex -9.25489 10.2916 6
    endloop
  endfacet
  facet normal -0 0 1
    outer loop
      vertex -9.67208 10.156 6
      vertex 0 0 6
      vertex -9.45922 10.2107 6
    endloop
  endfacet
  facet normal -0 0 1
    outer loop
      vertex -9.89012 10.1285 6
      vertex 0 0 6
      vertex -9.67208 10.156 6
    endloop
  endfacet
  facet normal 0 0 1
    outer loop
      vertex -18.5 0 6
      vertex -9.89012 10.1285 6
      vertex -10.1099 10.1285 6
    endloop
  endfacet
  facet normal 0 0 1
    outer loop
      vertex -18.5 0 6
      vertex -10.1099 10.1285 6
      vertex -10.3279 10.156 6
    endloop
  endfacet
  facet normal 0 0 1
    outer loop
      vertex -18.5 0 6
      vertex -10.3279 10.156 6
      vertex -10.5408 10.2107 6
    endloop
  endfacet
  facet normal 0 0 1
    outer loop
      vertex -18.5 0 6
      vertex -10.5408 10.2107 6
      vertex -10.7451 10.2916 6
    endloop
  endfacet
  facet normal 0 0 1
    outer loop
      vertex -18.5 0 6
      vertex -10.7451 10.2916 6
      vertex -10.9377 10.3974 6
    endloop
  endfacet
  facet normal 0 0 1
    outer loop
      vertex -18.5 0 6
      vertex -10.9377 10.3974 6
      vertex -11.1155 10.5266 6
    endloop
  endfacet
  facet normal 0 0 1
    outer loop
      vertex -18.5 0 6
      vertex -11.1155 10.5266 6
      vertex -11.2757 10.677 6
    endloop
  endfacet
  facet normal 0 0 1
    outer loop
      vertex -11.7362 12.0943 6
      vertex -18.5 0 6
      vertex -11.75 11.875 6
    endloop
  endfacet
  facet normal 0 0 1
    outer loop
      vertex -9.89012 10.1285 6
      vertex -18.5 0 6
      vertex 0 0 6
    endloop
  endfacet
  facet normal 0 0 1
    outer loop
      vertex -11.4158 10.8464 6
      vertex -18.5 0 6
      vertex -11.2757 10.677 6
    endloop
  endfacet
  facet normal 0 0 1
    outer loop
      vertex -11.5335 11.0319 6
      vertex -18.5 0 6
      vertex -11.4158 10.8464 6
    endloop
  endfacet
  facet normal 0 0 1
    outer loop
      vertex -11.6271 11.2308 6
      vertex -18.5 0 6
      vertex -11.5335 11.0319 6
    endloop
  endfacet
  facet normal 0 0 1
    outer loop
      vertex -11.695 11.4398 6
      vertex -18.5 0 6
      vertex -11.6271 11.2308 6
    endloop
  endfacet
  facet normal 0 0 1
    outer loop
      vertex -11.7362 11.6557 6
      vertex -18.5 0 6
      vertex -11.695 11.4398 6
    endloop
  endfacet
  facet normal 0 0 1
    outer loop
      vertex -11.75 11.875 6
      vertex -18.5 0 6
      vertex -11.7362 11.6557 6
    endloop
  endfacet
  facet normal -1 0 0
    outer loop
      vertex -3.5 0 0
      vertex -3.5 47.5 2.5
      vertex -3.5 47.5 0
    endloop
  endfacet
  facet normal -1 -0 0
    outer loop
      vertex -3.5 47.5 2.5
      vertex -3.5 0 0
      vertex -3.5 0 2.5
    endloop
  endfacet
  facet normal 0 0 -1
    outer loop
      vertex -6.03154 35.1237 2.5
      vertex -3.5 47.5 2.5
      vertex -6.03154 12.3763 2.5
    endloop
  endfacet
  facet normal 0 0 -1
    outer loop
      vertex -3.5 47.5 2.5
      vertex -6.03154 35.1237 2.5
      vertex -6 35.625 2.5
    endloop
  endfacet
  facet normal 0 0 -1
    outer loop
      vertex -6.12567 12.8698 2.5
      vertex -6.03154 35.1237 2.5
      vertex -6.03154 12.3763 2.5
    endloop
  endfacet
  facet normal 0 0 -1
    outer loop
      vertex -6.12567 12.8698 2.5
      vertex -6.12567 34.6302 2.5
      vertex -6.03154 35.1237 2.5
    endloop
  endfacet
  facet normal 0 0 -1
    outer loop
      vertex -6.28089 13.3475 2.5
      vertex -6.12567 34.6302 2.5
      vertex -6.12567 12.8698 2.5
    endloop
  endfacet
  facet normal 0 0 -1
    outer loop
      vertex -6.28089 13.3475 2.5
      vertex -6.28089 34.1525 2.5
      vertex -6.12567 34.6302 2.5
    endloop
  endfacet
  facet normal 0 0 -1
    outer loop
      vertex -6.49477 13.802 2.5
      vertex -6.28089 34.1525 2.5
      vertex -6.28089 13.3475 2.5
    endloop
  endfacet
  facet normal 0 0 -1
    outer loop
      vertex -6.49477 13.802 2.5
      vertex -6.49477 33.698 2.5
      vertex -6.28089 34.1525 2.5
    endloop
  endfacet
  facet normal 0 0 -1
    outer loop
      vertex -6.76393 14.2261 2.5
      vertex -6.49477 33.698 2.5
      vertex -6.49477 13.802 2.5
    endloop
  endfacet
  facet normal 0 0 -1
    outer loop
      vertex -6.76393 14.2261 2.5
      vertex -6.76393 33.2739 2.5
      vertex -6.49477 33.698 2.5
    endloop
  endfacet
  facet normal 0 0 -1
    outer loop
      vertex -7.08412 14.6132 2.5
      vertex -6.76393 33.2739 2.5
      vertex -6.76393 14.2261 2.5
    endloop
  endfacet
  facet normal 0 0 -1
    outer loop
      vertex -7.08412 14.6132 2.5
      vertex -7.08412 32.8868 2.5
      vertex -6.76393 33.2739 2.5
    endloop
  endfacet
  facet normal 0 0 -1
    outer loop
      vertex -7.4503 14.9571 2.5
      vertex -7.08412 32.8868 2.5
      vertex -7.08412 14.6132 2.5
    endloop
  endfacet
  facet normal 0 0 -1
    outer loop
      vertex -7.4503 14.9571 2.5
      vertex -7.4503 32.5429 2.5
      vertex -7.08412 32.8868 2.5
    endloop
  endfacet
  facet normal 0 0 -1
    outer loop
      vertex -7.85669 15.2523 2.5
      vertex -7.4503 32.5429 2.5
      vertex -7.4503 14.9571 2.5
    endloop
  endfacet
  facet normal 0 0 -1
    outer loop
      vertex -7.85669 15.2523 2.5
      vertex -7.85669 32.2477 2.5
      vertex -7.4503 32.5429 2.5
    endloop
  endfacet
  facet normal 0 0 -1
    outer loop
      vertex -8.29688 15.4943 2.5
      vertex -7.85669 32.2477 2.5
      vertex -7.85669 15.2523 2.5
    endloop
  endfacet
  facet normal 0 0 -1
    outer loop
      vertex -8.29688 15.4943 2.5
      vertex -8.29688 32.0057 2.5
      vertex -7.85669 32.2477 2.5
    endloop
  endfacet
  facet normal 0 0 -1
    outer loop
      vertex -8.76393 15.6792 2.5
      vertex -8.29688 32.0057 2.5
      vertex -8.29688 15.4943 2.5
    endloop
  endfacet
  facet normal 0 0 -1
    outer loop
      vertex -8.76393 15.6792 2.5
      vertex -8.76393 31.8208 2.5
      vertex -8.29688 32.0057 2.5
    endloop
  endfacet
  facet normal 0 0 -1
    outer loop
      vertex -9.25047 15.8041 2.5
      vertex -8.76393 31.8208 2.5
      vertex -8.76393 15.6792 2.5
    endloop
  endfacet
  facet normal 0 0 -1
    outer loop
      vertex -9.25047 15.8041 2.5
      vertex -9.25047 31.6959 2.5
      vertex -8.76393 31.8208 2.5
    endloop
  endfacet
  facet normal 0 0 -1
    outer loop
      vertex -9.74884 15.8671 2.5
      vertex -9.25047 31.6959 2.5
      vertex -9.25047 15.8041 2.5
    endloop
  endfacet
  facet normal 0 0 -1
    outer loop
      vertex -9.74884 15.8671 2.5
      vertex -9.74884 31.6329 2.5
      vertex -9.25047 31.6959 2.5
    endloop
  endfacet
  facet normal 0 0 -1
    outer loop
      vertex -10.2512 15.8671 2.5
      vertex -9.74884 31.6329 2.5
      vertex -9.74884 15.8671 2.5
    endloop
  endfacet
  facet normal 0 0 -1
    outer loop
      vertex -10.2512 15.8671 2.5
      vertex -10.2512 31.6329 2.5
      vertex -9.74884 31.6329 2.5
    endloop
  endfacet
  facet normal 0 0 -1
    outer loop
      vertex -10.7495 15.8041 2.5
      vertex -10.2512 31.6329 2.5
      vertex -10.2512 15.8671 2.5
    endloop
  endfacet
  facet normal 0 0 -1
    outer loop
      vertex -10.7495 15.8041 2.5
      vertex -10.7495 31.6959 2.5
      vertex -10.2512 31.6329 2.5
    endloop
  endfacet
  facet normal 0 0 -1
    outer loop
      vertex -11.2361 15.6792 2.5
      vertex -10.7495 31.6959 2.5
      vertex -10.7495 15.8041 2.5
    endloop
  endfacet
  facet normal 0 0 -1
    outer loop
      vertex -11.2361 15.6792 2.5
      vertex -11.2361 31.8208 2.5
      vertex -10.7495 31.6959 2.5
    endloop
  endfacet
  facet normal 0 0 -1
    outer loop
      vertex -11.7031 15.4943 2.5
      vertex -11.2361 31.8208 2.5
      vertex -11.2361 15.6792 2.5
    endloop
  endfacet
  facet normal 0 0 -1
    outer loop
      vertex -11.7031 15.4943 2.5
      vertex -11.7031 32.0057 2.5
      vertex -11.2361 31.8208 2.5
    endloop
  endfacet
  facet normal 0 0 -1
    outer loop
      vertex -12.1433 15.2523 2.5
      vertex -11.7031 32.0057 2.5
      vertex -11.7031 15.4943 2.5
    endloop
  endfacet
  facet normal 0 0 -1
    outer loop
      vertex -12.1433 15.2523 2.5
      vertex -12.1433 32.2477 2.5
      vertex -11.7031 32.0057 2.5
    endloop
  endfacet
  facet normal 0 0 -1
    outer loop
      vertex -12.5497 14.9571 2.5
      vertex -12.1433 32.2477 2.5
      vertex -12.1433 15.2523 2.5
    endloop
  endfacet
  facet normal 0 0 -1
    outer loop
      vertex -12.5497 14.9571 2.5
      vertex -12.5497 32.5429 2.5
      vertex -12.1433 32.2477 2.5
    endloop
  endfacet
  facet normal 0 0 -1
    outer loop
      vertex -12.9159 14.6132 2.5
      vertex -12.5497 32.5429 2.5
      vertex -12.5497 14.9571 2.5
    endloop
  endfacet
  facet normal 0 0 -1
    outer loop
      vertex -12.9159 14.6132 2.5
      vertex -12.9159 32.8868 2.5
      vertex -12.5497 32.5429 2.5
    endloop
  endfacet
  facet normal 0 0 -1
    outer loop
      vertex -13.2361 14.2261 2.5
      vertex -12.9159 32.8868 2.5
      vertex -12.9159 14.6132 2.5
    endloop
  endfacet
  facet normal 0 0 -1
    outer loop
      vertex -13.2361 14.2261 2.5
      vertex -13.2361 33.2739 2.5
      vertex -12.9159 32.8868 2.5
    endloop
  endfacet
  facet normal 0 0 -1
    outer loop
      vertex -13.5052 13.802 2.5
      vertex -13.2361 33.2739 2.5
      vertex -13.2361 14.2261 2.5
    endloop
  endfacet
  facet normal 0 0 -1
    outer loop
      vertex -13.5052 13.802 2.5
      vertex -13.5052 33.698 2.5
      vertex -13.2361 33.2739 2.5
    endloop
  endfacet
  facet normal 0 0 -1
    outer loop
      vertex -13.7191 13.3475 2.5
      vertex -13.5052 33.698 2.5
      vertex -13.5052 13.802 2.5
    endloop
  endfacet
  facet normal 0 0 -1
    outer loop
      vertex -13.7191 13.3475 2.5
      vertex -13.7191 34.1525 2.5
      vertex -13.5052 33.698 2.5
    endloop
  endfacet
  facet normal 0 0 -1
    outer loop
      vertex -13.8743 12.8698 2.5
      vertex -13.7191 34.1525 2.5
      vertex -13.7191 13.3475 2.5
    endloop
  endfacet
  facet normal 0 0 -1
    outer loop
      vertex -13.8743 12.8698 2.5
      vertex -13.8743 34.6302 2.5
      vertex -13.7191 34.1525 2.5
    endloop
  endfacet
  facet normal 0 0 -1
    outer loop
      vertex -18.5 0 2.5
      vertex -13.8743 12.8698 2.5
      vertex -13.9685 12.3763 2.5
    endloop
  endfacet
  facet normal -0 0 -1
    outer loop
      vertex -13.8743 12.8698 2.5
      vertex -18.5 0 2.5
      vertex -13.8743 34.6302 2.5
    endloop
  endfacet
  facet normal 0 0 -1
    outer loop
      vertex -18.5 0 2.5
      vertex -13.9685 12.3763 2.5
      vertex -14 11.875 2.5
    endloop
  endfacet
  facet normal 0 0 -1
    outer loop
      vertex -18.5 47.5 2.5
      vertex -13.8743 34.6302 2.5
      vertex -18.5 0 2.5
    endloop
  endfacet
  facet normal 0 0 -1
    outer loop
      vertex -6.03154 12.3763 2.5
      vertex -3.5 0 2.5
      vertex -6 11.875 2.5
    endloop
  endfacet
  facet normal 0 0 -1
    outer loop
      vertex -3.5 0 2.5
      vertex -6.03154 11.3737 2.5
      vertex -6 11.875 2.5
    endloop
  endfacet
  facet normal 0 0 -1
    outer loop
      vertex -3.5 0 2.5
      vertex -6.12567 10.8802 2.5
      vertex -6.03154 11.3737 2.5
    endloop
  endfacet
  facet normal 0 0 -1
    outer loop
      vertex -3.5 0 2.5
      vertex -6.28089 10.4025 2.5
      vertex -6.12567 10.8802 2.5
    endloop
  endfacet
  facet normal 0 0 -1
    outer loop
      vertex -3.5 0 2.5
      vertex -6.49477 9.94798 2.5
      vertex -6.28089 10.4025 2.5
    endloop
  endfacet
  facet normal 0 0 -1
    outer loop
      vertex -3.5 0 2.5
      vertex -6.76393 9.52386 2.5
      vertex -6.49477 9.94798 2.5
    endloop
  endfacet
  facet normal 0 0 -1
    outer loop
      vertex -3.5 0 2.5
      vertex -7.08412 9.13681 2.5
      vertex -6.76393 9.52386 2.5
    endloop
  endfacet
  facet normal 0 0 -1
    outer loop
      vertex -3.5 0 2.5
      vertex -7.4503 8.79295 2.5
      vertex -7.08412 9.13681 2.5
    endloop
  endfacet
  facet normal 0 0 -1
    outer loop
      vertex -3.5 0 2.5
      vertex -7.85669 8.49769 2.5
      vertex -7.4503 8.79295 2.5
    endloop
  endfacet
  facet normal 0 0 -1
    outer loop
      vertex -3.5 0 2.5
      vertex -8.29688 8.25569 2.5
      vertex -7.85669 8.49769 2.5
    endloop
  endfacet
  facet normal 0 0 -1
    outer loop
      vertex -3.5 0 2.5
      vertex -8.76393 8.07077 2.5
      vertex -8.29688 8.25569 2.5
    endloop
  endfacet
  facet normal 0 0 -1
    outer loop
      vertex -3.5 0 2.5
      vertex -9.25047 7.94585 2.5
      vertex -8.76393 8.07077 2.5
    endloop
  endfacet
  facet normal 0 0 -1
    outer loop
      vertex -3.5 0 2.5
      vertex -9.74884 7.88289 2.5
      vertex -9.25047 7.94585 2.5
    endloop
  endfacet
  facet normal 0 0 -1
    outer loop
      vertex -3.5 0 2.5
      vertex -10.2512 7.88289 2.5
      vertex -9.74884 7.88289 2.5
    endloop
  endfacet
  facet normal 0 0 -1
    outer loop
      vertex -18.5 0 2.5
      vertex -10.2512 7.88289 2.5
      vertex -3.5 0 2.5
    endloop
  endfacet
  facet normal -0 0 -1
    outer loop
      vertex -10.2512 7.88289 2.5
      vertex -18.5 0 2.5
      vertex -10.7495 7.94585 2.5
    endloop
  endfacet
  facet normal -0 0 -1
    outer loop
      vertex -10.7495 7.94585 2.5
      vertex -18.5 0 2.5
      vertex -11.2361 8.07077 2.5
    endloop
  endfacet
  facet normal -0 0 -1
    outer loop
      vertex -11.2361 8.07077 2.5
      vertex -18.5 0 2.5
      vertex -11.7031 8.25569 2.5
    endloop
  endfacet
  facet normal -0 0 -1
    outer loop
      vertex -11.7031 8.25569 2.5
      vertex -18.5 0 2.5
      vertex -12.1433 8.49769 2.5
    endloop
  endfacet
  facet normal -0 0 -1
    outer loop
      vertex -12.1433 8.49769 2.5
      vertex -18.5 0 2.5
      vertex -12.5497 8.79295 2.5
    endloop
  endfacet
  facet normal 0 0 -1
    outer loop
      vertex -13.8743 34.6302 2.5
      vertex -18.5 47.5 2.5
      vertex -13.9685 35.1237 2.5
    endloop
  endfacet
  facet normal -0 0 -1
    outer loop
      vertex -13.9685 11.3737 2.5
      vertex -18.5 0 2.5
      vertex -14 11.875 2.5
    endloop
  endfacet
  facet normal -0 0 -1
    outer loop
      vertex -13.8743 10.8802 2.5
      vertex -18.5 0 2.5
      vertex -13.9685 11.3737 2.5
    endloop
  endfacet
  facet normal -0 0 -1
    outer loop
      vertex -13.7191 10.4025 2.5
      vertex -18.5 0 2.5
      vertex -13.8743 10.8802 2.5
    endloop
  endfacet
  facet normal -0 0 -1
    outer loop
      vertex -13.5052 9.94798 2.5
      vertex -18.5 0 2.5
      vertex -13.7191 10.4025 2.5
    endloop
  endfacet
  facet normal -0 0 -1
    outer loop
      vertex -13.2361 9.52386 2.5
      vertex -18.5 0 2.5
      vertex -13.5052 9.94798 2.5
    endloop
  endfacet
  facet normal -0 0 -1
    outer loop
      vertex -12.9159 9.13681 2.5
      vertex -18.5 0 2.5
      vertex -13.2361 9.52386 2.5
    endloop
  endfacet
  facet normal -0 0 -1
    outer loop
      vertex -12.5497 8.79295 2.5
      vertex -18.5 0 2.5
      vertex -12.9159 9.13681 2.5
    endloop
  endfacet
  facet normal 0 0 -1
    outer loop
      vertex -3.5 0 2.5
      vertex -6.03154 12.3763 2.5
      vertex -3.5 47.5 2.5
    endloop
  endfacet
  facet normal 0 0 -1
    outer loop
      vertex -6.03154 36.1263 2.5
      vertex -3.5 47.5 2.5
      vertex -6 35.625 2.5
    endloop
  endfacet
  facet normal 0 0 -1
    outer loop
      vertex -6.12567 36.6198 2.5
      vertex -3.5 47.5 2.5
      vertex -6.03154 36.1263 2.5
    endloop
  endfacet
  facet normal 0 0 -1
    outer loop
      vertex -6.28089 37.0975 2.5
      vertex -3.5 47.5 2.5
      vertex -6.12567 36.6198 2.5
    endloop
  endfacet
  facet normal 0 0 -1
    outer loop
      vertex -6.49477 37.552 2.5
      vertex -3.5 47.5 2.5
      vertex -6.28089 37.0975 2.5
    endloop
  endfacet
  facet normal 0 0 -1
    outer loop
      vertex -6.76393 37.9761 2.5
      vertex -3.5 47.5 2.5
      vertex -6.49477 37.552 2.5
    endloop
  endfacet
  facet normal 0 0 -1
    outer loop
      vertex -7.08412 38.3632 2.5
      vertex -3.5 47.5 2.5
      vertex -6.76393 37.9761 2.5
    endloop
  endfacet
  facet normal 0 0 -1
    outer loop
      vertex -7.4503 38.7071 2.5
      vertex -3.5 47.5 2.5
      vertex -7.08412 38.3632 2.5
    endloop
  endfacet
  facet normal 0 0 -1
    outer loop
      vertex -7.85669 39.0023 2.5
      vertex -3.5 47.5 2.5
      vertex -7.4503 38.7071 2.5
    endloop
  endfacet
  facet normal 0 0 -1
    outer loop
      vertex -8.29688 39.2443 2.5
      vertex -3.5 47.5 2.5
      vertex -7.85669 39.0023 2.5
    endloop
  endfacet
  facet normal 0 0 -1
    outer loop
      vertex -8.76393 39.4292 2.5
      vertex -3.5 47.5 2.5
      vertex -8.29688 39.2443 2.5
    endloop
  endfacet
  facet normal 0 0 -1
    outer loop
      vertex -9.25047 39.5541 2.5
      vertex -3.5 47.5 2.5
      vertex -8.76393 39.4292 2.5
    endloop
  endfacet
  facet normal 0 0 -1
    outer loop
      vertex -9.74884 39.6171 2.5
      vertex -3.5 47.5 2.5
      vertex -9.25047 39.5541 2.5
    endloop
  endfacet
  facet normal 0 0 -1
    outer loop
      vertex -10.2512 39.6171 2.5
      vertex -3.5 47.5 2.5
      vertex -9.74884 39.6171 2.5
    endloop
  endfacet
  facet normal 0 0 -1
    outer loop
      vertex -18.5 47.5 2.5
      vertex -10.2512 39.6171 2.5
      vertex -10.7495 39.5541 2.5
    endloop
  endfacet
  facet normal 0 0 -1
    outer loop
      vertex -18.5 47.5 2.5
      vertex -10.7495 39.5541 2.5
      vertex -11.2361 39.4292 2.5
    endloop
  endfacet
  facet normal 0 0 -1
    outer loop
      vertex -18.5 47.5 2.5
      vertex -11.2361 39.4292 2.5
      vertex -11.7031 39.2443 2.5
    endloop
  endfacet
  facet normal 0 0 -1
    outer loop
      vertex -18.5 47.5 2.5
      vertex -11.7031 39.2443 2.5
      vertex -12.1433 39.0023 2.5
    endloop
  endfacet
  facet normal 0 0 -1
    outer loop
      vertex -18.5 47.5 2.5
      vertex -12.1433 39.0023 2.5
      vertex -12.5497 38.7071 2.5
    endloop
  endfacet
  facet normal 0 0 -1
    outer loop
      vertex -18.5 47.5 2.5
      vertex -12.5497 38.7071 2.5
      vertex -12.9159 38.3632 2.5
    endloop
  endfacet
  facet normal 0 0 -1
    outer loop
      vertex -13.9685 35.1237 2.5
      vertex -18.5 47.5 2.5
      vertex -14 35.625 2.5
    endloop
  endfacet
  facet normal 0 0 -1
    outer loop
      vertex -10.2512 39.6171 2.5
      vertex -18.5 47.5 2.5
      vertex -3.5 47.5 2.5
    endloop
  endfacet
  facet normal 0 0 -1
    outer loop
      vertex -13.2361 37.9761 2.5
      vertex -18.5 47.5 2.5
      vertex -12.9159 38.3632 2.5
    endloop
  endfacet
  facet normal 0 0 -1
    outer loop
      vertex -13.5052 37.552 2.5
      vertex -18.5 47.5 2.5
      vertex -13.2361 37.9761 2.5
    endloop
  endfacet
  facet normal 0 0 -1
    outer loop
      vertex -13.7191 37.0975 2.5
      vertex -18.5 47.5 2.5
      vertex -13.5052 37.552 2.5
    endloop
  endfacet
  facet normal 0 0 -1
    outer loop
      vertex -13.8743 36.6198 2.5
      vertex -18.5 47.5 2.5
      vertex -13.7191 37.0975 2.5
    endloop
  endfacet
  facet normal 0 0 -1
    outer loop
      vertex -13.9685 36.1263 2.5
      vertex -18.5 47.5 2.5
      vertex -13.8743 36.6198 2.5
    endloop
  endfacet
  facet normal 0 0 -1
    outer loop
      vertex -14 35.625 2.5
      vertex -18.5 47.5 2.5
      vertex -13.9685 36.1263 2.5
    endloop
  endfacet
  facet normal -1 0 0
    outer loop
      vertex -18.5 0 2.5
      vertex -18.5 47.5 6
      vertex -18.5 47.5 2.5
    endloop
  endfacet
  facet normal -1 -0 0
    outer loop
      vertex -18.5 47.5 6
      vertex -18.5 0 2.5
      vertex -18.5 0 6
    endloop
  endfacet
  facet normal -0.7616 0.358285 -0.539998
    outer loop
      vertex -8.37289 11.2308 6
      vertex -6.49477 9.94798 2.5
      vertex -8.46646 11.0319 6
    endloop
  endfacet
  facet normal -0.494653 -0.680969 -0.539999
    outer loop
      vertex -7.85669 15.2523 2.5
      vertex -7.4503 14.9571 2.5
      vertex -9.0623 13.3526 6
    endloop
  endfacet
  facet normal -0.576066 0.613641 -0.539993
    outer loop
      vertex -8.7243 10.677 6
      vertex -7.08412 9.13681 2.5
      vertex -8.88451 10.5266 6
    endloop
  endfacet
  facet normal -0.40548 0.737555 -0.539998
    outer loop
      vertex -7.85669 8.49769 2.5
      vertex -8.29688 8.25569 2.5
      vertex -9.0623 10.3974 6
    endloop
  endfacet
  facet normal -0.840002 -0.0528593 -0.540002
    outer loop
      vertex -6 11.875 2.5
      vertex -8.25 11.875 6
      vertex -8.2638 12.0943 6
    endloop
  endfacet
  facet normal -0.840003 -0.05285 -0.540002
    outer loop
      vertex -6.03154 12.3763 2.5
      vertex -6 11.875 2.5
      vertex -8.2638 12.0943 6
    endloop
  endfacet
  facet normal 0.761547 0.358389 -0.540003
    outer loop
      vertex -11.6271 11.2308 6
      vertex -13.5052 9.94798 2.5
      vertex -13.7191 10.4025 2.5
    endloop
  endfacet
  facet normal -0.576153 0.613551 -0.540002
    outer loop
      vertex -7.08412 9.13681 2.5
      vertex -7.4503 8.79295 2.5
      vertex -8.88451 10.5266 6
    endloop
  endfacet
  facet normal -0.576187 -0.613516 -0.540007
    outer loop
      vertex -7.4503 14.9571 2.5
      vertex -7.08412 14.6132 2.5
      vertex -8.88451 13.2234 6
    endloop
  endfacet
  facet normal 0.576084 0.613621 -0.539996
    outer loop
      vertex -11.2757 10.677 6
      vertex -11.1155 10.5266 6
      vertex -12.9159 9.13681 2.5
    endloop
  endfacet
  facet normal 0.105339 -0.835054 -0.53999
    outer loop
      vertex -10.1099 13.6215 6
      vertex -10.3279 13.594 6
      vertex -10.7495 15.8041 2.5
    endloop
  endfacet
  facet normal 0.309867 0.782542 -0.54001
    outer loop
      vertex -10.5408 10.2107 6
      vertex -11.2361 8.07077 2.5
      vertex -11.7031 8.25569 2.5
    endloop
  endfacet
  facet normal 0.648545 -0.536461 -0.54
    outer loop
      vertex -12.9159 14.6132 2.5
      vertex -11.2757 13.073 6
      vertex -13.2361 14.2261 2.5
    endloop
  endfacet
  facet normal -0.800466 -0.260097 -0.540004
    outer loop
      vertex -6.28089 13.3475 2.5
      vertex -6.12567 12.8698 2.5
      vertex -8.37289 12.5192 6
    endloop
  endfacet
  facet normal 0.839998 -0.0528589 -0.540009
    outer loop
      vertex -11.7362 12.0943 6
      vertex -11.75 11.875 6
      vertex -13.9685 12.3763 2.5
    endloop
  endfacet
  facet normal 0.826735 -0.157808 -0.540006
    outer loop
      vertex -13.8743 12.8698 2.5
      vertex -11.7362 12.0943 6
      vertex -13.9685 12.3763 2.5
    endloop
  endfacet
  facet normal 0.800476 0.260067 -0.540003
    outer loop
      vertex -11.6271 11.2308 6
      vertex -13.7191 10.4025 2.5
      vertex -13.8743 10.8802 2.5
    endloop
  endfacet
  facet normal 0.405474 0.73756 -0.539997
    outer loop
      vertex -10.9377 10.3974 6
      vertex -11.7031 8.25569 2.5
      vertex -12.1433 8.49769 2.5
    endloop
  endfacet
  facet normal 0.57617 -0.613532 -0.540007
    outer loop
      vertex -12.5497 14.9571 2.5
      vertex -11.1155 13.2234 6
      vertex -12.9159 14.6132 2.5
    endloop
  endfacet
  facet normal -0.826759 -0.157693 -0.540003
    outer loop
      vertex -6.12567 12.8698 2.5
      vertex -8.2638 12.0943 6
      vertex -8.30498 12.3102 6
    endloop
  endfacet
  facet normal -0.494719 0.680922 -0.539998
    outer loop
      vertex -7.4503 8.79295 2.5
      vertex -7.85669 8.49769 2.5
      vertex -9.0623 10.3974 6
    endloop
  endfacet
  facet normal 0.800476 -0.260067 -0.540003
    outer loop
      vertex -13.7191 13.3475 2.5
      vertex -11.6271 12.5192 6
      vertex -13.8743 12.8698 2.5
    endloop
  endfacet
  facet normal 0.405474 -0.737561 -0.539995
    outer loop
      vertex -11.7031 15.4943 2.5
      vertex -10.9377 13.3526 6
      vertex -12.1433 15.2523 2.5
    endloop
  endfacet
  facet normal -0.826758 -0.157696 -0.540003
    outer loop
      vertex -6.12567 12.8698 2.5
      vertex -6.03154 12.3763 2.5
      vertex -8.2638 12.0943 6
    endloop
  endfacet
  facet normal -0.405243 0.737672 -0.540017
    outer loop
      vertex -9.0623 10.3974 6
      vertex -8.29688 8.25569 2.5
      vertex -9.25489 10.2916 6
    endloop
  endfacet
  facet normal -0.826758 0.157696 -0.540003
    outer loop
      vertex -6.03154 11.3737 2.5
      vertex -6.12567 10.8802 2.5
      vertex -8.2638 11.6557 6
    endloop
  endfacet
  facet normal -0.10532 0.835051 -0.539998
    outer loop
      vertex -9.67208 10.156 6
      vertex -9.25047 7.94585 2.5
      vertex -9.89012 10.1285 6
    endloop
  endfacet
  facet normal -0.209308 0.815217 -0.540011
    outer loop
      vertex -8.76393 8.07077 2.5
      vertex -9.25047 7.94585 2.5
      vertex -9.45922 10.2107 6
    endloop
  endfacet
  facet normal 0.710681 0.45092 -0.540003
    outer loop
      vertex -11.5335 11.0319 6
      vertex -13.2361 9.52386 2.5
      vertex -13.5052 9.94798 2.5
    endloop
  endfacet
  facet normal -0.840003 0.05285 -0.540002
    outer loop
      vertex -6 11.875 2.5
      vertex -6.03154 11.3737 2.5
      vertex -8.2638 11.6557 6
    endloop
  endfacet
  facet normal 0.105339 0.835048 -0.539998
    outer loop
      vertex -10.3279 10.156 6
      vertex -10.1099 10.1285 6
      vertex -10.7495 7.94585 2.5
    endloop
  endfacet
  facet normal 0.64851 0.536502 -0.54
    outer loop
      vertex -11.2757 10.677 6
      vertex -12.9159 9.13681 2.5
      vertex -13.2361 9.52386 2.5
    endloop
  endfacet
  facet normal -0.800466 0.260097 -0.540004
    outer loop
      vertex -6.12567 10.8802 2.5
      vertex -6.28089 10.4025 2.5
      vertex -8.37289 11.2308 6
    endloop
  endfacet
  facet normal 0.576084 -0.613621 -0.539997
    outer loop
      vertex -11.1155 13.2234 6
      vertex -11.2757 13.073 6
      vertex -12.9159 14.6132 2.5
    endloop
  endfacet
  facet normal -0.309835 0.782554 -0.54001
    outer loop
      vertex -9.25489 10.2916 6
      vertex -8.29688 8.25569 2.5
      vertex -9.45922 10.2107 6
    endloop
  endfacet
  facet normal 0.494646 -0.680975 -0.539998
    outer loop
      vertex -12.1433 15.2523 2.5
      vertex -10.9377 13.3526 6
      vertex -12.5497 14.9571 2.5
    endloop
  endfacet
  facet normal -0.648624 -0.536359 -0.540005
    outer loop
      vertex -6.76393 14.2261 2.5
      vertex -8.58422 12.9036 6
      vertex -8.7243 13.073 6
    endloop
  endfacet
  facet normal -0.405243 -0.737673 -0.540016
    outer loop
      vertex -8.29688 15.4943 2.5
      vertex -9.0623 13.3526 6
      vertex -9.25489 13.4584 6
    endloop
  endfacet
  facet normal -0.209278 -0.815229 -0.540005
    outer loop
      vertex -9.25047 15.8041 2.5
      vertex -8.76393 15.6792 2.5
      vertex -9.45922 13.5393 6
    endloop
  endfacet
  facet normal -0.309838 0.782553 -0.54001
    outer loop
      vertex -8.29688 8.25569 2.5
      vertex -8.76393 8.07077 2.5
      vertex -9.45922 10.2107 6
    endloop
  endfacet
  facet normal 0.840006 -0.0527831 -0.540004
    outer loop
      vertex -13.9685 12.3763 2.5
      vertex -11.75 11.875 6
      vertex -14 11.875 2.5
    endloop
  endfacet
  facet normal -0.840002 0.0528593 -0.540002
    outer loop
      vertex -8.25 11.875 6
      vertex -6 11.875 2.5
      vertex -8.2638 11.6557 6
    endloop
  endfacet
  facet normal -0.76156 0.358361 -0.540004
    outer loop
      vertex -6.28089 10.4025 2.5
      vertex -6.49477 9.94798 2.5
      vertex -8.37289 11.2308 6
    endloop
  endfacet
  facet normal 0 -0.841659 -0.540009
    outer loop
      vertex -10.2512 15.8671 2.5
      vertex -9.89012 13.6215 6
      vertex -10.1099 13.6215 6
    endloop
  endfacet
  facet normal 0 -0.841659 -0.540009
    outer loop
      vertex -9.89012 13.6215 6
      vertex -10.2512 15.8671 2.5
      vertex -9.74884 15.8671 2.5
    endloop
  endfacet
  facet normal -0.800467 0.260094 -0.540004
    outer loop
      vertex -8.30498 11.4398 6
      vertex -6.12567 10.8802 2.5
      vertex -8.37289 11.2308 6
    endloop
  endfacet
  facet normal 0.105571 -0.835014 -0.540007
    outer loop
      vertex -10.2512 15.8671 2.5
      vertex -10.1099 13.6215 6
      vertex -10.7495 15.8041 2.5
    endloop
  endfacet
  facet normal 0.710673 -0.450936 -0.540001
    outer loop
      vertex -13.2361 14.2261 2.5
      vertex -11.5335 12.7181 6
      vertex -13.5052 13.802 2.5
    endloop
  endfacet
  facet normal 0.800478 0.26006 -0.540003
    outer loop
      vertex -11.695 11.4398 6
      vertex -11.6271 11.2308 6
      vertex -13.8743 10.8802 2.5
    endloop
  endfacet
  facet normal -0.494784 -0.680864 -0.540011
    outer loop
      vertex -7.4503 14.9571 2.5
      vertex -8.88451 13.2234 6
      vertex -9.0623 13.3526 6
    endloop
  endfacet
  facet normal 0.826735 0.157808 -0.540006
    outer loop
      vertex -11.7362 11.6557 6
      vertex -13.8743 10.8802 2.5
      vertex -13.9685 11.3737 2.5
    endloop
  endfacet
  facet normal 0.309875 -0.782539 -0.540009
    outer loop
      vertex -10.5408 13.5393 6
      vertex -10.7451 13.4584 6
      vertex -11.7031 15.4943 2.5
    endloop
  endfacet
  facet normal 0.710677 0.450926 -0.540004
    outer loop
      vertex -11.5335 11.0319 6
      vertex -11.4158 10.8464 6
      vertex -13.2361 9.52386 2.5
    endloop
  endfacet
  facet normal 0.309874 0.782538 -0.540011
    outer loop
      vertex -10.7451 10.2916 6
      vertex -10.5408 10.2107 6
      vertex -11.7031 8.25569 2.5
    endloop
  endfacet
  facet normal -0.64852 0.536493 -0.539997
    outer loop
      vertex -6.76393 9.52386 2.5
      vertex -7.08412 9.13681 2.5
      vertex -8.7243 10.677 6
    endloop
  endfacet
  facet normal -0.648622 0.536357 -0.54001
    outer loop
      vertex -8.58422 10.8464 6
      vertex -6.76393 9.52386 2.5
      vertex -8.7243 10.677 6
    endloop
  endfacet
  facet normal 0.105504 0.83502 -0.54001
    outer loop
      vertex -10.1099 10.1285 6
      vertex -10.2512 7.88289 2.5
      vertex -10.7495 7.94585 2.5
    endloop
  endfacet
  facet normal 0.209254 -0.815235 -0.540004
    outer loop
      vertex -10.7495 15.8041 2.5
      vertex -10.5408 13.5393 6
      vertex -11.2361 15.6792 2.5
    endloop
  endfacet
  facet normal -0.405481 -0.737556 -0.539996
    outer loop
      vertex -8.29688 15.4943 2.5
      vertex -7.85669 15.2523 2.5
      vertex -9.0623 13.3526 6
    endloop
  endfacet
  facet normal -0.826759 0.157693 -0.540003
    outer loop
      vertex -8.2638 11.6557 6
      vertex -6.12567 10.8802 2.5
      vertex -8.30498 11.4398 6
    endloop
  endfacet
  facet normal 0.405227 -0.737682 -0.540015
    outer loop
      vertex -10.7451 13.4584 6
      vertex -10.9377 13.3526 6
      vertex -11.7031 15.4943 2.5
    endloop
  endfacet
  facet normal -0.761554 -0.358374 -0.540003
    outer loop
      vertex -6.49477 13.802 2.5
      vertex -6.28089 13.3475 2.5
      vertex -8.37289 12.5192 6
    endloop
  endfacet
  facet normal -0.800467 -0.260094 -0.540004
    outer loop
      vertex -6.12567 12.8698 2.5
      vertex -8.30498 12.3102 6
      vertex -8.37289 12.5192 6
    endloop
  endfacet
  facet normal -0.494787 0.680868 -0.540004
    outer loop
      vertex -8.88451 10.5266 6
      vertex -7.4503 8.79295 2.5
      vertex -9.0623 10.3974 6
    endloop
  endfacet
  facet normal 0.209284 0.815223 -0.54001
    outer loop
      vertex -10.5408 10.2107 6
      vertex -10.7495 7.94585 2.5
      vertex -11.2361 8.07077 2.5
    endloop
  endfacet
  facet normal 0.494712 0.680928 -0.539997
    outer loop
      vertex -10.9377 10.3974 6
      vertex -12.1433 8.49769 2.5
      vertex -12.5497 8.79295 2.5
    endloop
  endfacet
  facet normal 0.494767 -0.680879 -0.54001
    outer loop
      vertex -10.9377 13.3526 6
      vertex -11.1155 13.2234 6
      vertex -12.5497 14.9571 2.5
    endloop
  endfacet
  facet normal 0.648584 0.536403 -0.540009
    outer loop
      vertex -11.4158 10.8464 6
      vertex -11.2757 10.677 6
      vertex -13.2361 9.52386 2.5
    endloop
  endfacet
  facet normal -0.30981 -0.782567 -0.540006
    outer loop
      vertex -8.76393 15.6792 2.5
      vertex -8.29688 15.4943 2.5
      vertex -9.45922 13.5393 6
    endloop
  endfacet
  facet normal -0.209484 -0.815186 -0.539989
    outer loop
      vertex -9.25047 15.8041 2.5
      vertex -9.45922 13.5393 6
      vertex -9.67208 13.594 6
    endloop
  endfacet
  facet normal -0.576066 -0.61364 -0.539994
    outer loop
      vertex -7.08412 14.6132 2.5
      vertex -8.7243 13.073 6
      vertex -8.88451 13.2234 6
    endloop
  endfacet
  facet normal -0.648554 -0.536452 -0.539997
    outer loop
      vertex -7.08412 14.6132 2.5
      vertex -6.76393 14.2261 2.5
      vertex -8.7243 13.073 6
    endloop
  endfacet
  facet normal 0.648587 -0.536405 -0.540005
    outer loop
      vertex -11.2757 13.073 6
      vertex -11.4158 12.9036 6
      vertex -13.2361 14.2261 2.5
    endloop
  endfacet
  facet normal 0.209447 -0.815195 -0.53999
    outer loop
      vertex -10.3279 13.594 6
      vertex -10.5408 13.5393 6
      vertex -10.7495 15.8041 2.5
    endloop
  endfacet
  facet normal 0.405227 0.737681 -0.540017
    outer loop
      vertex -10.9377 10.3974 6
      vertex -10.7451 10.2916 6
      vertex -11.7031 8.25569 2.5
    endloop
  endfacet
  facet normal 0.761553 0.358378 -0.540002
    outer loop
      vertex -11.6271 11.2308 6
      vertex -11.5335 11.0319 6
      vertex -13.5052 9.94798 2.5
    endloop
  endfacet
  facet normal -0.710571 0.451088 -0.540008
    outer loop
      vertex -8.46646 11.0319 6
      vertex -6.76393 9.52386 2.5
      vertex -8.58422 10.8464 6
    endloop
  endfacet
  facet normal -0.710638 0.450993 -0.539999
    outer loop
      vertex -6.49477 9.94798 2.5
      vertex -6.76393 9.52386 2.5
      vertex -8.46646 11.0319 6
    endloop
  endfacet
  facet normal 0.839998 0.0528589 -0.540009
    outer loop
      vertex -11.75 11.875 6
      vertex -11.7362 11.6557 6
      vertex -13.9685 11.3737 2.5
    endloop
  endfacet
  facet normal 0 0.841658 -0.54001
    outer loop
      vertex -9.74884 7.88289 2.5
      vertex -10.1099 10.1285 6
      vertex -9.89012 10.1285 6
    endloop
  endfacet
  facet normal 0 0.841658 -0.54001
    outer loop
      vertex -10.1099 10.1285 6
      vertex -9.74884 7.88289 2.5
      vertex -10.2512 7.88289 2.5
    endloop
  endfacet
  facet normal -0.710573 -0.451089 -0.540004
    outer loop
      vertex -6.76393 14.2261 2.5
      vertex -8.46646 12.7181 6
      vertex -8.58422 12.9036 6
    endloop
  endfacet
  facet normal 0.309838 -0.782556 -0.540006
    outer loop
      vertex -11.2361 15.6792 2.5
      vertex -10.5408 13.5393 6
      vertex -11.7031 15.4943 2.5
    endloop
  endfacet
  facet normal 0.761541 -0.358402 -0.540003
    outer loop
      vertex -13.5052 13.802 2.5
      vertex -11.6271 12.5192 6
      vertex -13.7191 13.3475 2.5
    endloop
  endfacet
  facet normal -0.209482 0.815181 -0.539998
    outer loop
      vertex -9.45922 10.2107 6
      vertex -9.25047 7.94585 2.5
      vertex -9.67208 10.156 6
    endloop
  endfacet
  facet normal 0.800478 -0.26006 -0.540003
    outer loop
      vertex -11.6271 12.5192 6
      vertex -11.695 12.3102 6
      vertex -13.8743 12.8698 2.5
    endloop
  endfacet
  facet normal 0.826744 -0.157767 -0.540003
    outer loop
      vertex -11.695 12.3102 6
      vertex -11.7362 12.0943 6
      vertex -13.8743 12.8698 2.5
    endloop
  endfacet
  facet normal 0.761554 -0.358378 -0.540001
    outer loop
      vertex -11.5335 12.7181 6
      vertex -11.6271 12.5192 6
      vertex -13.5052 13.802 2.5
    endloop
  endfacet
  facet normal 0.710679 -0.450927 -0.54
    outer loop
      vertex -11.4158 12.9036 6
      vertex -11.5335 12.7181 6
      vertex -13.2361 14.2261 2.5
    endloop
  endfacet
  facet normal -0.10549 0.835021 -0.54001
    outer loop
      vertex -9.25047 7.94585 2.5
      vertex -9.74884 7.88289 2.5
      vertex -9.89012 10.1285 6
    endloop
  endfacet
  facet normal 0.840006 0.0527831 -0.540004
    outer loop
      vertex -11.75 11.875 6
      vertex -13.9685 11.3737 2.5
      vertex -14 11.875 2.5
    endloop
  endfacet
  facet normal -0.10532 -0.835056 -0.539989
    outer loop
      vertex -9.25047 15.8041 2.5
      vertex -9.67208 13.594 6
      vertex -9.89012 13.6215 6
    endloop
  endfacet
  facet normal 0.209445 0.81519 -0.539998
    outer loop
      vertex -10.5408 10.2107 6
      vertex -10.3279 10.156 6
      vertex -10.7495 7.94585 2.5
    endloop
  endfacet
  facet normal 0.826744 0.157767 -0.540003
    outer loop
      vertex -11.7362 11.6557 6
      vertex -11.695 11.4398 6
      vertex -13.8743 10.8802 2.5
    endloop
  endfacet
  facet normal -0.105556 -0.835015 -0.540007
    outer loop
      vertex -9.74884 15.8671 2.5
      vertex -9.25047 15.8041 2.5
      vertex -9.89012 13.6215 6
    endloop
  endfacet
  facet normal -0.309836 -0.782555 -0.540009
    outer loop
      vertex -8.29688 15.4943 2.5
      vertex -9.25489 13.4584 6
      vertex -9.45922 13.5393 6
    endloop
  endfacet
  facet normal -0.761601 -0.358285 -0.539996
    outer loop
      vertex -6.49477 13.802 2.5
      vertex -8.37289 12.5192 6
      vertex -8.46646 12.7181 6
    endloop
  endfacet
  facet normal -0.710629 -0.451009 -0.539997
    outer loop
      vertex -6.76393 14.2261 2.5
      vertex -6.49477 13.802 2.5
      vertex -8.46646 12.7181 6
    endloop
  endfacet
  facet normal 0.576137 0.613567 -0.540002
    outer loop
      vertex -11.1155 10.5266 6
      vertex -12.5497 8.79295 2.5
      vertex -12.9159 9.13681 2.5
    endloop
  endfacet
  facet normal 0.494769 0.680882 -0.540003
    outer loop
      vertex -11.1155 10.5266 6
      vertex -10.9377 10.3974 6
      vertex -12.5497 8.79295 2.5
    endloop
  endfacet
  facet normal 0.494646 -0.680975 -0.539998
    outer loop
      vertex -12.1433 39.0023 2.5
      vertex -10.9377 37.1026 6
      vertex -12.5497 38.7071 2.5
    endloop
  endfacet
  facet normal -0.840002 -0.0528593 -0.540002
    outer loop
      vertex -6 35.625 2.5
      vertex -8.25 35.625 6
      vertex -8.2638 35.8443 6
    endloop
  endfacet
  facet normal -0.840003 -0.05285 -0.540002
    outer loop
      vertex -6.03154 36.1263 2.5
      vertex -6 35.625 2.5
      vertex -8.2638 35.8443 6
    endloop
  endfacet
  facet normal 0.209447 0.815195 -0.53999
    outer loop
      vertex -10.5408 33.9607 6
      vertex -10.3279 33.906 6
      vertex -10.7495 31.6959 2.5
    endloop
  endfacet
  facet normal -0.494653 0.680969 -0.539999
    outer loop
      vertex -7.4503 32.5429 2.5
      vertex -7.85669 32.2477 2.5
      vertex -9.0623 34.1474 6
    endloop
  endfacet
  facet normal -0.309836 0.782555 -0.540009
    outer loop
      vertex -9.25489 34.0416 6
      vertex -8.29688 32.0057 2.5
      vertex -9.45922 33.9607 6
    endloop
  endfacet
  facet normal -0.800467 -0.260094 -0.540004
    outer loop
      vertex -6.12567 36.6198 2.5
      vertex -8.30498 36.0602 6
      vertex -8.37289 36.2692 6
    endloop
  endfacet
  facet normal -0.826758 0.157696 -0.540003
    outer loop
      vertex -6.03154 35.1237 2.5
      vertex -6.12567 34.6302 2.5
      vertex -8.2638 35.4057 6
    endloop
  endfacet
  facet normal -0.761554 0.358374 -0.540003
    outer loop
      vertex -6.28089 34.1525 2.5
      vertex -6.49477 33.698 2.5
      vertex -8.37289 34.9808 6
    endloop
  endfacet
  facet normal -0.710629 0.451009 -0.539997
    outer loop
      vertex -6.49477 33.698 2.5
      vertex -6.76393 33.2739 2.5
      vertex -8.46646 34.7819 6
    endloop
  endfacet
  facet normal 0.761541 -0.358402 -0.540003
    outer loop
      vertex -13.5052 37.552 2.5
      vertex -11.6271 36.2692 6
      vertex -13.7191 37.0975 2.5
    endloop
  endfacet
  facet normal -0.826759 -0.157693 -0.540003
    outer loop
      vertex -6.12567 36.6198 2.5
      vertex -8.2638 35.8443 6
      vertex -8.30498 36.0602 6
    endloop
  endfacet
  facet normal 0.57617 0.613532 -0.540007
    outer loop
      vertex -11.1155 34.2766 6
      vertex -12.5497 32.5429 2.5
      vertex -12.9159 32.8868 2.5
    endloop
  endfacet
  facet normal 0.761541 0.358402 -0.540003
    outer loop
      vertex -11.6271 34.9808 6
      vertex -13.5052 33.698 2.5
      vertex -13.7191 34.1525 2.5
    endloop
  endfacet
  facet normal 0.105571 0.835014 -0.540007
    outer loop
      vertex -10.1099 33.8785 6
      vertex -10.2512 31.6329 2.5
      vertex -10.7495 31.6959 2.5
    endloop
  endfacet
  facet normal 0.309838 0.782556 -0.540006
    outer loop
      vertex -10.5408 33.9607 6
      vertex -11.2361 31.8208 2.5
      vertex -11.7031 32.0057 2.5
    endloop
  endfacet
  facet normal 0.800476 -0.260067 -0.540003
    outer loop
      vertex -13.7191 37.0975 2.5
      vertex -11.6271 36.2692 6
      vertex -13.8743 36.6198 2.5
    endloop
  endfacet
  facet normal -0.800467 0.260094 -0.540004
    outer loop
      vertex -8.30498 35.1898 6
      vertex -6.12567 34.6302 2.5
      vertex -8.37289 34.9808 6
    endloop
  endfacet
  facet normal -0.209278 -0.815229 -0.540005
    outer loop
      vertex -9.25047 39.5541 2.5
      vertex -8.76393 39.4292 2.5
      vertex -9.45922 37.2893 6
    endloop
  endfacet
  facet normal -0.10532 -0.835056 -0.539989
    outer loop
      vertex -9.25047 39.5541 2.5
      vertex -9.67208 37.344 6
      vertex -9.89012 37.3715 6
    endloop
  endfacet
  facet normal -0.800466 0.260097 -0.540004
    outer loop
      vertex -6.12567 34.6302 2.5
      vertex -6.28089 34.1525 2.5
      vertex -8.37289 34.9808 6
    endloop
  endfacet
  facet normal 0.405474 0.737561 -0.539995
    outer loop
      vertex -10.9377 34.1474 6
      vertex -11.7031 32.0057 2.5
      vertex -12.1433 32.2477 2.5
    endloop
  endfacet
  facet normal 0.105571 -0.835014 -0.540007
    outer loop
      vertex -10.2512 39.6171 2.5
      vertex -10.1099 37.3715 6
      vertex -10.7495 39.5541 2.5
    endloop
  endfacet
  facet normal 0.648587 -0.536405 -0.540005
    outer loop
      vertex -11.2757 36.823 6
      vertex -11.4158 36.6536 6
      vertex -13.2361 37.9761 2.5
    endloop
  endfacet
  facet normal -0.576187 -0.613516 -0.540007
    outer loop
      vertex -7.4503 38.7071 2.5
      vertex -7.08412 38.3632 2.5
      vertex -8.88451 36.9734 6
    endloop
  endfacet
  facet normal -0.710573 0.451089 -0.540004
    outer loop
      vertex -8.46646 34.7819 6
      vertex -6.76393 33.2739 2.5
      vertex -8.58422 34.5964 6
    endloop
  endfacet
  facet normal -0.494653 -0.680969 -0.539999
    outer loop
      vertex -7.85669 39.0023 2.5
      vertex -7.4503 38.7071 2.5
      vertex -9.0623 37.1026 6
    endloop
  endfacet
  facet normal -0.10532 0.835056 -0.539989
    outer loop
      vertex -9.67208 33.906 6
      vertex -9.25047 31.6959 2.5
      vertex -9.89012 33.8785 6
    endloop
  endfacet
  facet normal -0.576066 0.61364 -0.539994
    outer loop
      vertex -8.7243 34.427 6
      vertex -7.08412 32.8868 2.5
      vertex -8.88451 34.2766 6
    endloop
  endfacet
  facet normal -0.648624 0.536359 -0.540005
    outer loop
      vertex -8.58422 34.5964 6
      vertex -6.76393 33.2739 2.5
      vertex -8.7243 34.427 6
    endloop
  endfacet
  facet normal -0.494784 -0.680864 -0.540011
    outer loop
      vertex -7.4503 38.7071 2.5
      vertex -8.88451 36.9734 6
      vertex -9.0623 37.1026 6
    endloop
  endfacet
  facet normal 0.209254 -0.815235 -0.540004
    outer loop
      vertex -10.7495 39.5541 2.5
      vertex -10.5408 37.2893 6
      vertex -11.2361 39.4292 2.5
    endloop
  endfacet
  facet normal -0.800466 -0.260097 -0.540004
    outer loop
      vertex -6.28089 37.0975 2.5
      vertex -6.12567 36.6198 2.5
      vertex -8.37289 36.2692 6
    endloop
  endfacet
  facet normal -0.761601 -0.358285 -0.539996
    outer loop
      vertex -6.49477 37.552 2.5
      vertex -8.37289 36.2692 6
      vertex -8.46646 36.4681 6
    endloop
  endfacet
  facet normal 0.800476 0.260067 -0.540003
    outer loop
      vertex -11.6271 34.9808 6
      vertex -13.7191 34.1525 2.5
      vertex -13.8743 34.6302 2.5
    endloop
  endfacet
  facet normal -0.405481 0.737556 -0.539996
    outer loop
      vertex -7.85669 32.2477 2.5
      vertex -8.29688 32.0057 2.5
      vertex -9.0623 34.1474 6
    endloop
  endfacet
  facet normal 0.839998 0.0528589 -0.540009
    outer loop
      vertex -11.75 35.625 6
      vertex -11.7362 35.4057 6
      vertex -13.9685 35.1237 2.5
    endloop
  endfacet
  facet normal 0.800478 -0.26006 -0.540003
    outer loop
      vertex -11.6271 36.2692 6
      vertex -11.695 36.0602 6
      vertex -13.8743 36.6198 2.5
    endloop
  endfacet
  facet normal 0.840006 -0.0527831 -0.540004
    outer loop
      vertex -13.9685 36.1263 2.5
      vertex -11.75 35.625 6
      vertex -14 35.625 2.5
    endloop
  endfacet
  facet normal 0.209254 0.815235 -0.540004
    outer loop
      vertex -10.5408 33.9607 6
      vertex -10.7495 31.6959 2.5
      vertex -11.2361 31.8208 2.5
    endloop
  endfacet
  facet normal -0.405243 0.737673 -0.540016
    outer loop
      vertex -9.0623 34.1474 6
      vertex -8.29688 32.0057 2.5
      vertex -9.25489 34.0416 6
    endloop
  endfacet
  facet normal 0.648545 0.536461 -0.54
    outer loop
      vertex -11.2757 34.427 6
      vertex -12.9159 32.8868 2.5
      vertex -13.2361 33.2739 2.5
    endloop
  endfacet
  facet normal 0.494646 0.680975 -0.539998
    outer loop
      vertex -10.9377 34.1474 6
      vertex -12.1433 32.2477 2.5
      vertex -12.5497 32.5429 2.5
    endloop
  endfacet
  facet normal 0.710673 -0.450936 -0.540001
    outer loop
      vertex -13.2361 37.9761 2.5
      vertex -11.5335 36.4681 6
      vertex -13.5052 37.552 2.5
    endloop
  endfacet
  facet normal -0.30981 0.782567 -0.540006
    outer loop
      vertex -8.29688 32.0057 2.5
      vertex -8.76393 31.8208 2.5
      vertex -9.45922 33.9607 6
    endloop
  endfacet
  facet normal -0.209278 0.815229 -0.540005
    outer loop
      vertex -8.76393 31.8208 2.5
      vertex -9.25047 31.6959 2.5
      vertex -9.45922 33.9607 6
    endloop
  endfacet
  facet normal -0.710573 -0.451089 -0.540004
    outer loop
      vertex -6.76393 37.9761 2.5
      vertex -8.46646 36.4681 6
      vertex -8.58422 36.6536 6
    endloop
  endfacet
  facet normal -0.648554 0.536452 -0.539997
    outer loop
      vertex -6.76393 33.2739 2.5
      vertex -7.08412 32.8868 2.5
      vertex -8.7243 34.427 6
    endloop
  endfacet
  facet normal -0.761554 -0.358374 -0.540003
    outer loop
      vertex -6.49477 37.552 2.5
      vertex -6.28089 37.0975 2.5
      vertex -8.37289 36.2692 6
    endloop
  endfacet
  facet normal -0.826758 -0.157696 -0.540003
    outer loop
      vertex -6.12567 36.6198 2.5
      vertex -6.03154 36.1263 2.5
      vertex -8.2638 35.8443 6
    endloop
  endfacet
  facet normal -0.840003 0.05285 -0.540002
    outer loop
      vertex -6 35.625 2.5
      vertex -6.03154 35.1237 2.5
      vertex -8.2638 35.4057 6
    endloop
  endfacet
  facet normal -0.840002 0.0528593 -0.540002
    outer loop
      vertex -8.25 35.625 6
      vertex -6 35.625 2.5
      vertex -8.2638 35.4057 6
    endloop
  endfacet
  facet normal 0.710673 0.450936 -0.540001
    outer loop
      vertex -11.5335 34.7819 6
      vertex -13.2361 33.2739 2.5
      vertex -13.5052 33.698 2.5
    endloop
  endfacet
  facet normal 0.826744 -0.157767 -0.540003
    outer loop
      vertex -11.695 36.0602 6
      vertex -11.7362 35.8443 6
      vertex -13.8743 36.6198 2.5
    endloop
  endfacet
  facet normal -0.405481 -0.737556 -0.539996
    outer loop
      vertex -8.29688 39.2443 2.5
      vertex -7.85669 39.0023 2.5
      vertex -9.0623 37.1026 6
    endloop
  endfacet
  facet normal -0.648554 -0.536452 -0.539997
    outer loop
      vertex -7.08412 38.3632 2.5
      vertex -6.76393 37.9761 2.5
      vertex -8.7243 36.823 6
    endloop
  endfacet
  facet normal 0.309875 -0.782539 -0.540009
    outer loop
      vertex -10.5408 37.2893 6
      vertex -10.7451 37.2084 6
      vertex -11.7031 39.2443 2.5
    endloop
  endfacet
  facet normal -0.105556 0.835015 -0.540007
    outer loop
      vertex -9.25047 31.6959 2.5
      vertex -9.74884 31.6329 2.5
      vertex -9.89012 33.8785 6
    endloop
  endfacet
  facet normal 0 -0.841659 -0.540009
    outer loop
      vertex -10.2512 39.6171 2.5
      vertex -9.89012 37.3715 6
      vertex -10.1099 37.3715 6
    endloop
  endfacet
  facet normal 0 -0.841659 -0.540009
    outer loop
      vertex -9.89012 37.3715 6
      vertex -10.2512 39.6171 2.5
      vertex -9.74884 39.6171 2.5
    endloop
  endfacet
  facet normal 0 0.841659 -0.540009
    outer loop
      vertex -9.74884 31.6329 2.5
      vertex -10.1099 33.8785 6
      vertex -9.89012 33.8785 6
    endloop
  endfacet
  facet normal 0 0.841659 -0.540009
    outer loop
      vertex -10.1099 33.8785 6
      vertex -9.74884 31.6329 2.5
      vertex -10.2512 31.6329 2.5
    endloop
  endfacet
  facet normal 0.648587 0.536405 -0.540005
    outer loop
      vertex -11.4158 34.5964 6
      vertex -11.2757 34.427 6
      vertex -13.2361 33.2739 2.5
    endloop
  endfacet
  facet normal -0.494784 0.680864 -0.540011
    outer loop
      vertex -8.88451 34.2766 6
      vertex -7.4503 32.5429 2.5
      vertex -9.0623 34.1474 6
    endloop
  endfacet
  facet normal -0.761601 0.358285 -0.539996
    outer loop
      vertex -8.37289 34.9808 6
      vertex -6.49477 33.698 2.5
      vertex -8.46646 34.7819 6
    endloop
  endfacet
  facet normal 0.309838 -0.782556 -0.540006
    outer loop
      vertex -11.2361 39.4292 2.5
      vertex -10.5408 37.2893 6
      vertex -11.7031 39.2443 2.5
    endloop
  endfacet
  facet normal 0.57617 -0.613532 -0.540007
    outer loop
      vertex -12.5497 38.7071 2.5
      vertex -11.1155 36.9734 6
      vertex -12.9159 38.3632 2.5
    endloop
  endfacet
  facet normal 0.494767 -0.680879 -0.54001
    outer loop
      vertex -10.9377 37.1026 6
      vertex -11.1155 36.9734 6
      vertex -12.5497 38.7071 2.5
    endloop
  endfacet
  facet normal 0.710679 -0.450927 -0.54
    outer loop
      vertex -11.4158 36.6536 6
      vertex -11.5335 36.4681 6
      vertex -13.2361 37.9761 2.5
    endloop
  endfacet
  facet normal 0.839998 -0.0528589 -0.540009
    outer loop
      vertex -11.7362 35.8443 6
      vertex -11.75 35.625 6
      vertex -13.9685 36.1263 2.5
    endloop
  endfacet
  facet normal -0.30981 -0.782567 -0.540006
    outer loop
      vertex -8.76393 39.4292 2.5
      vertex -8.29688 39.2443 2.5
      vertex -9.45922 37.2893 6
    endloop
  endfacet
  facet normal -0.826759 0.157693 -0.540003
    outer loop
      vertex -8.2638 35.4057 6
      vertex -6.12567 34.6302 2.5
      vertex -8.30498 35.1898 6
    endloop
  endfacet
  facet normal 0.826735 -0.157808 -0.540006
    outer loop
      vertex -13.8743 36.6198 2.5
      vertex -11.7362 35.8443 6
      vertex -13.9685 36.1263 2.5
    endloop
  endfacet
  facet normal 0.761554 0.358378 -0.540001
    outer loop
      vertex -11.6271 34.9808 6
      vertex -11.5335 34.7819 6
      vertex -13.5052 33.698 2.5
    endloop
  endfacet
  facet normal 0.576084 -0.613621 -0.539997
    outer loop
      vertex -11.1155 36.9734 6
      vertex -11.2757 36.823 6
      vertex -12.9159 38.3632 2.5
    endloop
  endfacet
  facet normal 0.648545 -0.536461 -0.54
    outer loop
      vertex -12.9159 38.3632 2.5
      vertex -11.2757 36.823 6
      vertex -13.2361 37.9761 2.5
    endloop
  endfacet
  facet normal -0.209484 0.815186 -0.539989
    outer loop
      vertex -9.45922 33.9607 6
      vertex -9.25047 31.6959 2.5
      vertex -9.67208 33.906 6
    endloop
  endfacet
  facet normal -0.209484 -0.815186 -0.539989
    outer loop
      vertex -9.25047 39.5541 2.5
      vertex -9.45922 37.2893 6
      vertex -9.67208 37.344 6
    endloop
  endfacet
  facet normal -0.710629 -0.451009 -0.539997
    outer loop
      vertex -6.76393 37.9761 2.5
      vertex -6.49477 37.552 2.5
      vertex -8.46646 36.4681 6
    endloop
  endfacet
  facet normal 0.105339 0.835054 -0.53999
    outer loop
      vertex -10.3279 33.906 6
      vertex -10.1099 33.8785 6
      vertex -10.7495 31.6959 2.5
    endloop
  endfacet
  facet normal 0.761554 -0.358378 -0.540001
    outer loop
      vertex -11.5335 36.4681 6
      vertex -11.6271 36.2692 6
      vertex -13.5052 37.552 2.5
    endloop
  endfacet
  facet normal 0.840006 0.0527831 -0.540004
    outer loop
      vertex -11.75 35.625 6
      vertex -13.9685 35.1237 2.5
      vertex -14 35.625 2.5
    endloop
  endfacet
  facet normal 0.405227 -0.737682 -0.540015
    outer loop
      vertex -10.7451 37.2084 6
      vertex -10.9377 37.1026 6
      vertex -11.7031 39.2443 2.5
    endloop
  endfacet
  facet normal 0.405474 -0.737561 -0.539995
    outer loop
      vertex -11.7031 39.2443 2.5
      vertex -10.9377 37.1026 6
      vertex -12.1433 39.0023 2.5
    endloop
  endfacet
  facet normal 0.826735 0.157808 -0.540006
    outer loop
      vertex -11.7362 35.4057 6
      vertex -13.8743 34.6302 2.5
      vertex -13.9685 35.1237 2.5
    endloop
  endfacet
  facet normal 0.405227 0.737682 -0.540015
    outer loop
      vertex -10.9377 34.1474 6
      vertex -10.7451 34.0416 6
      vertex -11.7031 32.0057 2.5
    endloop
  endfacet
  facet normal 0.309875 0.782539 -0.540009
    outer loop
      vertex -10.7451 34.0416 6
      vertex -10.5408 33.9607 6
      vertex -11.7031 32.0057 2.5
    endloop
  endfacet
  facet normal 0.710679 0.450927 -0.54
    outer loop
      vertex -11.5335 34.7819 6
      vertex -11.4158 34.5964 6
      vertex -13.2361 33.2739 2.5
    endloop
  endfacet
  facet normal -0.576187 0.613516 -0.540007
    outer loop
      vertex -7.08412 32.8868 2.5
      vertex -7.4503 32.5429 2.5
      vertex -8.88451 34.2766 6
    endloop
  endfacet
  facet normal 0.826744 0.157767 -0.540003
    outer loop
      vertex -11.7362 35.4057 6
      vertex -11.695 35.1898 6
      vertex -13.8743 34.6302 2.5
    endloop
  endfacet
  facet normal -0.105556 -0.835015 -0.540007
    outer loop
      vertex -9.74884 39.6171 2.5
      vertex -9.25047 39.5541 2.5
      vertex -9.89012 37.3715 6
    endloop
  endfacet
  facet normal -0.648624 -0.536359 -0.540005
    outer loop
      vertex -6.76393 37.9761 2.5
      vertex -8.58422 36.6536 6
      vertex -8.7243 36.823 6
    endloop
  endfacet
  facet normal -0.576066 -0.61364 -0.539994
    outer loop
      vertex -7.08412 38.3632 2.5
      vertex -8.7243 36.823 6
      vertex -8.88451 36.9734 6
    endloop
  endfacet
  facet normal 0.105339 -0.835054 -0.53999
    outer loop
      vertex -10.1099 37.3715 6
      vertex -10.3279 37.344 6
      vertex -10.7495 39.5541 2.5
    endloop
  endfacet
  facet normal -0.405243 -0.737673 -0.540016
    outer loop
      vertex -8.29688 39.2443 2.5
      vertex -9.0623 37.1026 6
      vertex -9.25489 37.2084 6
    endloop
  endfacet
  facet normal -0.309836 -0.782555 -0.540009
    outer loop
      vertex -8.29688 39.2443 2.5
      vertex -9.25489 37.2084 6
      vertex -9.45922 37.2893 6
    endloop
  endfacet
  facet normal 0.209447 -0.815195 -0.53999
    outer loop
      vertex -10.3279 37.344 6
      vertex -10.5408 37.2893 6
      vertex -10.7495 39.5541 2.5
    endloop
  endfacet
  facet normal 0.576084 0.613621 -0.539997
    outer loop
      vertex -11.2757 34.427 6
      vertex -11.1155 34.2766 6
      vertex -12.9159 32.8868 2.5
    endloop
  endfacet
  facet normal 0.494767 0.680879 -0.54001
    outer loop
      vertex -11.1155 34.2766 6
      vertex -10.9377 34.1474 6
      vertex -12.5497 32.5429 2.5
    endloop
  endfacet
  facet normal 0.800478 0.26006 -0.540003
    outer loop
      vertex -11.695 35.1898 6
      vertex -11.6271 34.9808 6
      vertex -13.8743 34.6302 2.5
    endloop
  endfacet
endsolid OpenSCAD_Model
