solid OpenSCAD_Model
  facet normal -0.904832 0.425769 0
    outer loop
      vertex -3.81208 1.50931 0
      vertex -3.59286 1.97519 40
      vertex -3.59286 1.97519 0
    endloop
  endfacet
  facet normal -0.904832 0.425769 0
    outer loop
      vertex -3.59286 1.97519 40
      vertex -3.81208 1.50931 0
      vertex -3.81208 1.50931 40
    endloop
  endfacet
  facet normal 0.982287 0.187382 0
    outer loop
      vertex 4.06767 0.513865 40
      vertex 3.97119 1.01963 0
      vertex 3.97119 1.01963 40
    endloop
  endfacet
  facet normal 0.982287 0.187382 0
    outer loop
      vertex 3.97119 1.01963 0
      vertex 4.06767 0.513865 40
      vertex 4.06767 0.513865 0
    endloop
  endfacet
  facet normal -0.982287 -0.187382 0
    outer loop
      vertex -3.97119 -1.01963 0
      vertex -4.06767 -0.513865 40
      vertex -4.06767 -0.513865 0
    endloop
  endfacet
  facet normal -0.982287 -0.187382 0
    outer loop
      vertex -4.06767 -0.513865 40
      vertex -3.97119 -1.01963 0
      vertex -3.97119 -1.01963 40
    endloop
  endfacet
  facet normal 0.904832 0.425769 0
    outer loop
      vertex 3.81208 1.50931 40
      vertex 3.59286 1.97519 0
      vertex 3.59286 1.97519 40
    endloop
  endfacet
  facet normal 0.904832 0.425769 0
    outer loop
      vertex 3.59286 1.97519 0
      vertex 3.81208 1.50931 40
      vertex 3.81208 1.50931 0
    endloop
  endfacet
  facet normal 0.248697 0.968581 -0
    outer loop
      vertex 1.26697 3.89933 0
      vertex 0.768263 4.02738 40
      vertex 1.26697 3.89933 40
    endloop
  endfacet
  facet normal 0.248697 0.968581 0
    outer loop
      vertex 0.768263 4.02738 40
      vertex 1.26697 3.89933 0
      vertex 0.768263 4.02738 0
    endloop
  endfacet
  facet normal -0.12533 0.992115 0
    outer loop
      vertex -0.257441 4.09191 0
      vertex -0.768263 4.02738 40
      vertex -0.257441 4.09191 40
    endloop
  endfacet
  facet normal -0.12533 0.992115 0
    outer loop
      vertex -0.768263 4.02738 40
      vertex -0.257441 4.09191 0
      vertex -0.768263 4.02738 0
    endloop
  endfacet
  facet normal 0.844326 0.535829 0
    outer loop
      vertex 3.59286 1.97519 40
      vertex 3.31697 2.40992 0
      vertex 3.31697 2.40992 40
    endloop
  endfacet
  facet normal 0.844326 0.535829 0
    outer loop
      vertex 3.31697 2.40992 0
      vertex 3.59286 1.97519 40
      vertex 3.59286 1.97519 0
    endloop
  endfacet
  facet normal 0.951055 0.309023 0
    outer loop
      vertex 3.97119 1.01963 40
      vertex 3.81208 1.50931 0
      vertex 3.81208 1.50931 40
    endloop
  endfacet
  facet normal 0.951055 0.309023 0
    outer loop
      vertex 3.81208 1.50931 0
      vertex 3.97119 1.01963 40
      vertex 3.97119 1.01963 0
    endloop
  endfacet
  facet normal 0 0 1
    outer loop
      vertex 3.1 0 40
      vertex 4.1 0 40
      vertex 4.06767 0.513865 40
    endloop
  endfacet
  facet normal 0 0 1
    outer loop
      vertex 3.07555 0.388533 40
      vertex 4.06767 0.513865 40
      vertex 3.97119 1.01963 40
    endloop
  endfacet
  facet normal 0 0 1
    outer loop
      vertex 4.1 0 40
      vertex 3.1 0 40
      vertex 4.06767 -0.513865 40
    endloop
  endfacet
  facet normal 0 0 1
    outer loop
      vertex 3.00261 0.770938 40
      vertex 3.97119 1.01963 40
      vertex 3.81208 1.50931 40
    endloop
  endfacet
  facet normal -0 0 1
    outer loop
      vertex 3.07555 -0.388533 40
      vertex 4.06767 -0.513865 40
      vertex 3.1 0 40
    endloop
  endfacet
  facet normal 0 0 1
    outer loop
      vertex 2.88231 1.14119 40
      vertex 3.81208 1.50931 40
      vertex 3.59286 1.97519 40
    endloop
  endfacet
  facet normal 0 0 1
    outer loop
      vertex 4.06767 -0.513865 40
      vertex 3.07555 -0.388533 40
      vertex 3.97119 -1.01963 40
    endloop
  endfacet
  facet normal 0 0 1
    outer loop
      vertex 2.71655 1.49344 40
      vertex 3.59286 1.97519 40
      vertex 3.31697 2.40992 40
    endloop
  endfacet
  facet normal -0 0 1
    outer loop
      vertex 3.00261 -0.770938 40
      vertex 3.97119 -1.01963 40
      vertex 3.07555 -0.388533 40
    endloop
  endfacet
  facet normal 0 0 1
    outer loop
      vertex 3.97119 -1.01963 40
      vertex 3.00261 -0.770938 40
      vertex 3.81208 -1.50931 40
    endloop
  endfacet
  facet normal 0 0 1
    outer loop
      vertex 4.06767 0.513865 40
      vertex 3.07555 0.388533 40
      vertex 3.1 0 40
    endloop
  endfacet
  facet normal 0 0 1
    outer loop
      vertex 3.97119 1.01963 40
      vertex 3.00261 0.770938 40
      vertex 3.07555 0.388533 40
    endloop
  endfacet
  facet normal 0 0 1
    outer loop
      vertex 2.50795 1.82213 40
      vertex 3.31697 2.40992 40
      vertex 2.98877 2.80664 40
    endloop
  endfacet
  facet normal 0 0 1
    outer loop
      vertex 3.81208 1.50931 40
      vertex 2.88231 1.14119 40
      vertex 3.00261 0.770938 40
    endloop
  endfacet
  facet normal 0 0 1
    outer loop
      vertex 3.59286 1.97519 40
      vertex 2.71655 1.49344 40
      vertex 2.88231 1.14119 40
    endloop
  endfacet
  facet normal 0 0 1
    outer loop
      vertex 2.2598 2.1221 40
      vertex 2.98877 2.80664 40
      vertex 2.61344 3.1591 40
    endloop
  endfacet
  facet normal 0 0 1
    outer loop
      vertex 3.31697 2.40992 40
      vertex 2.50795 1.82213 40
      vertex 2.71655 1.49344 40
    endloop
  endfacet
  facet normal 0 0 1
    outer loop
      vertex 2.98877 2.80664 40
      vertex 2.2598 2.1221 40
      vertex 2.50795 1.82213 40
    endloop
  endfacet
  facet normal 0 0 1
    outer loop
      vertex 1.97601 2.38859 40
      vertex 2.61344 3.1591 40
      vertex 2.19689 3.46174 40
    endloop
  endfacet
  facet normal 0 0 1
    outer loop
      vertex 2.61344 3.1591 40
      vertex 1.97601 2.38859 40
      vertex 2.2598 2.1221 40
    endloop
  endfacet
  facet normal 0 0 1
    outer loop
      vertex 1.66106 2.61742 40
      vertex 2.19689 3.46174 40
      vertex 1.74569 3.70979 40
    endloop
  endfacet
  facet normal 0 0 1
    outer loop
      vertex 2.19689 3.46174 40
      vertex 1.66106 2.61742 40
      vertex 1.97601 2.38859 40
    endloop
  endfacet
  facet normal 0 0 1
    outer loop
      vertex 1.74569 3.70979 40
      vertex 1.31992 2.80496 40
      vertex 1.66106 2.61742 40
    endloop
  endfacet
  facet normal 0 0 1
    outer loop
      vertex 1.26697 3.89933 40
      vertex 1.31992 2.80496 40
      vertex 1.74569 3.70979 40
    endloop
  endfacet
  facet normal 0 0 1
    outer loop
      vertex 1.26697 3.89933 40
      vertex 0.957952 2.94827 40
      vertex 1.31992 2.80496 40
    endloop
  endfacet
  facet normal 0 0 1
    outer loop
      vertex 0.768263 4.02738 40
      vertex 0.957952 2.94827 40
      vertex 1.26697 3.89933 40
    endloop
  endfacet
  facet normal 0 0 1
    outer loop
      vertex 0.768263 4.02738 40
      vertex 0.580882 3.04509 40
      vertex 0.957952 2.94827 40
    endloop
  endfacet
  facet normal 0 0 1
    outer loop
      vertex 0.257441 4.09191 40
      vertex 0.580882 3.04509 40
      vertex 0.768263 4.02738 40
    endloop
  endfacet
  facet normal 0 0 1
    outer loop
      vertex 0.257441 4.09191 40
      vertex 0.19465 3.09388 40
      vertex 0.580882 3.04509 40
    endloop
  endfacet
  facet normal 0 0 1
    outer loop
      vertex 0.257441 4.09191 40
      vertex -0.19465 3.09388 40
      vertex 0.19465 3.09388 40
    endloop
  endfacet
  facet normal -0 0 1
    outer loop
      vertex -0.257441 4.09191 40
      vertex -0.19465 3.09388 40
      vertex 0.257441 4.09191 40
    endloop
  endfacet
  facet normal 0 0 1
    outer loop
      vertex -0.257441 4.09191 40
      vertex -0.580882 3.04509 40
      vertex -0.19465 3.09388 40
    endloop
  endfacet
  facet normal -0 0 1
    outer loop
      vertex -0.768263 4.02738 40
      vertex -0.580882 3.04509 40
      vertex -0.257441 4.09191 40
    endloop
  endfacet
  facet normal 0 0 1
    outer loop
      vertex -0.768263 4.02738 40
      vertex -0.957952 2.94827 40
      vertex -0.580882 3.04509 40
    endloop
  endfacet
  facet normal -0 0 1
    outer loop
      vertex -1.26697 3.89933 40
      vertex -0.957952 2.94827 40
      vertex -0.768263 4.02738 40
    endloop
  endfacet
  facet normal 0 0 1
    outer loop
      vertex -1.26697 3.89933 40
      vertex -1.31992 2.80496 40
      vertex -0.957952 2.94827 40
    endloop
  endfacet
  facet normal -0 0 1
    outer loop
      vertex -1.74569 3.70979 40
      vertex -1.31992 2.80496 40
      vertex -1.26697 3.89933 40
    endloop
  endfacet
  facet normal 0 0 1
    outer loop
      vertex -1.31992 2.80496 40
      vertex -1.74569 3.70979 40
      vertex -1.66106 2.61742 40
    endloop
  endfacet
  facet normal -0 0 1
    outer loop
      vertex -2.19689 3.46174 40
      vertex -1.66106 2.61742 40
      vertex -1.74569 3.70979 40
    endloop
  endfacet
  facet normal 0 0 1
    outer loop
      vertex -1.66106 2.61742 40
      vertex -2.19689 3.46174 40
      vertex -1.97601 2.38859 40
    endloop
  endfacet
  facet normal -0 0 1
    outer loop
      vertex -2.61344 3.1591 40
      vertex -1.97601 2.38859 40
      vertex -2.19689 3.46174 40
    endloop
  endfacet
  facet normal 0 0 1
    outer loop
      vertex -1.97601 2.38859 40
      vertex -2.61344 3.1591 40
      vertex -2.2598 2.1221 40
    endloop
  endfacet
  facet normal -0 0 1
    outer loop
      vertex -2.98877 2.80664 40
      vertex -2.2598 2.1221 40
      vertex -2.61344 3.1591 40
    endloop
  endfacet
  facet normal 0 0 1
    outer loop
      vertex -2.2598 2.1221 40
      vertex -2.98877 2.80664 40
      vertex -2.50795 1.82213 40
    endloop
  endfacet
  facet normal -0 0 1
    outer loop
      vertex -3.31697 2.40992 40
      vertex -2.50795 1.82213 40
      vertex -2.98877 2.80664 40
    endloop
  endfacet
  facet normal 0 0 1
    outer loop
      vertex -2.50795 1.82213 40
      vertex -3.31697 2.40992 40
      vertex -2.71655 1.49344 40
    endloop
  endfacet
  facet normal -0 0 1
    outer loop
      vertex -3.59286 1.97519 40
      vertex -2.71655 1.49344 40
      vertex -3.31697 2.40992 40
    endloop
  endfacet
  facet normal 0 0 1
    outer loop
      vertex -2.71655 1.49344 40
      vertex -3.59286 1.97519 40
      vertex -2.88231 1.14119 40
    endloop
  endfacet
  facet normal -0 0 1
    outer loop
      vertex -3.81208 1.50931 40
      vertex -2.88231 1.14119 40
      vertex -3.59286 1.97519 40
    endloop
  endfacet
  facet normal 0 0 1
    outer loop
      vertex -2.88231 1.14119 40
      vertex -3.81208 1.50931 40
      vertex -3.00261 0.770938 40
    endloop
  endfacet
  facet normal -0 0 1
    outer loop
      vertex 2.88231 -1.14119 40
      vertex 3.81208 -1.50931 40
      vertex 3.00261 -0.770938 40
    endloop
  endfacet
  facet normal 0 0 1
    outer loop
      vertex 3.81208 -1.50931 40
      vertex 2.88231 -1.14119 40
      vertex 3.59286 -1.97519 40
    endloop
  endfacet
  facet normal -0 0 1
    outer loop
      vertex 2.71655 -1.49344 40
      vertex 3.59286 -1.97519 40
      vertex 2.88231 -1.14119 40
    endloop
  endfacet
  facet normal 0 0 1
    outer loop
      vertex 3.59286 -1.97519 40
      vertex 2.71655 -1.49344 40
      vertex 3.31697 -2.40992 40
    endloop
  endfacet
  facet normal -0 0 1
    outer loop
      vertex 2.50795 -1.82213 40
      vertex 3.31697 -2.40992 40
      vertex 2.71655 -1.49344 40
    endloop
  endfacet
  facet normal 0 0 1
    outer loop
      vertex 3.31697 -2.40992 40
      vertex 2.50795 -1.82213 40
      vertex 2.98877 -2.80664 40
    endloop
  endfacet
  facet normal -0 0 1
    outer loop
      vertex 2.2598 -2.1221 40
      vertex 2.98877 -2.80664 40
      vertex 2.50795 -1.82213 40
    endloop
  endfacet
  facet normal 0 0 1
    outer loop
      vertex 2.98877 -2.80664 40
      vertex 2.2598 -2.1221 40
      vertex 2.61344 -3.1591 40
    endloop
  endfacet
  facet normal -0 0 1
    outer loop
      vertex 1.97601 -2.38859 40
      vertex 2.61344 -3.1591 40
      vertex 2.2598 -2.1221 40
    endloop
  endfacet
  facet normal 0 0 1
    outer loop
      vertex 2.61344 -3.1591 40
      vertex 1.97601 -2.38859 40
      vertex 2.19689 -3.46174 40
    endloop
  endfacet
  facet normal -0 0 1
    outer loop
      vertex 1.66106 -2.61742 40
      vertex 2.19689 -3.46174 40
      vertex 1.97601 -2.38859 40
    endloop
  endfacet
  facet normal 0 0 1
    outer loop
      vertex 2.19689 -3.46174 40
      vertex 1.66106 -2.61742 40
      vertex 1.74569 -3.70979 40
    endloop
  endfacet
  facet normal -0 0 1
    outer loop
      vertex 1.31992 -2.80496 40
      vertex 1.74569 -3.70979 40
      vertex 1.66106 -2.61742 40
    endloop
  endfacet
  facet normal 0 0 1
    outer loop
      vertex 1.31992 -2.80496 40
      vertex 1.26697 -3.89933 40
      vertex 1.74569 -3.70979 40
    endloop
  endfacet
  facet normal -0 0 1
    outer loop
      vertex 0.957952 -2.94827 40
      vertex 1.26697 -3.89933 40
      vertex 1.31992 -2.80496 40
    endloop
  endfacet
  facet normal 0 0 1
    outer loop
      vertex 0.957952 -2.94827 40
      vertex 0.768263 -4.02738 40
      vertex 1.26697 -3.89933 40
    endloop
  endfacet
  facet normal -0 0 1
    outer loop
      vertex 0.580882 -3.04509 40
      vertex 0.768263 -4.02738 40
      vertex 0.957952 -2.94827 40
    endloop
  endfacet
  facet normal 0 0 1
    outer loop
      vertex 0.580882 -3.04509 40
      vertex 0.257441 -4.09191 40
      vertex 0.768263 -4.02738 40
    endloop
  endfacet
  facet normal -0 0 1
    outer loop
      vertex 0.19465 -3.09388 40
      vertex 0.257441 -4.09191 40
      vertex 0.580882 -3.04509 40
    endloop
  endfacet
  facet normal -0 0 1
    outer loop
      vertex -0.19465 -3.09388 40
      vertex 0.257441 -4.09191 40
      vertex 0.19465 -3.09388 40
    endloop
  endfacet
  facet normal 0 0 1
    outer loop
      vertex -0.19465 -3.09388 40
      vertex -0.257441 -4.09191 40
      vertex 0.257441 -4.09191 40
    endloop
  endfacet
  facet normal 0 0 1
    outer loop
      vertex -0.580882 -3.04509 40
      vertex -0.257441 -4.09191 40
      vertex -0.19465 -3.09388 40
    endloop
  endfacet
  facet normal 0 0 1
    outer loop
      vertex -0.580882 -3.04509 40
      vertex -0.768263 -4.02738 40
      vertex -0.257441 -4.09191 40
    endloop
  endfacet
  facet normal 0 0 1
    outer loop
      vertex -0.957952 -2.94827 40
      vertex -0.768263 -4.02738 40
      vertex -0.580882 -3.04509 40
    endloop
  endfacet
  facet normal 0 0 1
    outer loop
      vertex -0.957952 -2.94827 40
      vertex -1.26697 -3.89933 40
      vertex -0.768263 -4.02738 40
    endloop
  endfacet
  facet normal 0 0 1
    outer loop
      vertex -1.31992 -2.80496 40
      vertex -1.26697 -3.89933 40
      vertex -0.957952 -2.94827 40
    endloop
  endfacet
  facet normal 0 0 1
    outer loop
      vertex -1.74569 -3.70979 40
      vertex -1.31992 -2.80496 40
      vertex -1.66106 -2.61742 40
    endloop
  endfacet
  facet normal 0 0 1
    outer loop
      vertex -1.31992 -2.80496 40
      vertex -1.74569 -3.70979 40
      vertex -1.26697 -3.89933 40
    endloop
  endfacet
  facet normal 0 0 1
    outer loop
      vertex -2.19689 -3.46174 40
      vertex -1.66106 -2.61742 40
      vertex -1.97601 -2.38859 40
    endloop
  endfacet
  facet normal 0 0 1
    outer loop
      vertex -1.66106 -2.61742 40
      vertex -2.19689 -3.46174 40
      vertex -1.74569 -3.70979 40
    endloop
  endfacet
  facet normal 0 0 1
    outer loop
      vertex -2.61344 -3.1591 40
      vertex -1.97601 -2.38859 40
      vertex -2.2598 -2.1221 40
    endloop
  endfacet
  facet normal 0 0 1
    outer loop
      vertex -2.98877 -2.80664 40
      vertex -2.2598 -2.1221 40
      vertex -2.50795 -1.82213 40
    endloop
  endfacet
  facet normal 0 0 1
    outer loop
      vertex -1.97601 -2.38859 40
      vertex -2.61344 -3.1591 40
      vertex -2.19689 -3.46174 40
    endloop
  endfacet
  facet normal 0 0 1
    outer loop
      vertex -3.31697 -2.40992 40
      vertex -2.50795 -1.82213 40
      vertex -2.71655 -1.49344 40
    endloop
  endfacet
  facet normal 0 0 1
    outer loop
      vertex -3.59286 -1.97519 40
      vertex -2.71655 -1.49344 40
      vertex -2.88231 -1.14119 40
    endloop
  endfacet
  facet normal 0 0 1
    outer loop
      vertex -2.2598 -2.1221 40
      vertex -2.98877 -2.80664 40
      vertex -2.61344 -3.1591 40
    endloop
  endfacet
  facet normal 0 0 1
    outer loop
      vertex -3.81208 -1.50931 40
      vertex -2.88231 -1.14119 40
      vertex -3.00261 -0.770938 40
    endloop
  endfacet
  facet normal 0 0 1
    outer loop
      vertex -3.97119 -1.01963 40
      vertex -3.00261 -0.770938 40
      vertex -3.07555 -0.388533 40
    endloop
  endfacet
  facet normal 0 0 1
    outer loop
      vertex -4.06767 -0.513865 40
      vertex -3.07555 -0.388533 40
      vertex -3.1 0 40
    endloop
  endfacet
  facet normal -0 0 1
    outer loop
      vertex -3.97119 1.01963 40
      vertex -3.00261 0.770938 40
      vertex -3.81208 1.50931 40
    endloop
  endfacet
  facet normal 0 0 1
    outer loop
      vertex -2.50795 -1.82213 40
      vertex -3.31697 -2.40992 40
      vertex -2.98877 -2.80664 40
    endloop
  endfacet
  facet normal 0 0 1
    outer loop
      vertex -3.00261 0.770938 40
      vertex -3.97119 1.01963 40
      vertex -3.07555 0.388533 40
    endloop
  endfacet
  facet normal 0 0 1
    outer loop
      vertex -2.71655 -1.49344 40
      vertex -3.59286 -1.97519 40
      vertex -3.31697 -2.40992 40
    endloop
  endfacet
  facet normal -0 0 1
    outer loop
      vertex -4.06767 0.513865 40
      vertex -3.07555 0.388533 40
      vertex -3.97119 1.01963 40
    endloop
  endfacet
  facet normal 0 0 1
    outer loop
      vertex -2.88231 -1.14119 40
      vertex -3.81208 -1.50931 40
      vertex -3.59286 -1.97519 40
    endloop
  endfacet
  facet normal 0 0 1
    outer loop
      vertex -3.07555 0.388533 40
      vertex -4.06767 0.513865 40
      vertex -3.1 0 40
    endloop
  endfacet
  facet normal 0 0 1
    outer loop
      vertex -3.00261 -0.770938 40
      vertex -3.97119 -1.01963 40
      vertex -3.81208 -1.50931 40
    endloop
  endfacet
  facet normal 0 0 1
    outer loop
      vertex -4.1 0 40
      vertex -3.1 0 40
      vertex -4.06767 0.513865 40
    endloop
  endfacet
  facet normal 0 0 1
    outer loop
      vertex -3.07555 -0.388533 40
      vertex -4.06767 -0.513865 40
      vertex -3.97119 -1.01963 40
    endloop
  endfacet
  facet normal 0 0 1
    outer loop
      vertex -3.1 0 40
      vertex -4.1 0 40
      vertex -4.06767 -0.513865 40
    endloop
  endfacet
  facet normal 0.982287 -0.187382 0
    outer loop
      vertex 3.97119 -1.01963 40
      vertex 4.06767 -0.513865 0
      vertex 4.06767 -0.513865 40
    endloop
  endfacet
  facet normal 0.982287 -0.187382 0
    outer loop
      vertex 4.06767 -0.513865 0
      vertex 3.97119 -1.01963 40
      vertex 3.97119 -1.01963 0
    endloop
  endfacet
  facet normal -0.481755 0.876306 0
    outer loop
      vertex -1.74569 3.70979 0
      vertex -2.19689 3.46174 40
      vertex -1.74569 3.70979 40
    endloop
  endfacet
  facet normal -0.481755 0.876306 0
    outer loop
      vertex -2.19689 3.46174 40
      vertex -1.74569 3.70979 0
      vertex -2.19689 3.46174 0
    endloop
  endfacet
  facet normal -0.951055 0.309023 0
    outer loop
      vertex -3.97119 1.01963 0
      vertex -3.81208 1.50931 40
      vertex -3.81208 1.50931 0
    endloop
  endfacet
  facet normal -0.951055 0.309023 0
    outer loop
      vertex -3.81208 1.50931 40
      vertex -3.97119 1.01963 0
      vertex -3.97119 1.01963 40
    endloop
  endfacet
  facet normal -0.368127 -0.929776 0
    outer loop
      vertex -1.74569 -3.70979 0
      vertex -1.26697 -3.89933 40
      vertex -1.74569 -3.70979 40
    endloop
  endfacet
  facet normal -0.368127 -0.929776 -0
    outer loop
      vertex -1.26697 -3.89933 40
      vertex -1.74569 -3.70979 0
      vertex -1.26697 -3.89933 0
    endloop
  endfacet
  facet normal 0.998027 0.0627912 0
    outer loop
      vertex 4.1 0 40
      vertex 4.06767 0.513865 0
      vertex 4.06767 0.513865 40
    endloop
  endfacet
  facet normal 0.998027 0.0627912 0
    outer loop
      vertex 4.06767 0.513865 0
      vertex 4.1 0 40
      vertex 4.1 0 0
    endloop
  endfacet
  facet normal -0.951055 -0.309023 0
    outer loop
      vertex -3.81208 -1.50931 0
      vertex -3.97119 -1.01963 40
      vertex -3.97119 -1.01963 0
    endloop
  endfacet
  facet normal -0.951055 -0.309023 0
    outer loop
      vertex -3.97119 -1.01963 40
      vertex -3.81208 -1.50931 0
      vertex -3.81208 -1.50931 40
    endloop
  endfacet
  facet normal 0.951055 -0.309023 0
    outer loop
      vertex 3.81208 -1.50931 40
      vertex 3.97119 -1.01963 0
      vertex 3.97119 -1.01963 40
    endloop
  endfacet
  facet normal 0.951055 -0.309023 0
    outer loop
      vertex 3.97119 -1.01963 0
      vertex 3.81208 -1.50931 40
      vertex 3.81208 -1.50931 0
    endloop
  endfacet
  facet normal 0.844326 -0.535829 0
    outer loop
      vertex 3.31697 -2.40992 40
      vertex 3.59286 -1.97519 0
      vertex 3.59286 -1.97519 40
    endloop
  endfacet
  facet normal 0.844326 -0.535829 0
    outer loop
      vertex 3.59286 -1.97519 0
      vertex 3.31697 -2.40992 40
      vertex 3.31697 -2.40992 0
    endloop
  endfacet
  facet normal -0.982287 0.187382 0
    outer loop
      vertex -4.06767 0.513865 0
      vertex -3.97119 1.01963 40
      vertex -3.97119 1.01963 0
    endloop
  endfacet
  facet normal -0.982287 0.187382 0
    outer loop
      vertex -3.97119 1.01963 40
      vertex -4.06767 0.513865 0
      vertex -4.06767 0.513865 40
    endloop
  endfacet
  facet normal 0.904832 -0.425769 0
    outer loop
      vertex 3.59286 -1.97519 40
      vertex 3.81208 -1.50931 0
      vertex 3.81208 -1.50931 40
    endloop
  endfacet
  facet normal 0.904832 -0.425769 0
    outer loop
      vertex 3.81208 -1.50931 0
      vertex 3.59286 -1.97519 40
      vertex 3.59286 -1.97519 0
    endloop
  endfacet
  facet normal 0.770509 0.637429 0
    outer loop
      vertex 3.31697 2.40992 40
      vertex 2.98877 2.80664 0
      vertex 2.98877 2.80664 40
    endloop
  endfacet
  facet normal 0.770509 0.637429 0
    outer loop
      vertex 2.98877 2.80664 0
      vertex 3.31697 2.40992 40
      vertex 3.31697 2.40992 0
    endloop
  endfacet
  facet normal 0.684549 0.728967 -0
    outer loop
      vertex 2.98877 2.80664 0
      vertex 2.61344 3.1591 40
      vertex 2.98877 2.80664 40
    endloop
  endfacet
  facet normal 0.684549 0.728967 0
    outer loop
      vertex 2.61344 3.1591 40
      vertex 2.98877 2.80664 0
      vertex 2.61344 3.1591 0
    endloop
  endfacet
  facet normal 0.481755 0.876306 -0
    outer loop
      vertex 2.19689 3.46174 0
      vertex 1.74569 3.70979 40
      vertex 2.19689 3.46174 40
    endloop
  endfacet
  facet normal 0.481755 0.876306 0
    outer loop
      vertex 1.74569 3.70979 40
      vertex 2.19689 3.46174 0
      vertex 1.74569 3.70979 0
    endloop
  endfacet
  facet normal -0.587784 0.809018 0
    outer loop
      vertex -2.19689 3.46174 0
      vertex -2.61344 3.1591 40
      vertex -2.19689 3.46174 40
    endloop
  endfacet
  facet normal -0.587784 0.809018 0
    outer loop
      vertex -2.61344 3.1591 40
      vertex -2.19689 3.46174 0
      vertex -2.61344 3.1591 0
    endloop
  endfacet
  facet normal 0.12533 -0.992115 0
    outer loop
      vertex 0.257441 -4.09191 0
      vertex 0.768263 -4.02738 40
      vertex 0.257441 -4.09191 40
    endloop
  endfacet
  facet normal 0.12533 -0.992115 0
    outer loop
      vertex 0.768263 -4.02738 40
      vertex 0.257441 -4.09191 0
      vertex 0.768263 -4.02738 0
    endloop
  endfacet
  facet normal -0.770509 -0.637429 0
    outer loop
      vertex -2.98877 -2.80664 0
      vertex -3.31697 -2.40992 40
      vertex -3.31697 -2.40992 0
    endloop
  endfacet
  facet normal -0.770509 -0.637429 0
    outer loop
      vertex -3.31697 -2.40992 40
      vertex -2.98877 -2.80664 0
      vertex -2.98877 -2.80664 40
    endloop
  endfacet
  facet normal 0.368127 -0.929776 0
    outer loop
      vertex 1.26697 -3.89933 0
      vertex 1.74569 -3.70979 40
      vertex 1.26697 -3.89933 40
    endloop
  endfacet
  facet normal 0.368127 -0.929776 0
    outer loop
      vertex 1.74569 -3.70979 40
      vertex 1.26697 -3.89933 0
      vertex 1.74569 -3.70979 0
    endloop
  endfacet
  facet normal 0 -1 0
    outer loop
      vertex -0.257441 -4.09191 0
      vertex 0.257441 -4.09191 40
      vertex -0.257441 -4.09191 40
    endloop
  endfacet
  facet normal 0 -1 -0
    outer loop
      vertex 0.257441 -4.09191 40
      vertex -0.257441 -4.09191 0
      vertex 0.257441 -4.09191 0
    endloop
  endfacet
  facet normal 0.684549 -0.728967 0
    outer loop
      vertex 2.61344 -3.1591 0
      vertex 2.98877 -2.80664 40
      vertex 2.61344 -3.1591 40
    endloop
  endfacet
  facet normal 0.684549 -0.728967 0
    outer loop
      vertex 2.98877 -2.80664 40
      vertex 2.61344 -3.1591 0
      vertex 2.98877 -2.80664 0
    endloop
  endfacet
  facet normal 0.587784 0.809018 -0
    outer loop
      vertex 2.61344 3.1591 0
      vertex 2.19689 3.46174 40
      vertex 2.61344 3.1591 40
    endloop
  endfacet
  facet normal 0.587784 0.809018 0
    outer loop
      vertex 2.19689 3.46174 40
      vertex 2.61344 3.1591 0
      vertex 2.19689 3.46174 0
    endloop
  endfacet
  facet normal -0.12533 -0.992115 0
    outer loop
      vertex -0.768263 -4.02738 0
      vertex -0.257441 -4.09191 40
      vertex -0.768263 -4.02738 40
    endloop
  endfacet
  facet normal -0.12533 -0.992115 -0
    outer loop
      vertex -0.257441 -4.09191 40
      vertex -0.768263 -4.02738 0
      vertex -0.257441 -4.09191 0
    endloop
  endfacet
  facet normal 0.998027 -0.0627912 0
    outer loop
      vertex 4.06767 -0.513865 40
      vertex 4.1 0 0
      vertex 4.1 0 40
    endloop
  endfacet
  facet normal 0.998027 -0.0627912 0
    outer loop
      vertex 4.1 0 0
      vertex 4.06767 -0.513865 40
      vertex 4.06767 -0.513865 0
    endloop
  endfacet
  facet normal -0.368127 0.929776 0
    outer loop
      vertex -1.26697 3.89933 0
      vertex -1.74569 3.70979 40
      vertex -1.26697 3.89933 40
    endloop
  endfacet
  facet normal -0.368127 0.929776 0
    outer loop
      vertex -1.74569 3.70979 40
      vertex -1.26697 3.89933 0
      vertex -1.74569 3.70979 0
    endloop
  endfacet
  facet normal -0.998027 0.0627912 0
    outer loop
      vertex -4.1 0 0
      vertex -4.06767 0.513865 40
      vertex -4.06767 0.513865 0
    endloop
  endfacet
  facet normal -0.998027 0.0627912 0
    outer loop
      vertex -4.06767 0.513865 40
      vertex -4.1 0 0
      vertex -4.1 0 40
    endloop
  endfacet
  facet normal 0 0 -1
    outer loop
      vertex 4.06767 -0.513865 0
      vertex 4.06767 0.513865 0
      vertex 4.1 0 0
    endloop
  endfacet
  facet normal 0 0 -1
    outer loop
      vertex 3.97119 -1.01963 0
      vertex 4.06767 0.513865 0
      vertex 4.06767 -0.513865 0
    endloop
  endfacet
  facet normal 0 0 -1
    outer loop
      vertex 3.97119 -1.01963 0
      vertex 3.97119 1.01963 0
      vertex 4.06767 0.513865 0
    endloop
  endfacet
  facet normal 0 0 -1
    outer loop
      vertex 3.81208 -1.50931 0
      vertex 3.97119 1.01963 0
      vertex 3.97119 -1.01963 0
    endloop
  endfacet
  facet normal 0 0 -1
    outer loop
      vertex 3.81208 -1.50931 0
      vertex 3.81208 1.50931 0
      vertex 3.97119 1.01963 0
    endloop
  endfacet
  facet normal 0 0 -1
    outer loop
      vertex 3.59286 -1.97519 0
      vertex 3.81208 1.50931 0
      vertex 3.81208 -1.50931 0
    endloop
  endfacet
  facet normal 0 0 -1
    outer loop
      vertex 3.59286 -1.97519 0
      vertex 3.59286 1.97519 0
      vertex 3.81208 1.50931 0
    endloop
  endfacet
  facet normal 0 0 -1
    outer loop
      vertex 3.31697 -2.40992 0
      vertex 3.59286 1.97519 0
      vertex 3.59286 -1.97519 0
    endloop
  endfacet
  facet normal 0 0 -1
    outer loop
      vertex 3.31697 -2.40992 0
      vertex 3.31697 2.40992 0
      vertex 3.59286 1.97519 0
    endloop
  endfacet
  facet normal 0 0 -1
    outer loop
      vertex 2.98877 -2.80664 0
      vertex 3.31697 2.40992 0
      vertex 3.31697 -2.40992 0
    endloop
  endfacet
  facet normal 0 0 -1
    outer loop
      vertex 2.98877 -2.80664 0
      vertex 2.98877 2.80664 0
      vertex 3.31697 2.40992 0
    endloop
  endfacet
  facet normal 0 0 -1
    outer loop
      vertex 2.61344 -3.1591 0
      vertex 2.98877 2.80664 0
      vertex 2.98877 -2.80664 0
    endloop
  endfacet
  facet normal 0 0 -1
    outer loop
      vertex 2.61344 -3.1591 0
      vertex 2.61344 3.1591 0
      vertex 2.98877 2.80664 0
    endloop
  endfacet
  facet normal 0 0 -1
    outer loop
      vertex 2.19689 -3.46174 0
      vertex 2.61344 3.1591 0
      vertex 2.61344 -3.1591 0
    endloop
  endfacet
  facet normal 0 0 -1
    outer loop
      vertex 2.19689 -3.46174 0
      vertex 2.19689 3.46174 0
      vertex 2.61344 3.1591 0
    endloop
  endfacet
  facet normal 0 0 -1
    outer loop
      vertex 1.74569 -3.70979 0
      vertex 2.19689 3.46174 0
      vertex 2.19689 -3.46174 0
    endloop
  endfacet
  facet normal 0 0 -1
    outer loop
      vertex 1.74569 -3.70979 0
      vertex 1.74569 3.70979 0
      vertex 2.19689 3.46174 0
    endloop
  endfacet
  facet normal 0 0 -1
    outer loop
      vertex 1.26697 -3.89933 0
      vertex 1.74569 3.70979 0
      vertex 1.74569 -3.70979 0
    endloop
  endfacet
  facet normal 0 0 -1
    outer loop
      vertex 1.26697 -3.89933 0
      vertex 1.26697 3.89933 0
      vertex 1.74569 3.70979 0
    endloop
  endfacet
  facet normal 0 0 -1
    outer loop
      vertex 0.768263 -4.02738 0
      vertex 1.26697 3.89933 0
      vertex 1.26697 -3.89933 0
    endloop
  endfacet
  facet normal 0 0 -1
    outer loop
      vertex 0.768263 -4.02738 0
      vertex 0.768263 4.02738 0
      vertex 1.26697 3.89933 0
    endloop
  endfacet
  facet normal 0 0 -1
    outer loop
      vertex 0.257441 -4.09191 0
      vertex 0.768263 4.02738 0
      vertex 0.768263 -4.02738 0
    endloop
  endfacet
  facet normal 0 0 -1
    outer loop
      vertex 0.257441 -4.09191 0
      vertex 0.257441 4.09191 0
      vertex 0.768263 4.02738 0
    endloop
  endfacet
  facet normal 0 0 -1
    outer loop
      vertex -0.257441 -4.09191 0
      vertex 0.257441 4.09191 0
      vertex 0.257441 -4.09191 0
    endloop
  endfacet
  facet normal 0 0 -1
    outer loop
      vertex -0.257441 -4.09191 0
      vertex -0.257441 4.09191 0
      vertex 0.257441 4.09191 0
    endloop
  endfacet
  facet normal 0 0 -1
    outer loop
      vertex -0.768263 -4.02738 0
      vertex -0.257441 4.09191 0
      vertex -0.257441 -4.09191 0
    endloop
  endfacet
  facet normal 0 0 -1
    outer loop
      vertex -0.768263 -4.02738 0
      vertex -0.768263 4.02738 0
      vertex -0.257441 4.09191 0
    endloop
  endfacet
  facet normal 0 0 -1
    outer loop
      vertex -1.26697 -3.89933 0
      vertex -0.768263 4.02738 0
      vertex -0.768263 -4.02738 0
    endloop
  endfacet
  facet normal 0 0 -1
    outer loop
      vertex -1.26697 -3.89933 0
      vertex -1.26697 3.89933 0
      vertex -0.768263 4.02738 0
    endloop
  endfacet
  facet normal 0 0 -1
    outer loop
      vertex -1.74569 -3.70979 0
      vertex -1.26697 3.89933 0
      vertex -1.26697 -3.89933 0
    endloop
  endfacet
  facet normal 0 0 -1
    outer loop
      vertex -1.74569 -3.70979 0
      vertex -1.74569 3.70979 0
      vertex -1.26697 3.89933 0
    endloop
  endfacet
  facet normal 0 0 -1
    outer loop
      vertex -2.19689 -3.46174 0
      vertex -1.74569 3.70979 0
      vertex -1.74569 -3.70979 0
    endloop
  endfacet
  facet normal 0 0 -1
    outer loop
      vertex -2.19689 -3.46174 0
      vertex -2.19689 3.46174 0
      vertex -1.74569 3.70979 0
    endloop
  endfacet
  facet normal 0 0 -1
    outer loop
      vertex -2.61344 -3.1591 0
      vertex -2.19689 3.46174 0
      vertex -2.19689 -3.46174 0
    endloop
  endfacet
  facet normal 0 0 -1
    outer loop
      vertex -2.61344 -3.1591 0
      vertex -2.61344 3.1591 0
      vertex -2.19689 3.46174 0
    endloop
  endfacet
  facet normal 0 0 -1
    outer loop
      vertex -2.98877 -2.80664 0
      vertex -2.61344 3.1591 0
      vertex -2.61344 -3.1591 0
    endloop
  endfacet
  facet normal 0 0 -1
    outer loop
      vertex -2.98877 -2.80664 0
      vertex -2.98877 2.80664 0
      vertex -2.61344 3.1591 0
    endloop
  endfacet
  facet normal 0 0 -1
    outer loop
      vertex -3.31697 -2.40992 0
      vertex -2.98877 2.80664 0
      vertex -2.98877 -2.80664 0
    endloop
  endfacet
  facet normal 0 0 -1
    outer loop
      vertex -3.31697 -2.40992 0
      vertex -3.31697 2.40992 0
      vertex -2.98877 2.80664 0
    endloop
  endfacet
  facet normal 0 0 -1
    outer loop
      vertex -3.59286 -1.97519 0
      vertex -3.31697 2.40992 0
      vertex -3.31697 -2.40992 0
    endloop
  endfacet
  facet normal 0 0 -1
    outer loop
      vertex -3.59286 -1.97519 0
      vertex -3.59286 1.97519 0
      vertex -3.31697 2.40992 0
    endloop
  endfacet
  facet normal 0 0 -1
    outer loop
      vertex -3.81208 -1.50931 0
      vertex -3.59286 1.97519 0
      vertex -3.59286 -1.97519 0
    endloop
  endfacet
  facet normal 0 0 -1
    outer loop
      vertex -3.81208 -1.50931 0
      vertex -3.81208 1.50931 0
      vertex -3.59286 1.97519 0
    endloop
  endfacet
  facet normal 0 0 -1
    outer loop
      vertex -3.97119 -1.01963 0
      vertex -3.81208 1.50931 0
      vertex -3.81208 -1.50931 0
    endloop
  endfacet
  facet normal 0 0 -1
    outer loop
      vertex -3.97119 -1.01963 0
      vertex -3.97119 1.01963 0
      vertex -3.81208 1.50931 0
    endloop
  endfacet
  facet normal 0 0 -1
    outer loop
      vertex -4.06767 -0.513865 0
      vertex -3.97119 1.01963 0
      vertex -3.97119 -1.01963 0
    endloop
  endfacet
  facet normal 0 0 -1
    outer loop
      vertex -4.06767 -0.513865 0
      vertex -4.06767 0.513865 0
      vertex -3.97119 1.01963 0
    endloop
  endfacet
  facet normal 0 -0 -1
    outer loop
      vertex -4.06767 0.513865 0
      vertex -4.06767 -0.513865 0
      vertex -4.1 0 0
    endloop
  endfacet
  facet normal -0.904832 -0.425769 0
    outer loop
      vertex -3.59286 -1.97519 0
      vertex -3.81208 -1.50931 40
      vertex -3.81208 -1.50931 0
    endloop
  endfacet
  facet normal -0.904832 -0.425769 0
    outer loop
      vertex -3.81208 -1.50931 40
      vertex -3.59286 -1.97519 0
      vertex -3.59286 -1.97519 40
    endloop
  endfacet
  facet normal 0.770509 -0.637429 0
    outer loop
      vertex 2.98877 -2.80664 40
      vertex 3.31697 -2.40992 0
      vertex 3.31697 -2.40992 40
    endloop
  endfacet
  facet normal 0.770509 -0.637429 0
    outer loop
      vertex 3.31697 -2.40992 0
      vertex 2.98877 -2.80664 40
      vertex 2.98877 -2.80664 0
    endloop
  endfacet
  facet normal -0.248697 0.968581 0
    outer loop
      vertex -0.768263 4.02738 0
      vertex -1.26697 3.89933 40
      vertex -0.768263 4.02738 40
    endloop
  endfacet
  facet normal -0.248697 0.968581 0
    outer loop
      vertex -1.26697 3.89933 40
      vertex -0.768263 4.02738 0
      vertex -1.26697 3.89933 0
    endloop
  endfacet
  facet normal -0.998027 -0.0627912 0
    outer loop
      vertex -4.06767 -0.513865 0
      vertex -4.1 0 40
      vertex -4.1 0 0
    endloop
  endfacet
  facet normal -0.998027 -0.0627912 0
    outer loop
      vertex -4.1 0 40
      vertex -4.06767 -0.513865 0
      vertex -4.06767 -0.513865 40
    endloop
  endfacet
  facet normal 0.368127 0.929776 -0
    outer loop
      vertex 1.74569 3.70979 0
      vertex 1.26697 3.89933 40
      vertex 1.74569 3.70979 40
    endloop
  endfacet
  facet normal 0.368127 0.929776 0
    outer loop
      vertex 1.26697 3.89933 40
      vertex 1.74569 3.70979 0
      vertex 1.26697 3.89933 0
    endloop
  endfacet
  facet normal 0 1 -0
    outer loop
      vertex 0.257441 4.09191 0
      vertex -0.257441 4.09191 40
      vertex 0.257441 4.09191 40
    endloop
  endfacet
  facet normal 0 1 0
    outer loop
      vertex -0.257441 4.09191 40
      vertex 0.257441 4.09191 0
      vertex -0.257441 4.09191 0
    endloop
  endfacet
  facet normal -0.587784 -0.809018 0
    outer loop
      vertex -2.61344 -3.1591 0
      vertex -2.19689 -3.46174 40
      vertex -2.61344 -3.1591 40
    endloop
  endfacet
  facet normal -0.587784 -0.809018 -0
    outer loop
      vertex -2.19689 -3.46174 40
      vertex -2.61344 -3.1591 0
      vertex -2.19689 -3.46174 0
    endloop
  endfacet
  facet normal 0.248697 -0.968581 0
    outer loop
      vertex 0.768263 -4.02738 0
      vertex 1.26697 -3.89933 40
      vertex 0.768263 -4.02738 40
    endloop
  endfacet
  facet normal 0.248697 -0.968581 0
    outer loop
      vertex 1.26697 -3.89933 40
      vertex 0.768263 -4.02738 0
      vertex 1.26697 -3.89933 0
    endloop
  endfacet
  facet normal -0.684549 0.728967 0
    outer loop
      vertex -2.61344 3.1591 0
      vertex -2.98877 2.80664 40
      vertex -2.61344 3.1591 40
    endloop
  endfacet
  facet normal -0.684549 0.728967 0
    outer loop
      vertex -2.98877 2.80664 40
      vertex -2.61344 3.1591 0
      vertex -2.98877 2.80664 0
    endloop
  endfacet
  facet normal -0.844326 0.535829 0
    outer loop
      vertex -3.59286 1.97519 0
      vertex -3.31697 2.40992 40
      vertex -3.31697 2.40992 0
    endloop
  endfacet
  facet normal -0.844326 0.535829 0
    outer loop
      vertex -3.31697 2.40992 40
      vertex -3.59286 1.97519 0
      vertex -3.59286 1.97519 40
    endloop
  endfacet
  facet normal -0.481755 -0.876306 0
    outer loop
      vertex -2.19689 -3.46174 0
      vertex -1.74569 -3.70979 40
      vertex -2.19689 -3.46174 40
    endloop
  endfacet
  facet normal -0.481755 -0.876306 -0
    outer loop
      vertex -1.74569 -3.70979 40
      vertex -2.19689 -3.46174 0
      vertex -1.74569 -3.70979 0
    endloop
  endfacet
  facet normal -0.844326 -0.535829 0
    outer loop
      vertex -3.31697 -2.40992 0
      vertex -3.59286 -1.97519 40
      vertex -3.59286 -1.97519 0
    endloop
  endfacet
  facet normal -0.844326 -0.535829 0
    outer loop
      vertex -3.59286 -1.97519 40
      vertex -3.31697 -2.40992 0
      vertex -3.31697 -2.40992 40
    endloop
  endfacet
  facet normal -0.770509 0.637429 0
    outer loop
      vertex -3.31697 2.40992 0
      vertex -2.98877 2.80664 40
      vertex -2.98877 2.80664 0
    endloop
  endfacet
  facet normal -0.770509 0.637429 0
    outer loop
      vertex -2.98877 2.80664 40
      vertex -3.31697 2.40992 0
      vertex -3.31697 2.40992 40
    endloop
  endfacet
  facet normal -0.684549 -0.728967 0
    outer loop
      vertex -2.98877 -2.80664 0
      vertex -2.61344 -3.1591 40
      vertex -2.98877 -2.80664 40
    endloop
  endfacet
  facet normal -0.684549 -0.728967 -0
    outer loop
      vertex -2.61344 -3.1591 40
      vertex -2.98877 -2.80664 0
      vertex -2.61344 -3.1591 0
    endloop
  endfacet
  facet normal 0.481755 -0.876306 0
    outer loop
      vertex 1.74569 -3.70979 0
      vertex 2.19689 -3.46174 40
      vertex 1.74569 -3.70979 40
    endloop
  endfacet
  facet normal 0.481755 -0.876306 0
    outer loop
      vertex 2.19689 -3.46174 40
      vertex 1.74569 -3.70979 0
      vertex 2.19689 -3.46174 0
    endloop
  endfacet
  facet normal -0.248697 -0.968581 0
    outer loop
      vertex -1.26697 -3.89933 0
      vertex -0.768263 -4.02738 40
      vertex -1.26697 -3.89933 40
    endloop
  endfacet
  facet normal -0.248697 -0.968581 -0
    outer loop
      vertex -0.768263 -4.02738 40
      vertex -1.26697 -3.89933 0
      vertex -0.768263 -4.02738 0
    endloop
  endfacet
  facet normal 0.587784 -0.809018 0
    outer loop
      vertex 2.19689 -3.46174 0
      vertex 2.61344 -3.1591 40
      vertex 2.19689 -3.46174 40
    endloop
  endfacet
  facet normal 0.587784 -0.809018 0
    outer loop
      vertex 2.61344 -3.1591 40
      vertex 2.19689 -3.46174 0
      vertex 2.61344 -3.1591 0
    endloop
  endfacet
  facet normal 0.12533 0.992115 -0
    outer loop
      vertex 0.768263 4.02738 0
      vertex 0.257441 4.09191 40
      vertex 0.768263 4.02738 40
    endloop
  endfacet
  facet normal 0.12533 0.992115 0
    outer loop
      vertex 0.257441 4.09191 40
      vertex 0.768263 4.02738 0
      vertex 0.257441 4.09191 0
    endloop
  endfacet
  facet normal 0.951058 -0.309012 0
    outer loop
      vertex -3.00261 0.770938 40
      vertex -2.88231 1.14119 1
      vertex -2.88231 1.14119 40
    endloop
  endfacet
  facet normal 0.951058 -0.309012 0
    outer loop
      vertex -2.88231 1.14119 1
      vertex -3.00261 0.770938 40
      vertex -3.00261 0.770938 1
    endloop
  endfacet
  facet normal -0.84432 -0.53584 0
    outer loop
      vertex 2.71655 1.49344 1
      vertex 2.50795 1.82213 40
      vertex 2.50795 1.82213 1
    endloop
  endfacet
  facet normal -0.84432 -0.53584 0
    outer loop
      vertex 2.50795 1.82213 40
      vertex 2.71655 1.49344 1
      vertex 2.71655 1.49344 40
    endloop
  endfacet
  facet normal -0.587794 -0.80901 0
    outer loop
      vertex 1.66106 2.61742 1
      vertex 1.97601 2.38859 40
      vertex 1.66106 2.61742 40
    endloop
  endfacet
  facet normal -0.587794 -0.80901 -0
    outer loop
      vertex 1.97601 2.38859 40
      vertex 1.66106 2.61742 1
      vertex 1.97601 2.38859 1
    endloop
  endfacet
  facet normal -0.481747 -0.87631 0
    outer loop
      vertex 1.31992 2.80496 1
      vertex 1.66106 2.61742 40
      vertex 1.31992 2.80496 40
    endloop
  endfacet
  facet normal -0.481747 -0.87631 -0
    outer loop
      vertex 1.66106 2.61742 40
      vertex 1.31992 2.80496 1
      vertex 1.66106 2.61742 1
    endloop
  endfacet
  facet normal -0.684538 -0.728977 0
    outer loop
      vertex 1.97601 2.38859 1
      vertex 2.2598 2.1221 40
      vertex 1.97601 2.38859 40
    endloop
  endfacet
  facet normal -0.684538 -0.728977 -0
    outer loop
      vertex 2.2598 2.1221 40
      vertex 1.97601 2.38859 1
      vertex 2.2598 2.1221 1
    endloop
  endfacet
  facet normal -0.904823 -0.425787 0
    outer loop
      vertex 2.88231 1.14119 1
      vertex 2.71655 1.49344 40
      vertex 2.71655 1.49344 1
    endloop
  endfacet
  facet normal -0.904823 -0.425787 0
    outer loop
      vertex 2.71655 1.49344 40
      vertex 2.88231 1.14119 1
      vertex 2.88231 1.14119 40
    endloop
  endfacet
  facet normal -0.998026 -0.0628048 0
    outer loop
      vertex 3.1 0 1
      vertex 3.07555 0.388533 40
      vertex 3.07555 0.388533 1
    endloop
  endfacet
  facet normal -0.998026 -0.0628048 0
    outer loop
      vertex 3.07555 0.388533 40
      vertex 3.1 0 1
      vertex 3.1 0 40
    endloop
  endfacet
  facet normal -0.125327 0.992115 0
    outer loop
      vertex 0.580882 -3.04509 1
      vertex 0.19465 -3.09388 40
      vertex 0.580882 -3.04509 40
    endloop
  endfacet
  facet normal -0.125327 0.992115 0
    outer loop
      vertex 0.19465 -3.09388 40
      vertex 0.580882 -3.04509 1
      vertex 0.19465 -3.09388 1
    endloop
  endfacet
  facet normal -0.684538 0.728977 0
    outer loop
      vertex 2.2598 -2.1221 1
      vertex 1.97601 -2.38859 40
      vertex 2.2598 -2.1221 40
    endloop
  endfacet
  facet normal -0.684538 0.728977 0
    outer loop
      vertex 1.97601 -2.38859 40
      vertex 2.2598 -2.1221 1
      vertex 1.97601 -2.38859 1
    endloop
  endfacet
  facet normal 0.998026 -0.0628048 0
    outer loop
      vertex -3.1 0 40
      vertex -3.07555 0.388533 1
      vertex -3.07555 0.388533 40
    endloop
  endfacet
  facet normal 0.998026 -0.0628048 0
    outer loop
      vertex -3.07555 0.388533 1
      vertex -3.1 0 40
      vertex -3.1 0 1
    endloop
  endfacet
  facet normal 0.684538 0.728977 -0
    outer loop
      vertex -1.97601 -2.38859 1
      vertex -2.2598 -2.1221 40
      vertex -1.97601 -2.38859 40
    endloop
  endfacet
  facet normal 0.684538 0.728977 0
    outer loop
      vertex -2.2598 -2.1221 40
      vertex -1.97601 -2.38859 1
      vertex -2.2598 -2.1221 1
    endloop
  endfacet
  facet normal 0.248702 -0.96858 0
    outer loop
      vertex -0.957952 2.94827 1
      vertex -0.580882 3.04509 40
      vertex -0.957952 2.94827 40
    endloop
  endfacet
  facet normal 0.248702 -0.96858 0
    outer loop
      vertex -0.580882 3.04509 40
      vertex -0.957952 2.94827 1
      vertex -0.580882 3.04509 1
    endloop
  endfacet
  facet normal 0.587794 0.80901 -0
    outer loop
      vertex -1.66106 -2.61742 1
      vertex -1.97601 -2.38859 40
      vertex -1.66106 -2.61742 40
    endloop
  endfacet
  facet normal 0.587794 0.80901 0
    outer loop
      vertex -1.97601 -2.38859 40
      vertex -1.66106 -2.61742 1
      vertex -1.97601 -2.38859 1
    endloop
  endfacet
  facet normal 0.998026 0.0628048 0
    outer loop
      vertex -3.07555 -0.388533 40
      vertex -3.1 0 1
      vertex -3.1 0 40
    endloop
  endfacet
  facet normal 0.998026 0.0628048 0
    outer loop
      vertex -3.1 0 1
      vertex -3.07555 -0.388533 40
      vertex -3.07555 -0.388533 1
    endloop
  endfacet
  facet normal -0.770522 -0.637414 0
    outer loop
      vertex 2.50795 1.82213 1
      vertex 2.2598 2.1221 40
      vertex 2.2598 2.1221 1
    endloop
  endfacet
  facet normal -0.770522 -0.637414 0
    outer loop
      vertex 2.2598 2.1221 40
      vertex 2.50795 1.82213 1
      vertex 2.50795 1.82213 40
    endloop
  endfacet
  facet normal -0.84432 0.53584 0
    outer loop
      vertex 2.50795 -1.82213 1
      vertex 2.71655 -1.49344 40
      vertex 2.71655 -1.49344 1
    endloop
  endfacet
  facet normal -0.84432 0.53584 0
    outer loop
      vertex 2.71655 -1.49344 40
      vertex 2.50795 -1.82213 1
      vertex 2.50795 -1.82213 40
    endloop
  endfacet
  facet normal -0.481747 0.87631 0
    outer loop
      vertex 1.66106 -2.61742 1
      vertex 1.31992 -2.80496 40
      vertex 1.66106 -2.61742 40
    endloop
  endfacet
  facet normal -0.481747 0.87631 0
    outer loop
      vertex 1.31992 -2.80496 40
      vertex 1.66106 -2.61742 1
      vertex 1.31992 -2.80496 1
    endloop
  endfacet
  facet normal -0.982291 -0.187362 0
    outer loop
      vertex 3.07555 0.388533 1
      vertex 3.00261 0.770938 40
      vertex 3.00261 0.770938 1
    endloop
  endfacet
  facet normal -0.982291 -0.187362 0
    outer loop
      vertex 3.00261 0.770938 40
      vertex 3.07555 0.388533 1
      vertex 3.07555 0.388533 40
    endloop
  endfacet
  facet normal -0.368117 -0.929779 0
    outer loop
      vertex 0.957952 2.94827 1
      vertex 1.31992 2.80496 40
      vertex 0.957952 2.94827 40
    endloop
  endfacet
  facet normal -0.368117 -0.929779 -0
    outer loop
      vertex 1.31992 2.80496 40
      vertex 0.957952 2.94827 1
      vertex 1.31992 2.80496 1
    endloop
  endfacet
  facet normal 0.982291 0.187362 0
    outer loop
      vertex -3.00261 -0.770938 40
      vertex -3.07555 -0.388533 1
      vertex -3.07555 -0.388533 40
    endloop
  endfacet
  facet normal 0.982291 0.187362 0
    outer loop
      vertex -3.07555 -0.388533 1
      vertex -3.00261 -0.770938 40
      vertex -3.00261 -0.770938 1
    endloop
  endfacet
  facet normal 0.84432 -0.53584 0
    outer loop
      vertex -2.71655 1.49344 40
      vertex -2.50795 1.82213 1
      vertex -2.50795 1.82213 40
    endloop
  endfacet
  facet normal 0.84432 -0.53584 0
    outer loop
      vertex -2.50795 1.82213 1
      vertex -2.71655 1.49344 40
      vertex -2.71655 1.49344 1
    endloop
  endfacet
  facet normal 0.951058 0.309012 0
    outer loop
      vertex -2.88231 -1.14119 40
      vertex -3.00261 -0.770938 1
      vertex -3.00261 -0.770938 40
    endloop
  endfacet
  facet normal 0.951058 0.309012 0
    outer loop
      vertex -3.00261 -0.770938 1
      vertex -2.88231 -1.14119 40
      vertex -2.88231 -1.14119 1
    endloop
  endfacet
  facet normal 0.684538 -0.728977 0
    outer loop
      vertex -2.2598 2.1221 1
      vertex -1.97601 2.38859 40
      vertex -2.2598 2.1221 40
    endloop
  endfacet
  facet normal 0.684538 -0.728977 0
    outer loop
      vertex -1.97601 2.38859 40
      vertex -2.2598 2.1221 1
      vertex -1.97601 2.38859 1
    endloop
  endfacet
  facet normal 0.587794 -0.80901 0
    outer loop
      vertex -1.97601 2.38859 1
      vertex -1.66106 2.61742 40
      vertex -1.97601 2.38859 40
    endloop
  endfacet
  facet normal 0.587794 -0.80901 0
    outer loop
      vertex -1.66106 2.61742 40
      vertex -1.97601 2.38859 1
      vertex -1.66106 2.61742 1
    endloop
  endfacet
  facet normal -0.951058 0.309012 0
    outer loop
      vertex 2.88231 -1.14119 1
      vertex 3.00261 -0.770938 40
      vertex 3.00261 -0.770938 1
    endloop
  endfacet
  facet normal -0.951058 0.309012 0
    outer loop
      vertex 3.00261 -0.770938 40
      vertex 2.88231 -1.14119 1
      vertex 2.88231 -1.14119 40
    endloop
  endfacet
  facet normal -0.951058 -0.309012 0
    outer loop
      vertex 3.00261 0.770938 1
      vertex 2.88231 1.14119 40
      vertex 2.88231 1.14119 1
    endloop
  endfacet
  facet normal -0.951058 -0.309012 0
    outer loop
      vertex 2.88231 1.14119 40
      vertex 3.00261 0.770938 1
      vertex 3.00261 0.770938 40
    endloop
  endfacet
  facet normal 0 1 -0
    outer loop
      vertex 0.19465 -3.09388 1
      vertex -0.19465 -3.09388 40
      vertex 0.19465 -3.09388 40
    endloop
  endfacet
  facet normal 0 1 0
    outer loop
      vertex -0.19465 -3.09388 40
      vertex 0.19465 -3.09388 1
      vertex -0.19465 -3.09388 1
    endloop
  endfacet
  facet normal -0.770522 0.637414 0
    outer loop
      vertex 2.2598 -2.1221 1
      vertex 2.50795 -1.82213 40
      vertex 2.50795 -1.82213 1
    endloop
  endfacet
  facet normal -0.770522 0.637414 0
    outer loop
      vertex 2.50795 -1.82213 40
      vertex 2.2598 -2.1221 1
      vertex 2.2598 -2.1221 40
    endloop
  endfacet
  facet normal -0.998026 0.0628048 0
    outer loop
      vertex 3.07555 -0.388533 1
      vertex 3.1 0 40
      vertex 3.1 0 1
    endloop
  endfacet
  facet normal -0.998026 0.0628048 0
    outer loop
      vertex 3.1 0 40
      vertex 3.07555 -0.388533 1
      vertex 3.07555 -0.388533 40
    endloop
  endfacet
  facet normal 0 0 1
    outer loop
      vertex 3.07555 0.388533 1
      vertex 3.07555 -0.388533 1
      vertex 3.1 0 1
    endloop
  endfacet
  facet normal 0 0 1
    outer loop
      vertex 3.00261 0.770938 1
      vertex 3.07555 -0.388533 1
      vertex 3.07555 0.388533 1
    endloop
  endfacet
  facet normal 0 0 1
    outer loop
      vertex 3.00261 0.770938 1
      vertex 3.00261 -0.770938 1
      vertex 3.07555 -0.388533 1
    endloop
  endfacet
  facet normal 0 0 1
    outer loop
      vertex 2.88231 1.14119 1
      vertex 3.00261 -0.770938 1
      vertex 3.00261 0.770938 1
    endloop
  endfacet
  facet normal 0 0 1
    outer loop
      vertex 2.88231 1.14119 1
      vertex 2.88231 -1.14119 1
      vertex 3.00261 -0.770938 1
    endloop
  endfacet
  facet normal 0 0 1
    outer loop
      vertex 2.71655 1.49344 1
      vertex 2.88231 -1.14119 1
      vertex 2.88231 1.14119 1
    endloop
  endfacet
  facet normal 0 0 1
    outer loop
      vertex 2.71655 1.49344 1
      vertex 2.71655 -1.49344 1
      vertex 2.88231 -1.14119 1
    endloop
  endfacet
  facet normal 0 0 1
    outer loop
      vertex 2.50795 1.82213 1
      vertex 2.71655 -1.49344 1
      vertex 2.71655 1.49344 1
    endloop
  endfacet
  facet normal 0 0 1
    outer loop
      vertex 2.50795 1.82213 1
      vertex 2.50795 -1.82213 1
      vertex 2.71655 -1.49344 1
    endloop
  endfacet
  facet normal 0 0 1
    outer loop
      vertex 2.2598 2.1221 1
      vertex 2.50795 -1.82213 1
      vertex 2.50795 1.82213 1
    endloop
  endfacet
  facet normal 0 0 1
    outer loop
      vertex 2.2598 2.1221 1
      vertex 2.2598 -2.1221 1
      vertex 2.50795 -1.82213 1
    endloop
  endfacet
  facet normal 0 0 1
    outer loop
      vertex 1.97601 2.38859 1
      vertex 2.2598 -2.1221 1
      vertex 2.2598 2.1221 1
    endloop
  endfacet
  facet normal 0 0 1
    outer loop
      vertex 1.97601 2.38859 1
      vertex 1.97601 -2.38859 1
      vertex 2.2598 -2.1221 1
    endloop
  endfacet
  facet normal 0 0 1
    outer loop
      vertex 1.66106 2.61742 1
      vertex 1.97601 -2.38859 1
      vertex 1.97601 2.38859 1
    endloop
  endfacet
  facet normal 0 0 1
    outer loop
      vertex 1.66106 2.61742 1
      vertex 1.66106 -2.61742 1
      vertex 1.97601 -2.38859 1
    endloop
  endfacet
  facet normal 0 0 1
    outer loop
      vertex 1.31992 2.80496 1
      vertex 1.66106 -2.61742 1
      vertex 1.66106 2.61742 1
    endloop
  endfacet
  facet normal 0 0 1
    outer loop
      vertex 1.31992 2.80496 1
      vertex 1.31992 -2.80496 1
      vertex 1.66106 -2.61742 1
    endloop
  endfacet
  facet normal 0 0 1
    outer loop
      vertex 0.957952 2.94827 1
      vertex 1.31992 -2.80496 1
      vertex 1.31992 2.80496 1
    endloop
  endfacet
  facet normal 0 0 1
    outer loop
      vertex 0.957952 2.94827 1
      vertex 0.957952 -2.94827 1
      vertex 1.31992 -2.80496 1
    endloop
  endfacet
  facet normal 0 0 1
    outer loop
      vertex 0.580882 3.04509 1
      vertex 0.957952 -2.94827 1
      vertex 0.957952 2.94827 1
    endloop
  endfacet
  facet normal 0 0 1
    outer loop
      vertex 0.580882 3.04509 1
      vertex 0.580882 -3.04509 1
      vertex 0.957952 -2.94827 1
    endloop
  endfacet
  facet normal 0 0 1
    outer loop
      vertex 0.19465 3.09388 1
      vertex 0.580882 -3.04509 1
      vertex 0.580882 3.04509 1
    endloop
  endfacet
  facet normal 0 0 1
    outer loop
      vertex 0.19465 3.09388 1
      vertex 0.19465 -3.09388 1
      vertex 0.580882 -3.04509 1
    endloop
  endfacet
  facet normal -0 0 1
    outer loop
      vertex -0.19465 3.09388 1
      vertex 0.19465 -3.09388 1
      vertex 0.19465 3.09388 1
    endloop
  endfacet
  facet normal 0 0 1
    outer loop
      vertex -0.19465 3.09388 1
      vertex -0.19465 -3.09388 1
      vertex 0.19465 -3.09388 1
    endloop
  endfacet
  facet normal -0 0 1
    outer loop
      vertex -0.580882 3.04509 1
      vertex -0.19465 -3.09388 1
      vertex -0.19465 3.09388 1
    endloop
  endfacet
  facet normal 0 0 1
    outer loop
      vertex -0.580882 3.04509 1
      vertex -0.580882 -3.04509 1
      vertex -0.19465 -3.09388 1
    endloop
  endfacet
  facet normal -0 0 1
    outer loop
      vertex -0.957952 2.94827 1
      vertex -0.580882 -3.04509 1
      vertex -0.580882 3.04509 1
    endloop
  endfacet
  facet normal 0 0 1
    outer loop
      vertex -0.957952 2.94827 1
      vertex -0.957952 -2.94827 1
      vertex -0.580882 -3.04509 1
    endloop
  endfacet
  facet normal -0 0 1
    outer loop
      vertex -1.31992 2.80496 1
      vertex -0.957952 -2.94827 1
      vertex -0.957952 2.94827 1
    endloop
  endfacet
  facet normal 0 0 1
    outer loop
      vertex -1.31992 2.80496 1
      vertex -1.31992 -2.80496 1
      vertex -0.957952 -2.94827 1
    endloop
  endfacet
  facet normal -0 0 1
    outer loop
      vertex -1.66106 2.61742 1
      vertex -1.31992 -2.80496 1
      vertex -1.31992 2.80496 1
    endloop
  endfacet
  facet normal 0 0 1
    outer loop
      vertex -1.66106 2.61742 1
      vertex -1.66106 -2.61742 1
      vertex -1.31992 -2.80496 1
    endloop
  endfacet
  facet normal -0 0 1
    outer loop
      vertex -1.97601 2.38859 1
      vertex -1.66106 -2.61742 1
      vertex -1.66106 2.61742 1
    endloop
  endfacet
  facet normal 0 0 1
    outer loop
      vertex -1.97601 2.38859 1
      vertex -1.97601 -2.38859 1
      vertex -1.66106 -2.61742 1
    endloop
  endfacet
  facet normal -0 0 1
    outer loop
      vertex -2.2598 2.1221 1
      vertex -1.97601 -2.38859 1
      vertex -1.97601 2.38859 1
    endloop
  endfacet
  facet normal 0 0 1
    outer loop
      vertex -2.2598 2.1221 1
      vertex -2.2598 -2.1221 1
      vertex -1.97601 -2.38859 1
    endloop
  endfacet
  facet normal -0 0 1
    outer loop
      vertex -2.50795 1.82213 1
      vertex -2.2598 -2.1221 1
      vertex -2.2598 2.1221 1
    endloop
  endfacet
  facet normal 0 0 1
    outer loop
      vertex -2.50795 1.82213 1
      vertex -2.50795 -1.82213 1
      vertex -2.2598 -2.1221 1
    endloop
  endfacet
  facet normal -0 0 1
    outer loop
      vertex -2.71655 1.49344 1
      vertex -2.50795 -1.82213 1
      vertex -2.50795 1.82213 1
    endloop
  endfacet
  facet normal 0 0 1
    outer loop
      vertex -2.71655 1.49344 1
      vertex -2.71655 -1.49344 1
      vertex -2.50795 -1.82213 1
    endloop
  endfacet
  facet normal -0 0 1
    outer loop
      vertex -2.88231 1.14119 1
      vertex -2.71655 -1.49344 1
      vertex -2.71655 1.49344 1
    endloop
  endfacet
  facet normal 0 0 1
    outer loop
      vertex -2.88231 1.14119 1
      vertex -2.88231 -1.14119 1
      vertex -2.71655 -1.49344 1
    endloop
  endfacet
  facet normal -0 0 1
    outer loop
      vertex -3.00261 0.770938 1
      vertex -2.88231 -1.14119 1
      vertex -2.88231 1.14119 1
    endloop
  endfacet
  facet normal 0 0 1
    outer loop
      vertex -3.00261 0.770938 1
      vertex -3.00261 -0.770938 1
      vertex -2.88231 -1.14119 1
    endloop
  endfacet
  facet normal -0 0 1
    outer loop
      vertex -3.07555 0.388533 1
      vertex -3.00261 -0.770938 1
      vertex -3.00261 0.770938 1
    endloop
  endfacet
  facet normal 0 0 1
    outer loop
      vertex -3.07555 0.388533 1
      vertex -3.07555 -0.388533 1
      vertex -3.00261 -0.770938 1
    endloop
  endfacet
  facet normal 0 -0 1
    outer loop
      vertex -3.07555 -0.388533 1
      vertex -3.07555 0.388533 1
      vertex -3.1 0 1
    endloop
  endfacet
  facet normal -0.587794 0.80901 0
    outer loop
      vertex 1.97601 -2.38859 1
      vertex 1.66106 -2.61742 40
      vertex 1.97601 -2.38859 40
    endloop
  endfacet
  facet normal -0.587794 0.80901 0
    outer loop
      vertex 1.66106 -2.61742 40
      vertex 1.97601 -2.38859 1
      vertex 1.66106 -2.61742 1
    endloop
  endfacet
  facet normal 0.368117 0.929779 -0
    outer loop
      vertex -0.957952 -2.94827 1
      vertex -1.31992 -2.80496 40
      vertex -0.957952 -2.94827 40
    endloop
  endfacet
  facet normal 0.368117 0.929779 0
    outer loop
      vertex -1.31992 -2.80496 40
      vertex -0.957952 -2.94827 1
      vertex -1.31992 -2.80496 1
    endloop
  endfacet
  facet normal 0.770522 -0.637414 0
    outer loop
      vertex -2.50795 1.82213 40
      vertex -2.2598 2.1221 1
      vertex -2.2598 2.1221 40
    endloop
  endfacet
  facet normal 0.770522 -0.637414 0
    outer loop
      vertex -2.2598 2.1221 1
      vertex -2.50795 1.82213 40
      vertex -2.50795 1.82213 1
    endloop
  endfacet
  facet normal 0.84432 0.53584 0
    outer loop
      vertex -2.50795 -1.82213 40
      vertex -2.71655 -1.49344 1
      vertex -2.71655 -1.49344 40
    endloop
  endfacet
  facet normal 0.84432 0.53584 0
    outer loop
      vertex -2.71655 -1.49344 1
      vertex -2.50795 -1.82213 40
      vertex -2.50795 -1.82213 1
    endloop
  endfacet
  facet normal 0.125327 -0.992115 0
    outer loop
      vertex -0.580882 3.04509 1
      vertex -0.19465 3.09388 40
      vertex -0.580882 3.04509 40
    endloop
  endfacet
  facet normal 0.125327 -0.992115 0
    outer loop
      vertex -0.19465 3.09388 40
      vertex -0.580882 3.04509 1
      vertex -0.19465 3.09388 1
    endloop
  endfacet
  facet normal 0.368117 -0.929779 0
    outer loop
      vertex -1.31992 2.80496 1
      vertex -0.957952 2.94827 40
      vertex -1.31992 2.80496 40
    endloop
  endfacet
  facet normal 0.368117 -0.929779 0
    outer loop
      vertex -0.957952 2.94827 40
      vertex -1.31992 2.80496 1
      vertex -0.957952 2.94827 1
    endloop
  endfacet
  facet normal -0.982291 0.187362 0
    outer loop
      vertex 3.00261 -0.770938 1
      vertex 3.07555 -0.388533 40
      vertex 3.07555 -0.388533 1
    endloop
  endfacet
  facet normal -0.982291 0.187362 0
    outer loop
      vertex 3.07555 -0.388533 40
      vertex 3.00261 -0.770938 1
      vertex 3.00261 -0.770938 40
    endloop
  endfacet
  facet normal 0.904823 0.425787 0
    outer loop
      vertex -2.71655 -1.49344 40
      vertex -2.88231 -1.14119 1
      vertex -2.88231 -1.14119 40
    endloop
  endfacet
  facet normal 0.904823 0.425787 0
    outer loop
      vertex -2.88231 -1.14119 1
      vertex -2.71655 -1.49344 40
      vertex -2.71655 -1.49344 1
    endloop
  endfacet
  facet normal -0.368117 0.929779 0
    outer loop
      vertex 1.31992 -2.80496 1
      vertex 0.957952 -2.94827 40
      vertex 1.31992 -2.80496 40
    endloop
  endfacet
  facet normal -0.368117 0.929779 0
    outer loop
      vertex 0.957952 -2.94827 40
      vertex 1.31992 -2.80496 1
      vertex 0.957952 -2.94827 1
    endloop
  endfacet
  facet normal -0.904823 0.425787 0
    outer loop
      vertex 2.71655 -1.49344 1
      vertex 2.88231 -1.14119 40
      vertex 2.88231 -1.14119 1
    endloop
  endfacet
  facet normal -0.904823 0.425787 0
    outer loop
      vertex 2.88231 -1.14119 40
      vertex 2.71655 -1.49344 1
      vertex 2.71655 -1.49344 40
    endloop
  endfacet
  facet normal -0.248702 -0.96858 0
    outer loop
      vertex 0.580882 3.04509 1
      vertex 0.957952 2.94827 40
      vertex 0.580882 3.04509 40
    endloop
  endfacet
  facet normal -0.248702 -0.96858 -0
    outer loop
      vertex 0.957952 2.94827 40
      vertex 0.580882 3.04509 1
      vertex 0.957952 2.94827 1
    endloop
  endfacet
  facet normal 0.770522 0.637414 0
    outer loop
      vertex -2.2598 -2.1221 40
      vertex -2.50795 -1.82213 1
      vertex -2.50795 -1.82213 40
    endloop
  endfacet
  facet normal 0.770522 0.637414 0
    outer loop
      vertex -2.50795 -1.82213 1
      vertex -2.2598 -2.1221 40
      vertex -2.2598 -2.1221 1
    endloop
  endfacet
  facet normal 0 -1 0
    outer loop
      vertex -0.19465 3.09388 1
      vertex 0.19465 3.09388 40
      vertex -0.19465 3.09388 40
    endloop
  endfacet
  facet normal 0 -1 -0
    outer loop
      vertex 0.19465 3.09388 40
      vertex -0.19465 3.09388 1
      vertex 0.19465 3.09388 1
    endloop
  endfacet
  facet normal 0.248702 0.96858 -0
    outer loop
      vertex -0.580882 -3.04509 1
      vertex -0.957952 -2.94827 40
      vertex -0.580882 -3.04509 40
    endloop
  endfacet
  facet normal 0.248702 0.96858 0
    outer loop
      vertex -0.957952 -2.94827 40
      vertex -0.580882 -3.04509 1
      vertex -0.957952 -2.94827 1
    endloop
  endfacet
  facet normal 0.481747 0.87631 -0
    outer loop
      vertex -1.31992 -2.80496 1
      vertex -1.66106 -2.61742 40
      vertex -1.31992 -2.80496 40
    endloop
  endfacet
  facet normal 0.481747 0.87631 0
    outer loop
      vertex -1.66106 -2.61742 40
      vertex -1.31992 -2.80496 1
      vertex -1.66106 -2.61742 1
    endloop
  endfacet
  facet normal 0.481747 -0.87631 0
    outer loop
      vertex -1.66106 2.61742 1
      vertex -1.31992 2.80496 40
      vertex -1.66106 2.61742 40
    endloop
  endfacet
  facet normal 0.481747 -0.87631 0
    outer loop
      vertex -1.31992 2.80496 40
      vertex -1.66106 2.61742 1
      vertex -1.31992 2.80496 1
    endloop
  endfacet
  facet normal -0.248702 0.96858 0
    outer loop
      vertex 0.957952 -2.94827 1
      vertex 0.580882 -3.04509 40
      vertex 0.957952 -2.94827 40
    endloop
  endfacet
  facet normal -0.248702 0.96858 0
    outer loop
      vertex 0.580882 -3.04509 40
      vertex 0.957952 -2.94827 1
      vertex 0.580882 -3.04509 1
    endloop
  endfacet
  facet normal 0.904823 -0.425787 0
    outer loop
      vertex -2.88231 1.14119 40
      vertex -2.71655 1.49344 1
      vertex -2.71655 1.49344 40
    endloop
  endfacet
  facet normal 0.904823 -0.425787 0
    outer loop
      vertex -2.71655 1.49344 1
      vertex -2.88231 1.14119 40
      vertex -2.88231 1.14119 1
    endloop
  endfacet
  facet normal 0.125327 0.992115 -0
    outer loop
      vertex -0.19465 -3.09388 1
      vertex -0.580882 -3.04509 40
      vertex -0.19465 -3.09388 40
    endloop
  endfacet
  facet normal 0.125327 0.992115 0
    outer loop
      vertex -0.580882 -3.04509 40
      vertex -0.19465 -3.09388 1
      vertex -0.580882 -3.04509 1
    endloop
  endfacet
  facet normal 0.982291 -0.187362 0
    outer loop
      vertex -3.07555 0.388533 40
      vertex -3.00261 0.770938 1
      vertex -3.00261 0.770938 40
    endloop
  endfacet
  facet normal 0.982291 -0.187362 0
    outer loop
      vertex -3.00261 0.770938 1
      vertex -3.07555 0.388533 40
      vertex -3.07555 0.388533 1
    endloop
  endfacet
  facet normal -0.125327 -0.992115 0
    outer loop
      vertex 0.19465 3.09388 1
      vertex 0.580882 3.04509 40
      vertex 0.19465 3.09388 40
    endloop
  endfacet
  facet normal -0.125327 -0.992115 -0
    outer loop
      vertex 0.580882 3.04509 40
      vertex 0.19465 3.09388 1
      vertex 0.580882 3.04509 1
    endloop
  endfacet
endsolid OpenSCAD_Model
