solid OpenSCAD_Model
  facet normal 1 -0 0
    outer loop
      vertex 118.75 40 30
      vertex 118.75 157.5 0
      vertex 118.75 157.5 30
    endloop
  endfacet
  facet normal 1 0 0
    outer loop
      vertex 118.75 157.5 0
      vertex 118.75 40 30
      vertex 118.75 40 0
    endloop
  endfacet
  facet normal 1 -0 0
    outer loop
      vertex 118.75 0 30
      vertex 118.75 30 0
      vertex 118.75 30 30
    endloop
  endfacet
  facet normal 1 0 0
    outer loop
      vertex 118.75 30 0
      vertex 118.75 0 30
      vertex 118.75 0 0
    endloop
  endfacet
  facet normal 0 0 1
    outer loop
      vertex 39.6 162.1 30
      vertex 30.4 162.1 30
      vertex 39.6 157.5 30
    endloop
  endfacet
  facet normal 0 0 1
    outer loop
      vertex 118.75 157.5 30
      vertex 113.75 40 30
      vertex 118.75 40 30
    endloop
  endfacet
  facet normal 0 0 1
    outer loop
      vertex 5 40 30
      vertex 113.75 40 30
      vertex 39.6 157.5 30
    endloop
  endfacet
  facet normal -0 0 1
    outer loop
      vertex 39.6 157.5 30
      vertex 113.75 40 30
      vertex 118.75 157.5 30
    endloop
  endfacet
  facet normal -0 0 1
    outer loop
      vertex 113.75 30 30
      vertex 118.75 0 30
      vertex 118.75 30 30
    endloop
  endfacet
  facet normal 0 0 1
    outer loop
      vertex 113.75 40 30
      vertex 5 40 30
      vertex 113.75 30 30
    endloop
  endfacet
  facet normal 0 0 1
    outer loop
      vertex 30.4 157.5 30
      vertex 39.6 157.5 30
      vertex 30.4 162.1 30
    endloop
  endfacet
  facet normal 0 0 1
    outer loop
      vertex 5 40 30
      vertex 39.6 157.5 30
      vertex 30.4 157.5 30
    endloop
  endfacet
  facet normal 0 0 1
    outer loop
      vertex 5 30 30
      vertex 113.75 30 30
      vertex 5 40 30
    endloop
  endfacet
  facet normal 0 0 1
    outer loop
      vertex 113.75 30 30
      vertex 5 30 30
      vertex 118.75 0 30
    endloop
  endfacet
  facet normal 0 0 1
    outer loop
      vertex 0 0 30
      vertex 5 30 30
      vertex 0 30 30
    endloop
  endfacet
  facet normal 0 0 1
    outer loop
      vertex 5 30 30
      vertex 0 0 30
      vertex 118.75 0 30
    endloop
  endfacet
  facet normal -0 0 1
    outer loop
      vertex 0 157.5 30
      vertex 5 40 30
      vertex 30.4 157.5 30
    endloop
  endfacet
  facet normal 0 0 1
    outer loop
      vertex 5 40 30
      vertex 0 157.5 30
      vertex 0 40 30
    endloop
  endfacet
  facet normal 0 0 -1
    outer loop
      vertex 118.75 0 0
      vertex 113.75 30 0
      vertex 118.75 30 0
    endloop
  endfacet
  facet normal 0 0 -1
    outer loop
      vertex 5 40 0
      vertex 113.75 40 0
      vertex 113.75 30 0
    endloop
  endfacet
  facet normal 0 0 -1
    outer loop
      vertex 5 30 0
      vertex 113.75 30 0
      vertex 118.75 0 0
    endloop
  endfacet
  facet normal 0 0 -1
    outer loop
      vertex 39.6 157.5 0
      vertex 30.4 157.5 0
      vertex 39.6 162.1 0
    endloop
  endfacet
  facet normal 0 0 -1
    outer loop
      vertex 113.75 40 0
      vertex 5 40 0
      vertex 39.6 157.5 0
    endloop
  endfacet
  facet normal 0 0 -1
    outer loop
      vertex 113.75 30 0
      vertex 5 30 0
      vertex 5 40 0
    endloop
  endfacet
  facet normal 0 0 -1
    outer loop
      vertex 0 0 0
      vertex 5 30 0
      vertex 118.75 0 0
    endloop
  endfacet
  facet normal -0 0 -1
    outer loop
      vertex 5 30 0
      vertex 0 0 0
      vertex 0 30 0
    endloop
  endfacet
  facet normal 0 0 -1
    outer loop
      vertex 113.75 40 0
      vertex 118.75 157.5 0
      vertex 118.75 40 0
    endloop
  endfacet
  facet normal -0 0 -1
    outer loop
      vertex 118.75 157.5 0
      vertex 113.75 40 0
      vertex 39.6 157.5 0
    endloop
  endfacet
  facet normal -0 0 -1
    outer loop
      vertex 39.6 162.1 0
      vertex 30.4 157.5 0
      vertex 30.4 162.1 0
    endloop
  endfacet
  facet normal -0 0 -1
    outer loop
      vertex 39.6 157.5 0
      vertex 5 40 0
      vertex 30.4 157.5 0
    endloop
  endfacet
  facet normal 0 0 -1
    outer loop
      vertex 0 157.5 0
      vertex 5 40 0
      vertex 0 40 0
    endloop
  endfacet
  facet normal 0 0 -1
    outer loop
      vertex 5 40 0
      vertex 0 157.5 0
      vertex 30.4 157.5 0
    endloop
  endfacet
  facet normal -1 0 0
    outer loop
      vertex 0 40 0
      vertex 0 157.5 30
      vertex 0 157.5 0
    endloop
  endfacet
  facet normal -1 -0 0
    outer loop
      vertex 0 157.5 30
      vertex 0 40 0
      vertex 0 40 30
    endloop
  endfacet
  facet normal -1 0 0
    outer loop
      vertex 0 0 0
      vertex 0 30 30
      vertex 0 30 0
    endloop
  endfacet
  facet normal -1 -0 0
    outer loop
      vertex 0 30 30
      vertex 0 0 0
      vertex 0 0 30
    endloop
  endfacet
  facet normal 0 1 -0
    outer loop
      vertex 30.4 157.5 0
      vertex 0 157.5 30
      vertex 30.4 157.5 30
    endloop
  endfacet
  facet normal 0 1 0
    outer loop
      vertex 0 157.5 30
      vertex 30.4 157.5 0
      vertex 0 157.5 0
    endloop
  endfacet
  facet normal 0 1 -0
    outer loop
      vertex 118.75 157.5 0
      vertex 39.6 157.5 30
      vertex 118.75 157.5 30
    endloop
  endfacet
  facet normal 0 1 0
    outer loop
      vertex 39.6 157.5 30
      vertex 118.75 157.5 0
      vertex 39.6 157.5 0
    endloop
  endfacet
  facet normal 0 -1 0
    outer loop
      vertex 0 0 0
      vertex 118.75 0 30
      vertex 0 0 30
    endloop
  endfacet
  facet normal 0 -1 -0
    outer loop
      vertex 118.75 0 30
      vertex 0 0 0
      vertex 118.75 0 0
    endloop
  endfacet
  facet normal 1 -0 0
    outer loop
      vertex 113.75 30 30
      vertex 113.75 40 0
      vertex 113.75 40 30
    endloop
  endfacet
  facet normal 1 0 0
    outer loop
      vertex 113.75 40 0
      vertex 113.75 30 30
      vertex 113.75 30 0
    endloop
  endfacet
  facet normal 0 -1 0
    outer loop
      vertex 113.75 40 0
      vertex 118.75 40 30
      vertex 113.75 40 30
    endloop
  endfacet
  facet normal 0 -1 -0
    outer loop
      vertex 118.75 40 30
      vertex 113.75 40 0
      vertex 118.75 40 0
    endloop
  endfacet
  facet normal 0 1 -0
    outer loop
      vertex 118.75 30 0
      vertex 113.75 30 30
      vertex 118.75 30 30
    endloop
  endfacet
  facet normal 0 1 0
    outer loop
      vertex 113.75 30 30
      vertex 118.75 30 0
      vertex 113.75 30 0
    endloop
  endfacet
  facet normal -1 0 0
    outer loop
      vertex 5 30 0
      vertex 5 40 30
      vertex 5 40 0
    endloop
  endfacet
  facet normal -1 -0 0
    outer loop
      vertex 5 40 30
      vertex 5 30 0
      vertex 5 30 30
    endloop
  endfacet
  facet normal 0 -1 0
    outer loop
      vertex 0 40 0
      vertex 5 40 30
      vertex 0 40 30
    endloop
  endfacet
  facet normal 0 -1 -0
    outer loop
      vertex 5 40 30
      vertex 0 40 0
      vertex 5 40 0
    endloop
  endfacet
  facet normal 0 1 -0
    outer loop
      vertex 5 30 0
      vertex 0 30 30
      vertex 5 30 30
    endloop
  endfacet
  facet normal 0 1 0
    outer loop
      vertex 0 30 30
      vertex 5 30 0
      vertex 0 30 0
    endloop
  endfacet
  facet normal 1 -0 0
    outer loop
      vertex 39.6 157.5 30
      vertex 39.6 162.1 0
      vertex 39.6 162.1 30
    endloop
  endfacet
  facet normal 1 0 0
    outer loop
      vertex 39.6 162.1 0
      vertex 39.6 157.5 30
      vertex 39.6 157.5 0
    endloop
  endfacet
  facet normal -1 0 0
    outer loop
      vertex 30.4 157.5 0
      vertex 30.4 162.1 30
      vertex 30.4 162.1 0
    endloop
  endfacet
  facet normal -1 -0 0
    outer loop
      vertex 30.4 162.1 30
      vertex 30.4 157.5 0
      vertex 30.4 157.5 30
    endloop
  endfacet
  facet normal 0 1 -0
    outer loop
      vertex 39.6 162.1 0
      vertex 30.4 162.1 30
      vertex 39.6 162.1 30
    endloop
  endfacet
  facet normal 0 1 0
    outer loop
      vertex 30.4 162.1 30
      vertex 39.6 162.1 0
      vertex 30.4 162.1 0
    endloop
  endfacet
endsolid OpenSCAD_Model
