solid OpenSCAD_Model
  facet normal 1 -0 0
    outer loop
      vertex 118.75 62.5 30
      vertex 118.75 157.5 0
      vertex 118.75 157.5 30
    endloop
  endfacet
  facet normal 1 0 0
    outer loop
      vertex 118.75 157.5 0
      vertex 118.75 62.5 30
      vertex 118.75 62.5 0
    endloop
  endfacet
  facet normal 1 -0 0
    outer loop
      vertex 118.75 0 30
      vertex 118.75 52.5 0
      vertex 118.75 52.5 30
    endloop
  endfacet
  facet normal 1 0 0
    outer loop
      vertex 118.75 52.5 0
      vertex 118.75 0 30
      vertex 118.75 0 0
    endloop
  endfacet
  facet normal -0 0 1
    outer loop
      vertex -4.6 62.1 30
      vertex 0 52.9 30
      vertex 0 62.1 30
    endloop
  endfacet
  facet normal 0 0 1
    outer loop
      vertex 0 52.9 30
      vertex -4.6 62.1 30
      vertex -4.6 52.9 30
    endloop
  endfacet
  facet normal 0 0 1
    outer loop
      vertex 118.75 157.5 30
      vertex 113.75 62.5 30
      vertex 118.75 62.5 30
    endloop
  endfacet
  facet normal 0 0 1
    outer loop
      vertex 78.75 5 30
      vertex 113.75 52.5 30
      vertex 113.75 62.5 30
    endloop
  endfacet
  facet normal -0 0 1
    outer loop
      vertex 0 157.5 30
      vertex 113.75 62.5 30
      vertex 118.75 157.5 30
    endloop
  endfacet
  facet normal 0 0 1
    outer loop
      vertex 113.75 52.5 30
      vertex 78.75 5 30
      vertex 88.75 5 30
    endloop
  endfacet
  facet normal 0 0 1
    outer loop
      vertex 113.75 62.5 30
      vertex 0 157.5 30
      vertex 0 62.1 30
    endloop
  endfacet
  facet normal 0 0 1
    outer loop
      vertex 113.75 62.5 30
      vertex 0 62.1 30
      vertex 78.75 5 30
    endloop
  endfacet
  facet normal -0 0 1
    outer loop
      vertex 0 52.9 30
      vertex 78.75 5 30
      vertex 0 62.1 30
    endloop
  endfacet
  facet normal 0 0 1
    outer loop
      vertex 0 0 30
      vertex 78.75 5 30
      vertex 0 52.9 30
    endloop
  endfacet
  facet normal 0 0 1
    outer loop
      vertex 78.75 5 30
      vertex 0 0 30
      vertex 78.75 0 30
    endloop
  endfacet
  facet normal -0 0 1
    outer loop
      vertex 113.75 52.5 30
      vertex 118.75 0 30
      vertex 118.75 52.5 30
    endloop
  endfacet
  facet normal -0 0 1
    outer loop
      vertex 88.75 5 30
      vertex 118.75 0 30
      vertex 113.75 52.5 30
    endloop
  endfacet
  facet normal 0 0 1
    outer loop
      vertex 118.75 0 30
      vertex 88.75 5 30
      vertex 88.75 0 30
    endloop
  endfacet
  facet normal 0 0 -1
    outer loop
      vertex 78.75 0 0
      vertex 0 0 0
      vertex 78.75 5 0
    endloop
  endfacet
  facet normal 0 0 -1
    outer loop
      vertex 118.75 0 0
      vertex 113.75 52.5 0
      vertex 118.75 52.5 0
    endloop
  endfacet
  facet normal 0 0 -1
    outer loop
      vertex 118.75 0 0
      vertex 88.75 5 0
      vertex 113.75 52.5 0
    endloop
  endfacet
  facet normal 0 0 -1
    outer loop
      vertex 88.75 5 0
      vertex 118.75 0 0
      vertex 88.75 0 0
    endloop
  endfacet
  facet normal 0 0 -1
    outer loop
      vertex 113.75 62.5 0
      vertex 118.75 157.5 0
      vertex 118.75 62.5 0
    endloop
  endfacet
  facet normal 0 0 -1
    outer loop
      vertex 78.75 5 0
      vertex 113.75 52.5 0
      vertex 88.75 5 0
    endloop
  endfacet
  facet normal -0 0 -1
    outer loop
      vertex 113.75 52.5 0
      vertex 78.75 5 0
      vertex 113.75 62.5 0
    endloop
  endfacet
  facet normal 0 0 -1
    outer loop
      vertex 0 62.1 0
      vertex 113.75 62.5 0
      vertex 78.75 5 0
    endloop
  endfacet
  facet normal 0 0 -1
    outer loop
      vertex 0 52.9 0
      vertex 78.75 5 0
      vertex 0 0 0
    endloop
  endfacet
  facet normal 0 0 -1
    outer loop
      vertex 0 62.1 0
      vertex 78.75 5 0
      vertex 0 52.9 0
    endloop
  endfacet
  facet normal 0 0 -1
    outer loop
      vertex 0 157.5 0
      vertex 113.75 62.5 0
      vertex 0 62.1 0
    endloop
  endfacet
  facet normal 0 0 -1
    outer loop
      vertex 113.75 62.5 0
      vertex 0 157.5 0
      vertex 118.75 157.5 0
    endloop
  endfacet
  facet normal 0 0 -1
    outer loop
      vertex -4.6 52.9 0
      vertex 0 62.1 0
      vertex 0 52.9 0
    endloop
  endfacet
  facet normal -0 0 -1
    outer loop
      vertex 0 62.1 0
      vertex -4.6 52.9 0
      vertex -4.6 62.1 0
    endloop
  endfacet
  facet normal -1 0 0
    outer loop
      vertex 0 62.1 0
      vertex 0 157.5 30
      vertex 0 157.5 0
    endloop
  endfacet
  facet normal -1 -0 0
    outer loop
      vertex 0 157.5 30
      vertex 0 62.1 0
      vertex 0 62.1 30
    endloop
  endfacet
  facet normal -1 0 0
    outer loop
      vertex 0 0 0
      vertex 0 52.9 30
      vertex 0 52.9 0
    endloop
  endfacet
  facet normal -1 -0 0
    outer loop
      vertex 0 52.9 30
      vertex 0 0 0
      vertex 0 0 30
    endloop
  endfacet
  facet normal 0 1 -0
    outer loop
      vertex 118.75 157.5 0
      vertex 0 157.5 30
      vertex 118.75 157.5 30
    endloop
  endfacet
  facet normal 0 1 0
    outer loop
      vertex 0 157.5 30
      vertex 118.75 157.5 0
      vertex 0 157.5 0
    endloop
  endfacet
  facet normal 0 -1 0
    outer loop
      vertex 0 0 0
      vertex 78.75 0 30
      vertex 0 0 30
    endloop
  endfacet
  facet normal 0 -1 -0
    outer loop
      vertex 78.75 0 30
      vertex 0 0 0
      vertex 78.75 0 0
    endloop
  endfacet
  facet normal 0 -1 0
    outer loop
      vertex 88.75 0 0
      vertex 118.75 0 30
      vertex 88.75 0 30
    endloop
  endfacet
  facet normal 0 -1 -0
    outer loop
      vertex 118.75 0 30
      vertex 88.75 0 0
      vertex 118.75 0 0
    endloop
  endfacet
  facet normal 1 -0 0
    outer loop
      vertex 113.75 52.5 30
      vertex 113.75 62.5 0
      vertex 113.75 62.5 30
    endloop
  endfacet
  facet normal 1 0 0
    outer loop
      vertex 113.75 62.5 0
      vertex 113.75 52.5 30
      vertex 113.75 52.5 0
    endloop
  endfacet
  facet normal 0 -1 0
    outer loop
      vertex 113.75 62.5 0
      vertex 118.75 62.5 30
      vertex 113.75 62.5 30
    endloop
  endfacet
  facet normal 0 -1 -0
    outer loop
      vertex 118.75 62.5 30
      vertex 113.75 62.5 0
      vertex 118.75 62.5 0
    endloop
  endfacet
  facet normal 0 1 -0
    outer loop
      vertex 118.75 52.5 0
      vertex 113.75 52.5 30
      vertex 118.75 52.5 30
    endloop
  endfacet
  facet normal 0 1 0
    outer loop
      vertex 113.75 52.5 30
      vertex 118.75 52.5 0
      vertex 113.75 52.5 0
    endloop
  endfacet
  facet normal -1 0 0
    outer loop
      vertex 88.75 0 0
      vertex 88.75 5 30
      vertex 88.75 5 0
    endloop
  endfacet
  facet normal -1 -0 0
    outer loop
      vertex 88.75 5 30
      vertex 88.75 0 0
      vertex 88.75 0 30
    endloop
  endfacet
  facet normal 1 -0 0
    outer loop
      vertex 78.75 0 30
      vertex 78.75 5 0
      vertex 78.75 5 30
    endloop
  endfacet
  facet normal 1 0 0
    outer loop
      vertex 78.75 5 0
      vertex 78.75 0 30
      vertex 78.75 0 0
    endloop
  endfacet
  facet normal 0 -1 0
    outer loop
      vertex 78.75 5 0
      vertex 88.75 5 30
      vertex 78.75 5 30
    endloop
  endfacet
  facet normal 0 -1 -0
    outer loop
      vertex 88.75 5 30
      vertex 78.75 5 0
      vertex 88.75 5 0
    endloop
  endfacet
  facet normal -1 0 0
    outer loop
      vertex -4.6 52.9 0
      vertex -4.6 62.1 30
      vertex -4.6 62.1 0
    endloop
  endfacet
  facet normal -1 -0 0
    outer loop
      vertex -4.6 62.1 30
      vertex -4.6 52.9 0
      vertex -4.6 52.9 30
    endloop
  endfacet
  facet normal 0 1 -0
    outer loop
      vertex 0 62.1 0
      vertex -4.6 62.1 30
      vertex 0 62.1 30
    endloop
  endfacet
  facet normal 0 1 0
    outer loop
      vertex -4.6 62.1 30
      vertex 0 62.1 0
      vertex -4.6 62.1 0
    endloop
  endfacet
  facet normal 0 -1 0
    outer loop
      vertex -4.6 52.9 0
      vertex 0 52.9 30
      vertex -4.6 52.9 30
    endloop
  endfacet
  facet normal 0 -1 -0
    outer loop
      vertex 0 52.9 30
      vertex -4.6 52.9 0
      vertex 0 52.9 0
    endloop
  endfacet
endsolid OpenSCAD_Model
