solid OpenSCAD_Model
  facet normal 0.248685 -0.968585 0
    outer loop
      vertex 1.68643 -8.84058 8.66721
      vertex 2.78115 -8.55951 13
      vertex 1.68643 -8.84058 13
    endloop
  endfacet
  facet normal 0.248669 -0.968589 4.18698e-06
    outer loop
      vertex 1.75292 -8.82351 8.61891
      vertex 2.78115 -8.55951 13
      vertex 1.68643 -8.84058 8.66721
    endloop
  endfacet
  facet normal 0.248672 -0.968588 3.49381e-06
    outer loop
      vertex 2.00466 -8.75888 8.3825
      vertex 2.78115 -8.55951 13
      vertex 1.75292 -8.82351 8.61891
    endloop
  endfacet
  facet normal 0.248682 -0.968585 1.66062e-06
    outer loop
      vertex 2.2248 -8.70236 8.11641
      vertex 2.78115 -8.55951 13
      vertex 2.00466 -8.75888 8.3825
    endloop
  endfacet
  facet normal 0.248732 -0.968572 -4.35087e-06
    outer loop
      vertex 2.40984 -8.65484 7.82482
      vertex 2.78115 -8.55951 13
      vertex 2.2248 -8.70236 8.11641
    endloop
  endfacet
  facet normal 0.248669 -0.968588 4.0942e-07
    outer loop
      vertex 2.55688 -8.61709 7.51234
      vertex 2.78115 -8.55951 13
      vertex 2.40984 -8.65484 7.82482
    endloop
  endfacet
  facet normal 0.248681 -0.968585 -8.8734e-08
    outer loop
      vertex 2.6636 -8.58969 7.1839
      vertex 2.78115 -8.55951 13
      vertex 2.55688 -8.61709 7.51234
    endloop
  endfacet
  facet normal 0.248723 -0.968575 -1.00372e-06
    outer loop
      vertex 2.72832 -8.57307 6.84467
      vertex 2.78115 -8.55951 13
      vertex 2.6636 -8.58969 7.1839
    endloop
  endfacet
  facet normal 0.248442 -0.968647 1.57123e-06
    outer loop
      vertex 2.75 -8.56751 6.5
      vertex 2.78115 -8.55951 13
      vertex 2.72832 -8.57307 6.84467
    endloop
  endfacet
  facet normal 0.248685 -0.968585 0
    outer loop
      vertex 2.78115 -8.55951 0
      vertex 1.68643 -8.84058 4.33278
      vertex 1.68643 -8.84058 0
    endloop
  endfacet
  facet normal 0.248669 -0.968589 -4.18686e-06
    outer loop
      vertex 1.68643 -8.84058 4.33278
      vertex 2.78115 -8.55951 0
      vertex 1.75292 -8.82351 4.38109
    endloop
  endfacet
  facet normal 0.248672 -0.968588 -3.49383e-06
    outer loop
      vertex 1.75292 -8.82351 4.38109
      vertex 2.78115 -8.55951 0
      vertex 2.00466 -8.75888 4.61749
    endloop
  endfacet
  facet normal 0.248682 -0.968585 -1.66061e-06
    outer loop
      vertex 2.00466 -8.75888 4.61749
      vertex 2.78115 -8.55951 0
      vertex 2.2248 -8.70236 4.88359
    endloop
  endfacet
  facet normal 0.248732 -0.968572 4.35087e-06
    outer loop
      vertex 2.2248 -8.70236 4.88359
      vertex 2.78115 -8.55951 0
      vertex 2.40984 -8.65484 5.17518
    endloop
  endfacet
  facet normal 0.248669 -0.968588 -4.0942e-07
    outer loop
      vertex 2.40984 -8.65484 5.17518
      vertex 2.78115 -8.55951 0
      vertex 2.55688 -8.61709 5.48766
    endloop
  endfacet
  facet normal 0.248681 -0.968585 8.8734e-08
    outer loop
      vertex 2.55688 -8.61709 5.48766
      vertex 2.78115 -8.55951 0
      vertex 2.6636 -8.58969 5.8161
    endloop
  endfacet
  facet normal 0.248749 -0.968568 0
    outer loop
      vertex 2.75 -8.56751 6.5
      vertex 2.78115 -8.55951 0
      vertex 2.78115 -8.55951 13
    endloop
  endfacet
  facet normal 0.248442 -0.968647 -1.57123e-06
    outer loop
      vertex 2.72832 -8.57307 6.15533
      vertex 2.78115 -8.55951 0
      vertex 2.75 -8.56751 6.5
    endloop
  endfacet
  facet normal 0.248723 -0.968575 1.00372e-06
    outer loop
      vertex 2.6636 -8.58969 5.8161
      vertex 2.78115 -8.55951 0
      vertex 2.72832 -8.57307 6.15533
    endloop
  endfacet
  facet normal 0.368128 -0.929775 0
    outer loop
      vertex 2.78115 -8.55951 0
      vertex 3.83201 -8.14344 13
      vertex 2.78115 -8.55951 13
    endloop
  endfacet
  facet normal 0.368128 -0.929775 0
    outer loop
      vertex 3.83201 -8.14344 13
      vertex 2.78115 -8.55951 0
      vertex 3.83201 -8.14344 0
    endloop
  endfacet
  facet normal -0.481751 -0.876308 0
    outer loop
      vertex -4.82244 -7.59895 0
      vertex -3.83201 -8.14344 13
      vertex -4.82244 -7.59895 13
    endloop
  endfacet
  facet normal -0.481751 -0.876308 -0
    outer loop
      vertex -3.83201 -8.14344 13
      vertex -4.82244 -7.59895 0
      vertex -3.83201 -8.14344 0
    endloop
  endfacet
  facet normal 0.844328 -0.535826 0
    outer loop
      vertex 7.28115 -5.29007 13
      vertex 7.88676 -4.33578 0
      vertex 7.88676 -4.33578 13
    endloop
  endfacet
  facet normal 0.844328 -0.535826 0
    outer loop
      vertex 7.88676 -4.33578 0
      vertex 7.28115 -5.29007 13
      vertex 7.28115 -5.29007 0
    endloop
  endfacet
  facet normal -0.982288 -0.187378 0
    outer loop
      vertex -8.71725 -2.23821 0
      vertex -8.92903 -1.128 13
      vertex -8.92903 -1.128 0
    endloop
  endfacet
  facet normal -0.982288 -0.187378 0
    outer loop
      vertex -8.92903 -1.128 13
      vertex -8.71725 -2.23821 0
      vertex -8.71725 -2.23821 13
    endloop
  endfacet
  facet normal -0.998027 -0.0627925 0
    outer loop
      vertex -8.92903 -1.128 0
      vertex -9 0 13
      vertex -9 0 0
    endloop
  endfacet
  facet normal -0.998027 -0.0627925 0
    outer loop
      vertex -9 0 13
      vertex -8.92903 -1.128 0
      vertex -8.92903 -1.128 13
    endloop
  endfacet
  facet normal 0.481751 -0.876308 0
    outer loop
      vertex 3.83201 -8.14344 0
      vertex 4.82244 -7.59895 13
      vertex 3.83201 -8.14344 13
    endloop
  endfacet
  facet normal 0.481751 -0.876308 0
    outer loop
      vertex 4.82244 -7.59895 13
      vertex 3.83201 -8.14344 0
      vertex 4.82244 -7.59895 0
    endloop
  endfacet
  facet normal -0.125348 -0.992113 0
    outer loop
      vertex -1.68643 -8.84058 0
      vertex -1.47352 -8.86748 4.1781
      vertex -1.68643 -8.84058 4.33278
    endloop
  endfacet
  facet normal -0.12533 -0.992115 -9.14156e-07
    outer loop
      vertex -1.68643 -8.84058 0
      vertex -1.17089 -8.90571 4.01173
      vertex -1.47352 -8.86748 4.1781
    endloop
  endfacet
  facet normal -0.125352 -0.992112 1.90962e-06
    outer loop
      vertex -1.68643 -8.84058 0
      vertex -0.849796 -8.94628 3.88459
      vertex -1.17089 -8.90571 4.01173
    endloop
  endfacet
  facet normal -0.125322 -0.992116 -4.70014e-06
    outer loop
      vertex -1.68643 -8.84058 0
      vertex -0.565114 -8.98224 3.8115
      vertex -0.849796 -8.94628 3.88459
    endloop
  endfacet
  facet normal -0.125337 -0.992114 -0
    outer loop
      vertex -0.565114 -8.98224 3.8115
      vertex -1.68643 -8.84058 0
      vertex -0.565114 -8.98224 0
    endloop
  endfacet
  facet normal -0.125337 -0.992114 0
    outer loop
      vertex -1.68643 -8.84058 13
      vertex -0.565114 -8.98224 9.1885
      vertex -0.565114 -8.98224 13
    endloop
  endfacet
  facet normal -0.125322 -0.992116 4.70014e-06
    outer loop
      vertex -1.68643 -8.84058 13
      vertex -0.849796 -8.94628 9.11541
      vertex -0.565114 -8.98224 9.1885
    endloop
  endfacet
  facet normal -0.125352 -0.992112 -1.90962e-06
    outer loop
      vertex -1.68643 -8.84058 13
      vertex -1.17089 -8.90571 8.98827
      vertex -0.849796 -8.94628 9.11541
    endloop
  endfacet
  facet normal -0.12533 -0.992115 9.14156e-07
    outer loop
      vertex -1.68643 -8.84058 13
      vertex -1.47352 -8.86748 8.8219
      vertex -1.17089 -8.90571 8.98827
    endloop
  endfacet
  facet normal -0.125348 -0.992113 0
    outer loop
      vertex -1.47352 -8.86748 8.8219
      vertex -1.68643 -8.84058 13
      vertex -1.68643 -8.84058 8.66721
    endloop
  endfacet
  facet normal 0.982288 -0.187378 0
    outer loop
      vertex 8.71725 -2.23821 13
      vertex 8.92903 -1.128 0
      vertex 8.92903 -1.128 13
    endloop
  endfacet
  facet normal 0.982288 -0.187378 0
    outer loop
      vertex 8.92903 -1.128 0
      vertex 8.71725 -2.23821 13
      vertex 8.71725 -2.23821 0
    endloop
  endfacet
  facet normal 0.951056 -0.309017 0
    outer loop
      vertex 8.36799 -3.31312 13
      vertex 8.71725 -2.23821 0
      vertex 8.71725 -2.23821 13
    endloop
  endfacet
  facet normal 0.951056 -0.309017 0
    outer loop
      vertex 8.71725 -2.23821 0
      vertex 8.36799 -3.31312 13
      vertex 8.36799 -3.31312 0
    endloop
  endfacet
  facet normal 0.125337 -0.992114 0
    outer loop
      vertex 0.565114 -8.98224 9.1885
      vertex 1.68643 -8.84058 13
      vertex 0.565114 -8.98224 13
    endloop
  endfacet
  facet normal 0.125322 -0.992116 4.70014e-06
    outer loop
      vertex 0.849796 -8.94628 9.11541
      vertex 1.68643 -8.84058 13
      vertex 0.565114 -8.98224 9.1885
    endloop
  endfacet
  facet normal 0.125352 -0.992112 -1.90962e-06
    outer loop
      vertex 1.17089 -8.90571 8.98827
      vertex 1.68643 -8.84058 13
      vertex 0.849796 -8.94628 9.11541
    endloop
  endfacet
  facet normal 0.12533 -0.992115 9.14156e-07
    outer loop
      vertex 1.47352 -8.86748 8.8219
      vertex 1.68643 -8.84058 13
      vertex 1.17089 -8.90571 8.98827
    endloop
  endfacet
  facet normal 0.125348 -0.992113 0
    outer loop
      vertex 1.68643 -8.84058 13
      vertex 1.47352 -8.86748 8.8219
      vertex 1.68643 -8.84058 8.66721
    endloop
  endfacet
  facet normal 0.125337 -0.992114 0
    outer loop
      vertex 1.68643 -8.84058 0
      vertex 0.565114 -8.98224 3.8115
      vertex 0.565114 -8.98224 0
    endloop
  endfacet
  facet normal 0.125322 -0.992116 -4.70014e-06
    outer loop
      vertex 0.565114 -8.98224 3.8115
      vertex 1.68643 -8.84058 0
      vertex 0.849796 -8.94628 3.88459
    endloop
  endfacet
  facet normal 0.125352 -0.992112 1.90962e-06
    outer loop
      vertex 0.849796 -8.94628 3.88459
      vertex 1.68643 -8.84058 0
      vertex 1.17089 -8.90571 4.01173
    endloop
  endfacet
  facet normal 0.12533 -0.992115 -9.14156e-07
    outer loop
      vertex 1.17089 -8.90571 4.01173
      vertex 1.68643 -8.84058 0
      vertex 1.47352 -8.86748 4.1781
    endloop
  endfacet
  facet normal 0.125348 -0.992113 0
    outer loop
      vertex 1.47352 -8.86748 4.1781
      vertex 1.68643 -8.84058 0
      vertex 1.68643 -8.84058 4.33278
    endloop
  endfacet
  facet normal -0.951056 -0.309017 0
    outer loop
      vertex -8.36799 -3.31312 0
      vertex -8.71725 -2.23821 13
      vertex -8.71725 -2.23821 0
    endloop
  endfacet
  facet normal -0.951056 -0.309017 0
    outer loop
      vertex -8.71725 -2.23821 13
      vertex -8.36799 -3.31312 0
      vertex -8.36799 -3.31312 13
    endloop
  endfacet
  facet normal 0.770513 -0.637424 0
    outer loop
      vertex 6.56072 -6.16092 13
      vertex 7.28115 -5.29007 0
      vertex 7.28115 -5.29007 13
    endloop
  endfacet
  facet normal 0.770513 -0.637424 0
    outer loop
      vertex 7.28115 -5.29007 0
      vertex 6.56072 -6.16092 13
      vertex 6.56072 -6.16092 0
    endloop
  endfacet
  facet normal -0.368128 -0.929775 0
    outer loop
      vertex -3.83201 -8.14344 0
      vertex -2.78115 -8.55951 13
      vertex -3.83201 -8.14344 13
    endloop
  endfacet
  facet normal -0.368128 -0.929775 -0
    outer loop
      vertex -2.78115 -8.55951 13
      vertex -3.83201 -8.14344 0
      vertex -2.78115 -8.55951 0
    endloop
  endfacet
  facet normal 0.68455 -0.728966 0
    outer loop
      vertex 5.73682 -6.93462 0
      vertex 6.56072 -6.16092 13
      vertex 5.73682 -6.93462 13
    endloop
  endfacet
  facet normal 0.68455 -0.728966 0
    outer loop
      vertex 6.56072 -6.16092 13
      vertex 5.73682 -6.93462 0
      vertex 6.56072 -6.16092 0
    endloop
  endfacet
  facet normal 0.998027 -0.0627925 0
    outer loop
      vertex 8.92903 -1.128 13
      vertex 9 0 0
      vertex 9 0 13
    endloop
  endfacet
  facet normal 0.998027 -0.0627925 0
    outer loop
      vertex 9 0 0
      vertex 8.92903 -1.128 13
      vertex 8.92903 -1.128 0
    endloop
  endfacet
  facet normal 0 0 -1
    outer loop
      vertex 8.71725 -2.23821 0
      vertex 9 0 0
      vertex 8.92903 -1.128 0
    endloop
  endfacet
  facet normal 0 0 -1
    outer loop
      vertex 8.36799 -3.31312 0
      vertex 9 0 0
      vertex 8.71725 -2.23821 0
    endloop
  endfacet
  facet normal 0 0 -1
    outer loop
      vertex 7.88676 -4.33578 0
      vertex 9 0 0
      vertex 8.36799 -3.31312 0
    endloop
  endfacet
  facet normal 0 0 -1
    outer loop
      vertex 7.28115 -5.29007 0
      vertex 9 0 0
      vertex 7.88676 -4.33578 0
    endloop
  endfacet
  facet normal 0 0 -1
    outer loop
      vertex 6.56072 -6.16092 0
      vertex 9 0 0
      vertex 7.28115 -5.29007 0
    endloop
  endfacet
  facet normal 0 0 -1
    outer loop
      vertex 5.73682 -6.93462 0
      vertex 9 0 0
      vertex 6.56072 -6.16092 0
    endloop
  endfacet
  facet normal 0 0 -1
    outer loop
      vertex 4.82244 -7.59895 0
      vertex 9 0 0
      vertex 5.73682 -6.93462 0
    endloop
  endfacet
  facet normal 0 0 -1
    outer loop
      vertex 3.83201 -8.14344 0
      vertex 9 0 0
      vertex 4.82244 -7.59895 0
    endloop
  endfacet
  facet normal 0 0 -1
    outer loop
      vertex 2.78115 -8.55951 0
      vertex 9 0 0
      vertex 3.83201 -8.14344 0
    endloop
  endfacet
  facet normal 0 0 -1
    outer loop
      vertex 1.68643 -8.84058 0
      vertex 9 0 0
      vertex 2.78115 -8.55951 0
    endloop
  endfacet
  facet normal 0 0 -1
    outer loop
      vertex 0.565114 -8.98224 0
      vertex 9 0 0
      vertex 1.68643 -8.84058 0
    endloop
  endfacet
  facet normal 0 0 -1
    outer loop
      vertex -0.565114 -8.98224 0
      vertex 9 0 0
      vertex 0.565114 -8.98224 0
    endloop
  endfacet
  facet normal 0 0 -1
    outer loop
      vertex -1.68643 -8.84058 0
      vertex 9 0 0
      vertex -0.565114 -8.98224 0
    endloop
  endfacet
  facet normal 0 0 -1
    outer loop
      vertex -2.78115 -8.55951 0
      vertex 9 0 0
      vertex -1.68643 -8.84058 0
    endloop
  endfacet
  facet normal 0 0 -1
    outer loop
      vertex -3.83201 -8.14344 0
      vertex 9 0 0
      vertex -2.78115 -8.55951 0
    endloop
  endfacet
  facet normal 0 0 -1
    outer loop
      vertex -4.82244 -7.59895 0
      vertex 9 0 0
      vertex -3.83201 -8.14344 0
    endloop
  endfacet
  facet normal 0 0 -1
    outer loop
      vertex -5.73682 -6.93462 0
      vertex 9 0 0
      vertex -4.82244 -7.59895 0
    endloop
  endfacet
  facet normal 0 0 -1
    outer loop
      vertex -6.56072 -6.16092 0
      vertex 9 0 0
      vertex -5.73682 -6.93462 0
    endloop
  endfacet
  facet normal 0 0 -1
    outer loop
      vertex -7.28115 -5.29007 0
      vertex 9 0 0
      vertex -6.56072 -6.16092 0
    endloop
  endfacet
  facet normal 0 0 -1
    outer loop
      vertex -7.88676 -4.33578 0
      vertex 9 0 0
      vertex -7.28115 -5.29007 0
    endloop
  endfacet
  facet normal 0 0 -1
    outer loop
      vertex -8.36799 -3.31312 0
      vertex 9 0 0
      vertex -7.88676 -4.33578 0
    endloop
  endfacet
  facet normal 0 0 -1
    outer loop
      vertex -8.71725 -2.23821 0
      vertex 9 0 0
      vertex -8.36799 -3.31312 0
    endloop
  endfacet
  facet normal 0 0 -1
    outer loop
      vertex -8.92903 -1.128 0
      vertex 9 0 0
      vertex -8.71725 -2.23821 0
    endloop
  endfacet
  facet normal -0 0 -1
    outer loop
      vertex 9 0 0
      vertex -8.92903 -1.128 0
      vertex -9 0 0
    endloop
  endfacet
  facet normal 0 -1 -0
    outer loop
      vertex -0.172673 -8.98224 3.75543
      vertex -0.565114 -8.98224 0
      vertex 0.172673 -8.98224 3.75543
    endloop
  endfacet
  facet normal 0 -1 -0
    outer loop
      vertex -0.515298 -8.98224 3.79871
      vertex -0.565114 -8.98224 0
      vertex -0.172673 -8.98224 3.75543
    endloop
  endfacet
  facet normal 0 -1 0
    outer loop
      vertex -0.565114 -8.98224 0
      vertex -0.515298 -8.98224 3.79871
      vertex -0.565114 -8.98224 3.8115
    endloop
  endfacet
  facet normal 0 -1 0
    outer loop
      vertex 0.565114 -8.98224 0
      vertex 0.172673 -8.98224 3.75543
      vertex -0.565114 -8.98224 0
    endloop
  endfacet
  facet normal 0 -1 0
    outer loop
      vertex 0.172673 -8.98224 3.75543
      vertex 0.565114 -8.98224 0
      vertex 0.515298 -8.98224 3.79871
    endloop
  endfacet
  facet normal 0 -1 0
    outer loop
      vertex 0.515298 -8.98224 3.79871
      vertex 0.565114 -8.98224 0
      vertex 0.565114 -8.98224 3.8115
    endloop
  endfacet
  facet normal 0 -1 0
    outer loop
      vertex -0.565114 -8.98224 13
      vertex -0.172673 -8.98224 9.24457
      vertex 0.565114 -8.98224 13
    endloop
  endfacet
  facet normal 0 -1 0
    outer loop
      vertex -0.565114 -8.98224 13
      vertex -0.515298 -8.98224 9.20129
      vertex -0.172673 -8.98224 9.24457
    endloop
  endfacet
  facet normal -0 -1 0
    outer loop
      vertex -0.515298 -8.98224 9.20129
      vertex -0.565114 -8.98224 13
      vertex -0.565114 -8.98224 9.1885
    endloop
  endfacet
  facet normal 0 -1 0
    outer loop
      vertex 0.172673 -8.98224 9.24457
      vertex 0.565114 -8.98224 13
      vertex -0.172673 -8.98224 9.24457
    endloop
  endfacet
  facet normal 0 -1 0
    outer loop
      vertex 0.515298 -8.98224 9.20129
      vertex 0.565114 -8.98224 13
      vertex 0.172673 -8.98224 9.24457
    endloop
  endfacet
  facet normal 0 -1 -0
    outer loop
      vertex 0.565114 -8.98224 13
      vertex 0.515298 -8.98224 9.20129
      vertex 0.565114 -8.98224 9.1885
    endloop
  endfacet
  facet normal 0.904826 -0.425781 0
    outer loop
      vertex 7.88676 -4.33578 13
      vertex 8.36799 -3.31312 0
      vertex 8.36799 -3.31312 13
    endloop
  endfacet
  facet normal 0.904826 -0.425781 0
    outer loop
      vertex 8.36799 -3.31312 0
      vertex 7.88676 -4.33578 13
      vertex 7.88676 -4.33578 0
    endloop
  endfacet
  facet normal -0.904826 -0.425781 0
    outer loop
      vertex -7.88676 -4.33578 0
      vertex -8.36799 -3.31312 13
      vertex -8.36799 -3.31312 0
    endloop
  endfacet
  facet normal -0.904826 -0.425781 0
    outer loop
      vertex -8.36799 -3.31312 13
      vertex -7.88676 -4.33578 0
      vertex -7.88676 -4.33578 13
    endloop
  endfacet
  facet normal -0.68455 -0.728966 0
    outer loop
      vertex -6.56072 -6.16092 0
      vertex -5.73682 -6.93462 13
      vertex -6.56072 -6.16092 13
    endloop
  endfacet
  facet normal -0.68455 -0.728966 -0
    outer loop
      vertex -5.73682 -6.93462 13
      vertex -6.56072 -6.16092 0
      vertex -5.73682 -6.93462 0
    endloop
  endfacet
  facet normal -0.587782 -0.80902 0
    outer loop
      vertex -5.73682 -6.93462 0
      vertex -4.82244 -7.59895 13
      vertex -5.73682 -6.93462 13
    endloop
  endfacet
  facet normal -0.587782 -0.80902 -0
    outer loop
      vertex -4.82244 -7.59895 13
      vertex -5.73682 -6.93462 0
      vertex -4.82244 -7.59895 0
    endloop
  endfacet
  facet normal -0.248685 -0.968585 0
    outer loop
      vertex -2.78115 -8.55951 13
      vertex -1.68643 -8.84058 8.66721
      vertex -1.68643 -8.84058 13
    endloop
  endfacet
  facet normal -0.248669 -0.968589 4.18698e-06
    outer loop
      vertex -2.78115 -8.55951 13
      vertex -1.75292 -8.82351 8.61891
      vertex -1.68643 -8.84058 8.66721
    endloop
  endfacet
  facet normal -0.248672 -0.968588 3.49381e-06
    outer loop
      vertex -2.78115 -8.55951 13
      vertex -2.00466 -8.75888 8.3825
      vertex -1.75292 -8.82351 8.61891
    endloop
  endfacet
  facet normal -0.248682 -0.968585 1.66062e-06
    outer loop
      vertex -2.78115 -8.55951 13
      vertex -2.2248 -8.70236 8.11641
      vertex -2.00466 -8.75888 8.3825
    endloop
  endfacet
  facet normal -0.248732 -0.968572 -4.35087e-06
    outer loop
      vertex -2.78115 -8.55951 13
      vertex -2.40984 -8.65484 7.82482
      vertex -2.2248 -8.70236 8.11641
    endloop
  endfacet
  facet normal -0.248669 -0.968588 4.0942e-07
    outer loop
      vertex -2.78115 -8.55951 13
      vertex -2.55688 -8.61709 7.51234
      vertex -2.40984 -8.65484 7.82482
    endloop
  endfacet
  facet normal -0.248681 -0.968585 -8.8734e-08
    outer loop
      vertex -2.78115 -8.55951 13
      vertex -2.6636 -8.58969 7.1839
      vertex -2.55688 -8.61709 7.51234
    endloop
  endfacet
  facet normal -0.248723 -0.968575 -1.00372e-06
    outer loop
      vertex -2.78115 -8.55951 13
      vertex -2.72832 -8.57307 6.84467
      vertex -2.6636 -8.58969 7.1839
    endloop
  endfacet
  facet normal -0.248442 -0.968647 1.57123e-06
    outer loop
      vertex -2.78115 -8.55951 13
      vertex -2.75 -8.56751 6.5
      vertex -2.72832 -8.57307 6.84467
    endloop
  endfacet
  facet normal -0.248749 -0.968568 0
    outer loop
      vertex -2.78115 -8.55951 0
      vertex -2.75 -8.56751 6.5
      vertex -2.78115 -8.55951 13
    endloop
  endfacet
  facet normal -0.248442 -0.968647 -1.57123e-06
    outer loop
      vertex -2.78115 -8.55951 0
      vertex -2.72832 -8.57307 6.15533
      vertex -2.75 -8.56751 6.5
    endloop
  endfacet
  facet normal -0.248723 -0.968575 1.00372e-06
    outer loop
      vertex -2.78115 -8.55951 0
      vertex -2.6636 -8.58969 5.8161
      vertex -2.72832 -8.57307 6.15533
    endloop
  endfacet
  facet normal -0.248681 -0.968585 8.8734e-08
    outer loop
      vertex -2.78115 -8.55951 0
      vertex -2.55688 -8.61709 5.48766
      vertex -2.6636 -8.58969 5.8161
    endloop
  endfacet
  facet normal -0.248669 -0.968588 -4.0942e-07
    outer loop
      vertex -2.78115 -8.55951 0
      vertex -2.40984 -8.65484 5.17518
      vertex -2.55688 -8.61709 5.48766
    endloop
  endfacet
  facet normal -0.248732 -0.968572 4.35087e-06
    outer loop
      vertex -2.78115 -8.55951 0
      vertex -2.2248 -8.70236 4.88359
      vertex -2.40984 -8.65484 5.17518
    endloop
  endfacet
  facet normal -0.248682 -0.968585 -1.66061e-06
    outer loop
      vertex -2.78115 -8.55951 0
      vertex -2.00466 -8.75888 4.61749
      vertex -2.2248 -8.70236 4.88359
    endloop
  endfacet
  facet normal -0.248672 -0.968588 -3.49383e-06
    outer loop
      vertex -2.78115 -8.55951 0
      vertex -1.75292 -8.82351 4.38109
      vertex -2.00466 -8.75888 4.61749
    endloop
  endfacet
  facet normal -0.248669 -0.968589 -4.18686e-06
    outer loop
      vertex -2.78115 -8.55951 0
      vertex -1.68643 -8.84058 4.33278
      vertex -1.75292 -8.82351 4.38109
    endloop
  endfacet
  facet normal -0.248685 -0.968585 -0
    outer loop
      vertex -1.68643 -8.84058 4.33278
      vertex -2.78115 -8.55951 0
      vertex -1.68643 -8.84058 0
    endloop
  endfacet
  facet normal 0.587782 -0.80902 0
    outer loop
      vertex 4.82244 -7.59895 0
      vertex 5.73682 -6.93462 13
      vertex 4.82244 -7.59895 13
    endloop
  endfacet
  facet normal 0.587782 -0.80902 0
    outer loop
      vertex 5.73682 -6.93462 13
      vertex 4.82244 -7.59895 0
      vertex 5.73682 -6.93462 0
    endloop
  endfacet
  facet normal -0.844328 -0.535826 0
    outer loop
      vertex -7.28115 -5.29007 0
      vertex -7.88676 -4.33578 13
      vertex -7.88676 -4.33578 0
    endloop
  endfacet
  facet normal -0.844328 -0.535826 0
    outer loop
      vertex -7.88676 -4.33578 13
      vertex -7.28115 -5.29007 0
      vertex -7.28115 -5.29007 13
    endloop
  endfacet
  facet normal -0.770513 -0.637424 0
    outer loop
      vertex -6.56072 -6.16092 0
      vertex -7.28115 -5.29007 13
      vertex -7.28115 -5.29007 0
    endloop
  endfacet
  facet normal -0.770513 -0.637424 0
    outer loop
      vertex -7.28115 -5.29007 13
      vertex -6.56072 -6.16092 0
      vertex -6.56072 -6.16092 13
    endloop
  endfacet
  facet normal 0 0 1
    outer loop
      vertex 9 0 13
      vertex 8.71725 -2.23821 13
      vertex 8.92903 -1.128 13
    endloop
  endfacet
  facet normal 0 0 1
    outer loop
      vertex 9 0 13
      vertex 8.36799 -3.31312 13
      vertex 8.71725 -2.23821 13
    endloop
  endfacet
  facet normal 0 0 1
    outer loop
      vertex 9 0 13
      vertex 7.88676 -4.33578 13
      vertex 8.36799 -3.31312 13
    endloop
  endfacet
  facet normal 0 0 1
    outer loop
      vertex 9 0 13
      vertex 7.28115 -5.29007 13
      vertex 7.88676 -4.33578 13
    endloop
  endfacet
  facet normal 0 0 1
    outer loop
      vertex 9 0 13
      vertex 6.56072 -6.16092 13
      vertex 7.28115 -5.29007 13
    endloop
  endfacet
  facet normal 0 0 1
    outer loop
      vertex 9 0 13
      vertex 5.73682 -6.93462 13
      vertex 6.56072 -6.16092 13
    endloop
  endfacet
  facet normal 0 0 1
    outer loop
      vertex 9 0 13
      vertex 4.82244 -7.59895 13
      vertex 5.73682 -6.93462 13
    endloop
  endfacet
  facet normal 0 0 1
    outer loop
      vertex 9 0 13
      vertex 3.83201 -8.14344 13
      vertex 4.82244 -7.59895 13
    endloop
  endfacet
  facet normal 0 0 1
    outer loop
      vertex 9 0 13
      vertex 2.78115 -8.55951 13
      vertex 3.83201 -8.14344 13
    endloop
  endfacet
  facet normal 0 0 1
    outer loop
      vertex 9 0 13
      vertex 1.68643 -8.84058 13
      vertex 2.78115 -8.55951 13
    endloop
  endfacet
  facet normal 0 0 1
    outer loop
      vertex 9 0 13
      vertex 0.565114 -8.98224 13
      vertex 1.68643 -8.84058 13
    endloop
  endfacet
  facet normal 0 0 1
    outer loop
      vertex 9 0 13
      vertex -0.565114 -8.98224 13
      vertex 0.565114 -8.98224 13
    endloop
  endfacet
  facet normal 0 0 1
    outer loop
      vertex 9 0 13
      vertex -1.68643 -8.84058 13
      vertex -0.565114 -8.98224 13
    endloop
  endfacet
  facet normal 0 0 1
    outer loop
      vertex 9 0 13
      vertex -2.78115 -8.55951 13
      vertex -1.68643 -8.84058 13
    endloop
  endfacet
  facet normal 0 0 1
    outer loop
      vertex 9 0 13
      vertex -3.83201 -8.14344 13
      vertex -2.78115 -8.55951 13
    endloop
  endfacet
  facet normal 0 0 1
    outer loop
      vertex 9 0 13
      vertex -4.82244 -7.59895 13
      vertex -3.83201 -8.14344 13
    endloop
  endfacet
  facet normal 0 0 1
    outer loop
      vertex 9 0 13
      vertex -5.73682 -6.93462 13
      vertex -4.82244 -7.59895 13
    endloop
  endfacet
  facet normal 0 0 1
    outer loop
      vertex 9 0 13
      vertex -6.56072 -6.16092 13
      vertex -5.73682 -6.93462 13
    endloop
  endfacet
  facet normal 0 0 1
    outer loop
      vertex 9 0 13
      vertex -7.28115 -5.29007 13
      vertex -6.56072 -6.16092 13
    endloop
  endfacet
  facet normal 0 0 1
    outer loop
      vertex 9 0 13
      vertex -7.88676 -4.33578 13
      vertex -7.28115 -5.29007 13
    endloop
  endfacet
  facet normal 0 0 1
    outer loop
      vertex 9 0 13
      vertex -8.36799 -3.31312 13
      vertex -7.88676 -4.33578 13
    endloop
  endfacet
  facet normal 0 0 1
    outer loop
      vertex 9 0 13
      vertex -8.71725 -2.23821 13
      vertex -8.36799 -3.31312 13
    endloop
  endfacet
  facet normal 0 0 1
    outer loop
      vertex 9 0 13
      vertex -8.92903 -1.128 13
      vertex -8.71725 -2.23821 13
    endloop
  endfacet
  facet normal 0 -0 1
    outer loop
      vertex -8.92903 -1.128 13
      vertex 9 0 13
      vertex -9 0 13
    endloop
  endfacet
  facet normal 0 1 0
    outer loop
      vertex 9 0 13
      vertex 2.5 0 10.8301
      vertex -9 0 13
    endloop
  endfacet
  facet normal 0 1 0
    outer loop
      vertex 9 0 13
      vertex 5 0 6.5
      vertex 2.5 0 10.8301
    endloop
  endfacet
  facet normal 0 1 -0
    outer loop
      vertex 9 0 0
      vertex 5 0 6.5
      vertex 9 0 13
    endloop
  endfacet
  facet normal 0 1 0
    outer loop
      vertex 2.5 0 2.16987
      vertex 9 0 0
      vertex -2.5 0 2.16987
    endloop
  endfacet
  facet normal 0 1 0
    outer loop
      vertex 5 0 6.5
      vertex 9 0 0
      vertex 2.5 0 2.16987
    endloop
  endfacet
  facet normal 0 1 -0
    outer loop
      vertex -2.5 0 10.8301
      vertex -9 0 13
      vertex 2.5 0 10.8301
    endloop
  endfacet
  facet normal 0 1 -0
    outer loop
      vertex -5 0 6.5
      vertex -9 0 13
      vertex -2.5 0 10.8301
    endloop
  endfacet
  facet normal 0 1 0
    outer loop
      vertex -9 0 0
      vertex -5 0 6.5
      vertex -2.5 0 2.16987
    endloop
  endfacet
  facet normal 0 1 0
    outer loop
      vertex -5 0 6.5
      vertex -9 0 0
      vertex -9 0 13
    endloop
  endfacet
  facet normal 0 1 0
    outer loop
      vertex -9 0 0
      vertex -2.5 0 2.16987
      vertex 9 0 0
    endloop
  endfacet
  facet normal 0.998028 -0 0.0627767
    outer loop
      vertex -2.75 -8.56751 6.5
      vertex -2.72832 -4 6.15533
      vertex -2.75 -4 6.5
    endloop
  endfacet
  facet normal 0.998028 0 0.0627767
    outer loop
      vertex -2.72832 -4 6.15533
      vertex -2.75 -8.56751 6.5
      vertex -2.72832 -8.57307 6.15533
    endloop
  endfacet
  facet normal -0.982283 0 -0.187405
    outer loop
      vertex 2.72832 -8.57307 6.84467
      vertex 2.6636 -4 7.1839
      vertex 2.72832 -4 6.84467
    endloop
  endfacet
  facet normal -0.982283 -0 -0.187405
    outer loop
      vertex 2.6636 -4 7.1839
      vertex 2.72832 -8.57307 6.84467
      vertex 2.6636 -8.58969 7.1839
    endloop
  endfacet
  facet normal -0.998028 0 -0.0627767
    outer loop
      vertex 2.75 -8.56751 6.5
      vertex 2.72832 -4 6.84467
      vertex 2.75 -4 6.5
    endloop
  endfacet
  facet normal -0.998028 -0 -0.0627767
    outer loop
      vertex 2.72832 -4 6.84467
      vertex 2.75 -8.56751 6.5
      vertex 2.72832 -8.57307 6.84467
    endloop
  endfacet
  facet normal -0.125323 0 -0.992116
    outer loop
      vertex 0.172673 -8.98224 9.24457
      vertex 0.515298 -4 9.20129
      vertex 0.515298 -8.98224 9.20129
    endloop
  endfacet
  facet normal -0.125323 0 -0.992116
    outer loop
      vertex 0.515298 -4 9.20129
      vertex 0.172673 -8.98224 9.24457
      vertex 0.172673 -4 9.24457
    endloop
  endfacet
  facet normal -0.248679 1.69453e-05 -0.968586
    outer loop
      vertex 0.515298 -8.98224 9.20129
      vertex 0.849796 -8.94628 9.11541
      vertex 0.565114 -8.98224 9.1885
    endloop
  endfacet
  facet normal -0.248678 0 -0.968586
    outer loop
      vertex 0.849796 -8.94628 9.11541
      vertex 0.515298 -8.98224 9.20129
      vertex 0.515298 -4 9.20129
    endloop
  endfacet
  facet normal -0.248678 0 -0.968586
    outer loop
      vertex 0.849796 -8.94628 9.11541
      vertex 0.515298 -4 9.20129
      vertex 0.849796 -4 9.11541
    endloop
  endfacet
  facet normal 0.951054 0 -0.309026
    outer loop
      vertex -2.55688 -4 7.51234
      vertex -2.6636 -8.58969 7.1839
      vertex -2.6636 -4 7.1839
    endloop
  endfacet
  facet normal 0.951054 0 -0.309026
    outer loop
      vertex -2.6636 -8.58969 7.1839
      vertex -2.55688 -4 7.51234
      vertex -2.55688 -8.61709 7.51234
    endloop
  endfacet
  facet normal -0.982283 0 0.187405
    outer loop
      vertex 2.6636 -4 5.8161
      vertex 2.72832 -8.57307 6.15533
      vertex 2.72832 -4 6.15533
    endloop
  endfacet
  facet normal -0.982283 0 0.187405
    outer loop
      vertex 2.72832 -8.57307 6.15533
      vertex 2.6636 -4 5.8161
      vertex 2.6636 -8.58969 5.8161
    endloop
  endfacet
  facet normal 0.982283 -0 0.187405
    outer loop
      vertex -2.72832 -8.57307 6.15533
      vertex -2.6636 -4 5.8161
      vertex -2.72832 -4 6.15533
    endloop
  endfacet
  facet normal 0.982283 0 0.187405
    outer loop
      vertex -2.6636 -4 5.8161
      vertex -2.72832 -8.57307 6.15533
      vertex -2.6636 -8.58969 5.8161
    endloop
  endfacet
  facet normal -0.368149 0 0.929767
    outer loop
      vertex 0.849796 -4 3.88459
      vertex 1.17089 -8.90571 4.01173
      vertex 1.17089 -4 4.01173
    endloop
  endfacet
  facet normal -0.368149 0 0.929767
    outer loop
      vertex 1.17089 -8.90571 4.01173
      vertex 0.849796 -4 3.88459
      vertex 0.849796 -8.94628 3.88459
    endloop
  endfacet
  facet normal -0.125323 0 0.992116
    outer loop
      vertex 0.172673 -4 3.75543
      vertex 0.515298 -8.98224 3.79871
      vertex 0.515298 -4 3.79871
    endloop
  endfacet
  facet normal -0.125323 0 0.992116
    outer loop
      vertex 0.515298 -8.98224 3.79871
      vertex 0.172673 -4 3.75543
      vertex 0.172673 -8.98224 3.75543
    endloop
  endfacet
  facet normal -0.904829 0 -0.425775
    outer loop
      vertex 2.55688 -8.61709 7.51234
      vertex 2.40984 -4 7.82482
      vertex 2.55688 -4 7.51234
    endloop
  endfacet
  facet normal -0.904829 -0 -0.425775
    outer loop
      vertex 2.40984 -4 7.82482
      vertex 2.55688 -8.61709 7.51234
      vertex 2.40984 -8.65484 7.82482
    endloop
  endfacet
  facet normal 0.684548 -0 0.728968
    outer loop
      vertex -2.00466 -8.75888 4.61749
      vertex -1.75292 -4 4.38109
      vertex -2.00466 -4 4.61749
    endloop
  endfacet
  facet normal 0.684548 0 0.728968
    outer loop
      vertex -1.75292 -4 4.38109
      vertex -2.00466 -8.75888 4.61749
      vertex -1.75292 -8.82351 4.38109
    endloop
  endfacet
  facet normal -0.951054 0 0.309026
    outer loop
      vertex 2.55688 -4 5.48766
      vertex 2.6636 -8.58969 5.8161
      vertex 2.6636 -4 5.8161
    endloop
  endfacet
  facet normal -0.951054 0 0.309026
    outer loop
      vertex 2.6636 -8.58969 5.8161
      vertex 2.55688 -4 5.48766
      vertex 2.55688 -8.61709 5.48766
    endloop
  endfacet
  facet normal -0.684548 0 0.728968
    outer loop
      vertex 1.75292 -4 4.38109
      vertex 2.00466 -8.75888 4.61749
      vertex 2.00466 -4 4.61749
    endloop
  endfacet
  facet normal -0.684548 0 0.728968
    outer loop
      vertex 2.00466 -8.75888 4.61749
      vertex 1.75292 -4 4.38109
      vertex 1.75292 -8.82351 4.38109
    endloop
  endfacet
  facet normal -0.951054 0 -0.309026
    outer loop
      vertex 2.6636 -8.58969 7.1839
      vertex 2.55688 -4 7.51234
      vertex 2.6636 -4 7.1839
    endloop
  endfacet
  facet normal -0.951054 -0 -0.309026
    outer loop
      vertex 2.55688 -4 7.51234
      vertex 2.6636 -8.58969 7.1839
      vertex 2.55688 -8.61709 7.51234
    endloop
  endfacet
  facet normal 0.982283 0 -0.187405
    outer loop
      vertex -2.6636 -4 7.1839
      vertex -2.72832 -8.57307 6.84467
      vertex -2.72832 -4 6.84467
    endloop
  endfacet
  facet normal 0.982283 0 -0.187405
    outer loop
      vertex -2.72832 -8.57307 6.84467
      vertex -2.6636 -4 7.1839
      vertex -2.6636 -8.58969 7.1839
    endloop
  endfacet
  facet normal 0.770497 0 -0.637443
    outer loop
      vertex -2.00466 -4 8.3825
      vertex -2.2248 -8.70236 8.11641
      vertex -2.2248 -4 8.11641
    endloop
  endfacet
  facet normal 0.770497 0 -0.637443
    outer loop
      vertex -2.2248 -8.70236 8.11641
      vertex -2.00466 -4 8.3825
      vertex -2.00466 -8.75888 8.3825
    endloop
  endfacet
  facet normal -0.248678 0 0.968586
    outer loop
      vertex 0.515298 -4 3.79871
      vertex 0.849796 -8.94628 3.88459
      vertex 0.849796 -4 3.88459
    endloop
  endfacet
  facet normal -0.248678 0 0.968586
    outer loop
      vertex 0.515298 -8.98224 3.79871
      vertex 0.849796 -8.94628 3.88459
      vertex 0.515298 -4 3.79871
    endloop
  endfacet
  facet normal -0.248679 1.69453e-05 0.968586
    outer loop
      vertex 0.849796 -8.94628 3.88459
      vertex 0.515298 -8.98224 3.79871
      vertex 0.565114 -8.98224 3.8115
    endloop
  endfacet
  facet normal 0.481749 0 -0.876309
    outer loop
      vertex -1.47352 -8.86748 8.8219
      vertex -1.17089 -4 8.98827
      vertex -1.17089 -8.90571 8.98827
    endloop
  endfacet
  facet normal 0.481749 0 -0.876309
    outer loop
      vertex -1.17089 -4 8.98827
      vertex -1.47352 -8.86748 8.8219
      vertex -1.47352 -4 8.8219
    endloop
  endfacet
  facet normal 0.248679 1.69453e-05 -0.968586
    outer loop
      vertex -0.849796 -8.94628 9.11541
      vertex -0.515298 -8.98224 9.20129
      vertex -0.565114 -8.98224 9.1885
    endloop
  endfacet
  facet normal 0.248678 0 -0.968586
    outer loop
      vertex -0.515298 -8.98224 9.20129
      vertex -0.849796 -8.94628 9.11541
      vertex -0.515298 -4 9.20129
    endloop
  endfacet
  facet normal 0.248678 0 -0.968586
    outer loop
      vertex -0.515298 -4 9.20129
      vertex -0.849796 -8.94628 9.11541
      vertex -0.849796 -4 9.11541
    endloop
  endfacet
  facet normal -0.481749 -0 -0.876309
    outer loop
      vertex 1.17089 -4 8.98827
      vertex 1.47352 -8.86748 8.8219
      vertex 1.17089 -8.90571 8.98827
    endloop
  endfacet
  facet normal -0.481749 0 -0.876309
    outer loop
      vertex 1.47352 -8.86748 8.8219
      vertex 1.17089 -4 8.98827
      vertex 1.47352 -4 8.8219
    endloop
  endfacet
  facet normal 0.587854 0.000782366 -0.808966
    outer loop
      vertex -1.75292 -8.82351 8.61891
      vertex -1.47352 -8.86748 8.8219
      vertex -1.68643 -8.84058 8.66721
    endloop
  endfacet
  facet normal 0.587774 0 -0.809025
    outer loop
      vertex -1.47352 -8.86748 8.8219
      vertex -1.75292 -8.82351 8.61891
      vertex -1.47352 -4 8.8219
    endloop
  endfacet
  facet normal 0.587774 0 -0.809025
    outer loop
      vertex -1.47352 -4 8.8219
      vertex -1.75292 -8.82351 8.61891
      vertex -1.75292 -4 8.61891
    endloop
  endfacet
  facet normal -0.770497 0 -0.637443
    outer loop
      vertex 2.2248 -8.70236 8.11641
      vertex 2.00466 -4 8.3825
      vertex 2.2248 -4 8.11641
    endloop
  endfacet
  facet normal -0.770497 -0 -0.637443
    outer loop
      vertex 2.00466 -4 8.3825
      vertex 2.2248 -8.70236 8.11641
      vertex 2.00466 -8.75888 8.3825
    endloop
  endfacet
  facet normal -0.844339 0 -0.535809
    outer loop
      vertex 2.40984 -8.65484 7.82482
      vertex 2.2248 -4 8.11641
      vertex 2.40984 -4 7.82482
    endloop
  endfacet
  facet normal -0.844339 -0 -0.535809
    outer loop
      vertex 2.2248 -4 8.11641
      vertex 2.40984 -8.65484 7.82482
      vertex 2.2248 -8.70236 8.11641
    endloop
  endfacet
  facet normal -0.368149 -0 -0.929767
    outer loop
      vertex 0.849796 -4 9.11541
      vertex 1.17089 -8.90571 8.98827
      vertex 0.849796 -8.94628 9.11541
    endloop
  endfacet
  facet normal -0.368149 0 -0.929767
    outer loop
      vertex 1.17089 -8.90571 8.98827
      vertex 0.849796 -4 9.11541
      vertex 1.17089 -4 8.98827
    endloop
  endfacet
  facet normal 0.125323 0 -0.992116
    outer loop
      vertex -0.515298 -8.98224 9.20129
      vertex -0.172673 -4 9.24457
      vertex -0.172673 -8.98224 9.24457
    endloop
  endfacet
  facet normal 0.125323 0 -0.992116
    outer loop
      vertex -0.172673 -4 9.24457
      vertex -0.515298 -8.98224 9.20129
      vertex -0.515298 -4 9.20129
    endloop
  endfacet
  facet normal -0.904829 0 0.425775
    outer loop
      vertex 2.40984 -4 5.17518
      vertex 2.55688 -8.61709 5.48766
      vertex 2.55688 -4 5.48766
    endloop
  endfacet
  facet normal -0.904829 0 0.425775
    outer loop
      vertex 2.55688 -8.61709 5.48766
      vertex 2.40984 -4 5.17518
      vertex 2.40984 -8.65484 5.17518
    endloop
  endfacet
  facet normal 0.904829 -0 0.425775
    outer loop
      vertex -2.55688 -8.61709 5.48766
      vertex -2.40984 -4 5.17518
      vertex -2.55688 -4 5.48766
    endloop
  endfacet
  facet normal 0.904829 0 0.425775
    outer loop
      vertex -2.40984 -4 5.17518
      vertex -2.55688 -8.61709 5.48766
      vertex -2.40984 -8.65484 5.17518
    endloop
  endfacet
  facet normal -0.587774 0 0.809025
    outer loop
      vertex 1.47352 -4 4.1781
      vertex 1.75292 -8.82351 4.38109
      vertex 1.75292 -4 4.38109
    endloop
  endfacet
  facet normal -0.587774 0 0.809025
    outer loop
      vertex 1.47352 -8.86748 4.1781
      vertex 1.75292 -8.82351 4.38109
      vertex 1.47352 -4 4.1781
    endloop
  endfacet
  facet normal -0.587728 -0.000442227 0.809058
    outer loop
      vertex 1.75292 -8.82351 4.38109
      vertex 1.47352 -8.86748 4.1781
      vertex 1.68643 -8.84058 4.33278
    endloop
  endfacet
  facet normal 0.844339 0 -0.535809
    outer loop
      vertex -2.2248 -4 8.11641
      vertex -2.40984 -8.65484 7.82482
      vertex -2.40984 -4 7.82482
    endloop
  endfacet
  facet normal 0.844339 0 -0.535809
    outer loop
      vertex -2.40984 -8.65484 7.82482
      vertex -2.2248 -4 8.11641
      vertex -2.2248 -8.70236 8.11641
    endloop
  endfacet
  facet normal -0.770509 0 0.637429
    outer loop
      vertex 2.00466 -4 4.61749
      vertex 2.2248 -8.70236 4.88359
      vertex 2.2248 -4 4.88359
    endloop
  endfacet
  facet normal -0.770509 0 0.637429
    outer loop
      vertex 2.2248 -8.70236 4.88359
      vertex 2.00466 -4 4.61749
      vertex 2.00466 -8.75888 4.61749
    endloop
  endfacet
  facet normal 0.587774 0 0.809025
    outer loop
      vertex -1.75292 -8.82351 4.38109
      vertex -1.47352 -8.86748 4.1781
      vertex -1.47352 -4 4.1781
    endloop
  endfacet
  facet normal 0.587774 -0 0.809025
    outer loop
      vertex -1.75292 -8.82351 4.38109
      vertex -1.47352 -4 4.1781
      vertex -1.75292 -4 4.38109
    endloop
  endfacet
  facet normal 0.587728 -0.000442227 0.809058
    outer loop
      vertex -1.47352 -8.86748 4.1781
      vertex -1.75292 -8.82351 4.38109
      vertex -1.68643 -8.84058 4.33278
    endloop
  endfacet
  facet normal 0.844339 -0 0.535809
    outer loop
      vertex -2.40984 -8.65484 5.17518
      vertex -2.2248 -4 4.88359
      vertex -2.40984 -4 5.17518
    endloop
  endfacet
  facet normal 0.844339 0 0.535809
    outer loop
      vertex -2.2248 -4 4.88359
      vertex -2.40984 -8.65484 5.17518
      vertex -2.2248 -8.70236 4.88359
    endloop
  endfacet
  facet normal -0.481749 0 0.876309
    outer loop
      vertex 1.17089 -4 4.01173
      vertex 1.47352 -8.86748 4.1781
      vertex 1.47352 -4 4.1781
    endloop
  endfacet
  facet normal -0.481749 0 0.876309
    outer loop
      vertex 1.47352 -8.86748 4.1781
      vertex 1.17089 -4 4.01173
      vertex 1.17089 -8.90571 4.01173
    endloop
  endfacet
  facet normal -0.998028 0 0.0627767
    outer loop
      vertex 2.72832 -4 6.15533
      vertex 2.75 -8.56751 6.5
      vertex 2.75 -4 6.5
    endloop
  endfacet
  facet normal -0.998028 0 0.0627767
    outer loop
      vertex 2.75 -8.56751 6.5
      vertex 2.72832 -4 6.15533
      vertex 2.72832 -8.57307 6.15533
    endloop
  endfacet
  facet normal -0.684563 -0 -0.728954
    outer loop
      vertex 1.75292 -4 8.61891
      vertex 2.00466 -8.75888 8.3825
      vertex 1.75292 -8.82351 8.61891
    endloop
  endfacet
  facet normal -0.684563 0 -0.728954
    outer loop
      vertex 2.00466 -8.75888 8.3825
      vertex 1.75292 -4 8.61891
      vertex 2.00466 -4 8.3825
    endloop
  endfacet
  facet normal 0.904829 0 -0.425775
    outer loop
      vertex -2.40984 -4 7.82482
      vertex -2.55688 -8.61709 7.51234
      vertex -2.55688 -4 7.51234
    endloop
  endfacet
  facet normal 0.904829 0 -0.425775
    outer loop
      vertex -2.55688 -8.61709 7.51234
      vertex -2.40984 -4 7.82482
      vertex -2.40984 -8.65484 7.82482
    endloop
  endfacet
  facet normal -0.587854 0.000782366 -0.808966
    outer loop
      vertex 1.47352 -8.86748 8.8219
      vertex 1.75292 -8.82351 8.61891
      vertex 1.68643 -8.84058 8.66721
    endloop
  endfacet
  facet normal -0.587774 0 -0.809025
    outer loop
      vertex 1.75292 -8.82351 8.61891
      vertex 1.47352 -8.86748 8.8219
      vertex 1.47352 -4 8.8219
    endloop
  endfacet
  facet normal -0.587774 0 -0.809025
    outer loop
      vertex 1.75292 -8.82351 8.61891
      vertex 1.47352 -4 8.8219
      vertex 1.75292 -4 8.61891
    endloop
  endfacet
  facet normal 0.368149 -0 0.929767
    outer loop
      vertex -1.17089 -8.90571 4.01173
      vertex -0.849796 -4 3.88459
      vertex -1.17089 -4 4.01173
    endloop
  endfacet
  facet normal 0.368149 0 0.929767
    outer loop
      vertex -0.849796 -4 3.88459
      vertex -1.17089 -8.90571 4.01173
      vertex -0.849796 -8.94628 3.88459
    endloop
  endfacet
  facet normal 0.125323 0 0.992116
    outer loop
      vertex -0.515298 -4 3.79871
      vertex -0.172673 -8.98224 3.75543
      vertex -0.172673 -4 3.75543
    endloop
  endfacet
  facet normal 0.125323 0 0.992116
    outer loop
      vertex -0.172673 -8.98224 3.75543
      vertex -0.515298 -4 3.79871
      vertex -0.515298 -8.98224 3.79871
    endloop
  endfacet
  facet normal 0.368149 0 -0.929767
    outer loop
      vertex -1.17089 -8.90571 8.98827
      vertex -0.849796 -4 9.11541
      vertex -0.849796 -8.94628 9.11541
    endloop
  endfacet
  facet normal 0.368149 0 -0.929767
    outer loop
      vertex -0.849796 -4 9.11541
      vertex -1.17089 -8.90571 8.98827
      vertex -1.17089 -4 8.98827
    endloop
  endfacet
  facet normal 0.684563 0 -0.728954
    outer loop
      vertex -2.00466 -8.75888 8.3825
      vertex -1.75292 -4 8.61891
      vertex -1.75292 -8.82351 8.61891
    endloop
  endfacet
  facet normal 0.684563 0 -0.728954
    outer loop
      vertex -1.75292 -4 8.61891
      vertex -2.00466 -8.75888 8.3825
      vertex -2.00466 -4 8.3825
    endloop
  endfacet
  facet normal 0.248678 0 0.968586
    outer loop
      vertex -0.849796 -8.94628 3.88459
      vertex -0.515298 -8.98224 3.79871
      vertex -0.515298 -4 3.79871
    endloop
  endfacet
  facet normal 0.248678 -0 0.968586
    outer loop
      vertex -0.849796 -8.94628 3.88459
      vertex -0.515298 -4 3.79871
      vertex -0.849796 -4 3.88459
    endloop
  endfacet
  facet normal 0.248679 1.69453e-05 0.968586
    outer loop
      vertex -0.515298 -8.98224 3.79871
      vertex -0.849796 -8.94628 3.88459
      vertex -0.565114 -8.98224 3.8115
    endloop
  endfacet
  facet normal 0.998028 0 -0.0627767
    outer loop
      vertex -2.72832 -4 6.84467
      vertex -2.75 -8.56751 6.5
      vertex -2.75 -4 6.5
    endloop
  endfacet
  facet normal 0.998028 0 -0.0627767
    outer loop
      vertex -2.75 -8.56751 6.5
      vertex -2.72832 -4 6.84467
      vertex -2.72832 -8.57307 6.84467
    endloop
  endfacet
  facet normal 0.951054 -0 0.309026
    outer loop
      vertex -2.6636 -8.58969 5.8161
      vertex -2.55688 -4 5.48766
      vertex -2.6636 -4 5.8161
    endloop
  endfacet
  facet normal 0.951054 0 0.309026
    outer loop
      vertex -2.55688 -4 5.48766
      vertex -2.6636 -8.58969 5.8161
      vertex -2.55688 -8.61709 5.48766
    endloop
  endfacet
  facet normal 0.770509 -0 0.637429
    outer loop
      vertex -2.2248 -8.70236 4.88359
      vertex -2.00466 -4 4.61749
      vertex -2.2248 -4 4.88359
    endloop
  endfacet
  facet normal 0.770509 0 0.637429
    outer loop
      vertex -2.00466 -4 4.61749
      vertex -2.2248 -8.70236 4.88359
      vertex -2.00466 -8.75888 4.61749
    endloop
  endfacet
  facet normal -0.844339 0 0.535809
    outer loop
      vertex 2.2248 -4 4.88359
      vertex 2.40984 -8.65484 5.17518
      vertex 2.40984 -4 5.17518
    endloop
  endfacet
  facet normal -0.844339 0 0.535809
    outer loop
      vertex 2.40984 -8.65484 5.17518
      vertex 2.2248 -4 4.88359
      vertex 2.2248 -8.70236 4.88359
    endloop
  endfacet
  facet normal -0 0 1
    outer loop
      vertex -0.172673 -4 3.75543
      vertex 0.172673 -8.98224 3.75543
      vertex 0.172673 -4 3.75543
    endloop
  endfacet
  facet normal 0 0 1
    outer loop
      vertex 0.172673 -8.98224 3.75543
      vertex -0.172673 -4 3.75543
      vertex -0.172673 -8.98224 3.75543
    endloop
  endfacet
  facet normal 0 0 -1
    outer loop
      vertex -0.172673 -8.98224 9.24457
      vertex 0.172673 -4 9.24457
      vertex 0.172673 -8.98224 9.24457
    endloop
  endfacet
  facet normal -0 0 -1
    outer loop
      vertex 0.172673 -4 9.24457
      vertex -0.172673 -8.98224 9.24457
      vertex -0.172673 -4 9.24457
    endloop
  endfacet
  facet normal 0.481749 -0 0.876309
    outer loop
      vertex -1.47352 -8.86748 4.1781
      vertex -1.17089 -4 4.01173
      vertex -1.47352 -4 4.1781
    endloop
  endfacet
  facet normal 0.481749 0 0.876309
    outer loop
      vertex -1.17089 -4 4.01173
      vertex -1.47352 -8.86748 4.1781
      vertex -1.17089 -8.90571 4.01173
    endloop
  endfacet
  facet normal -0 0 1
    outer loop
      vertex -2.5 0 2.16987
      vertex 2.5 -4 2.16987
      vertex 2.5 0 2.16987
    endloop
  endfacet
  facet normal 0 0 1
    outer loop
      vertex 2.5 -4 2.16987
      vertex -2.5 0 2.16987
      vertex -2.5 -4 2.16987
    endloop
  endfacet
  facet normal -0.866024 0 -0.500002
    outer loop
      vertex 5 -4 6.5
      vertex 2.5 0 10.8301
      vertex 5 0 6.5
    endloop
  endfacet
  facet normal -0.866024 -0 -0.500002
    outer loop
      vertex 2.5 0 10.8301
      vertex 5 -4 6.5
      vertex 2.5 -4 10.8301
    endloop
  endfacet
  facet normal 0.866024 0 -0.500002
    outer loop
      vertex -2.5 -4 10.8301
      vertex -5 0 6.5
      vertex -2.5 0 10.8301
    endloop
  endfacet
  facet normal 0.866024 0 -0.500002
    outer loop
      vertex -5 0 6.5
      vertex -2.5 -4 10.8301
      vertex -5 -4 6.5
    endloop
  endfacet
  facet normal 0.866026 -0 0.5
    outer loop
      vertex -5 -4 6.5
      vertex -2.5 0 2.16987
      vertex -5 0 6.5
    endloop
  endfacet
  facet normal 0.866026 0 0.5
    outer loop
      vertex -2.5 0 2.16987
      vertex -5 -4 6.5
      vertex -2.5 -4 2.16987
    endloop
  endfacet
  facet normal 0 1 0
    outer loop
      vertex 2.5 -4 10.8301
      vertex 0.172673 -4 9.24457
      vertex -2.5 -4 10.8301
    endloop
  endfacet
  facet normal 0 1 0
    outer loop
      vertex 2.5 -4 10.8301
      vertex 0.515298 -4 9.20129
      vertex 0.172673 -4 9.24457
    endloop
  endfacet
  facet normal 0 1 0
    outer loop
      vertex 2.5 -4 10.8301
      vertex 0.849796 -4 9.11541
      vertex 0.515298 -4 9.20129
    endloop
  endfacet
  facet normal 0 1 0
    outer loop
      vertex 2.5 -4 10.8301
      vertex 1.17089 -4 8.98827
      vertex 0.849796 -4 9.11541
    endloop
  endfacet
  facet normal 0 1 0
    outer loop
      vertex 2.5 -4 10.8301
      vertex 1.47352 -4 8.8219
      vertex 1.17089 -4 8.98827
    endloop
  endfacet
  facet normal 0 1 0
    outer loop
      vertex 2.5 -4 10.8301
      vertex 1.75292 -4 8.61891
      vertex 1.47352 -4 8.8219
    endloop
  endfacet
  facet normal 0 1 0
    outer loop
      vertex 2.5 -4 10.8301
      vertex 2.00466 -4 8.3825
      vertex 1.75292 -4 8.61891
    endloop
  endfacet
  facet normal 0 1 0
    outer loop
      vertex 2.5 -4 10.8301
      vertex 2.2248 -4 8.11641
      vertex 2.00466 -4 8.3825
    endloop
  endfacet
  facet normal 0 1 0
    outer loop
      vertex 2.5 -4 10.8301
      vertex 2.40984 -4 7.82482
      vertex 2.2248 -4 8.11641
    endloop
  endfacet
  facet normal 0 1 0
    outer loop
      vertex 5 -4 6.5
      vertex 2.40984 -4 7.82482
      vertex 2.5 -4 10.8301
    endloop
  endfacet
  facet normal 0 1 0
    outer loop
      vertex 2.40984 -4 7.82482
      vertex 5 -4 6.5
      vertex 2.55688 -4 7.51234
    endloop
  endfacet
  facet normal 0 1 0
    outer loop
      vertex 2.55688 -4 7.51234
      vertex 5 -4 6.5
      vertex 2.6636 -4 7.1839
    endloop
  endfacet
  facet normal 0 1 0
    outer loop
      vertex 2.6636 -4 7.1839
      vertex 5 -4 6.5
      vertex 2.72832 -4 6.84467
    endloop
  endfacet
  facet normal 0 1 0
    outer loop
      vertex 5 -4 6.5
      vertex 2.75 -4 6.5
      vertex 2.72832 -4 6.84467
    endloop
  endfacet
  facet normal 0 1 0
    outer loop
      vertex 5 -4 6.5
      vertex 2.72832 -4 6.15533
      vertex 2.75 -4 6.5
    endloop
  endfacet
  facet normal 0 1 0
    outer loop
      vertex 5 -4 6.5
      vertex 2.6636 -4 5.8161
      vertex 2.72832 -4 6.15533
    endloop
  endfacet
  facet normal 0 1 0
    outer loop
      vertex 5 -4 6.5
      vertex 2.55688 -4 5.48766
      vertex 2.6636 -4 5.8161
    endloop
  endfacet
  facet normal 0 1 0
    outer loop
      vertex 5 -4 6.5
      vertex 2.40984 -4 5.17518
      vertex 2.55688 -4 5.48766
    endloop
  endfacet
  facet normal 0 1 -0
    outer loop
      vertex 2.5 -4 2.16987
      vertex 2.40984 -4 5.17518
      vertex 5 -4 6.5
    endloop
  endfacet
  facet normal 0 1 0
    outer loop
      vertex 2.40984 -4 5.17518
      vertex 2.5 -4 2.16987
      vertex 2.2248 -4 4.88359
    endloop
  endfacet
  facet normal 0 1 0
    outer loop
      vertex 2.2248 -4 4.88359
      vertex 2.5 -4 2.16987
      vertex 2.00466 -4 4.61749
    endloop
  endfacet
  facet normal 0 1 0
    outer loop
      vertex 2.00466 -4 4.61749
      vertex 2.5 -4 2.16987
      vertex 1.75292 -4 4.38109
    endloop
  endfacet
  facet normal 0 1 0
    outer loop
      vertex 0.172673 -4 3.75543
      vertex 2.5 -4 2.16987
      vertex -0.172673 -4 3.75543
    endloop
  endfacet
  facet normal 0 1 0
    outer loop
      vertex 0.515298 -4 3.79871
      vertex 2.5 -4 2.16987
      vertex 0.172673 -4 3.75543
    endloop
  endfacet
  facet normal 0 1 0
    outer loop
      vertex 0.849796 -4 3.88459
      vertex 2.5 -4 2.16987
      vertex 0.515298 -4 3.79871
    endloop
  endfacet
  facet normal 0 1 0
    outer loop
      vertex 1.17089 -4 4.01173
      vertex 2.5 -4 2.16987
      vertex 0.849796 -4 3.88459
    endloop
  endfacet
  facet normal 0 1 0
    outer loop
      vertex 1.47352 -4 4.1781
      vertex 2.5 -4 2.16987
      vertex 1.17089 -4 4.01173
    endloop
  endfacet
  facet normal 0 1 0
    outer loop
      vertex 1.75292 -4 4.38109
      vertex 2.5 -4 2.16987
      vertex 1.47352 -4 4.1781
    endloop
  endfacet
  facet normal 0 1 -0
    outer loop
      vertex -0.172673 -4 9.24457
      vertex -2.5 -4 10.8301
      vertex 0.172673 -4 9.24457
    endloop
  endfacet
  facet normal 0 1 -0
    outer loop
      vertex -0.515298 -4 9.20129
      vertex -2.5 -4 10.8301
      vertex -0.172673 -4 9.24457
    endloop
  endfacet
  facet normal 0 1 -0
    outer loop
      vertex -0.849796 -4 9.11541
      vertex -2.5 -4 10.8301
      vertex -0.515298 -4 9.20129
    endloop
  endfacet
  facet normal 0 1 -0
    outer loop
      vertex -1.17089 -4 8.98827
      vertex -2.5 -4 10.8301
      vertex -0.849796 -4 9.11541
    endloop
  endfacet
  facet normal 0 1 -0
    outer loop
      vertex -1.47352 -4 8.8219
      vertex -2.5 -4 10.8301
      vertex -1.17089 -4 8.98827
    endloop
  endfacet
  facet normal 0 1 -0
    outer loop
      vertex -1.75292 -4 8.61891
      vertex -2.5 -4 10.8301
      vertex -1.47352 -4 8.8219
    endloop
  endfacet
  facet normal 0 1 -0
    outer loop
      vertex -2.00466 -4 8.3825
      vertex -2.5 -4 10.8301
      vertex -1.75292 -4 8.61891
    endloop
  endfacet
  facet normal 0 1 -0
    outer loop
      vertex -2.2248 -4 8.11641
      vertex -2.5 -4 10.8301
      vertex -2.00466 -4 8.3825
    endloop
  endfacet
  facet normal 0 1 -0
    outer loop
      vertex -2.40984 -4 7.82482
      vertex -2.5 -4 10.8301
      vertex -2.2248 -4 8.11641
    endloop
  endfacet
  facet normal 0 1 0
    outer loop
      vertex -5 -4 6.5
      vertex -2.40984 -4 7.82482
      vertex -2.55688 -4 7.51234
    endloop
  endfacet
  facet normal 0 1 0
    outer loop
      vertex -5 -4 6.5
      vertex -2.55688 -4 7.51234
      vertex -2.6636 -4 7.1839
    endloop
  endfacet
  facet normal 0 1 0
    outer loop
      vertex -5 -4 6.5
      vertex -2.6636 -4 7.1839
      vertex -2.72832 -4 6.84467
    endloop
  endfacet
  facet normal 0 1 0
    outer loop
      vertex -5 -4 6.5
      vertex -2.72832 -4 6.84467
      vertex -2.75 -4 6.5
    endloop
  endfacet
  facet normal 0 1 0
    outer loop
      vertex -2.40984 -4 7.82482
      vertex -5 -4 6.5
      vertex -2.5 -4 10.8301
    endloop
  endfacet
  facet normal 0 1 0
    outer loop
      vertex -2.72832 -4 6.15533
      vertex -5 -4 6.5
      vertex -2.75 -4 6.5
    endloop
  endfacet
  facet normal 0 1 0
    outer loop
      vertex -2.6636 -4 5.8161
      vertex -5 -4 6.5
      vertex -2.72832 -4 6.15533
    endloop
  endfacet
  facet normal 0 1 0
    outer loop
      vertex -2.55688 -4 5.48766
      vertex -5 -4 6.5
      vertex -2.6636 -4 5.8161
    endloop
  endfacet
  facet normal 0 1 0
    outer loop
      vertex -2.40984 -4 5.17518
      vertex -5 -4 6.5
      vertex -2.55688 -4 5.48766
    endloop
  endfacet
  facet normal 0 1 0
    outer loop
      vertex -2.5 -4 2.16987
      vertex -2.40984 -4 5.17518
      vertex -2.2248 -4 4.88359
    endloop
  endfacet
  facet normal 0 1 0
    outer loop
      vertex -2.5 -4 2.16987
      vertex -2.2248 -4 4.88359
      vertex -2.00466 -4 4.61749
    endloop
  endfacet
  facet normal 0 1 0
    outer loop
      vertex -2.5 -4 2.16987
      vertex -2.00466 -4 4.61749
      vertex -1.75292 -4 4.38109
    endloop
  endfacet
  facet normal 0 1 0
    outer loop
      vertex -2.5 -4 2.16987
      vertex -1.75292 -4 4.38109
      vertex -1.47352 -4 4.1781
    endloop
  endfacet
  facet normal 0 1 0
    outer loop
      vertex -2.5 -4 2.16987
      vertex -0.172673 -4 3.75543
      vertex 2.5 -4 2.16987
    endloop
  endfacet
  facet normal 0 1 0
    outer loop
      vertex -0.172673 -4 3.75543
      vertex -2.5 -4 2.16987
      vertex -0.515298 -4 3.79871
    endloop
  endfacet
  facet normal 0 1 0
    outer loop
      vertex -0.515298 -4 3.79871
      vertex -2.5 -4 2.16987
      vertex -0.849796 -4 3.88459
    endloop
  endfacet
  facet normal 0 1 0
    outer loop
      vertex -2.40984 -4 5.17518
      vertex -2.5 -4 2.16987
      vertex -5 -4 6.5
    endloop
  endfacet
  facet normal 0 1 0
    outer loop
      vertex -1.17089 -4 4.01173
      vertex -2.5 -4 2.16987
      vertex -1.47352 -4 4.1781
    endloop
  endfacet
  facet normal 0 1 0
    outer loop
      vertex -0.849796 -4 3.88459
      vertex -2.5 -4 2.16987
      vertex -1.17089 -4 4.01173
    endloop
  endfacet
  facet normal -0.866026 0 0.5
    outer loop
      vertex 2.5 -4 2.16987
      vertex 5 0 6.5
      vertex 2.5 0 2.16987
    endloop
  endfacet
  facet normal -0.866026 0 0.5
    outer loop
      vertex 5 0 6.5
      vertex 2.5 -4 2.16987
      vertex 5 -4 6.5
    endloop
  endfacet
  facet normal 0 0 -1
    outer loop
      vertex -2.5 -4 10.8301
      vertex 2.5 0 10.8301
      vertex 2.5 -4 10.8301
    endloop
  endfacet
  facet normal -0 0 -1
    outer loop
      vertex 2.5 0 10.8301
      vertex -2.5 -4 10.8301
      vertex -2.5 0 10.8301
    endloop
  endfacet
endsolid OpenSCAD_Model
