solid OpenSCAD_Model
  facet normal 0.684563 -0.728954 0
    outer loop
      vertex 1.75292 -2.11891 0
      vertex 2.00466 -1.8825 10
      vertex 1.75292 -2.11891 10
    endloop
  endfacet
  facet normal 0.684563 -0.728954 0
    outer loop
      vertex 2.00466 -1.8825 10
      vertex 1.75292 -2.11891 0
      vertex 2.00466 -1.8825 0
    endloop
  endfacet
  facet normal 0.982283 -0.187404 0
    outer loop
      vertex 2.6636 -0.683897 10
      vertex 2.72832 -0.344666 0
      vertex 2.72832 -0.344666 10
    endloop
  endfacet
  facet normal 0.982283 -0.187404 0
    outer loop
      vertex 2.72832 -0.344666 0
      vertex 2.6636 -0.683897 10
      vertex 2.6636 -0.683897 0
    endloop
  endfacet
  facet normal 0 1 -0
    outer loop
      vertex 0.172673 2.74457 0
      vertex -0.172673 2.74457 10
      vertex 0.172673 2.74457 10
    endloop
  endfacet
  facet normal 0 1 0
    outer loop
      vertex -0.172673 2.74457 10
      vertex 0.172673 2.74457 0
      vertex -0.172673 2.74457 0
    endloop
  endfacet
  facet normal 0.587774 0.809025 -0
    outer loop
      vertex 1.75292 2.11891 0
      vertex 1.47352 2.3219 10
      vertex 1.75292 2.11891 10
    endloop
  endfacet
  facet normal 0.587774 0.809025 0
    outer loop
      vertex 1.47352 2.3219 10
      vertex 1.75292 2.11891 0
      vertex 1.47352 2.3219 0
    endloop
  endfacet
  facet normal 0.770497 0.637443 0
    outer loop
      vertex 2.2248 1.61641 10
      vertex 2.00466 1.8825 0
      vertex 2.00466 1.8825 10
    endloop
  endfacet
  facet normal 0.770497 0.637443 0
    outer loop
      vertex 2.00466 1.8825 0
      vertex 2.2248 1.61641 10
      vertex 2.2248 1.61641 0
    endloop
  endfacet
  facet normal 0.904829 0.425775 0
    outer loop
      vertex 2.55688 1.01234 10
      vertex 2.40984 1.32482 0
      vertex 2.40984 1.32482 10
    endloop
  endfacet
  facet normal 0.904829 0.425775 0
    outer loop
      vertex 2.40984 1.32482 0
      vertex 2.55688 1.01234 10
      vertex 2.55688 1.01234 0
    endloop
  endfacet
  facet normal -0.982283 0.187404 0
    outer loop
      vertex -2.72832 0.344666 0
      vertex -2.6636 0.683897 10
      vertex -2.6636 0.683897 0
    endloop
  endfacet
  facet normal -0.982283 0.187404 0
    outer loop
      vertex -2.6636 0.683897 10
      vertex -2.72832 0.344666 0
      vertex -2.72832 0.344666 10
    endloop
  endfacet
  facet normal -0.951054 0.309023 0
    outer loop
      vertex -2.6636 0.683897 0
      vertex -2.55688 1.01234 10
      vertex -2.55688 1.01234 0
    endloop
  endfacet
  facet normal -0.951054 0.309023 0
    outer loop
      vertex -2.55688 1.01234 10
      vertex -2.6636 0.683897 0
      vertex -2.6636 0.683897 10
    endloop
  endfacet
  facet normal 0.982283 0.187404 0
    outer loop
      vertex 2.72832 0.344666 10
      vertex 2.6636 0.683897 0
      vertex 2.6636 0.683897 10
    endloop
  endfacet
  facet normal 0.982283 0.187404 0
    outer loop
      vertex 2.6636 0.683897 0
      vertex 2.72832 0.344666 10
      vertex 2.72832 0.344666 0
    endloop
  endfacet
  facet normal 0.125323 -0.992116 0
    outer loop
      vertex 0.172673 -2.74457 0
      vertex 0.515298 -2.70129 10
      vertex 0.172673 -2.74457 10
    endloop
  endfacet
  facet normal 0.125323 -0.992116 0
    outer loop
      vertex 0.515298 -2.70129 10
      vertex 0.172673 -2.74457 0
      vertex 0.515298 -2.70129 0
    endloop
  endfacet
  facet normal 0.248678 -0.968586 0
    outer loop
      vertex 0.515298 -2.70129 0
      vertex 0.849796 -2.61541 10
      vertex 0.515298 -2.70129 10
    endloop
  endfacet
  facet normal 0.248678 -0.968586 0
    outer loop
      vertex 0.849796 -2.61541 10
      vertex 0.515298 -2.70129 0
      vertex 0.849796 -2.61541 0
    endloop
  endfacet
  facet normal 0.904829 -0.425775 0
    outer loop
      vertex 2.40984 -1.32482 10
      vertex 2.55688 -1.01234 0
      vertex 2.55688 -1.01234 10
    endloop
  endfacet
  facet normal 0.904829 -0.425775 0
    outer loop
      vertex 2.55688 -1.01234 0
      vertex 2.40984 -1.32482 10
      vertex 2.40984 -1.32482 0
    endloop
  endfacet
  facet normal -0.125323 0.992116 0
    outer loop
      vertex -0.172673 2.74457 0
      vertex -0.515298 2.70129 10
      vertex -0.172673 2.74457 10
    endloop
  endfacet
  facet normal -0.125323 0.992116 0
    outer loop
      vertex -0.515298 2.70129 10
      vertex -0.172673 2.74457 0
      vertex -0.515298 2.70129 0
    endloop
  endfacet
  facet normal -0.481749 0.876309 0
    outer loop
      vertex -1.17089 2.48827 0
      vertex -1.47352 2.3219 10
      vertex -1.17089 2.48827 10
    endloop
  endfacet
  facet normal -0.481749 0.876309 0
    outer loop
      vertex -1.47352 2.3219 10
      vertex -1.17089 2.48827 0
      vertex -1.47352 2.3219 0
    endloop
  endfacet
  facet normal 0.770497 -0.637443 0
    outer loop
      vertex 2.00466 -1.8825 10
      vertex 2.2248 -1.61641 0
      vertex 2.2248 -1.61641 10
    endloop
  endfacet
  facet normal 0.770497 -0.637443 0
    outer loop
      vertex 2.2248 -1.61641 0
      vertex 2.00466 -1.8825 10
      vertex 2.00466 -1.8825 0
    endloop
  endfacet
  facet normal -0.684563 -0.728954 0
    outer loop
      vertex -2.00466 -1.8825 0
      vertex -1.75292 -2.11891 10
      vertex -2.00466 -1.8825 10
    endloop
  endfacet
  facet normal -0.684563 -0.728954 -0
    outer loop
      vertex -1.75292 -2.11891 10
      vertex -2.00466 -1.8825 0
      vertex -1.75292 -2.11891 0
    endloop
  endfacet
  facet normal -0.770497 -0.637443 0
    outer loop
      vertex -2.00466 -1.8825 0
      vertex -2.2248 -1.61641 10
      vertex -2.2248 -1.61641 0
    endloop
  endfacet
  facet normal -0.770497 -0.637443 0
    outer loop
      vertex -2.2248 -1.61641 10
      vertex -2.00466 -1.8825 0
      vertex -2.00466 -1.8825 10
    endloop
  endfacet
  facet normal -0.770497 0.637443 0
    outer loop
      vertex -2.2248 1.61641 0
      vertex -2.00466 1.8825 10
      vertex -2.00466 1.8825 0
    endloop
  endfacet
  facet normal -0.770497 0.637443 0
    outer loop
      vertex -2.00466 1.8825 10
      vertex -2.2248 1.61641 0
      vertex -2.2248 1.61641 10
    endloop
  endfacet
  facet normal 0.248678 0.968586 -0
    outer loop
      vertex 0.849796 2.61541 0
      vertex 0.515298 2.70129 10
      vertex 0.849796 2.61541 10
    endloop
  endfacet
  facet normal 0.248678 0.968586 0
    outer loop
      vertex 0.515298 2.70129 10
      vertex 0.849796 2.61541 0
      vertex 0.515298 2.70129 0
    endloop
  endfacet
  facet normal 0.998028 0.0627774 0
    outer loop
      vertex 2.75 0 10
      vertex 2.72832 0.344666 0
      vertex 2.72832 0.344666 10
    endloop
  endfacet
  facet normal 0.998028 0.0627774 0
    outer loop
      vertex 2.72832 0.344666 0
      vertex 2.75 0 10
      vertex 2.75 0 0
    endloop
  endfacet
  facet normal 0.684563 0.728954 -0
    outer loop
      vertex 2.00466 1.8825 0
      vertex 1.75292 2.11891 10
      vertex 2.00466 1.8825 10
    endloop
  endfacet
  facet normal 0.684563 0.728954 0
    outer loop
      vertex 1.75292 2.11891 10
      vertex 2.00466 1.8825 0
      vertex 1.75292 2.11891 0
    endloop
  endfacet
  facet normal 0.998028 -0.0627774 0
    outer loop
      vertex 2.72832 -0.344666 10
      vertex 2.75 0 0
      vertex 2.75 0 10
    endloop
  endfacet
  facet normal 0.998028 -0.0627774 0
    outer loop
      vertex 2.75 0 0
      vertex 2.72832 -0.344666 10
      vertex 2.72832 -0.344666 0
    endloop
  endfacet
  facet normal 0.481749 -0.876309 0
    outer loop
      vertex 1.17089 -2.48827 0
      vertex 1.47352 -2.3219 10
      vertex 1.17089 -2.48827 10
    endloop
  endfacet
  facet normal 0.481749 -0.876309 0
    outer loop
      vertex 1.47352 -2.3219 10
      vertex 1.17089 -2.48827 0
      vertex 1.47352 -2.3219 0
    endloop
  endfacet
  facet normal 0.951054 0.309023 0
    outer loop
      vertex 2.6636 0.683897 10
      vertex 2.55688 1.01234 0
      vertex 2.55688 1.01234 10
    endloop
  endfacet
  facet normal 0.951054 0.309023 0
    outer loop
      vertex 2.55688 1.01234 0
      vertex 2.6636 0.683897 10
      vertex 2.6636 0.683897 0
    endloop
  endfacet
  facet normal 0.368149 0.929767 -0
    outer loop
      vertex 1.17089 2.48827 0
      vertex 0.849796 2.61541 10
      vertex 1.17089 2.48827 10
    endloop
  endfacet
  facet normal 0.368149 0.929767 0
    outer loop
      vertex 0.849796 2.61541 10
      vertex 1.17089 2.48827 0
      vertex 0.849796 2.61541 0
    endloop
  endfacet
  facet normal -0.248678 0.968586 0
    outer loop
      vertex -0.515298 2.70129 0
      vertex -0.849796 2.61541 10
      vertex -0.515298 2.70129 10
    endloop
  endfacet
  facet normal -0.248678 0.968586 0
    outer loop
      vertex -0.849796 2.61541 10
      vertex -0.515298 2.70129 0
      vertex -0.849796 2.61541 0
    endloop
  endfacet
  facet normal 0.481749 0.876309 -0
    outer loop
      vertex 1.47352 2.3219 0
      vertex 1.17089 2.48827 10
      vertex 1.47352 2.3219 10
    endloop
  endfacet
  facet normal 0.481749 0.876309 0
    outer loop
      vertex 1.17089 2.48827 10
      vertex 1.47352 2.3219 0
      vertex 1.17089 2.48827 0
    endloop
  endfacet
  facet normal -0.904829 -0.425775 0
    outer loop
      vertex -2.40984 -1.32482 0
      vertex -2.55688 -1.01234 10
      vertex -2.55688 -1.01234 0
    endloop
  endfacet
  facet normal -0.904829 -0.425775 0
    outer loop
      vertex -2.55688 -1.01234 10
      vertex -2.40984 -1.32482 0
      vertex -2.40984 -1.32482 10
    endloop
  endfacet
  facet normal -0.951054 -0.309023 0
    outer loop
      vertex -2.55688 -1.01234 0
      vertex -2.6636 -0.683897 10
      vertex -2.6636 -0.683897 0
    endloop
  endfacet
  facet normal -0.951054 -0.309023 0
    outer loop
      vertex -2.6636 -0.683897 10
      vertex -2.55688 -1.01234 0
      vertex -2.55688 -1.01234 10
    endloop
  endfacet
  facet normal -0.368149 -0.929767 0
    outer loop
      vertex -1.17089 -2.48827 0
      vertex -0.849796 -2.61541 10
      vertex -1.17089 -2.48827 10
    endloop
  endfacet
  facet normal -0.368149 -0.929767 -0
    outer loop
      vertex -0.849796 -2.61541 10
      vertex -1.17089 -2.48827 0
      vertex -0.849796 -2.61541 0
    endloop
  endfacet
  facet normal -0.998028 0.0627774 0
    outer loop
      vertex -2.75 0 0
      vertex -2.72832 0.344666 10
      vertex -2.72832 0.344666 0
    endloop
  endfacet
  facet normal -0.998028 0.0627774 0
    outer loop
      vertex -2.72832 0.344666 10
      vertex -2.75 0 0
      vertex -2.75 0 10
    endloop
  endfacet
  facet normal 0.125323 0.992116 -0
    outer loop
      vertex 0.515298 2.70129 0
      vertex 0.172673 2.74457 10
      vertex 0.515298 2.70129 10
    endloop
  endfacet
  facet normal 0.125323 0.992116 0
    outer loop
      vertex 0.172673 2.74457 10
      vertex 0.515298 2.70129 0
      vertex 0.172673 2.74457 0
    endloop
  endfacet
  facet normal -0.125323 -0.992116 0
    outer loop
      vertex -0.515298 -2.70129 0
      vertex -0.172673 -2.74457 10
      vertex -0.515298 -2.70129 10
    endloop
  endfacet
  facet normal -0.125323 -0.992116 -0
    outer loop
      vertex -0.172673 -2.74457 10
      vertex -0.515298 -2.70129 0
      vertex -0.172673 -2.74457 0
    endloop
  endfacet
  facet normal -0.481749 -0.876309 0
    outer loop
      vertex -1.47352 -2.3219 0
      vertex -1.17089 -2.48827 10
      vertex -1.47352 -2.3219 10
    endloop
  endfacet
  facet normal -0.481749 -0.876309 -0
    outer loop
      vertex -1.17089 -2.48827 10
      vertex -1.47352 -2.3219 0
      vertex -1.17089 -2.48827 0
    endloop
  endfacet
  facet normal 0.844339 -0.535809 0
    outer loop
      vertex 2.2248 -1.61641 10
      vertex 2.40984 -1.32482 0
      vertex 2.40984 -1.32482 10
    endloop
  endfacet
  facet normal 0.844339 -0.535809 0
    outer loop
      vertex 2.40984 -1.32482 0
      vertex 2.2248 -1.61641 10
      vertex 2.2248 -1.61641 0
    endloop
  endfacet
  facet normal -0.904829 0.425775 0
    outer loop
      vertex -2.55688 1.01234 0
      vertex -2.40984 1.32482 10
      vertex -2.40984 1.32482 0
    endloop
  endfacet
  facet normal -0.904829 0.425775 0
    outer loop
      vertex -2.40984 1.32482 10
      vertex -2.55688 1.01234 0
      vertex -2.55688 1.01234 10
    endloop
  endfacet
  facet normal -0.587774 0.809025 0
    outer loop
      vertex -1.47352 2.3219 0
      vertex -1.75292 2.11891 10
      vertex -1.47352 2.3219 10
    endloop
  endfacet
  facet normal -0.587774 0.809025 0
    outer loop
      vertex -1.75292 2.11891 10
      vertex -1.47352 2.3219 0
      vertex -1.75292 2.11891 0
    endloop
  endfacet
  facet normal 0.368149 -0.929767 0
    outer loop
      vertex 0.849796 -2.61541 0
      vertex 1.17089 -2.48827 10
      vertex 0.849796 -2.61541 10
    endloop
  endfacet
  facet normal 0.368149 -0.929767 0
    outer loop
      vertex 1.17089 -2.48827 10
      vertex 0.849796 -2.61541 0
      vertex 1.17089 -2.48827 0
    endloop
  endfacet
  facet normal -0.368149 0.929767 0
    outer loop
      vertex -0.849796 2.61541 0
      vertex -1.17089 2.48827 10
      vertex -0.849796 2.61541 10
    endloop
  endfacet
  facet normal -0.368149 0.929767 0
    outer loop
      vertex -1.17089 2.48827 10
      vertex -0.849796 2.61541 0
      vertex -1.17089 2.48827 0
    endloop
  endfacet
  facet normal 0 -1 0
    outer loop
      vertex -0.172673 -2.74457 0
      vertex 0.172673 -2.74457 10
      vertex -0.172673 -2.74457 10
    endloop
  endfacet
  facet normal 0 -1 -0
    outer loop
      vertex 0.172673 -2.74457 10
      vertex -0.172673 -2.74457 0
      vertex 0.172673 -2.74457 0
    endloop
  endfacet
  facet normal -0.844339 -0.535809 0
    outer loop
      vertex -2.2248 -1.61641 0
      vertex -2.40984 -1.32482 10
      vertex -2.40984 -1.32482 0
    endloop
  endfacet
  facet normal -0.844339 -0.535809 0
    outer loop
      vertex -2.40984 -1.32482 10
      vertex -2.2248 -1.61641 0
      vertex -2.2248 -1.61641 10
    endloop
  endfacet
  facet normal -0.998028 -0.0627774 0
    outer loop
      vertex -2.72832 -0.344666 0
      vertex -2.75 0 10
      vertex -2.75 0 0
    endloop
  endfacet
  facet normal -0.998028 -0.0627774 0
    outer loop
      vertex -2.75 0 10
      vertex -2.72832 -0.344666 0
      vertex -2.72832 -0.344666 10
    endloop
  endfacet
  facet normal 0.844339 0.535809 0
    outer loop
      vertex 2.40984 1.32482 10
      vertex 2.2248 1.61641 0
      vertex 2.2248 1.61641 10
    endloop
  endfacet
  facet normal 0.844339 0.535809 0
    outer loop
      vertex 2.2248 1.61641 0
      vertex 2.40984 1.32482 10
      vertex 2.40984 1.32482 0
    endloop
  endfacet
  facet normal -0.684563 0.728954 0
    outer loop
      vertex -1.75292 2.11891 0
      vertex -2.00466 1.8825 10
      vertex -1.75292 2.11891 10
    endloop
  endfacet
  facet normal -0.684563 0.728954 0
    outer loop
      vertex -2.00466 1.8825 10
      vertex -1.75292 2.11891 0
      vertex -2.00466 1.8825 0
    endloop
  endfacet
  facet normal 0.587774 -0.809025 0
    outer loop
      vertex 1.47352 -2.3219 0
      vertex 1.75292 -2.11891 10
      vertex 1.47352 -2.3219 10
    endloop
  endfacet
  facet normal 0.587774 -0.809025 0
    outer loop
      vertex 1.75292 -2.11891 10
      vertex 1.47352 -2.3219 0
      vertex 1.75292 -2.11891 0
    endloop
  endfacet
  facet normal -0.844339 0.535809 0
    outer loop
      vertex -2.40984 1.32482 0
      vertex -2.2248 1.61641 10
      vertex -2.2248 1.61641 0
    endloop
  endfacet
  facet normal -0.844339 0.535809 0
    outer loop
      vertex -2.2248 1.61641 10
      vertex -2.40984 1.32482 0
      vertex -2.40984 1.32482 10
    endloop
  endfacet
  facet normal -0.587774 -0.809025 0
    outer loop
      vertex -1.75292 -2.11891 0
      vertex -1.47352 -2.3219 10
      vertex -1.75292 -2.11891 10
    endloop
  endfacet
  facet normal -0.587774 -0.809025 -0
    outer loop
      vertex -1.47352 -2.3219 10
      vertex -1.75292 -2.11891 0
      vertex -1.47352 -2.3219 0
    endloop
  endfacet
  facet normal 0.951054 -0.309023 0
    outer loop
      vertex 2.55688 -1.01234 10
      vertex 2.6636 -0.683897 0
      vertex 2.6636 -0.683897 10
    endloop
  endfacet
  facet normal 0.951054 -0.309023 0
    outer loop
      vertex 2.6636 -0.683897 0
      vertex 2.55688 -1.01234 10
      vertex 2.55688 -1.01234 0
    endloop
  endfacet
  facet normal -0.982283 -0.187404 0
    outer loop
      vertex -2.6636 -0.683897 0
      vertex -2.72832 -0.344666 10
      vertex -2.72832 -0.344666 0
    endloop
  endfacet
  facet normal -0.982283 -0.187404 0
    outer loop
      vertex -2.72832 -0.344666 10
      vertex -2.6636 -0.683897 0
      vertex -2.6636 -0.683897 10
    endloop
  endfacet
  facet normal 0 0 -1
    outer loop
      vertex 1.25 0 0
      vertex 2.75 0 0
      vertex 2.72832 -0.344666 0
    endloop
  endfacet
  facet normal 0 0 -1
    outer loop
      vertex 1.24014 -0.156666 0
      vertex 2.72832 -0.344666 0
      vertex 2.6636 -0.683897 0
    endloop
  endfacet
  facet normal 0 0 -1
    outer loop
      vertex 2.75 0 0
      vertex 1.25 0 0
      vertex 2.72832 0.344666 0
    endloop
  endfacet
  facet normal 0 0 -1
    outer loop
      vertex 1.21073 -0.310862 0
      vertex 2.6636 -0.683897 0
      vertex 2.55688 -1.01234 0
    endloop
  endfacet
  facet normal 0 0 -1
    outer loop
      vertex 1.24014 0.156666 0
      vertex 2.72832 0.344666 0
      vertex 1.25 0 0
    endloop
  endfacet
  facet normal 0 0 -1
    outer loop
      vertex 1.16222 -0.460155 0
      vertex 2.55688 -1.01234 0
      vertex 2.40984 -1.32482 0
    endloop
  endfacet
  facet normal -0 0 -1
    outer loop
      vertex 2.72832 0.344666 0
      vertex 1.24014 0.156666 0
      vertex 2.6636 0.683897 0
    endloop
  endfacet
  facet normal 0 0 -1
    outer loop
      vertex 1.09538 -0.602192 0
      vertex 2.40984 -1.32482 0
      vertex 2.2248 -1.61641 0
    endloop
  endfacet
  facet normal 0 0 -1
    outer loop
      vertex 1.21073 0.310862 0
      vertex 2.6636 0.683897 0
      vertex 1.24014 0.156666 0
    endloop
  endfacet
  facet normal 0 0 -1
    outer loop
      vertex 1.01127 -0.734731 0
      vertex 2.2248 -1.61641 0
      vertex 2.00466 -1.8825 0
    endloop
  endfacet
  facet normal -0 0 -1
    outer loop
      vertex 2.6636 0.683897 0
      vertex 1.21073 0.310862 0
      vertex 2.55688 1.01234 0
    endloop
  endfacet
  facet normal 0 0 -1
    outer loop
      vertex 0.91121 -0.855683 0
      vertex 2.00466 -1.8825 0
      vertex 1.75292 -2.11891 0
    endloop
  endfacet
  facet normal 0 0 -1
    outer loop
      vertex 1.16222 0.460155 0
      vertex 2.55688 1.01234 0
      vertex 1.21073 0.310862 0
    endloop
  endfacet
  facet normal 0 0 -1
    outer loop
      vertex 0.79678 -0.963141 0
      vertex 1.75292 -2.11891 0
      vertex 1.47352 -2.3219 0
    endloop
  endfacet
  facet normal -0 0 -1
    outer loop
      vertex 2.55688 1.01234 0
      vertex 1.16222 0.460155 0
      vertex 2.40984 1.32482 0
    endloop
  endfacet
  facet normal 0 0 -1
    outer loop
      vertex 1.09538 0.602192 0
      vertex 2.40984 1.32482 0
      vertex 1.16222 0.460155 0
    endloop
  endfacet
  facet normal 0 0 -1
    outer loop
      vertex 2.72832 -0.344666 0
      vertex 1.24014 -0.156666 0
      vertex 1.25 0 0
    endloop
  endfacet
  facet normal 0 0 -1
    outer loop
      vertex 2.6636 -0.683897 0
      vertex 1.21073 -0.310862 0
      vertex 1.24014 -0.156666 0
    endloop
  endfacet
  facet normal 0 0 -1
    outer loop
      vertex 0.669783 -1.05541 0
      vertex 1.47352 -2.3219 0
      vertex 1.17089 -2.48827 0
    endloop
  endfacet
  facet normal 0 0 -1
    outer loop
      vertex 2.55688 -1.01234 0
      vertex 1.16222 -0.460155 0
      vertex 1.21073 -0.310862 0
    endloop
  endfacet
  facet normal 0 0 -1
    outer loop
      vertex 2.40984 -1.32482 0
      vertex 1.09538 -0.602192 0
      vertex 1.16222 -0.460155 0
    endloop
  endfacet
  facet normal 0 0 -1
    outer loop
      vertex 2.2248 -1.61641 0
      vertex 1.01127 -0.734731 0
      vertex 1.09538 -0.602192 0
    endloop
  endfacet
  facet normal 0 0 -1
    outer loop
      vertex 2.00466 -1.8825 0
      vertex 0.91121 -0.855683 0
      vertex 1.01127 -0.734731 0
    endloop
  endfacet
  facet normal 0 0 -1
    outer loop
      vertex 0.532224 -1.13103 0
      vertex 1.17089 -2.48827 0
      vertex 0.849796 -2.61541 0
    endloop
  endfacet
  facet normal 0 0 -1
    outer loop
      vertex 1.75292 -2.11891 0
      vertex 0.79678 -0.963141 0
      vertex 0.91121 -0.855683 0
    endloop
  endfacet
  facet normal 0 0 -1
    outer loop
      vertex 1.47352 -2.3219 0
      vertex 0.669783 -1.05541 0
      vertex 0.79678 -0.963141 0
    endloop
  endfacet
  facet normal 0 0 -1
    outer loop
      vertex 1.17089 -2.48827 0
      vertex 0.532224 -1.13103 0
      vertex 0.669783 -1.05541 0
    endloop
  endfacet
  facet normal 0 0 -1
    outer loop
      vertex 0.386271 -1.18882 0
      vertex 0.849796 -2.61541 0
      vertex 0.515298 -2.70129 0
    endloop
  endfacet
  facet normal 0 0 -1
    outer loop
      vertex 0.849796 -2.61541 0
      vertex 0.386271 -1.18882 0
      vertex 0.532224 -1.13103 0
    endloop
  endfacet
  facet normal 0 0 -1
    outer loop
      vertex 0.515298 -2.70129 0
      vertex 0.234226 -1.22786 0
      vertex 0.386271 -1.18882 0
    endloop
  endfacet
  facet normal 0 0 -1
    outer loop
      vertex 0.172673 -2.74457 0
      vertex 0.234226 -1.22786 0
      vertex 0.515298 -2.70129 0
    endloop
  endfacet
  facet normal 0 0 -1
    outer loop
      vertex 0.172673 -2.74457 0
      vertex 0.0784874 -1.24753 0
      vertex 0.234226 -1.22786 0
    endloop
  endfacet
  facet normal 0 0 -1
    outer loop
      vertex 0.172673 -2.74457 0
      vertex -0.0784874 -1.24753 0
      vertex 0.0784874 -1.24753 0
    endloop
  endfacet
  facet normal 0 0 -1
    outer loop
      vertex -0.172673 -2.74457 0
      vertex -0.0784874 -1.24753 0
      vertex 0.172673 -2.74457 0
    endloop
  endfacet
  facet normal 0 0 -1
    outer loop
      vertex -0.172673 -2.74457 0
      vertex -0.234226 -1.22786 0
      vertex -0.0784874 -1.24753 0
    endloop
  endfacet
  facet normal 0 0 -1
    outer loop
      vertex -0.515298 -2.70129 0
      vertex -0.234226 -1.22786 0
      vertex -0.172673 -2.74457 0
    endloop
  endfacet
  facet normal -0 0 -1
    outer loop
      vertex -0.234226 -1.22786 0
      vertex -0.515298 -2.70129 0
      vertex -0.386271 -1.18882 0
    endloop
  endfacet
  facet normal 0 0 -1
    outer loop
      vertex -0.849796 -2.61541 0
      vertex -0.386271 -1.18882 0
      vertex -0.515298 -2.70129 0
    endloop
  endfacet
  facet normal -0 0 -1
    outer loop
      vertex -0.386271 -1.18882 0
      vertex -0.849796 -2.61541 0
      vertex -0.532224 -1.13103 0
    endloop
  endfacet
  facet normal 0 0 -1
    outer loop
      vertex -1.17089 -2.48827 0
      vertex -0.532224 -1.13103 0
      vertex -0.849796 -2.61541 0
    endloop
  endfacet
  facet normal -0 0 -1
    outer loop
      vertex -0.532224 -1.13103 0
      vertex -1.17089 -2.48827 0
      vertex -0.669783 -1.05541 0
    endloop
  endfacet
  facet normal 0 0 -1
    outer loop
      vertex -1.47352 -2.3219 0
      vertex -0.669783 -1.05541 0
      vertex -1.17089 -2.48827 0
    endloop
  endfacet
  facet normal -0 0 -1
    outer loop
      vertex -0.669783 -1.05541 0
      vertex -1.47352 -2.3219 0
      vertex -0.79678 -0.963141 0
    endloop
  endfacet
  facet normal 0 0 -1
    outer loop
      vertex -1.75292 -2.11891 0
      vertex -0.79678 -0.963141 0
      vertex -1.47352 -2.3219 0
    endloop
  endfacet
  facet normal -0 0 -1
    outer loop
      vertex -0.79678 -0.963141 0
      vertex -1.75292 -2.11891 0
      vertex -0.91121 -0.855683 0
    endloop
  endfacet
  facet normal 0 0 -1
    outer loop
      vertex -2.00466 -1.8825 0
      vertex -0.91121 -0.855683 0
      vertex -1.75292 -2.11891 0
    endloop
  endfacet
  facet normal -0 0 -1
    outer loop
      vertex -0.91121 -0.855683 0
      vertex -2.00466 -1.8825 0
      vertex -1.01127 -0.734731 0
    endloop
  endfacet
  facet normal 0 0 -1
    outer loop
      vertex -2.2248 -1.61641 0
      vertex -1.01127 -0.734731 0
      vertex -2.00466 -1.8825 0
    endloop
  endfacet
  facet normal -0 0 -1
    outer loop
      vertex -1.01127 -0.734731 0
      vertex -2.2248 -1.61641 0
      vertex -1.09538 -0.602192 0
    endloop
  endfacet
  facet normal 0 0 -1
    outer loop
      vertex -2.40984 -1.32482 0
      vertex -1.09538 -0.602192 0
      vertex -2.2248 -1.61641 0
    endloop
  endfacet
  facet normal -0 0 -1
    outer loop
      vertex 2.40984 1.32482 0
      vertex 1.09538 0.602192 0
      vertex 2.2248 1.61641 0
    endloop
  endfacet
  facet normal 0 0 -1
    outer loop
      vertex 1.01127 0.734731 0
      vertex 2.2248 1.61641 0
      vertex 1.09538 0.602192 0
    endloop
  endfacet
  facet normal -0 0 -1
    outer loop
      vertex 2.2248 1.61641 0
      vertex 1.01127 0.734731 0
      vertex 2.00466 1.8825 0
    endloop
  endfacet
  facet normal 0 0 -1
    outer loop
      vertex 0.91121 0.855683 0
      vertex 2.00466 1.8825 0
      vertex 1.01127 0.734731 0
    endloop
  endfacet
  facet normal -0 0 -1
    outer loop
      vertex 2.00466 1.8825 0
      vertex 0.91121 0.855683 0
      vertex 1.75292 2.11891 0
    endloop
  endfacet
  facet normal 0 0 -1
    outer loop
      vertex 0.79678 0.963141 0
      vertex 1.75292 2.11891 0
      vertex 0.91121 0.855683 0
    endloop
  endfacet
  facet normal -0 0 -1
    outer loop
      vertex 1.75292 2.11891 0
      vertex 0.79678 0.963141 0
      vertex 1.47352 2.3219 0
    endloop
  endfacet
  facet normal 0 0 -1
    outer loop
      vertex 0.669783 1.05541 0
      vertex 1.47352 2.3219 0
      vertex 0.79678 0.963141 0
    endloop
  endfacet
  facet normal -0 0 -1
    outer loop
      vertex 1.47352 2.3219 0
      vertex 0.669783 1.05541 0
      vertex 1.17089 2.48827 0
    endloop
  endfacet
  facet normal 0 0 -1
    outer loop
      vertex 0.532224 1.13103 0
      vertex 1.17089 2.48827 0
      vertex 0.669783 1.05541 0
    endloop
  endfacet
  facet normal -0 0 -1
    outer loop
      vertex 1.17089 2.48827 0
      vertex 0.532224 1.13103 0
      vertex 0.849796 2.61541 0
    endloop
  endfacet
  facet normal 0 0 -1
    outer loop
      vertex 0.386271 1.18882 0
      vertex 0.849796 2.61541 0
      vertex 0.532224 1.13103 0
    endloop
  endfacet
  facet normal -0 0 -1
    outer loop
      vertex 0.849796 2.61541 0
      vertex 0.386271 1.18882 0
      vertex 0.515298 2.70129 0
    endloop
  endfacet
  facet normal 0 0 -1
    outer loop
      vertex 0.234226 1.22786 0
      vertex 0.515298 2.70129 0
      vertex 0.386271 1.18882 0
    endloop
  endfacet
  facet normal 0 0 -1
    outer loop
      vertex 0.234226 1.22786 0
      vertex 0.172673 2.74457 0
      vertex 0.515298 2.70129 0
    endloop
  endfacet
  facet normal 0 0 -1
    outer loop
      vertex 0.0784874 1.24753 0
      vertex 0.172673 2.74457 0
      vertex 0.234226 1.22786 0
    endloop
  endfacet
  facet normal 0 0 -1
    outer loop
      vertex -0.0784874 1.24753 0
      vertex 0.172673 2.74457 0
      vertex 0.0784874 1.24753 0
    endloop
  endfacet
  facet normal 0 0 -1
    outer loop
      vertex -0.0784874 1.24753 0
      vertex -0.172673 2.74457 0
      vertex 0.172673 2.74457 0
    endloop
  endfacet
  facet normal 0 0 -1
    outer loop
      vertex -0.234226 1.22786 0
      vertex -0.172673 2.74457 0
      vertex -0.0784874 1.24753 0
    endloop
  endfacet
  facet normal 0 0 -1
    outer loop
      vertex -0.515298 2.70129 0
      vertex -0.234226 1.22786 0
      vertex -0.386271 1.18882 0
    endloop
  endfacet
  facet normal 0 0 -1
    outer loop
      vertex -0.234226 1.22786 0
      vertex -0.515298 2.70129 0
      vertex -0.172673 2.74457 0
    endloop
  endfacet
  facet normal 0 0 -1
    outer loop
      vertex -0.849796 2.61541 0
      vertex -0.386271 1.18882 0
      vertex -0.532224 1.13103 0
    endloop
  endfacet
  facet normal 0 0 -1
    outer loop
      vertex -1.17089 2.48827 0
      vertex -0.532224 1.13103 0
      vertex -0.669783 1.05541 0
    endloop
  endfacet
  facet normal 0 0 -1
    outer loop
      vertex -1.47352 2.3219 0
      vertex -0.669783 1.05541 0
      vertex -0.79678 0.963141 0
    endloop
  endfacet
  facet normal 0 0 -1
    outer loop
      vertex -0.386271 1.18882 0
      vertex -0.849796 2.61541 0
      vertex -0.515298 2.70129 0
    endloop
  endfacet
  facet normal 0 0 -1
    outer loop
      vertex -1.75292 2.11891 0
      vertex -0.79678 0.963141 0
      vertex -0.91121 0.855683 0
    endloop
  endfacet
  facet normal 0 0 -1
    outer loop
      vertex -2.00466 1.8825 0
      vertex -0.91121 0.855683 0
      vertex -1.01127 0.734731 0
    endloop
  endfacet
  facet normal 0 0 -1
    outer loop
      vertex -2.2248 1.61641 0
      vertex -1.01127 0.734731 0
      vertex -1.09538 0.602192 0
    endloop
  endfacet
  facet normal 0 0 -1
    outer loop
      vertex -2.40984 1.32482 0
      vertex -1.09538 0.602192 0
      vertex -1.16222 0.460155 0
    endloop
  endfacet
  facet normal 0 0 -1
    outer loop
      vertex -0.532224 1.13103 0
      vertex -1.17089 2.48827 0
      vertex -0.849796 2.61541 0
    endloop
  endfacet
  facet normal 0 0 -1
    outer loop
      vertex -2.55688 1.01234 0
      vertex -1.16222 0.460155 0
      vertex -1.21073 0.310862 0
    endloop
  endfacet
  facet normal 0 0 -1
    outer loop
      vertex -2.6636 0.683897 0
      vertex -1.21073 0.310862 0
      vertex -1.24014 0.156666 0
    endloop
  endfacet
  facet normal 0 0 -1
    outer loop
      vertex -2.72832 0.344666 0
      vertex -1.24014 0.156666 0
      vertex -1.25 0 0
    endloop
  endfacet
  facet normal -0 0 -1
    outer loop
      vertex -1.09538 -0.602192 0
      vertex -2.40984 -1.32482 0
      vertex -1.16222 -0.460155 0
    endloop
  endfacet
  facet normal 0 0 -1
    outer loop
      vertex -0.669783 1.05541 0
      vertex -1.47352 2.3219 0
      vertex -1.17089 2.48827 0
    endloop
  endfacet
  facet normal 0 0 -1
    outer loop
      vertex -2.55688 -1.01234 0
      vertex -1.16222 -0.460155 0
      vertex -2.40984 -1.32482 0
    endloop
  endfacet
  facet normal 0 0 -1
    outer loop
      vertex -0.79678 0.963141 0
      vertex -1.75292 2.11891 0
      vertex -1.47352 2.3219 0
    endloop
  endfacet
  facet normal -0 0 -1
    outer loop
      vertex -1.16222 -0.460155 0
      vertex -2.55688 -1.01234 0
      vertex -1.21073 -0.310862 0
    endloop
  endfacet
  facet normal 0 0 -1
    outer loop
      vertex -0.91121 0.855683 0
      vertex -2.00466 1.8825 0
      vertex -1.75292 2.11891 0
    endloop
  endfacet
  facet normal 0 0 -1
    outer loop
      vertex -2.6636 -0.683897 0
      vertex -1.21073 -0.310862 0
      vertex -2.55688 -1.01234 0
    endloop
  endfacet
  facet normal 0 0 -1
    outer loop
      vertex -1.01127 0.734731 0
      vertex -2.2248 1.61641 0
      vertex -2.00466 1.8825 0
    endloop
  endfacet
  facet normal -0 0 -1
    outer loop
      vertex -1.21073 -0.310862 0
      vertex -2.6636 -0.683897 0
      vertex -1.24014 -0.156666 0
    endloop
  endfacet
  facet normal 0 0 -1
    outer loop
      vertex -1.09538 0.602192 0
      vertex -2.40984 1.32482 0
      vertex -2.2248 1.61641 0
    endloop
  endfacet
  facet normal 0 0 -1
    outer loop
      vertex -2.72832 -0.344666 0
      vertex -1.24014 -0.156666 0
      vertex -2.6636 -0.683897 0
    endloop
  endfacet
  facet normal 0 0 -1
    outer loop
      vertex -1.16222 0.460155 0
      vertex -2.55688 1.01234 0
      vertex -2.40984 1.32482 0
    endloop
  endfacet
  facet normal -0 0 -1
    outer loop
      vertex -1.24014 -0.156666 0
      vertex -2.72832 -0.344666 0
      vertex -1.25 0 0
    endloop
  endfacet
  facet normal 0 0 -1
    outer loop
      vertex -1.21073 0.310862 0
      vertex -2.6636 0.683897 0
      vertex -2.55688 1.01234 0
    endloop
  endfacet
  facet normal 0 0 -1
    outer loop
      vertex -2.75 0 0
      vertex -1.25 0 0
      vertex -2.72832 -0.344666 0
    endloop
  endfacet
  facet normal 0 0 -1
    outer loop
      vertex -1.24014 0.156666 0
      vertex -2.72832 0.344666 0
      vertex -2.6636 0.683897 0
    endloop
  endfacet
  facet normal 0 0 -1
    outer loop
      vertex -1.25 0 0
      vertex -2.75 0 0
      vertex -2.72832 0.344666 0
    endloop
  endfacet
  facet normal -0.248678 -0.968586 0
    outer loop
      vertex -0.849796 -2.61541 0
      vertex -0.515298 -2.70129 10
      vertex -0.849796 -2.61541 10
    endloop
  endfacet
  facet normal -0.248678 -0.968586 -0
    outer loop
      vertex -0.515298 -2.70129 10
      vertex -0.849796 -2.61541 0
      vertex -0.515298 -2.70129 0
    endloop
  endfacet
  facet normal 0 0 1
    outer loop
      vertex 1.25 0 10
      vertex 2.75 0 10
      vertex 2.72832 0.344666 10
    endloop
  endfacet
  facet normal 0 0 1
    outer loop
      vertex 1.24014 0.156666 10
      vertex 2.72832 0.344666 10
      vertex 2.6636 0.683897 10
    endloop
  endfacet
  facet normal 0 0 1
    outer loop
      vertex 2.75 0 10
      vertex 1.25 0 10
      vertex 2.72832 -0.344666 10
    endloop
  endfacet
  facet normal 0 0 1
    outer loop
      vertex 1.21073 0.310862 10
      vertex 2.6636 0.683897 10
      vertex 2.55688 1.01234 10
    endloop
  endfacet
  facet normal -0 0 1
    outer loop
      vertex 1.24014 -0.156666 10
      vertex 2.72832 -0.344666 10
      vertex 1.25 0 10
    endloop
  endfacet
  facet normal 0 0 1
    outer loop
      vertex 1.16222 0.460155 10
      vertex 2.55688 1.01234 10
      vertex 2.40984 1.32482 10
    endloop
  endfacet
  facet normal 0 0 1
    outer loop
      vertex 2.72832 -0.344666 10
      vertex 1.24014 -0.156666 10
      vertex 2.6636 -0.683897 10
    endloop
  endfacet
  facet normal 0 0 1
    outer loop
      vertex 1.09538 0.602192 10
      vertex 2.40984 1.32482 10
      vertex 2.2248 1.61641 10
    endloop
  endfacet
  facet normal -0 0 1
    outer loop
      vertex 1.21073 -0.310862 10
      vertex 2.6636 -0.683897 10
      vertex 1.24014 -0.156666 10
    endloop
  endfacet
  facet normal 0 0 1
    outer loop
      vertex 1.01127 0.734731 10
      vertex 2.2248 1.61641 10
      vertex 2.00466 1.8825 10
    endloop
  endfacet
  facet normal 0 0 1
    outer loop
      vertex 2.6636 -0.683897 10
      vertex 1.21073 -0.310862 10
      vertex 2.55688 -1.01234 10
    endloop
  endfacet
  facet normal 0 0 1
    outer loop
      vertex 0.91121 0.855683 10
      vertex 2.00466 1.8825 10
      vertex 1.75292 2.11891 10
    endloop
  endfacet
  facet normal -0 0 1
    outer loop
      vertex 1.16222 -0.460155 10
      vertex 2.55688 -1.01234 10
      vertex 1.21073 -0.310862 10
    endloop
  endfacet
  facet normal 0 0 1
    outer loop
      vertex 0.79678 0.963141 10
      vertex 1.75292 2.11891 10
      vertex 1.47352 2.3219 10
    endloop
  endfacet
  facet normal 0 0 1
    outer loop
      vertex 2.55688 -1.01234 10
      vertex 1.16222 -0.460155 10
      vertex 2.40984 -1.32482 10
    endloop
  endfacet
  facet normal -0 0 1
    outer loop
      vertex 1.09538 -0.602192 10
      vertex 2.40984 -1.32482 10
      vertex 1.16222 -0.460155 10
    endloop
  endfacet
  facet normal 0 0 1
    outer loop
      vertex 2.72832 0.344666 10
      vertex 1.24014 0.156666 10
      vertex 1.25 0 10
    endloop
  endfacet
  facet normal 0 0 1
    outer loop
      vertex 2.6636 0.683897 10
      vertex 1.21073 0.310862 10
      vertex 1.24014 0.156666 10
    endloop
  endfacet
  facet normal 0 0 1
    outer loop
      vertex 0.669783 1.05541 10
      vertex 1.47352 2.3219 10
      vertex 1.17089 2.48827 10
    endloop
  endfacet
  facet normal 0 0 1
    outer loop
      vertex 2.55688 1.01234 10
      vertex 1.16222 0.460155 10
      vertex 1.21073 0.310862 10
    endloop
  endfacet
  facet normal 0 0 1
    outer loop
      vertex 2.40984 1.32482 10
      vertex 1.09538 0.602192 10
      vertex 1.16222 0.460155 10
    endloop
  endfacet
  facet normal 0 0 1
    outer loop
      vertex 2.2248 1.61641 10
      vertex 1.01127 0.734731 10
      vertex 1.09538 0.602192 10
    endloop
  endfacet
  facet normal 0 0 1
    outer loop
      vertex 2.00466 1.8825 10
      vertex 0.91121 0.855683 10
      vertex 1.01127 0.734731 10
    endloop
  endfacet
  facet normal 0 0 1
    outer loop
      vertex 0.532224 1.13103 10
      vertex 1.17089 2.48827 10
      vertex 0.849796 2.61541 10
    endloop
  endfacet
  facet normal 0 0 1
    outer loop
      vertex 1.75292 2.11891 10
      vertex 0.79678 0.963141 10
      vertex 0.91121 0.855683 10
    endloop
  endfacet
  facet normal 0 0 1
    outer loop
      vertex 1.47352 2.3219 10
      vertex 0.669783 1.05541 10
      vertex 0.79678 0.963141 10
    endloop
  endfacet
  facet normal 0 0 1
    outer loop
      vertex 1.17089 2.48827 10
      vertex 0.532224 1.13103 10
      vertex 0.669783 1.05541 10
    endloop
  endfacet
  facet normal 0 0 1
    outer loop
      vertex 0.386271 1.18882 10
      vertex 0.849796 2.61541 10
      vertex 0.515298 2.70129 10
    endloop
  endfacet
  facet normal 0 0 1
    outer loop
      vertex 0.849796 2.61541 10
      vertex 0.386271 1.18882 10
      vertex 0.532224 1.13103 10
    endloop
  endfacet
  facet normal 0 0 1
    outer loop
      vertex 0.515298 2.70129 10
      vertex 0.234226 1.22786 10
      vertex 0.386271 1.18882 10
    endloop
  endfacet
  facet normal 0 0 1
    outer loop
      vertex 0.172673 2.74457 10
      vertex 0.234226 1.22786 10
      vertex 0.515298 2.70129 10
    endloop
  endfacet
  facet normal 0 0 1
    outer loop
      vertex 0.172673 2.74457 10
      vertex 0.0784874 1.24753 10
      vertex 0.234226 1.22786 10
    endloop
  endfacet
  facet normal 0 0 1
    outer loop
      vertex 0.172673 2.74457 10
      vertex -0.0784874 1.24753 10
      vertex 0.0784874 1.24753 10
    endloop
  endfacet
  facet normal -0 0 1
    outer loop
      vertex -0.172673 2.74457 10
      vertex -0.0784874 1.24753 10
      vertex 0.172673 2.74457 10
    endloop
  endfacet
  facet normal 0 0 1
    outer loop
      vertex -0.172673 2.74457 10
      vertex -0.234226 1.22786 10
      vertex -0.0784874 1.24753 10
    endloop
  endfacet
  facet normal -0 0 1
    outer loop
      vertex -0.515298 2.70129 10
      vertex -0.234226 1.22786 10
      vertex -0.172673 2.74457 10
    endloop
  endfacet
  facet normal 0 0 1
    outer loop
      vertex -0.234226 1.22786 10
      vertex -0.515298 2.70129 10
      vertex -0.386271 1.18882 10
    endloop
  endfacet
  facet normal -0 0 1
    outer loop
      vertex -0.849796 2.61541 10
      vertex -0.386271 1.18882 10
      vertex -0.515298 2.70129 10
    endloop
  endfacet
  facet normal 0 0 1
    outer loop
      vertex -0.386271 1.18882 10
      vertex -0.849796 2.61541 10
      vertex -0.532224 1.13103 10
    endloop
  endfacet
  facet normal -0 0 1
    outer loop
      vertex -1.17089 2.48827 10
      vertex -0.532224 1.13103 10
      vertex -0.849796 2.61541 10
    endloop
  endfacet
  facet normal 0 0 1
    outer loop
      vertex -0.532224 1.13103 10
      vertex -1.17089 2.48827 10
      vertex -0.669783 1.05541 10
    endloop
  endfacet
  facet normal -0 0 1
    outer loop
      vertex -1.47352 2.3219 10
      vertex -0.669783 1.05541 10
      vertex -1.17089 2.48827 10
    endloop
  endfacet
  facet normal 0 0 1
    outer loop
      vertex -0.669783 1.05541 10
      vertex -1.47352 2.3219 10
      vertex -0.79678 0.963141 10
    endloop
  endfacet
  facet normal -0 0 1
    outer loop
      vertex -1.75292 2.11891 10
      vertex -0.79678 0.963141 10
      vertex -1.47352 2.3219 10
    endloop
  endfacet
  facet normal 0 0 1
    outer loop
      vertex -0.79678 0.963141 10
      vertex -1.75292 2.11891 10
      vertex -0.91121 0.855683 10
    endloop
  endfacet
  facet normal -0 0 1
    outer loop
      vertex -2.00466 1.8825 10
      vertex -0.91121 0.855683 10
      vertex -1.75292 2.11891 10
    endloop
  endfacet
  facet normal 0 0 1
    outer loop
      vertex -0.91121 0.855683 10
      vertex -2.00466 1.8825 10
      vertex -1.01127 0.734731 10
    endloop
  endfacet
  facet normal -0 0 1
    outer loop
      vertex -2.2248 1.61641 10
      vertex -1.01127 0.734731 10
      vertex -2.00466 1.8825 10
    endloop
  endfacet
  facet normal 0 0 1
    outer loop
      vertex -1.01127 0.734731 10
      vertex -2.2248 1.61641 10
      vertex -1.09538 0.602192 10
    endloop
  endfacet
  facet normal -0 0 1
    outer loop
      vertex -2.40984 1.32482 10
      vertex -1.09538 0.602192 10
      vertex -2.2248 1.61641 10
    endloop
  endfacet
  facet normal 0 0 1
    outer loop
      vertex 2.40984 -1.32482 10
      vertex 1.09538 -0.602192 10
      vertex 2.2248 -1.61641 10
    endloop
  endfacet
  facet normal -0 0 1
    outer loop
      vertex 1.01127 -0.734731 10
      vertex 2.2248 -1.61641 10
      vertex 1.09538 -0.602192 10
    endloop
  endfacet
  facet normal 0 0 1
    outer loop
      vertex 2.2248 -1.61641 10
      vertex 1.01127 -0.734731 10
      vertex 2.00466 -1.8825 10
    endloop
  endfacet
  facet normal -0 0 1
    outer loop
      vertex 0.91121 -0.855683 10
      vertex 2.00466 -1.8825 10
      vertex 1.01127 -0.734731 10
    endloop
  endfacet
  facet normal 0 0 1
    outer loop
      vertex 2.00466 -1.8825 10
      vertex 0.91121 -0.855683 10
      vertex 1.75292 -2.11891 10
    endloop
  endfacet
  facet normal -0 0 1
    outer loop
      vertex 0.79678 -0.963141 10
      vertex 1.75292 -2.11891 10
      vertex 0.91121 -0.855683 10
    endloop
  endfacet
  facet normal 0 0 1
    outer loop
      vertex 1.75292 -2.11891 10
      vertex 0.79678 -0.963141 10
      vertex 1.47352 -2.3219 10
    endloop
  endfacet
  facet normal -0 0 1
    outer loop
      vertex 0.669783 -1.05541 10
      vertex 1.47352 -2.3219 10
      vertex 0.79678 -0.963141 10
    endloop
  endfacet
  facet normal 0 0 1
    outer loop
      vertex 1.47352 -2.3219 10
      vertex 0.669783 -1.05541 10
      vertex 1.17089 -2.48827 10
    endloop
  endfacet
  facet normal -0 0 1
    outer loop
      vertex 0.532224 -1.13103 10
      vertex 1.17089 -2.48827 10
      vertex 0.669783 -1.05541 10
    endloop
  endfacet
  facet normal 0 0 1
    outer loop
      vertex 1.17089 -2.48827 10
      vertex 0.532224 -1.13103 10
      vertex 0.849796 -2.61541 10
    endloop
  endfacet
  facet normal -0 0 1
    outer loop
      vertex 0.386271 -1.18882 10
      vertex 0.849796 -2.61541 10
      vertex 0.532224 -1.13103 10
    endloop
  endfacet
  facet normal 0 0 1
    outer loop
      vertex 0.849796 -2.61541 10
      vertex 0.386271 -1.18882 10
      vertex 0.515298 -2.70129 10
    endloop
  endfacet
  facet normal -0 0 1
    outer loop
      vertex 0.234226 -1.22786 10
      vertex 0.515298 -2.70129 10
      vertex 0.386271 -1.18882 10
    endloop
  endfacet
  facet normal 0 0 1
    outer loop
      vertex 0.234226 -1.22786 10
      vertex 0.172673 -2.74457 10
      vertex 0.515298 -2.70129 10
    endloop
  endfacet
  facet normal -0 0 1
    outer loop
      vertex 0.0784874 -1.24753 10
      vertex 0.172673 -2.74457 10
      vertex 0.234226 -1.22786 10
    endloop
  endfacet
  facet normal -0 0 1
    outer loop
      vertex -0.0784874 -1.24753 10
      vertex 0.172673 -2.74457 10
      vertex 0.0784874 -1.24753 10
    endloop
  endfacet
  facet normal 0 0 1
    outer loop
      vertex -0.0784874 -1.24753 10
      vertex -0.172673 -2.74457 10
      vertex 0.172673 -2.74457 10
    endloop
  endfacet
  facet normal 0 0 1
    outer loop
      vertex -0.234226 -1.22786 10
      vertex -0.172673 -2.74457 10
      vertex -0.0784874 -1.24753 10
    endloop
  endfacet
  facet normal 0 0 1
    outer loop
      vertex -0.515298 -2.70129 10
      vertex -0.234226 -1.22786 10
      vertex -0.386271 -1.18882 10
    endloop
  endfacet
  facet normal 0 0 1
    outer loop
      vertex -0.234226 -1.22786 10
      vertex -0.515298 -2.70129 10
      vertex -0.172673 -2.74457 10
    endloop
  endfacet
  facet normal 0 0 1
    outer loop
      vertex -0.849796 -2.61541 10
      vertex -0.386271 -1.18882 10
      vertex -0.532224 -1.13103 10
    endloop
  endfacet
  facet normal 0 0 1
    outer loop
      vertex -1.17089 -2.48827 10
      vertex -0.532224 -1.13103 10
      vertex -0.669783 -1.05541 10
    endloop
  endfacet
  facet normal 0 0 1
    outer loop
      vertex -1.47352 -2.3219 10
      vertex -0.669783 -1.05541 10
      vertex -0.79678 -0.963141 10
    endloop
  endfacet
  facet normal 0 0 1
    outer loop
      vertex -0.386271 -1.18882 10
      vertex -0.849796 -2.61541 10
      vertex -0.515298 -2.70129 10
    endloop
  endfacet
  facet normal 0 0 1
    outer loop
      vertex -1.75292 -2.11891 10
      vertex -0.79678 -0.963141 10
      vertex -0.91121 -0.855683 10
    endloop
  endfacet
  facet normal 0 0 1
    outer loop
      vertex -2.00466 -1.8825 10
      vertex -0.91121 -0.855683 10
      vertex -1.01127 -0.734731 10
    endloop
  endfacet
  facet normal 0 0 1
    outer loop
      vertex -2.2248 -1.61641 10
      vertex -1.01127 -0.734731 10
      vertex -1.09538 -0.602192 10
    endloop
  endfacet
  facet normal 0 0 1
    outer loop
      vertex -2.40984 -1.32482 10
      vertex -1.09538 -0.602192 10
      vertex -1.16222 -0.460155 10
    endloop
  endfacet
  facet normal 0 0 1
    outer loop
      vertex -0.532224 -1.13103 10
      vertex -1.17089 -2.48827 10
      vertex -0.849796 -2.61541 10
    endloop
  endfacet
  facet normal 0 0 1
    outer loop
      vertex -2.55688 -1.01234 10
      vertex -1.16222 -0.460155 10
      vertex -1.21073 -0.310862 10
    endloop
  endfacet
  facet normal 0 0 1
    outer loop
      vertex -2.6636 -0.683897 10
      vertex -1.21073 -0.310862 10
      vertex -1.24014 -0.156666 10
    endloop
  endfacet
  facet normal 0 0 1
    outer loop
      vertex -2.72832 -0.344666 10
      vertex -1.24014 -0.156666 10
      vertex -1.25 0 10
    endloop
  endfacet
  facet normal 0 0 1
    outer loop
      vertex -1.09538 0.602192 10
      vertex -2.40984 1.32482 10
      vertex -1.16222 0.460155 10
    endloop
  endfacet
  facet normal 0 0 1
    outer loop
      vertex -0.669783 -1.05541 10
      vertex -1.47352 -2.3219 10
      vertex -1.17089 -2.48827 10
    endloop
  endfacet
  facet normal -0 0 1
    outer loop
      vertex -2.55688 1.01234 10
      vertex -1.16222 0.460155 10
      vertex -2.40984 1.32482 10
    endloop
  endfacet
  facet normal 0 0 1
    outer loop
      vertex -0.79678 -0.963141 10
      vertex -1.75292 -2.11891 10
      vertex -1.47352 -2.3219 10
    endloop
  endfacet
  facet normal 0 0 1
    outer loop
      vertex -1.16222 0.460155 10
      vertex -2.55688 1.01234 10
      vertex -1.21073 0.310862 10
    endloop
  endfacet
  facet normal 0 0 1
    outer loop
      vertex -0.91121 -0.855683 10
      vertex -2.00466 -1.8825 10
      vertex -1.75292 -2.11891 10
    endloop
  endfacet
  facet normal -0 0 1
    outer loop
      vertex -2.6636 0.683897 10
      vertex -1.21073 0.310862 10
      vertex -2.55688 1.01234 10
    endloop
  endfacet
  facet normal 0 0 1
    outer loop
      vertex -1.01127 -0.734731 10
      vertex -2.2248 -1.61641 10
      vertex -2.00466 -1.8825 10
    endloop
  endfacet
  facet normal 0 0 1
    outer loop
      vertex -1.21073 0.310862 10
      vertex -2.6636 0.683897 10
      vertex -1.24014 0.156666 10
    endloop
  endfacet
  facet normal 0 0 1
    outer loop
      vertex -1.09538 -0.602192 10
      vertex -2.40984 -1.32482 10
      vertex -2.2248 -1.61641 10
    endloop
  endfacet
  facet normal -0 0 1
    outer loop
      vertex -2.72832 0.344666 10
      vertex -1.24014 0.156666 10
      vertex -2.6636 0.683897 10
    endloop
  endfacet
  facet normal 0 0 1
    outer loop
      vertex -1.16222 -0.460155 10
      vertex -2.55688 -1.01234 10
      vertex -2.40984 -1.32482 10
    endloop
  endfacet
  facet normal 0 0 1
    outer loop
      vertex -1.24014 0.156666 10
      vertex -2.72832 0.344666 10
      vertex -1.25 0 10
    endloop
  endfacet
  facet normal 0 0 1
    outer loop
      vertex -1.21073 -0.310862 10
      vertex -2.6636 -0.683897 10
      vertex -2.55688 -1.01234 10
    endloop
  endfacet
  facet normal 0 0 1
    outer loop
      vertex -2.75 0 10
      vertex -1.25 0 10
      vertex -2.72832 0.344666 10
    endloop
  endfacet
  facet normal 0 0 1
    outer loop
      vertex -1.24014 -0.156666 10
      vertex -2.72832 -0.344666 10
      vertex -2.6636 -0.683897 10
    endloop
  endfacet
  facet normal 0 0 1
    outer loop
      vertex -1.25 0 10
      vertex -2.75 0 10
      vertex -2.72832 -0.344666 10
    endloop
  endfacet
  facet normal -0.982292 -0.187354 0
    outer loop
      vertex 1.24014 0.156666 0
      vertex 1.21073 0.310862 10
      vertex 1.21073 0.310862 0
    endloop
  endfacet
  facet normal -0.982292 -0.187354 0
    outer loop
      vertex 1.21073 0.310862 10
      vertex 1.24014 0.156666 0
      vertex 1.24014 0.156666 10
    endloop
  endfacet
  facet normal -0.998025 -0.0628122 0
    outer loop
      vertex 1.25 0 0
      vertex 1.24014 0.156666 10
      vertex 1.24014 0.156666 0
    endloop
  endfacet
  facet normal -0.998025 -0.0628122 0
    outer loop
      vertex 1.24014 0.156666 10
      vertex 1.25 0 0
      vertex 1.25 0 10
    endloop
  endfacet
  facet normal -0.904821 -0.425792 0
    outer loop
      vertex 1.16222 0.460155 0
      vertex 1.09538 0.602192 10
      vertex 1.09538 0.602192 0
    endloop
  endfacet
  facet normal -0.904821 -0.425792 0
    outer loop
      vertex 1.09538 0.602192 10
      vertex 1.16222 0.460155 0
      vertex 1.16222 0.460155 10
    endloop
  endfacet
  facet normal -0.684551 -0.728965 0
    outer loop
      vertex 0.79678 0.963141 0
      vertex 0.91121 0.855683 10
      vertex 0.79678 0.963141 10
    endloop
  endfacet
  facet normal -0.684551 -0.728965 -0
    outer loop
      vertex 0.91121 0.855683 10
      vertex 0.79678 0.963141 0
      vertex 0.91121 0.855683 0
    endloop
  endfacet
  facet normal -0.248699 -0.968581 0
    outer loop
      vertex 0.234226 1.22786 0
      vertex 0.386271 1.18882 10
      vertex 0.234226 1.22786 10
    endloop
  endfacet
  facet normal -0.248699 -0.968581 -0
    outer loop
      vertex 0.386271 1.18882 10
      vertex 0.234226 1.22786 0
      vertex 0.386271 1.18882 0
    endloop
  endfacet
  facet normal -0.998025 0.0628122 0
    outer loop
      vertex 1.24014 -0.156666 0
      vertex 1.25 0 10
      vertex 1.25 0 0
    endloop
  endfacet
  facet normal -0.998025 0.0628122 0
    outer loop
      vertex 1.25 0 10
      vertex 1.24014 -0.156666 0
      vertex 1.24014 -0.156666 10
    endloop
  endfacet
  facet normal -0.904821 0.425792 0
    outer loop
      vertex 1.09538 -0.602192 0
      vertex 1.16222 -0.460155 10
      vertex 1.16222 -0.460155 0
    endloop
  endfacet
  facet normal -0.904821 0.425792 0
    outer loop
      vertex 1.16222 -0.460155 10
      vertex 1.09538 -0.602192 0
      vertex 1.09538 -0.602192 10
    endloop
  endfacet
  facet normal 0.587786 0.809016 -0
    outer loop
      vertex -0.669783 -1.05541 0
      vertex -0.79678 -0.963141 10
      vertex -0.669783 -1.05541 10
    endloop
  endfacet
  facet normal 0.587786 0.809016 0
    outer loop
      vertex -0.79678 -0.963141 10
      vertex -0.669783 -1.05541 0
      vertex -0.79678 -0.963141 0
    endloop
  endfacet
  facet normal -0.368142 0.92977 0
    outer loop
      vertex 0.532224 -1.13103 0
      vertex 0.386271 -1.18882 10
      vertex 0.532224 -1.13103 10
    endloop
  endfacet
  facet normal -0.368142 0.92977 0
    outer loop
      vertex 0.386271 -1.18882 10
      vertex 0.532224 -1.13103 0
      vertex 0.386271 -1.18882 0
    endloop
  endfacet
  facet normal 0.844333 0.535819 0
    outer loop
      vertex -1.01127 -0.734731 10
      vertex -1.09538 -0.602192 0
      vertex -1.09538 -0.602192 10
    endloop
  endfacet
  facet normal 0.844333 0.535819 0
    outer loop
      vertex -1.09538 -0.602192 0
      vertex -1.01127 -0.734731 10
      vertex -1.01127 -0.734731 0
    endloop
  endfacet
  facet normal -0.368142 -0.92977 0
    outer loop
      vertex 0.386271 1.18882 0
      vertex 0.532224 1.13103 10
      vertex 0.386271 1.18882 10
    endloop
  endfacet
  facet normal -0.368142 -0.92977 -0
    outer loop
      vertex 0.532224 1.13103 10
      vertex 0.386271 1.18882 0
      vertex 0.532224 1.13103 0
    endloop
  endfacet
  facet normal 0.481736 -0.876317 0
    outer loop
      vertex -0.669783 1.05541 0
      vertex -0.532224 1.13103 10
      vertex -0.669783 1.05541 10
    endloop
  endfacet
  facet normal 0.481736 -0.876317 0
    outer loop
      vertex -0.532224 1.13103 10
      vertex -0.669783 1.05541 0
      vertex -0.532224 1.13103 0
    endloop
  endfacet
  facet normal -0.982292 0.187354 0
    outer loop
      vertex 1.21073 -0.310862 0
      vertex 1.24014 -0.156666 10
      vertex 1.24014 -0.156666 0
    endloop
  endfacet
  facet normal -0.982292 0.187354 0
    outer loop
      vertex 1.24014 -0.156666 10
      vertex 1.21073 -0.310862 0
      vertex 1.21073 -0.310862 10
    endloop
  endfacet
  facet normal -0.481736 -0.876317 0
    outer loop
      vertex 0.532224 1.13103 0
      vertex 0.669783 1.05541 10
      vertex 0.532224 1.13103 10
    endloop
  endfacet
  facet normal -0.481736 -0.876317 -0
    outer loop
      vertex 0.669783 1.05541 10
      vertex 0.532224 1.13103 0
      vertex 0.669783 1.05541 0
    endloop
  endfacet
  facet normal -0.125306 0.992118 0
    outer loop
      vertex 0.234226 -1.22786 0
      vertex 0.0784874 -1.24753 10
      vertex 0.234226 -1.22786 10
    endloop
  endfacet
  facet normal -0.125306 0.992118 0
    outer loop
      vertex 0.0784874 -1.24753 10
      vertex 0.234226 -1.22786 0
      vertex 0.0784874 -1.24753 0
    endloop
  endfacet
  facet normal 0.951053 -0.309027 0
    outer loop
      vertex -1.21073 0.310862 10
      vertex -1.16222 0.460155 0
      vertex -1.16222 0.460155 10
    endloop
  endfacet
  facet normal 0.951053 -0.309027 0
    outer loop
      vertex -1.16222 0.460155 0
      vertex -1.21073 0.310862 10
      vertex -1.21073 0.310862 0
    endloop
  endfacet
  facet normal -0.844333 -0.535819 0
    outer loop
      vertex 1.09538 0.602192 0
      vertex 1.01127 0.734731 10
      vertex 1.01127 0.734731 0
    endloop
  endfacet
  facet normal -0.844333 -0.535819 0
    outer loop
      vertex 1.01127 0.734731 10
      vertex 1.09538 0.602192 0
      vertex 1.09538 0.602192 10
    endloop
  endfacet
  facet normal -0.951053 0.309027 0
    outer loop
      vertex 1.16222 -0.460155 0
      vertex 1.21073 -0.310862 10
      vertex 1.21073 -0.310862 0
    endloop
  endfacet
  facet normal -0.951053 0.309027 0
    outer loop
      vertex 1.21073 -0.310862 10
      vertex 1.16222 -0.460155 0
      vertex 1.16222 -0.460155 10
    endloop
  endfacet
  facet normal 0.684551 -0.728965 0
    outer loop
      vertex -0.91121 0.855683 0
      vertex -0.79678 0.963141 10
      vertex -0.91121 0.855683 10
    endloop
  endfacet
  facet normal 0.684551 -0.728965 0
    outer loop
      vertex -0.79678 0.963141 10
      vertex -0.91121 0.855683 0
      vertex -0.79678 0.963141 0
    endloop
  endfacet
  facet normal -0.248699 0.968581 0
    outer loop
      vertex 0.386271 -1.18882 0
      vertex 0.234226 -1.22786 10
      vertex 0.386271 -1.18882 10
    endloop
  endfacet
  facet normal -0.248699 0.968581 0
    outer loop
      vertex 0.234226 -1.22786 10
      vertex 0.386271 -1.18882 0
      vertex 0.234226 -1.22786 0
    endloop
  endfacet
  facet normal 0.368142 -0.92977 0
    outer loop
      vertex -0.532224 1.13103 0
      vertex -0.386271 1.18882 10
      vertex -0.532224 1.13103 10
    endloop
  endfacet
  facet normal 0.368142 -0.92977 0
    outer loop
      vertex -0.386271 1.18882 10
      vertex -0.532224 1.13103 0
      vertex -0.386271 1.18882 0
    endloop
  endfacet
  facet normal -0.125306 -0.992118 0
    outer loop
      vertex 0.0784874 1.24753 0
      vertex 0.234226 1.22786 10
      vertex 0.0784874 1.24753 10
    endloop
  endfacet
  facet normal -0.125306 -0.992118 -0
    outer loop
      vertex 0.234226 1.22786 10
      vertex 0.0784874 1.24753 0
      vertex 0.234226 1.22786 0
    endloop
  endfacet
  facet normal 0.248699 -0.968581 0
    outer loop
      vertex -0.386271 1.18882 0
      vertex -0.234226 1.22786 10
      vertex -0.386271 1.18882 10
    endloop
  endfacet
  facet normal 0.248699 -0.968581 0
    outer loop
      vertex -0.234226 1.22786 10
      vertex -0.386271 1.18882 0
      vertex -0.234226 1.22786 0
    endloop
  endfacet
  facet normal 0.982292 0.187354 0
    outer loop
      vertex -1.21073 -0.310862 10
      vertex -1.24014 -0.156666 0
      vertex -1.24014 -0.156666 10
    endloop
  endfacet
  facet normal 0.982292 0.187354 0
    outer loop
      vertex -1.24014 -0.156666 0
      vertex -1.21073 -0.310862 10
      vertex -1.21073 -0.310862 0
    endloop
  endfacet
  facet normal 0 1 -0
    outer loop
      vertex 0.0784874 -1.24753 0
      vertex -0.0784874 -1.24753 10
      vertex 0.0784874 -1.24753 10
    endloop
  endfacet
  facet normal 0 1 0
    outer loop
      vertex -0.0784874 -1.24753 10
      vertex 0.0784874 -1.24753 0
      vertex -0.0784874 -1.24753 0
    endloop
  endfacet
  facet normal -0.587786 -0.809016 0
    outer loop
      vertex 0.669783 1.05541 0
      vertex 0.79678 0.963141 10
      vertex 0.669783 1.05541 10
    endloop
  endfacet
  facet normal -0.587786 -0.809016 -0
    outer loop
      vertex 0.79678 0.963141 10
      vertex 0.669783 1.05541 0
      vertex 0.79678 0.963141 0
    endloop
  endfacet
  facet normal 0.998025 0.0628122 0
    outer loop
      vertex -1.24014 -0.156666 10
      vertex -1.25 0 0
      vertex -1.25 0 10
    endloop
  endfacet
  facet normal 0.998025 0.0628122 0
    outer loop
      vertex -1.25 0 0
      vertex -1.24014 -0.156666 10
      vertex -1.24014 -0.156666 0
    endloop
  endfacet
  facet normal -0.481736 0.876317 0
    outer loop
      vertex 0.669783 -1.05541 0
      vertex 0.532224 -1.13103 10
      vertex 0.669783 -1.05541 10
    endloop
  endfacet
  facet normal -0.481736 0.876317 0
    outer loop
      vertex 0.532224 -1.13103 10
      vertex 0.669783 -1.05541 0
      vertex 0.532224 -1.13103 0
    endloop
  endfacet
  facet normal 0.125306 0.992118 -0
    outer loop
      vertex -0.0784874 -1.24753 0
      vertex -0.234226 -1.22786 10
      vertex -0.0784874 -1.24753 10
    endloop
  endfacet
  facet normal 0.125306 0.992118 0
    outer loop
      vertex -0.234226 -1.22786 10
      vertex -0.0784874 -1.24753 0
      vertex -0.234226 -1.22786 0
    endloop
  endfacet
  facet normal 0.904821 -0.425792 0
    outer loop
      vertex -1.16222 0.460155 10
      vertex -1.09538 0.602192 0
      vertex -1.09538 0.602192 10
    endloop
  endfacet
  facet normal 0.904821 -0.425792 0
    outer loop
      vertex -1.09538 0.602192 0
      vertex -1.16222 0.460155 10
      vertex -1.16222 0.460155 0
    endloop
  endfacet
  facet normal 0.770514 0.637423 0
    outer loop
      vertex -0.91121 -0.855683 10
      vertex -1.01127 -0.734731 0
      vertex -1.01127 -0.734731 10
    endloop
  endfacet
  facet normal 0.770514 0.637423 0
    outer loop
      vertex -1.01127 -0.734731 0
      vertex -0.91121 -0.855683 10
      vertex -0.91121 -0.855683 0
    endloop
  endfacet
  facet normal 0.125306 -0.992118 0
    outer loop
      vertex -0.234226 1.22786 0
      vertex -0.0784874 1.24753 10
      vertex -0.234226 1.22786 10
    endloop
  endfacet
  facet normal 0.125306 -0.992118 0
    outer loop
      vertex -0.0784874 1.24753 10
      vertex -0.234226 1.22786 0
      vertex -0.0784874 1.24753 0
    endloop
  endfacet
  facet normal -0.684551 0.728965 0
    outer loop
      vertex 0.91121 -0.855683 0
      vertex 0.79678 -0.963141 10
      vertex 0.91121 -0.855683 10
    endloop
  endfacet
  facet normal -0.684551 0.728965 0
    outer loop
      vertex 0.79678 -0.963141 10
      vertex 0.91121 -0.855683 0
      vertex 0.79678 -0.963141 0
    endloop
  endfacet
  facet normal 0.904821 0.425792 0
    outer loop
      vertex -1.09538 -0.602192 10
      vertex -1.16222 -0.460155 0
      vertex -1.16222 -0.460155 10
    endloop
  endfacet
  facet normal 0.904821 0.425792 0
    outer loop
      vertex -1.16222 -0.460155 0
      vertex -1.09538 -0.602192 10
      vertex -1.09538 -0.602192 0
    endloop
  endfacet
  facet normal 0.368142 0.92977 -0
    outer loop
      vertex -0.386271 -1.18882 0
      vertex -0.532224 -1.13103 10
      vertex -0.386271 -1.18882 10
    endloop
  endfacet
  facet normal 0.368142 0.92977 0
    outer loop
      vertex -0.532224 -1.13103 10
      vertex -0.386271 -1.18882 0
      vertex -0.532224 -1.13103 0
    endloop
  endfacet
  facet normal 0.587786 -0.809016 0
    outer loop
      vertex -0.79678 0.963141 0
      vertex -0.669783 1.05541 10
      vertex -0.79678 0.963141 10
    endloop
  endfacet
  facet normal 0.587786 -0.809016 0
    outer loop
      vertex -0.669783 1.05541 10
      vertex -0.79678 0.963141 0
      vertex -0.669783 1.05541 0
    endloop
  endfacet
  facet normal 0.844333 -0.535819 0
    outer loop
      vertex -1.09538 0.602192 10
      vertex -1.01127 0.734731 0
      vertex -1.01127 0.734731 10
    endloop
  endfacet
  facet normal 0.844333 -0.535819 0
    outer loop
      vertex -1.01127 0.734731 0
      vertex -1.09538 0.602192 10
      vertex -1.09538 0.602192 0
    endloop
  endfacet
  facet normal -0.844333 0.535819 0
    outer loop
      vertex 1.01127 -0.734731 0
      vertex 1.09538 -0.602192 10
      vertex 1.09538 -0.602192 0
    endloop
  endfacet
  facet normal -0.844333 0.535819 0
    outer loop
      vertex 1.09538 -0.602192 10
      vertex 1.01127 -0.734731 0
      vertex 1.01127 -0.734731 10
    endloop
  endfacet
  facet normal 0 -1 0
    outer loop
      vertex -0.0784874 1.24753 0
      vertex 0.0784874 1.24753 10
      vertex -0.0784874 1.24753 10
    endloop
  endfacet
  facet normal 0 -1 -0
    outer loop
      vertex 0.0784874 1.24753 10
      vertex -0.0784874 1.24753 0
      vertex 0.0784874 1.24753 0
    endloop
  endfacet
  facet normal -0.770514 -0.637423 0
    outer loop
      vertex 1.01127 0.734731 0
      vertex 0.91121 0.855683 10
      vertex 0.91121 0.855683 0
    endloop
  endfacet
  facet normal -0.770514 -0.637423 0
    outer loop
      vertex 0.91121 0.855683 10
      vertex 1.01127 0.734731 0
      vertex 1.01127 0.734731 10
    endloop
  endfacet
  facet normal -0.587786 0.809016 0
    outer loop
      vertex 0.79678 -0.963141 0
      vertex 0.669783 -1.05541 10
      vertex 0.79678 -0.963141 10
    endloop
  endfacet
  facet normal -0.587786 0.809016 0
    outer loop
      vertex 0.669783 -1.05541 10
      vertex 0.79678 -0.963141 0
      vertex 0.669783 -1.05541 0
    endloop
  endfacet
  facet normal -0.951053 -0.309027 0
    outer loop
      vertex 1.21073 0.310862 0
      vertex 1.16222 0.460155 10
      vertex 1.16222 0.460155 0
    endloop
  endfacet
  facet normal -0.951053 -0.309027 0
    outer loop
      vertex 1.16222 0.460155 10
      vertex 1.21073 0.310862 0
      vertex 1.21073 0.310862 10
    endloop
  endfacet
  facet normal 0.248699 0.968581 -0
    outer loop
      vertex -0.234226 -1.22786 0
      vertex -0.386271 -1.18882 10
      vertex -0.234226 -1.22786 10
    endloop
  endfacet
  facet normal 0.248699 0.968581 0
    outer loop
      vertex -0.386271 -1.18882 10
      vertex -0.234226 -1.22786 0
      vertex -0.386271 -1.18882 0
    endloop
  endfacet
  facet normal 0.770514 -0.637423 0
    outer loop
      vertex -1.01127 0.734731 10
      vertex -0.91121 0.855683 0
      vertex -0.91121 0.855683 10
    endloop
  endfacet
  facet normal 0.770514 -0.637423 0
    outer loop
      vertex -0.91121 0.855683 0
      vertex -1.01127 0.734731 10
      vertex -1.01127 0.734731 0
    endloop
  endfacet
  facet normal 0.481736 0.876317 -0
    outer loop
      vertex -0.532224 -1.13103 0
      vertex -0.669783 -1.05541 10
      vertex -0.532224 -1.13103 10
    endloop
  endfacet
  facet normal 0.481736 0.876317 0
    outer loop
      vertex -0.669783 -1.05541 10
      vertex -0.532224 -1.13103 0
      vertex -0.669783 -1.05541 0
    endloop
  endfacet
  facet normal 0.684551 0.728965 -0
    outer loop
      vertex -0.79678 -0.963141 0
      vertex -0.91121 -0.855683 10
      vertex -0.79678 -0.963141 10
    endloop
  endfacet
  facet normal 0.684551 0.728965 0
    outer loop
      vertex -0.91121 -0.855683 10
      vertex -0.79678 -0.963141 0
      vertex -0.91121 -0.855683 0
    endloop
  endfacet
  facet normal 0.951053 0.309027 0
    outer loop
      vertex -1.16222 -0.460155 10
      vertex -1.21073 -0.310862 0
      vertex -1.21073 -0.310862 10
    endloop
  endfacet
  facet normal 0.951053 0.309027 0
    outer loop
      vertex -1.21073 -0.310862 0
      vertex -1.16222 -0.460155 10
      vertex -1.16222 -0.460155 0
    endloop
  endfacet
  facet normal -0.770514 0.637423 0
    outer loop
      vertex 0.91121 -0.855683 0
      vertex 1.01127 -0.734731 10
      vertex 1.01127 -0.734731 0
    endloop
  endfacet
  facet normal -0.770514 0.637423 0
    outer loop
      vertex 1.01127 -0.734731 10
      vertex 0.91121 -0.855683 0
      vertex 0.91121 -0.855683 10
    endloop
  endfacet
  facet normal 0.998025 -0.0628122 0
    outer loop
      vertex -1.25 0 10
      vertex -1.24014 0.156666 0
      vertex -1.24014 0.156666 10
    endloop
  endfacet
  facet normal 0.998025 -0.0628122 0
    outer loop
      vertex -1.24014 0.156666 0
      vertex -1.25 0 10
      vertex -1.25 0 0
    endloop
  endfacet
  facet normal 0.982292 -0.187354 0
    outer loop
      vertex -1.24014 0.156666 10
      vertex -1.21073 0.310862 0
      vertex -1.21073 0.310862 10
    endloop
  endfacet
  facet normal 0.982292 -0.187354 0
    outer loop
      vertex -1.21073 0.310862 0
      vertex -1.24014 0.156666 10
      vertex -1.24014 0.156666 0
    endloop
  endfacet
endsolid OpenSCAD_Model
