solid OpenSCAD_Model
  facet normal -0.951056 0 0.309018
    outer loop
      vertex 0.0785418 0 73.1217
      vertex 0.175558 32 73.4203
      vertex 0.0785418 32 73.1217
    endloop
  endfacet
  facet normal -0.951056 0 0.309018
    outer loop
      vertex 0.175558 32 73.4203
      vertex 0.0785418 0 73.1217
      vertex 0.175558 0 73.4203
    endloop
  endfacet
  facet normal -0 0 1
    outer loop
      vertex 2.34302 32 74.9951
      vertex 37.657 0 74.9951
      vertex 37.657 32 74.9951
    endloop
  endfacet
  facet normal 0 0 1
    outer loop
      vertex 37.657 0 74.9951
      vertex 2.34302 32 74.9951
      vertex 2.34302 0 74.9951
    endloop
  endfacet
  facet normal -0.125321 0 0.992116
    outer loop
      vertex 2.03155 32 74.9557
      vertex 2.34302 0 74.9951
      vertex 2.34302 32 74.9951
    endloop
  endfacet
  facet normal -0.125321 0 0.992116
    outer loop
      vertex 2.34302 0 74.9951
      vertex 2.03155 32 74.9557
      vertex 2.03155 0 74.9557
    endloop
  endfacet
  facet normal 0 1 0
    outer loop
      vertex 40 32 72.5
      vertex 37.657 32 74.9951
      vertex 37.9685 32 74.9557
    endloop
  endfacet
  facet normal 0 1 0
    outer loop
      vertex 37.657 32 74.9951
      vertex 40 32 72.5
      vertex 2.34302 32 74.9951
    endloop
  endfacet
  facet normal 0 1 0
    outer loop
      vertex 40 32 72.5
      vertex 37.9685 32 74.9557
      vertex 38.2725 32 74.8776
    endloop
  endfacet
  facet normal 0 1 0
    outer loop
      vertex 0 32 72.5
      vertex 2.34302 32 74.9951
      vertex 40 32 72.5
    endloop
  endfacet
  facet normal 0 1 0
    outer loop
      vertex 40 32 72.5
      vertex 38.2725 32 74.8776
      vertex 38.5644 32 74.7621
    endloop
  endfacet
  facet normal 0 1 0
    outer loop
      vertex 2.34302 32 74.9951
      vertex 0 32 72.5
      vertex 2.03155 32 74.9557
    endloop
  endfacet
  facet normal 0 1 0
    outer loop
      vertex 40 32 72.5
      vertex 38.5644 32 74.7621
      vertex 38.8396 32 74.6108
    endloop
  endfacet
  facet normal 0 1 0
    outer loop
      vertex 2.03155 32 74.9557
      vertex 0 32 72.5
      vertex 1.72746 32 74.8776
    endloop
  endfacet
  facet normal 0 1 0
    outer loop
      vertex 40 32 72.5
      vertex 38.8396 32 74.6108
      vertex 39.0936 32 74.4263
    endloop
  endfacet
  facet normal 0 1 0
    outer loop
      vertex 1.72746 32 74.8776
      vertex 0 32 72.5
      vertex 1.43555 32 74.7621
    endloop
  endfacet
  facet normal 0 1 0
    outer loop
      vertex 40 32 72.5
      vertex 39.0936 32 74.4263
      vertex 39.3224 32 74.2114
    endloop
  endfacet
  facet normal 0 1 0
    outer loop
      vertex 1.43555 32 74.7621
      vertex 0 32 72.5
      vertex 1.16043 32 74.6108
    endloop
  endfacet
  facet normal 0 1 0
    outer loop
      vertex 40 32 72.5
      vertex 39.3224 32 74.2114
      vertex 39.5225 32 73.9695
    endloop
  endfacet
  facet normal 0 1 0
    outer loop
      vertex 1.16043 32 74.6108
      vertex 0 32 72.5
      vertex 0.90644 32 74.4263
    endloop
  endfacet
  facet normal 0 1 0
    outer loop
      vertex 40 32 72.5
      vertex 39.5225 32 73.9695
      vertex 39.6908 32 73.7044
    endloop
  endfacet
  facet normal 0 1 0
    outer loop
      vertex 0.90644 32 74.4263
      vertex 0 32 72.5
      vertex 0.677578 32 74.2114
    endloop
  endfacet
  facet normal 0 1 0
    outer loop
      vertex 40 32 72.5
      vertex 39.6908 32 73.7044
      vertex 39.8244 32 73.4203
    endloop
  endfacet
  facet normal 0 1 0
    outer loop
      vertex 0.677578 32 74.2114
      vertex 0 32 72.5
      vertex 0.477457 32 73.9695
    endloop
  endfacet
  facet normal 0 1 0
    outer loop
      vertex 40 32 72.5
      vertex 39.8244 32 73.4203
      vertex 39.9215 32 73.1217
    endloop
  endfacet
  facet normal 0 1 0
    outer loop
      vertex 0.477457 32 73.9695
      vertex 0 32 72.5
      vertex 0.309233 32 73.7044
    endloop
  endfacet
  facet normal 0 1 0
    outer loop
      vertex 40 32 72.5
      vertex 39.9215 32 73.1217
      vertex 39.9803 32 72.8133
    endloop
  endfacet
  facet normal 0 1 0
    outer loop
      vertex 0.309233 32 73.7044
      vertex 0 32 72.5
      vertex 0.175558 32 73.4203
    endloop
  endfacet
  facet normal 0 1 0
    outer loop
      vertex 0.175558 32 73.4203
      vertex 0 32 72.5
      vertex 0.0785418 32 73.1217
    endloop
  endfacet
  facet normal 0 1 0
    outer loop
      vertex 0.0785418 32 73.1217
      vertex 0 32 72.5
      vertex 0.0197124 32 72.8133
    endloop
  endfacet
  facet normal 0 1 -0
    outer loop
      vertex 40 32 2.5
      vertex 0 32 72.5
      vertex 40 32 72.5
    endloop
  endfacet
  facet normal 0 1 0
    outer loop
      vertex 40 32 2.5
      vertex 0 32 2.5
      vertex 0 32 72.5
    endloop
  endfacet
  facet normal 0 1 0
    outer loop
      vertex 37.657 32 0.0049324
      vertex 40 32 2.5
      vertex 39.9803 32 2.18667
    endloop
  endfacet
  facet normal 0 1 0
    outer loop
      vertex 40 32 2.5
      vertex 37.657 32 0.0049324
      vertex 0 32 2.5
    endloop
  endfacet
  facet normal 0 1 0
    outer loop
      vertex 37.657 32 0.0049324
      vertex 39.9803 32 2.18667
      vertex 39.9215 32 1.87827
    endloop
  endfacet
  facet normal 0 1 -0
    outer loop
      vertex 2.34302 32 0.0049324
      vertex 0 32 2.5
      vertex 37.657 32 0.0049324
    endloop
  endfacet
  facet normal 0 1 0
    outer loop
      vertex 37.657 32 0.0049324
      vertex 39.9215 32 1.87827
      vertex 39.8244 32 1.57969
    endloop
  endfacet
  facet normal 0 1 0
    outer loop
      vertex 0 32 2.5
      vertex 2.34302 32 0.0049324
      vertex 0.0197124 32 2.18667
    endloop
  endfacet
  facet normal 0 1 0
    outer loop
      vertex 37.657 32 0.0049324
      vertex 39.8244 32 1.57969
      vertex 39.6908 32 1.29562
    endloop
  endfacet
  facet normal 0 1 0
    outer loop
      vertex 0.0197124 32 2.18667
      vertex 2.34302 32 0.0049324
      vertex 0.0785418 32 1.87827
    endloop
  endfacet
  facet normal 0 1 0
    outer loop
      vertex 37.657 32 0.0049324
      vertex 39.6908 32 1.29562
      vertex 39.5225 32 1.03054
    endloop
  endfacet
  facet normal 0 1 0
    outer loop
      vertex 0.0785418 32 1.87827
      vertex 2.34302 32 0.0049324
      vertex 0.175558 32 1.57969
    endloop
  endfacet
  facet normal 0 1 0
    outer loop
      vertex 37.657 32 0.0049324
      vertex 39.5225 32 1.03054
      vertex 39.3224 32 0.788631
    endloop
  endfacet
  facet normal 0 1 0
    outer loop
      vertex 0.175558 32 1.57969
      vertex 2.34302 32 0.0049324
      vertex 0.309233 32 1.29562
    endloop
  endfacet
  facet normal 0 1 0
    outer loop
      vertex 37.657 32 0.0049324
      vertex 39.3224 32 0.788631
      vertex 39.0936 32 0.573716
    endloop
  endfacet
  facet normal 0 1 0
    outer loop
      vertex 0.309233 32 1.29562
      vertex 2.34302 32 0.0049324
      vertex 0.477457 32 1.03054
    endloop
  endfacet
  facet normal 0 1 0
    outer loop
      vertex 37.657 32 0.0049324
      vertex 39.0936 32 0.573716
      vertex 38.8396 32 0.38918
    endloop
  endfacet
  facet normal 0 1 0
    outer loop
      vertex 0.477457 32 1.03054
      vertex 2.34302 32 0.0049324
      vertex 0.677578 32 0.788631
    endloop
  endfacet
  facet normal 0 1 0
    outer loop
      vertex 37.657 32 0.0049324
      vertex 38.8396 32 0.38918
      vertex 38.5644 32 0.237932
    endloop
  endfacet
  facet normal 0 1 0
    outer loop
      vertex 0.677578 32 0.788631
      vertex 2.34302 32 0.0049324
      vertex 0.90644 32 0.573716
    endloop
  endfacet
  facet normal 0 1 0
    outer loop
      vertex 37.657 32 0.0049324
      vertex 38.5644 32 0.237932
      vertex 38.2725 32 0.122358
    endloop
  endfacet
  facet normal 0 1 0
    outer loop
      vertex 0.90644 32 0.573716
      vertex 2.34302 32 0.0049324
      vertex 1.16043 32 0.38918
    endloop
  endfacet
  facet normal 0 1 0
    outer loop
      vertex 37.657 32 0.0049324
      vertex 38.2725 32 0.122358
      vertex 37.9685 32 0.044281
    endloop
  endfacet
  facet normal 0 1 0
    outer loop
      vertex 1.16043 32 0.38918
      vertex 2.34302 32 0.0049324
      vertex 1.43555 32 0.237932
    endloop
  endfacet
  facet normal 0 1 0
    outer loop
      vertex 1.43555 32 0.237932
      vertex 2.34302 32 0.0049324
      vertex 1.72746 32 0.122358
    endloop
  endfacet
  facet normal 0 1 0
    outer loop
      vertex 1.72746 32 0.122358
      vertex 2.34302 32 0.0049324
      vertex 2.03155 32 0.044281
    endloop
  endfacet
  facet normal -0.904827 0 -0.425779
    outer loop
      vertex 0.309233 0 1.29562
      vertex 0.175558 32 1.57969
      vertex 0.309233 32 1.29562
    endloop
  endfacet
  facet normal -0.904827 -0 -0.425779
    outer loop
      vertex 0.175558 32 1.57969
      vertex 0.309233 0 1.29562
      vertex 0.175558 0 1.57969
    endloop
  endfacet
  facet normal -0.684555 0 0.728961
    outer loop
      vertex 0.677578 32 74.2114
      vertex 0.90644 0 74.4263
      vertex 0.90644 32 74.4263
    endloop
  endfacet
  facet normal -0.684555 0 0.728961
    outer loop
      vertex 0.90644 0 74.4263
      vertex 0.677578 32 74.2114
      vertex 0.677578 0 74.2114
    endloop
  endfacet
  facet normal 0 0 -1
    outer loop
      vertex 2.34302 0 0.0049324
      vertex 37.657 32 0.0049324
      vertex 37.657 0 0.0049324
    endloop
  endfacet
  facet normal -0 0 -1
    outer loop
      vertex 37.657 32 0.0049324
      vertex 2.34302 0 0.0049324
      vertex 2.34302 32 0.0049324
    endloop
  endfacet
  facet normal -0.998027 0 0.0627883
    outer loop
      vertex 0 0 72.5
      vertex 0.0197124 32 72.8133
      vertex 0 32 72.5
    endloop
  endfacet
  facet normal -0.998027 0 0.0627883
    outer loop
      vertex 0.0197124 32 72.8133
      vertex 0 0 72.5
      vertex 0.0197124 0 72.8133
    endloop
  endfacet
  facet normal -0.982287 0 0.187381
    outer loop
      vertex 0.0197124 0 72.8133
      vertex 0.0785418 32 73.1217
      vertex 0.0197124 32 72.8133
    endloop
  endfacet
  facet normal -0.982287 0 0.187381
    outer loop
      vertex 0.0785418 32 73.1217
      vertex 0.0197124 0 72.8133
      vertex 0.0785418 0 73.1217
    endloop
  endfacet
  facet normal 0.125333 0 -0.992115
    outer loop
      vertex 37.657 0 0.0049324
      vertex 37.9685 32 0.044281
      vertex 37.9685 0 0.044281
    endloop
  endfacet
  facet normal 0.125333 0 -0.992115
    outer loop
      vertex 37.9685 32 0.044281
      vertex 37.657 0 0.0049324
      vertex 37.657 32 0.0049324
    endloop
  endfacet
  facet normal -0.844325 0 0.535832
    outer loop
      vertex 0.309233 0 73.7044
      vertex 0.477457 32 73.9695
      vertex 0.309233 32 73.7044
    endloop
  endfacet
  facet normal -0.844325 0 0.535832
    outer loop
      vertex 0.477457 32 73.9695
      vertex 0.309233 0 73.7044
      vertex 0.477457 0 73.9695
    endloop
  endfacet
  facet normal -0.248697 0 0.968581
    outer loop
      vertex 1.72746 32 74.8776
      vertex 2.03155 0 74.9557
      vertex 2.03155 32 74.9557
    endloop
  endfacet
  facet normal -0.248697 0 0.968581
    outer loop
      vertex 2.03155 0 74.9557
      vertex 1.72746 32 74.8776
      vertex 1.72746 0 74.8776
    endloop
  endfacet
  facet normal -0.904827 0 0.425779
    outer loop
      vertex 0.175558 0 73.4203
      vertex 0.309233 32 73.7044
      vertex 0.175558 32 73.4203
    endloop
  endfacet
  facet normal -0.904827 0 0.425779
    outer loop
      vertex 0.309233 32 73.7044
      vertex 0.175558 0 73.4203
      vertex 0.309233 0 73.7044
    endloop
  endfacet
  facet normal 0.481764 0 0.876301
    outer loop
      vertex 38.5644 32 74.7621
      vertex 38.8396 0 74.6108
      vertex 38.8396 32 74.6108
    endloop
  endfacet
  facet normal 0.481764 0 0.876301
    outer loop
      vertex 38.8396 0 74.6108
      vertex 38.5644 32 74.7621
      vertex 38.5644 0 74.7621
    endloop
  endfacet
  facet normal 0.684553 0 0.728963
    outer loop
      vertex 39.0936 32 74.4263
      vertex 39.3224 0 74.2114
      vertex 39.3224 32 74.2114
    endloop
  endfacet
  facet normal 0.684553 0 0.728963
    outer loop
      vertex 39.3224 0 74.2114
      vertex 39.0936 32 74.4263
      vertex 39.0936 0 74.4263
    endloop
  endfacet
  facet normal 0.904827 -0 0.425779
    outer loop
      vertex 39.6908 0 73.7044
      vertex 39.8244 32 73.4203
      vertex 39.6908 32 73.7044
    endloop
  endfacet
  facet normal 0.904827 0 0.425779
    outer loop
      vertex 39.8244 32 73.4203
      vertex 39.6908 0 73.7044
      vertex 39.8244 0 73.4203
    endloop
  endfacet
  facet normal 1 -0 0
    outer loop
      vertex 40 0 72.5
      vertex 40 32 2.5
      vertex 40 32 72.5
    endloop
  endfacet
  facet normal 1 0 0
    outer loop
      vertex 40 32 2.5
      vertex 40 0 72.5
      vertex 40 0 2.5
    endloop
  endfacet
  facet normal -0.770514 0 0.637423
    outer loop
      vertex 0.477457 0 73.9695
      vertex 0.677578 32 74.2114
      vertex 0.477457 32 73.9695
    endloop
  endfacet
  facet normal -0.770514 0 0.637423
    outer loop
      vertex 0.677578 32 74.2114
      vertex 0.477457 0 73.9695
      vertex 0.677578 0 74.2114
    endloop
  endfacet
  facet normal -0.587776 0 0.809024
    outer loop
      vertex 0.90644 32 74.4263
      vertex 1.16043 0 74.6108
      vertex 1.16043 32 74.6108
    endloop
  endfacet
  facet normal -0.587776 0 0.809024
    outer loop
      vertex 1.16043 0 74.6108
      vertex 0.90644 32 74.4263
      vertex 0.90644 0 74.4263
    endloop
  endfacet
  facet normal -0.368115 0 0.92978
    outer loop
      vertex 1.43555 32 74.7621
      vertex 1.72746 0 74.8776
      vertex 1.72746 32 74.8776
    endloop
  endfacet
  facet normal -0.368115 0 0.92978
    outer loop
      vertex 1.72746 0 74.8776
      vertex 1.43555 32 74.7621
      vertex 1.43555 0 74.7621
    endloop
  endfacet
  facet normal -0.998027 0 -0.0627879
    outer loop
      vertex 0.0197124 0 2.18667
      vertex 0 32 2.5
      vertex 0.0197124 32 2.18667
    endloop
  endfacet
  facet normal -0.998027 -0 -0.0627879
    outer loop
      vertex 0 32 2.5
      vertex 0.0197124 0 2.18667
      vertex 0 0 2.5
    endloop
  endfacet
  facet normal 0.368116 0 0.92978
    outer loop
      vertex 38.2725 32 74.8776
      vertex 38.5644 0 74.7621
      vertex 38.5644 32 74.7621
    endloop
  endfacet
  facet normal 0.368116 0 0.92978
    outer loop
      vertex 38.5644 0 74.7621
      vertex 38.2725 32 74.8776
      vertex 38.2725 0 74.8776
    endloop
  endfacet
  facet normal 0.248697 0 0.968581
    outer loop
      vertex 37.9685 32 74.9557
      vertex 38.2725 0 74.8776
      vertex 38.2725 32 74.8776
    endloop
  endfacet
  facet normal 0.248697 0 0.968581
    outer loop
      vertex 38.2725 0 74.8776
      vertex 37.9685 32 74.9557
      vertex 37.9685 0 74.9557
    endloop
  endfacet
  facet normal 0.125321 0 0.992116
    outer loop
      vertex 37.657 32 74.9951
      vertex 37.9685 0 74.9557
      vertex 37.9685 32 74.9557
    endloop
  endfacet
  facet normal 0.125321 0 0.992116
    outer loop
      vertex 37.9685 0 74.9557
      vertex 37.657 32 74.9951
      vertex 37.657 0 74.9951
    endloop
  endfacet
  facet normal 0.770517 -0 0.637419
    outer loop
      vertex 39.3224 0 74.2114
      vertex 39.5225 32 73.9695
      vertex 39.3224 32 74.2114
    endloop
  endfacet
  facet normal 0.770517 0 0.637419
    outer loop
      vertex 39.5225 32 73.9695
      vertex 39.3224 0 74.2114
      vertex 39.5225 0 73.9695
    endloop
  endfacet
  facet normal 0.951057 -0 0.309016
    outer loop
      vertex 39.8244 0 73.4203
      vertex 39.9215 32 73.1217
      vertex 39.8244 32 73.4203
    endloop
  endfacet
  facet normal 0.951057 0 0.309016
    outer loop
      vertex 39.9215 32 73.1217
      vertex 39.8244 0 73.4203
      vertex 39.9215 0 73.1217
    endloop
  endfacet
  facet normal -0.481766 0 0.8763
    outer loop
      vertex 1.16043 32 74.6108
      vertex 1.43555 0 74.7621
      vertex 1.43555 32 74.7621
    endloop
  endfacet
  facet normal -0.481766 0 0.8763
    outer loop
      vertex 1.43555 0 74.7621
      vertex 1.16043 32 74.6108
      vertex 1.16043 0 74.6108
    endloop
  endfacet
  facet normal 0 -1 0
    outer loop
      vertex 0 0 72.5
      vertex 2.34302 0 74.9951
      vertex 2.03155 0 74.9557
    endloop
  endfacet
  facet normal 0 -1 0
    outer loop
      vertex 2.34302 0 74.9951
      vertex 19.8273 0 62.7446
      vertex 37.657 0 74.9951
    endloop
  endfacet
  facet normal 0 -1 0
    outer loop
      vertex 0 0 72.5
      vertex 2.03155 0 74.9557
      vertex 1.72746 0 74.8776
    endloop
  endfacet
  facet normal 0 -1 0
    outer loop
      vertex 20.1727 0 62.7446
      vertex 37.657 0 74.9951
      vertex 19.8273 0 62.7446
    endloop
  endfacet
  facet normal 0 -1 0
    outer loop
      vertex 0 0 72.5
      vertex 1.72746 0 74.8776
      vertex 1.43555 0 74.7621
    endloop
  endfacet
  facet normal 0 -1 0
    outer loop
      vertex 20.5153 0 62.7013
      vertex 37.657 0 74.9951
      vertex 20.1727 0 62.7446
    endloop
  endfacet
  facet normal 0 -1 0
    outer loop
      vertex 0 0 72.5
      vertex 1.43555 0 74.7621
      vertex 1.16043 0 74.6108
    endloop
  endfacet
  facet normal 0 -1 0
    outer loop
      vertex 20.8498 0 62.6154
      vertex 37.657 0 74.9951
      vertex 20.5153 0 62.7013
    endloop
  endfacet
  facet normal 0 -1 0
    outer loop
      vertex 0 0 72.5
      vertex 1.16043 0 74.6108
      vertex 0.90644 0 74.4263
    endloop
  endfacet
  facet normal 0 -1 0
    outer loop
      vertex 21.1709 0 62.4883
      vertex 37.657 0 74.9951
      vertex 20.8498 0 62.6154
    endloop
  endfacet
  facet normal 0 -1 0
    outer loop
      vertex 0 0 72.5
      vertex 0.90644 0 74.4263
      vertex 0.677578 0 74.2114
    endloop
  endfacet
  facet normal 0 -1 0
    outer loop
      vertex 21.4735 0 62.3219
      vertex 37.657 0 74.9951
      vertex 21.1709 0 62.4883
    endloop
  endfacet
  facet normal 0 -1 0
    outer loop
      vertex 0 0 72.5
      vertex 0.677578 0 74.2114
      vertex 0.477457 0 73.9695
    endloop
  endfacet
  facet normal 0 -1 0
    outer loop
      vertex 21.7529 0 62.1189
      vertex 37.657 0 74.9951
      vertex 21.4735 0 62.3219
    endloop
  endfacet
  facet normal 0 -1 0
    outer loop
      vertex 0 0 72.5
      vertex 0.477457 0 73.9695
      vertex 0.309233 0 73.7044
    endloop
  endfacet
  facet normal 0 -1 0
    outer loop
      vertex 22.0047 0 61.8825
      vertex 37.657 0 74.9951
      vertex 21.7529 0 62.1189
    endloop
  endfacet
  facet normal 0 -1 0
    outer loop
      vertex 0 0 72.5
      vertex 0.309233 0 73.7044
      vertex 0.175558 0 73.4203
    endloop
  endfacet
  facet normal 0 -1 0
    outer loop
      vertex 22.2248 0 61.6164
      vertex 37.657 0 74.9951
      vertex 22.0047 0 61.8825
    endloop
  endfacet
  facet normal 0 -1 0
    outer loop
      vertex 0 0 72.5
      vertex 0.175558 0 73.4203
      vertex 0.0785418 0 73.1217
    endloop
  endfacet
  facet normal 0 -1 0
    outer loop
      vertex 22.4098 0 61.3248
      vertex 37.657 0 74.9951
      vertex 22.2248 0 61.6164
    endloop
  endfacet
  facet normal 0 -1 0
    outer loop
      vertex 0 0 72.5
      vertex 0.0785418 0 73.1217
      vertex 0.0197124 0 72.8133
    endloop
  endfacet
  facet normal 0 -1 0
    outer loop
      vertex 37.657 0 74.9951
      vertex 40 0 72.5
      vertex 37.9685 0 74.9557
    endloop
  endfacet
  facet normal 0 -1 0
    outer loop
      vertex 17.5902 0 61.3248
      vertex 2.34302 0 74.9951
      vertex 0 0 72.5
    endloop
  endfacet
  facet normal 0 -1 0
    outer loop
      vertex 37.9685 0 74.9557
      vertex 40 0 72.5
      vertex 38.2725 0 74.8776
    endloop
  endfacet
  facet normal 0 -1 0
    outer loop
      vertex 38.5644 0 74.7621
      vertex 40 0 72.5
      vertex 38.8396 0 74.6108
    endloop
  endfacet
  facet normal 0 -1 0
    outer loop
      vertex 2.34302 0 74.9951
      vertex 19.4847 0 62.7013
      vertex 19.8273 0 62.7446
    endloop
  endfacet
  facet normal 0 -1 0
    outer loop
      vertex 2.34302 0 74.9951
      vertex 19.1502 0 62.6154
      vertex 19.4847 0 62.7013
    endloop
  endfacet
  facet normal 0 -1 0
    outer loop
      vertex 2.34302 0 74.9951
      vertex 18.8291 0 62.4883
      vertex 19.1502 0 62.6154
    endloop
  endfacet
  facet normal 0 -1 0
    outer loop
      vertex 2.34302 0 74.9951
      vertex 18.5265 0 62.3219
      vertex 18.8291 0 62.4883
    endloop
  endfacet
  facet normal 0 -1 0
    outer loop
      vertex 2.34302 0 74.9951
      vertex 18.2471 0 62.1189
      vertex 18.5265 0 62.3219
    endloop
  endfacet
  facet normal 0 -1 0
    outer loop
      vertex 2.34302 0 74.9951
      vertex 17.9953 0 61.8825
      vertex 18.2471 0 62.1189
    endloop
  endfacet
  facet normal 0 -1 0
    outer loop
      vertex 2.34302 0 74.9951
      vertex 17.7752 0 61.6164
      vertex 17.9953 0 61.8825
    endloop
  endfacet
  facet normal 0 -1 0
    outer loop
      vertex 2.34302 0 74.9951
      vertex 17.5902 0 61.3248
      vertex 17.7752 0 61.6164
    endloop
  endfacet
  facet normal 0 -1 0
    outer loop
      vertex 0 0 72.5
      vertex 17.4431 0 61.0123
      vertex 17.5902 0 61.3248
    endloop
  endfacet
  facet normal 0 -1 0
    outer loop
      vertex 0 0 72.5
      vertex 17.3364 0 60.6839
      vertex 17.4431 0 61.0123
    endloop
  endfacet
  facet normal 0 -1 0
    outer loop
      vertex 0 0 72.5
      vertex 17.2717 0 60.3447
      vertex 17.3364 0 60.6839
    endloop
  endfacet
  facet normal 0 -1 0
    outer loop
      vertex 0 0 72.5
      vertex 17.25 0 60
      vertex 17.2717 0 60.3447
    endloop
  endfacet
  facet normal 0 -1 0
    outer loop
      vertex 0 0 72.5
      vertex 17.2717 0 59.6553
      vertex 17.25 0 60
    endloop
  endfacet
  facet normal 0 -1 0
    outer loop
      vertex 0 0 72.5
      vertex 17.3364 0 59.3161
      vertex 17.2717 0 59.6553
    endloop
  endfacet
  facet normal 0 -1 0
    outer loop
      vertex 0 0 72.5
      vertex 17.4431 0 58.9877
      vertex 17.3364 0 59.3161
    endloop
  endfacet
  facet normal 0 -1 0
    outer loop
      vertex 0 0 72.5
      vertex 17.5902 0 58.6752
      vertex 17.4431 0 58.9877
    endloop
  endfacet
  facet normal 0 -1 0
    outer loop
      vertex 0 0 72.5
      vertex 17.7752 0 58.3836
      vertex 17.5902 0 58.6752
    endloop
  endfacet
  facet normal 0 -1 0
    outer loop
      vertex 17.7752 0 16.6164
      vertex 17.7752 0 58.3836
      vertex 0 0 72.5
    endloop
  endfacet
  facet normal 0 -1 0
    outer loop
      vertex 17.7752 0 58.3836
      vertex 17.7752 0 16.6164
      vertex 17.9953 0 58.1175
    endloop
  endfacet
  facet normal 0 -1 0
    outer loop
      vertex 19.8273 0 57.2554
      vertex 19.8273 0 17.7446
      vertex 20.1727 0 57.2554
    endloop
  endfacet
  facet normal 0 -1 0
    outer loop
      vertex 19.4847 0 57.2987
      vertex 19.8273 0 17.7446
      vertex 19.8273 0 57.2554
    endloop
  endfacet
  facet normal 0 -1 0
    outer loop
      vertex 19.4847 0 17.7013
      vertex 19.4847 0 57.2987
      vertex 19.1502 0 57.3846
    endloop
  endfacet
  facet normal 0 -1 0
    outer loop
      vertex 19.1502 0 17.6154
      vertex 19.1502 0 57.3846
      vertex 18.8291 0 57.5117
    endloop
  endfacet
  facet normal 0 -1 0
    outer loop
      vertex 18.8291 0 17.4883
      vertex 18.8291 0 57.5117
      vertex 18.5265 0 57.6781
    endloop
  endfacet
  facet normal 0 -1 0
    outer loop
      vertex 18.5265 0 17.3219
      vertex 18.5265 0 57.6781
      vertex 18.2471 0 57.8811
    endloop
  endfacet
  facet normal -0 -1 0
    outer loop
      vertex 17.9953 0 16.8825
      vertex 17.9953 0 58.1175
      vertex 17.7752 0 16.6164
    endloop
  endfacet
  facet normal 0 -1 0
    outer loop
      vertex 19.4847 0 57.2987
      vertex 19.4847 0 17.7013
      vertex 19.8273 0 17.7446
    endloop
  endfacet
  facet normal 0 -1 0
    outer loop
      vertex 19.1502 0 57.3846
      vertex 19.1502 0 17.6154
      vertex 19.4847 0 17.7013
    endloop
  endfacet
  facet normal 0 -1 0
    outer loop
      vertex 18.8291 0 57.5117
      vertex 18.8291 0 17.4883
      vertex 19.1502 0 17.6154
    endloop
  endfacet
  facet normal 0 -1 0
    outer loop
      vertex 18.5265 0 57.6781
      vertex 18.5265 0 17.3219
      vertex 18.8291 0 17.4883
    endloop
  endfacet
  facet normal 0 -1 0
    outer loop
      vertex 18.2471 0 57.8811
      vertex 18.2471 0 17.1189
      vertex 18.5265 0 17.3219
    endloop
  endfacet
  facet normal 0 -1 -0
    outer loop
      vertex 18.2471 0 57.8811
      vertex 17.9953 0 16.8825
      vertex 18.2471 0 17.1189
    endloop
  endfacet
  facet normal 0 -1 0
    outer loop
      vertex 17.9953 0 58.1175
      vertex 17.9953 0 16.8825
      vertex 18.2471 0 57.8811
    endloop
  endfacet
  facet normal 0 -1 0
    outer loop
      vertex 0 0 2.5
      vertex 17.7752 0 16.6164
      vertex 0 0 72.5
    endloop
  endfacet
  facet normal 0 -1 0
    outer loop
      vertex 17.7752 0 16.6164
      vertex 0 0 2.5
      vertex 17.5902 0 16.3248
    endloop
  endfacet
  facet normal 0 -1 0
    outer loop
      vertex 17.5902 0 16.3248
      vertex 0 0 2.5
      vertex 17.4431 0 16.0123
    endloop
  endfacet
  facet normal 0 -1 0
    outer loop
      vertex 17.4431 0 16.0123
      vertex 0 0 2.5
      vertex 17.3364 0 15.6839
    endloop
  endfacet
  facet normal 0 -1 0
    outer loop
      vertex 17.3364 0 15.6839
      vertex 0 0 2.5
      vertex 17.2717 0 15.3447
    endloop
  endfacet
  facet normal 0 -1 0
    outer loop
      vertex 17.2717 0 15.3447
      vertex 0 0 2.5
      vertex 17.25 0 15
    endloop
  endfacet
  facet normal 0 -1 -0
    outer loop
      vertex 17.25 0 15
      vertex 0 0 2.5
      vertex 17.2717 0 14.6553
    endloop
  endfacet
  facet normal 0 -1 -0
    outer loop
      vertex 19.4847 0 12.2987
      vertex 2.34302 0 0.0049324
      vertex 19.8273 0 12.2554
    endloop
  endfacet
  facet normal 0 -1 -0
    outer loop
      vertex 19.1502 0 12.3846
      vertex 2.34302 0 0.0049324
      vertex 19.4847 0 12.2987
    endloop
  endfacet
  facet normal 0 -1 -0
    outer loop
      vertex 18.8291 0 12.5117
      vertex 2.34302 0 0.0049324
      vertex 19.1502 0 12.3846
    endloop
  endfacet
  facet normal 0 -1 -0
    outer loop
      vertex 18.5265 0 12.6781
      vertex 2.34302 0 0.0049324
      vertex 18.8291 0 12.5117
    endloop
  endfacet
  facet normal 0 -1 -0
    outer loop
      vertex 18.2471 0 12.8811
      vertex 2.34302 0 0.0049324
      vertex 18.5265 0 12.6781
    endloop
  endfacet
  facet normal 0 -1 -0
    outer loop
      vertex 17.9953 0 13.1175
      vertex 2.34302 0 0.0049324
      vertex 18.2471 0 12.8811
    endloop
  endfacet
  facet normal 0 -1 -0
    outer loop
      vertex 17.7752 0 13.3836
      vertex 2.34302 0 0.0049324
      vertex 17.9953 0 13.1175
    endloop
  endfacet
  facet normal 0 -1 -0
    outer loop
      vertex 17.5902 0 13.6752
      vertex 2.34302 0 0.0049324
      vertex 17.7752 0 13.3836
    endloop
  endfacet
  facet normal 0 -1 0
    outer loop
      vertex 2.34302 0 0.0049324
      vertex 17.5902 0 13.6752
      vertex 0 0 2.5
    endloop
  endfacet
  facet normal 0 -1 -0
    outer loop
      vertex 17.4431 0 13.9877
      vertex 0 0 2.5
      vertex 17.5902 0 13.6752
    endloop
  endfacet
  facet normal 0 -1 -0
    outer loop
      vertex 17.3364 0 14.3161
      vertex 0 0 2.5
      vertex 17.4431 0 13.9877
    endloop
  endfacet
  facet normal 0 -1 -0
    outer loop
      vertex 17.2717 0 14.6553
      vertex 0 0 2.5
      vertex 17.3364 0 14.3161
    endloop
  endfacet
  facet normal 0 -1 0
    outer loop
      vertex 38.8396 0 74.6108
      vertex 40 0 72.5
      vertex 39.0936 0 74.4263
    endloop
  endfacet
  facet normal 0 -1 0
    outer loop
      vertex 39.3224 0 74.2114
      vertex 40 0 72.5
      vertex 39.5225 0 73.9695
    endloop
  endfacet
  facet normal 0 -1 0
    outer loop
      vertex 39.5225 0 73.9695
      vertex 40 0 72.5
      vertex 39.6908 0 73.7044
    endloop
  endfacet
  facet normal 0 -1 0
    outer loop
      vertex 39.6908 0 73.7044
      vertex 40 0 72.5
      vertex 39.8244 0 73.4203
    endloop
  endfacet
  facet normal 0 -1 0
    outer loop
      vertex 39.9215 0 73.1217
      vertex 40 0 72.5
      vertex 39.9803 0 72.8133
    endloop
  endfacet
  facet normal 0 -1 0
    outer loop
      vertex 39.8244 0 73.4203
      vertex 40 0 72.5
      vertex 39.9215 0 73.1217
    endloop
  endfacet
  facet normal 0 -1 0
    outer loop
      vertex 39.0936 0 74.4263
      vertex 40 0 72.5
      vertex 39.3224 0 74.2114
    endloop
  endfacet
  facet normal 0 -1 0
    outer loop
      vertex 38.2725 0 74.8776
      vertex 40 0 72.5
      vertex 38.5644 0 74.7621
    endloop
  endfacet
  facet normal 0 -1 -0
    outer loop
      vertex 37.657 0 74.9951
      vertex 22.4098 0 61.3248
      vertex 40 0 72.5
    endloop
  endfacet
  facet normal 0 -1 0
    outer loop
      vertex 22.5569 0 61.0123
      vertex 40 0 72.5
      vertex 22.4098 0 61.3248
    endloop
  endfacet
  facet normal 0 -1 0
    outer loop
      vertex 22.6636 0 60.6839
      vertex 40 0 72.5
      vertex 22.5569 0 61.0123
    endloop
  endfacet
  facet normal 0 -1 0
    outer loop
      vertex 22.7283 0 60.3447
      vertex 40 0 72.5
      vertex 22.6636 0 60.6839
    endloop
  endfacet
  facet normal 0 -1 0
    outer loop
      vertex 22.75 0 60
      vertex 40 0 72.5
      vertex 22.7283 0 60.3447
    endloop
  endfacet
  facet normal 0 -1 0
    outer loop
      vertex 22.7283 0 59.6553
      vertex 40 0 72.5
      vertex 22.75 0 60
    endloop
  endfacet
  facet normal 0 -1 0
    outer loop
      vertex 22.6636 0 59.3161
      vertex 40 0 72.5
      vertex 22.7283 0 59.6553
    endloop
  endfacet
  facet normal 0 -1 0
    outer loop
      vertex 22.5569 0 58.9877
      vertex 40 0 72.5
      vertex 22.6636 0 59.3161
    endloop
  endfacet
  facet normal 0 -1 0
    outer loop
      vertex 22.4098 0 58.6752
      vertex 40 0 72.5
      vertex 22.5569 0 58.9877
    endloop
  endfacet
  facet normal 0 -1 0
    outer loop
      vertex 22.2248 0 58.3836
      vertex 40 0 72.5
      vertex 22.4098 0 58.6752
    endloop
  endfacet
  facet normal 0 -1 0
    outer loop
      vertex 22.2248 0 16.6164
      vertex 22.2248 0 58.3836
      vertex 22.0047 0 58.1175
    endloop
  endfacet
  facet normal 0 -1 0
    outer loop
      vertex 22.0047 0 16.8825
      vertex 22.0047 0 58.1175
      vertex 21.7529 0 57.8811
    endloop
  endfacet
  facet normal 0 -1 0
    outer loop
      vertex 20.1727 0 17.7446
      vertex 20.1727 0 57.2554
      vertex 19.8273 0 17.7446
    endloop
  endfacet
  facet normal 0 -1 0
    outer loop
      vertex 20.1727 0 57.2554
      vertex 20.1727 0 17.7446
      vertex 20.5153 0 57.2987
    endloop
  endfacet
  facet normal 0 -1 0
    outer loop
      vertex 20.5153 0 17.7013
      vertex 20.5153 0 57.2987
      vertex 20.1727 0 17.7446
    endloop
  endfacet
  facet normal 0 -1 0
    outer loop
      vertex 20.5153 0 57.2987
      vertex 20.5153 0 17.7013
      vertex 20.8498 0 57.3846
    endloop
  endfacet
  facet normal 0 -1 0
    outer loop
      vertex 20.8498 0 17.6154
      vertex 20.8498 0 57.3846
      vertex 20.5153 0 17.7013
    endloop
  endfacet
  facet normal 0 -1 0
    outer loop
      vertex 20.8498 0 57.3846
      vertex 20.8498 0 17.6154
      vertex 21.1709 0 57.5117
    endloop
  endfacet
  facet normal 0 -1 0
    outer loop
      vertex 21.1709 0 17.4883
      vertex 21.1709 0 57.5117
      vertex 20.8498 0 17.6154
    endloop
  endfacet
  facet normal 0 -1 0
    outer loop
      vertex 21.1709 0 57.5117
      vertex 21.1709 0 17.4883
      vertex 21.4735 0 57.6781
    endloop
  endfacet
  facet normal 0 -1 0
    outer loop
      vertex 21.4735 0 17.3219
      vertex 21.4735 0 57.6781
      vertex 21.1709 0 17.4883
    endloop
  endfacet
  facet normal 0 -1 0
    outer loop
      vertex 21.4735 0 57.6781
      vertex 21.4735 0 17.3219
      vertex 21.7529 0 57.8811
    endloop
  endfacet
  facet normal 0 -1 0
    outer loop
      vertex 21.7529 0 17.1189
      vertex 21.7529 0 57.8811
      vertex 21.4735 0 17.3219
    endloop
  endfacet
  facet normal 0 -1 0
    outer loop
      vertex 22.0047 0 16.8825
      vertex 21.7529 0 57.8811
      vertex 21.7529 0 17.1189
    endloop
  endfacet
  facet normal 0 -1 0
    outer loop
      vertex 22.0047 0 58.1175
      vertex 22.0047 0 16.8825
      vertex 22.2248 0 16.6164
    endloop
  endfacet
  facet normal 0 -1 0
    outer loop
      vertex 22.2248 0 58.3836
      vertex 22.2248 0 16.6164
      vertex 40 0 72.5
    endloop
  endfacet
  facet normal 0 -1 0
    outer loop
      vertex 40 0 2.5
      vertex 22.2248 0 16.6164
      vertex 22.4098 0 16.3248
    endloop
  endfacet
  facet normal 0 -1 0
    outer loop
      vertex 40 0 2.5
      vertex 22.4098 0 16.3248
      vertex 22.5569 0 16.0123
    endloop
  endfacet
  facet normal 0 -1 0
    outer loop
      vertex 40 0 2.5
      vertex 22.5569 0 16.0123
      vertex 22.6636 0 15.6839
    endloop
  endfacet
  facet normal 0 -1 0
    outer loop
      vertex 40 0 2.5
      vertex 22.6636 0 15.6839
      vertex 22.7283 0 15.3447
    endloop
  endfacet
  facet normal 0 -1 0
    outer loop
      vertex 40 0 2.5
      vertex 22.7283 0 15.3447
      vertex 22.75 0 15
    endloop
  endfacet
  facet normal 0 -1 0
    outer loop
      vertex 40 0 2.5
      vertex 22.75 0 15
      vertex 22.7283 0 14.6553
    endloop
  endfacet
  facet normal 0 -1 0
    outer loop
      vertex 40 0 2.5
      vertex 22.7283 0 14.6553
      vertex 22.6636 0 14.3161
    endloop
  endfacet
  facet normal 0 -1 -0
    outer loop
      vertex 19.8273 0 12.2554
      vertex 2.34302 0 0.0049324
      vertex 20.1727 0 12.2554
    endloop
  endfacet
  facet normal 0 -1 0
    outer loop
      vertex 37.657 0 0.0049324
      vertex 20.1727 0 12.2554
      vertex 2.34302 0 0.0049324
    endloop
  endfacet
  facet normal 0 -1 0
    outer loop
      vertex 20.1727 0 12.2554
      vertex 37.657 0 0.0049324
      vertex 20.5153 0 12.2987
    endloop
  endfacet
  facet normal 0 -1 0
    outer loop
      vertex 22.2248 0 16.6164
      vertex 40 0 2.5
      vertex 40 0 72.5
    endloop
  endfacet
  facet normal 0 -1 0
    outer loop
      vertex 22.5569 0 13.9877
      vertex 40 0 2.5
      vertex 22.6636 0 14.3161
    endloop
  endfacet
  facet normal 0 -1 0
    outer loop
      vertex 22.4098 0 13.6752
      vertex 40 0 2.5
      vertex 22.5569 0 13.9877
    endloop
  endfacet
  facet normal 0 -1 0
    outer loop
      vertex 37.657 0 0.0049324
      vertex 22.4098 0 13.6752
      vertex 22.2248 0 13.3836
    endloop
  endfacet
  facet normal 0 -1 0
    outer loop
      vertex 37.657 0 0.0049324
      vertex 22.2248 0 13.3836
      vertex 22.0047 0 13.1175
    endloop
  endfacet
  facet normal 0 -1 0
    outer loop
      vertex 37.657 0 0.0049324
      vertex 22.0047 0 13.1175
      vertex 21.7529 0 12.8811
    endloop
  endfacet
  facet normal 0 -1 0
    outer loop
      vertex 37.657 0 0.0049324
      vertex 21.7529 0 12.8811
      vertex 21.4735 0 12.6781
    endloop
  endfacet
  facet normal 0 -1 0
    outer loop
      vertex 37.657 0 0.0049324
      vertex 21.4735 0 12.6781
      vertex 21.1709 0 12.5117
    endloop
  endfacet
  facet normal 0 -1 0
    outer loop
      vertex 20.5153 0 12.2987
      vertex 37.657 0 0.0049324
      vertex 20.8498 0 12.3846
    endloop
  endfacet
  facet normal 0 -1 0
    outer loop
      vertex 2.34302 0 0.0049324
      vertex 0 0 2.5
      vertex 0.0197124 0 2.18667
    endloop
  endfacet
  facet normal 0 -1 0
    outer loop
      vertex 20.8498 0 12.3846
      vertex 37.657 0 0.0049324
      vertex 21.1709 0 12.5117
    endloop
  endfacet
  facet normal 0 -1 0
    outer loop
      vertex 2.34302 0 0.0049324
      vertex 0.0197124 0 2.18667
      vertex 0.0785418 0 1.87827
    endloop
  endfacet
  facet normal 0 -1 0
    outer loop
      vertex 22.4098 0 13.6752
      vertex 37.657 0 0.0049324
      vertex 40 0 2.5
    endloop
  endfacet
  facet normal 0 -1 0
    outer loop
      vertex 2.34302 0 0.0049324
      vertex 0.0785418 0 1.87827
      vertex 0.175558 0 1.57969
    endloop
  endfacet
  facet normal 0 -1 0
    outer loop
      vertex 40 0 2.5
      vertex 37.657 0 0.0049324
      vertex 39.9803 0 2.18667
    endloop
  endfacet
  facet normal 0 -1 0
    outer loop
      vertex 2.34302 0 0.0049324
      vertex 0.175558 0 1.57969
      vertex 0.309233 0 1.29562
    endloop
  endfacet
  facet normal 0 -1 0
    outer loop
      vertex 39.9803 0 2.18667
      vertex 37.657 0 0.0049324
      vertex 39.9215 0 1.87827
    endloop
  endfacet
  facet normal 0 -1 0
    outer loop
      vertex 2.34302 0 0.0049324
      vertex 0.309233 0 1.29562
      vertex 0.477457 0 1.03054
    endloop
  endfacet
  facet normal 0 -1 0
    outer loop
      vertex 39.9215 0 1.87827
      vertex 37.657 0 0.0049324
      vertex 39.8244 0 1.57969
    endloop
  endfacet
  facet normal 0 -1 0
    outer loop
      vertex 2.34302 0 0.0049324
      vertex 0.477457 0 1.03054
      vertex 0.677578 0 0.788631
    endloop
  endfacet
  facet normal 0 -1 0
    outer loop
      vertex 39.8244 0 1.57969
      vertex 37.657 0 0.0049324
      vertex 39.6908 0 1.29562
    endloop
  endfacet
  facet normal 0 -1 0
    outer loop
      vertex 2.34302 0 0.0049324
      vertex 0.677578 0 0.788631
      vertex 0.90644 0 0.573716
    endloop
  endfacet
  facet normal 0 -1 0
    outer loop
      vertex 39.6908 0 1.29562
      vertex 37.657 0 0.0049324
      vertex 39.5225 0 1.03054
    endloop
  endfacet
  facet normal 0 -1 0
    outer loop
      vertex 2.34302 0 0.0049324
      vertex 0.90644 0 0.573716
      vertex 1.16043 0 0.38918
    endloop
  endfacet
  facet normal 0 -1 0
    outer loop
      vertex 39.5225 0 1.03054
      vertex 37.657 0 0.0049324
      vertex 39.3224 0 0.788631
    endloop
  endfacet
  facet normal 0 -1 0
    outer loop
      vertex 2.34302 0 0.0049324
      vertex 1.16043 0 0.38918
      vertex 1.43555 0 0.237932
    endloop
  endfacet
  facet normal 0 -1 0
    outer loop
      vertex 39.3224 0 0.788631
      vertex 37.657 0 0.0049324
      vertex 39.0936 0 0.573716
    endloop
  endfacet
  facet normal 0 -1 0
    outer loop
      vertex 2.34302 0 0.0049324
      vertex 1.43555 0 0.237932
      vertex 1.72746 0 0.122358
    endloop
  endfacet
  facet normal 0 -1 0
    outer loop
      vertex 39.0936 0 0.573716
      vertex 37.657 0 0.0049324
      vertex 38.8396 0 0.38918
    endloop
  endfacet
  facet normal 0 -1 0
    outer loop
      vertex 2.34302 0 0.0049324
      vertex 1.72746 0 0.122358
      vertex 2.03155 0 0.044281
    endloop
  endfacet
  facet normal 0 -1 0
    outer loop
      vertex 38.8396 0 0.38918
      vertex 37.657 0 0.0049324
      vertex 38.5644 0 0.237932
    endloop
  endfacet
  facet normal 0 -1 0
    outer loop
      vertex 38.5644 0 0.237932
      vertex 37.657 0 0.0049324
      vertex 38.2725 0 0.122358
    endloop
  endfacet
  facet normal 0 -1 0
    outer loop
      vertex 38.2725 0 0.122358
      vertex 37.657 0 0.0049324
      vertex 37.9685 0 0.044281
    endloop
  endfacet
  facet normal -1 0 0
    outer loop
      vertex 0 0 2.5
      vertex 0 32 72.5
      vertex 0 32 2.5
    endloop
  endfacet
  facet normal -1 -0 0
    outer loop
      vertex 0 32 72.5
      vertex 0 0 2.5
      vertex 0 0 72.5
    endloop
  endfacet
  facet normal -0.982287 0 -0.187383
    outer loop
      vertex 0.0785418 0 1.87827
      vertex 0.0197124 32 2.18667
      vertex 0.0785418 32 1.87827
    endloop
  endfacet
  facet normal -0.982287 -0 -0.187383
    outer loop
      vertex 0.0197124 32 2.18667
      vertex 0.0785418 0 1.87827
      vertex 0.0197124 0 2.18667
    endloop
  endfacet
  facet normal 0.587774 0 0.809025
    outer loop
      vertex 38.8396 32 74.6108
      vertex 39.0936 0 74.4263
      vertex 39.0936 32 74.4263
    endloop
  endfacet
  facet normal 0.587774 0 0.809025
    outer loop
      vertex 39.0936 0 74.4263
      vertex 38.8396 32 74.6108
      vertex 38.8396 0 74.6108
    endloop
  endfacet
  facet normal 0.998026 -0 0.0627943
    outer loop
      vertex 39.9803 0 72.8133
      vertex 40 32 72.5
      vertex 39.9803 32 72.8133
    endloop
  endfacet
  facet normal 0.998026 0 0.0627943
    outer loop
      vertex 40 32 72.5
      vertex 39.9803 0 72.8133
      vertex 40 0 72.5
    endloop
  endfacet
  facet normal 0.982287 -0 0.187383
    outer loop
      vertex 39.9215 0 73.1217
      vertex 39.9803 32 72.8133
      vertex 39.9215 32 73.1217
    endloop
  endfacet
  facet normal 0.982287 0 0.187383
    outer loop
      vertex 39.9803 32 72.8133
      vertex 39.9215 0 73.1217
      vertex 39.9803 0 72.8133
    endloop
  endfacet
  facet normal 0.684545 0 -0.72897
    outer loop
      vertex 39.0936 0 0.573716
      vertex 39.3224 32 0.788631
      vertex 39.3224 0 0.788631
    endloop
  endfacet
  facet normal 0.684545 0 -0.72897
    outer loop
      vertex 39.3224 32 0.788631
      vertex 39.0936 0 0.573716
      vertex 39.0936 32 0.573716
    endloop
  endfacet
  facet normal -0.951057 0 -0.309016
    outer loop
      vertex 0.175558 0 1.57969
      vertex 0.0785418 32 1.87827
      vertex 0.175558 32 1.57969
    endloop
  endfacet
  facet normal -0.951057 -0 -0.309016
    outer loop
      vertex 0.0785418 32 1.87827
      vertex 0.175558 0 1.57969
      vertex 0.0785418 0 1.87827
    endloop
  endfacet
  facet normal -0.587784 0 -0.809018
    outer loop
      vertex 0.90644 0 0.573716
      vertex 1.16043 32 0.38918
      vertex 1.16043 0 0.38918
    endloop
  endfacet
  facet normal -0.587784 0 -0.809018
    outer loop
      vertex 1.16043 32 0.38918
      vertex 0.90644 0 0.573716
      vertex 0.90644 32 0.573716
    endloop
  endfacet
  facet normal 0.481753 0 -0.876307
    outer loop
      vertex 38.5644 0 0.237932
      vertex 38.8396 32 0.38918
      vertex 38.8396 0 0.38918
    endloop
  endfacet
  facet normal 0.481753 0 -0.876307
    outer loop
      vertex 38.8396 32 0.38918
      vertex 38.5644 0 0.237932
      vertex 38.5644 32 0.237932
    endloop
  endfacet
  facet normal -0.844327 0 -0.535828
    outer loop
      vertex 0.477457 0 1.03054
      vertex 0.309233 32 1.29562
      vertex 0.477457 32 1.03054
    endloop
  endfacet
  facet normal -0.844327 -0 -0.535828
    outer loop
      vertex 0.309233 32 1.29562
      vertex 0.477457 0 1.03054
      vertex 0.309233 0 1.29562
    endloop
  endfacet
  facet normal -0.368126 0 -0.929776
    outer loop
      vertex 1.43555 0 0.237932
      vertex 1.72746 32 0.122358
      vertex 1.72746 0 0.122358
    endloop
  endfacet
  facet normal -0.368126 0 -0.929776
    outer loop
      vertex 1.72746 32 0.122358
      vertex 1.43555 0 0.237932
      vertex 1.43555 32 0.237932
    endloop
  endfacet
  facet normal 0.844325 -0 0.535832
    outer loop
      vertex 39.5225 0 73.9695
      vertex 39.6908 32 73.7044
      vertex 39.5225 32 73.9695
    endloop
  endfacet
  facet normal 0.844325 0 0.535832
    outer loop
      vertex 39.6908 32 73.7044
      vertex 39.5225 0 73.9695
      vertex 39.6908 0 73.7044
    endloop
  endfacet
  facet normal 0.904827 0 -0.425779
    outer loop
      vertex 39.8244 0 1.57969
      vertex 39.6908 32 1.29562
      vertex 39.8244 32 1.57969
    endloop
  endfacet
  facet normal 0.904827 0 -0.425779
    outer loop
      vertex 39.6908 32 1.29562
      vertex 39.8244 0 1.57969
      vertex 39.6908 0 1.29562
    endloop
  endfacet
  facet normal 0.770517 0 -0.637419
    outer loop
      vertex 39.5225 0 1.03054
      vertex 39.3224 32 0.788631
      vertex 39.5225 32 1.03054
    endloop
  endfacet
  facet normal 0.770517 0 -0.637419
    outer loop
      vertex 39.3224 32 0.788631
      vertex 39.5225 0 1.03054
      vertex 39.3224 0 0.788631
    endloop
  endfacet
  facet normal 0.998027 0 -0.062794
    outer loop
      vertex 40 0 2.5
      vertex 39.9803 32 2.18667
      vertex 40 32 2.5
    endloop
  endfacet
  facet normal 0.998027 0 -0.062794
    outer loop
      vertex 39.9803 32 2.18667
      vertex 40 0 2.5
      vertex 39.9803 0 2.18667
    endloop
  endfacet
  facet normal 0.951058 0 -0.309013
    outer loop
      vertex 39.9215 0 1.87827
      vertex 39.8244 32 1.57969
      vertex 39.9215 32 1.87827
    endloop
  endfacet
  facet normal 0.951058 0 -0.309013
    outer loop
      vertex 39.8244 32 1.57969
      vertex 39.9215 0 1.87827
      vertex 39.8244 0 1.57969
    endloop
  endfacet
  facet normal 0.368127 0 -0.929776
    outer loop
      vertex 38.2725 0 0.122358
      vertex 38.5644 32 0.237932
      vertex 38.5644 0 0.237932
    endloop
  endfacet
  facet normal 0.368127 0 -0.929776
    outer loop
      vertex 38.5644 32 0.237932
      vertex 38.2725 0 0.122358
      vertex 38.2725 32 0.122358
    endloop
  endfacet
  facet normal 0.248692 0 -0.968583
    outer loop
      vertex 37.9685 0 0.044281
      vertex 38.2725 32 0.122358
      vertex 38.2725 0 0.122358
    endloop
  endfacet
  facet normal 0.248692 0 -0.968583
    outer loop
      vertex 38.2725 32 0.122358
      vertex 37.9685 0 0.044281
      vertex 37.9685 32 0.044281
    endloop
  endfacet
  facet normal 0.587782 0 -0.809019
    outer loop
      vertex 38.8396 0 0.38918
      vertex 39.0936 32 0.573716
      vertex 39.0936 0 0.573716
    endloop
  endfacet
  facet normal 0.587782 0 -0.809019
    outer loop
      vertex 39.0936 32 0.573716
      vertex 38.8396 0 0.38918
      vertex 38.8396 32 0.38918
    endloop
  endfacet
  facet normal -0.684547 0 -0.728969
    outer loop
      vertex 0.677578 0 0.788631
      vertex 0.90644 32 0.573716
      vertex 0.90644 0 0.573716
    endloop
  endfacet
  facet normal -0.684547 0 -0.728969
    outer loop
      vertex 0.90644 32 0.573716
      vertex 0.677578 0 0.788631
      vertex 0.677578 32 0.788631
    endloop
  endfacet
  facet normal -0.770514 0 -0.637423
    outer loop
      vertex 0.677578 0 0.788631
      vertex 0.477457 32 1.03054
      vertex 0.677578 32 0.788631
    endloop
  endfacet
  facet normal -0.770514 -0 -0.637423
    outer loop
      vertex 0.477457 32 1.03054
      vertex 0.677578 0 0.788631
      vertex 0.477457 0 1.03054
    endloop
  endfacet
  facet normal -0.248691 0 -0.968583
    outer loop
      vertex 1.72746 0 0.122358
      vertex 2.03155 32 0.044281
      vertex 2.03155 0 0.044281
    endloop
  endfacet
  facet normal -0.248691 0 -0.968583
    outer loop
      vertex 2.03155 32 0.044281
      vertex 1.72746 0 0.122358
      vertex 1.72746 32 0.122358
    endloop
  endfacet
  facet normal -0.125333 0 -0.992115
    outer loop
      vertex 2.03155 0 0.044281
      vertex 2.34302 32 0.0049324
      vertex 2.34302 0 0.0049324
    endloop
  endfacet
  facet normal -0.125333 0 -0.992115
    outer loop
      vertex 2.34302 32 0.0049324
      vertex 2.03155 0 0.044281
      vertex 2.03155 32 0.044281
    endloop
  endfacet
  facet normal -0.481754 0 -0.876307
    outer loop
      vertex 1.16043 0 0.38918
      vertex 1.43555 32 0.237932
      vertex 1.43555 0 0.237932
    endloop
  endfacet
  facet normal -0.481754 0 -0.876307
    outer loop
      vertex 1.43555 32 0.237932
      vertex 1.16043 0 0.38918
      vertex 1.16043 32 0.38918
    endloop
  endfacet
  facet normal 0.844327 0 -0.535828
    outer loop
      vertex 39.6908 0 1.29562
      vertex 39.5225 32 1.03054
      vertex 39.6908 32 1.29562
    endloop
  endfacet
  facet normal 0.844327 0 -0.535828
    outer loop
      vertex 39.5225 32 1.03054
      vertex 39.6908 0 1.29562
      vertex 39.5225 0 1.03054
    endloop
  endfacet
  facet normal 0.982286 0 -0.187386
    outer loop
      vertex 39.9803 0 2.18667
      vertex 39.9215 32 1.87827
      vertex 39.9803 32 2.18667
    endloop
  endfacet
  facet normal 0.982286 0 -0.187386
    outer loop
      vertex 39.9215 32 1.87827
      vertex 39.9803 0 2.18667
      vertex 39.9215 0 1.87827
    endloop
  endfacet
  facet normal -0.998027 0 -0.0627909
    outer loop
      vertex 22.75 0 60
      vertex 22.7283 10 60.3447
      vertex 22.75 10 60
    endloop
  endfacet
  facet normal -0.998027 -0 -0.0627909
    outer loop
      vertex 22.7283 10 60.3447
      vertex 22.75 0 60
      vertex 22.7283 0 60.3447
    endloop
  endfacet
  facet normal 0.481759 0 -0.876304
    outer loop
      vertex 18.5265 0 62.3219
      vertex 18.8291 10 62.4883
      vertex 18.8291 0 62.4883
    endloop
  endfacet
  facet normal 0.481759 0 -0.876304
    outer loop
      vertex 18.8291 10 62.4883
      vertex 18.5265 0 62.3219
      vertex 18.5265 10 62.3219
    endloop
  endfacet
  facet normal 0.951055 0 -0.309021
    outer loop
      vertex 17.4431 0 61.0123
      vertex 17.3364 10 60.6839
      vertex 17.4431 10 61.0123
    endloop
  endfacet
  facet normal 0.951055 0 -0.309021
    outer loop
      vertex 17.3364 10 60.6839
      vertex 17.4431 0 61.0123
      vertex 17.3364 0 60.6839
    endloop
  endfacet
  facet normal -0.844328 0 -0.535827
    outer loop
      vertex 22.4098 0 61.3248
      vertex 22.2248 10 61.6164
      vertex 22.4098 10 61.3248
    endloop
  endfacet
  facet normal -0.844328 -0 -0.535827
    outer loop
      vertex 22.2248 10 61.6164
      vertex 22.4098 0 61.3248
      vertex 22.2248 0 61.6164
    endloop
  endfacet
  facet normal -0.770512 0 -0.637425
    outer loop
      vertex 22.2248 0 61.6164
      vertex 22.0047 10 61.8825
      vertex 22.2248 10 61.6164
    endloop
  endfacet
  facet normal -0.770512 -0 -0.637425
    outer loop
      vertex 22.0047 10 61.8825
      vertex 22.2248 0 61.6164
      vertex 22.0047 0 61.8825
    endloop
  endfacet
  facet normal -0.368128 0 -0.929775
    outer loop
      vertex 20.8498 0 62.6154
      vertex 21.1709 10 62.4883
      vertex 21.1709 0 62.4883
    endloop
  endfacet
  facet normal -0.368128 0 -0.929775
    outer loop
      vertex 21.1709 10 62.4883
      vertex 20.8498 0 62.6154
      vertex 20.8498 10 62.6154
    endloop
  endfacet
  facet normal 0 -1 0
    outer loop
      vertex 19.4847 10 62.7013
      vertex 20.1727 10 62.7446
      vertex 19.8273 10 62.7446
    endloop
  endfacet
  facet normal 0 -1 0
    outer loop
      vertex 19.4847 10 62.7013
      vertex 20.5153 10 62.7013
      vertex 20.1727 10 62.7446
    endloop
  endfacet
  facet normal 0 -1 0
    outer loop
      vertex 19.1502 10 62.6154
      vertex 20.5153 10 62.7013
      vertex 19.4847 10 62.7013
    endloop
  endfacet
  facet normal 0 -1 0
    outer loop
      vertex 19.1502 10 62.6154
      vertex 20.8498 10 62.6154
      vertex 20.5153 10 62.7013
    endloop
  endfacet
  facet normal 0 -1 0
    outer loop
      vertex 18.8291 10 62.4883
      vertex 20.8498 10 62.6154
      vertex 19.1502 10 62.6154
    endloop
  endfacet
  facet normal 0 -1 0
    outer loop
      vertex 18.8291 10 62.4883
      vertex 21.1709 10 62.4883
      vertex 20.8498 10 62.6154
    endloop
  endfacet
  facet normal 0 -1 0
    outer loop
      vertex 18.5265 10 62.3219
      vertex 21.1709 10 62.4883
      vertex 18.8291 10 62.4883
    endloop
  endfacet
  facet normal 0 -1 0
    outer loop
      vertex 18.5265 10 62.3219
      vertex 21.4735 10 62.3219
      vertex 21.1709 10 62.4883
    endloop
  endfacet
  facet normal 0 -1 0
    outer loop
      vertex 18.2471 10 62.1189
      vertex 21.4735 10 62.3219
      vertex 18.5265 10 62.3219
    endloop
  endfacet
  facet normal 0 -1 0
    outer loop
      vertex 18.2471 10 62.1189
      vertex 21.7529 10 62.1189
      vertex 21.4735 10 62.3219
    endloop
  endfacet
  facet normal 0 -1 0
    outer loop
      vertex 17.9953 10 61.8825
      vertex 21.7529 10 62.1189
      vertex 18.2471 10 62.1189
    endloop
  endfacet
  facet normal 0 -1 0
    outer loop
      vertex 17.9953 10 61.8825
      vertex 22.0047 10 61.8825
      vertex 21.7529 10 62.1189
    endloop
  endfacet
  facet normal 0 -1 0
    outer loop
      vertex 17.7752 10 61.6164
      vertex 22.0047 10 61.8825
      vertex 17.9953 10 61.8825
    endloop
  endfacet
  facet normal 0 -1 0
    outer loop
      vertex 17.7752 10 61.6164
      vertex 22.2248 10 61.6164
      vertex 22.0047 10 61.8825
    endloop
  endfacet
  facet normal 0 -1 0
    outer loop
      vertex 17.5902 10 61.3248
      vertex 22.2248 10 61.6164
      vertex 17.7752 10 61.6164
    endloop
  endfacet
  facet normal 0 -1 0
    outer loop
      vertex 17.5902 10 61.3248
      vertex 22.4098 10 61.3248
      vertex 22.2248 10 61.6164
    endloop
  endfacet
  facet normal 0 -1 0
    outer loop
      vertex 17.4431 10 61.0123
      vertex 22.4098 10 61.3248
      vertex 17.5902 10 61.3248
    endloop
  endfacet
  facet normal 0 -1 0
    outer loop
      vertex 17.4431 10 61.0123
      vertex 22.5569 10 61.0123
      vertex 22.4098 10 61.3248
    endloop
  endfacet
  facet normal 0 -1 0
    outer loop
      vertex 17.3364 10 60.6839
      vertex 22.5569 10 61.0123
      vertex 17.4431 10 61.0123
    endloop
  endfacet
  facet normal 0 -1 0
    outer loop
      vertex 17.3364 10 60.6839
      vertex 22.6636 10 60.6839
      vertex 22.5569 10 61.0123
    endloop
  endfacet
  facet normal 0 -1 0
    outer loop
      vertex 17.2717 10 60.3447
      vertex 22.6636 10 60.6839
      vertex 17.3364 10 60.6839
    endloop
  endfacet
  facet normal 0 -1 0
    outer loop
      vertex 17.2717 10 60.3447
      vertex 22.7283 10 60.3447
      vertex 22.6636 10 60.6839
    endloop
  endfacet
  facet normal 0 -1 0
    outer loop
      vertex 17.25 10 60
      vertex 22.7283 10 60.3447
      vertex 17.2717 10 60.3447
    endloop
  endfacet
  facet normal 0 -1 0
    outer loop
      vertex 17.25 10 60
      vertex 22.75 10 60
      vertex 22.7283 10 60.3447
    endloop
  endfacet
  facet normal 0 -1 0
    outer loop
      vertex 17.2717 10 59.6553
      vertex 22.75 10 60
      vertex 17.25 10 60
    endloop
  endfacet
  facet normal 0 -1 0
    outer loop
      vertex 17.2717 10 59.6553
      vertex 22.7283 10 59.6553
      vertex 22.75 10 60
    endloop
  endfacet
  facet normal 0 -1 0
    outer loop
      vertex 17.3364 10 59.3161
      vertex 22.7283 10 59.6553
      vertex 17.2717 10 59.6553
    endloop
  endfacet
  facet normal 0 -1 0
    outer loop
      vertex 17.3364 10 59.3161
      vertex 22.6636 10 59.3161
      vertex 22.7283 10 59.6553
    endloop
  endfacet
  facet normal 0 -1 0
    outer loop
      vertex 17.4431 10 58.9877
      vertex 22.6636 10 59.3161
      vertex 17.3364 10 59.3161
    endloop
  endfacet
  facet normal 0 -1 0
    outer loop
      vertex 17.4431 10 58.9877
      vertex 22.5569 10 58.9877
      vertex 22.6636 10 59.3161
    endloop
  endfacet
  facet normal 0 -1 0
    outer loop
      vertex 17.5902 10 58.6752
      vertex 22.5569 10 58.9877
      vertex 17.4431 10 58.9877
    endloop
  endfacet
  facet normal 0 -1 0
    outer loop
      vertex 17.5902 10 58.6752
      vertex 22.4098 10 58.6752
      vertex 22.5569 10 58.9877
    endloop
  endfacet
  facet normal 0 -1 0
    outer loop
      vertex 17.7752 10 58.3836
      vertex 22.4098 10 58.6752
      vertex 17.5902 10 58.6752
    endloop
  endfacet
  facet normal 0 -1 0
    outer loop
      vertex 17.7752 10 58.3836
      vertex 22.2248 10 58.3836
      vertex 22.4098 10 58.6752
    endloop
  endfacet
  facet normal 0 -1 0
    outer loop
      vertex 17.9953 10 58.1175
      vertex 22.2248 10 58.3836
      vertex 17.7752 10 58.3836
    endloop
  endfacet
  facet normal 0 -1 0
    outer loop
      vertex 17.9953 10 58.1175
      vertex 22.0047 10 58.1175
      vertex 22.2248 10 58.3836
    endloop
  endfacet
  facet normal 0 -1 0
    outer loop
      vertex 18.2471 10 57.8811
      vertex 22.0047 10 58.1175
      vertex 17.9953 10 58.1175
    endloop
  endfacet
  facet normal 0 -1 0
    outer loop
      vertex 18.2471 10 57.8811
      vertex 21.7529 10 57.8811
      vertex 22.0047 10 58.1175
    endloop
  endfacet
  facet normal 0 -1 0
    outer loop
      vertex 18.5265 10 57.6781
      vertex 21.7529 10 57.8811
      vertex 18.2471 10 57.8811
    endloop
  endfacet
  facet normal 0 -1 0
    outer loop
      vertex 18.5265 10 57.6781
      vertex 21.4735 10 57.6781
      vertex 21.7529 10 57.8811
    endloop
  endfacet
  facet normal 0 -1 0
    outer loop
      vertex 18.8291 10 57.5117
      vertex 21.4735 10 57.6781
      vertex 18.5265 10 57.6781
    endloop
  endfacet
  facet normal 0 -1 0
    outer loop
      vertex 18.8291 10 57.5117
      vertex 21.1709 10 57.5117
      vertex 21.4735 10 57.6781
    endloop
  endfacet
  facet normal 0 -1 0
    outer loop
      vertex 19.1502 10 57.3846
      vertex 21.1709 10 57.5117
      vertex 18.8291 10 57.5117
    endloop
  endfacet
  facet normal 0 -1 0
    outer loop
      vertex 19.1502 10 57.3846
      vertex 20.8498 10 57.3846
      vertex 21.1709 10 57.5117
    endloop
  endfacet
  facet normal 0 -1 0
    outer loop
      vertex 19.4847 10 57.2987
      vertex 20.8498 10 57.3846
      vertex 19.1502 10 57.3846
    endloop
  endfacet
  facet normal 0 -1 0
    outer loop
      vertex 19.4847 10 57.2987
      vertex 20.5153 10 57.2987
      vertex 20.8498 10 57.3846
    endloop
  endfacet
  facet normal 0 -1 0
    outer loop
      vertex 19.8273 10 57.2554
      vertex 20.5153 10 57.2987
      vertex 19.4847 10 57.2987
    endloop
  endfacet
  facet normal 0 -1 0
    outer loop
      vertex 20.5153 10 57.2987
      vertex 19.8273 10 57.2554
      vertex 20.1727 10 57.2554
    endloop
  endfacet
  facet normal 0.770515 0 -0.637422
    outer loop
      vertex 17.9953 0 61.8825
      vertex 17.7752 10 61.6164
      vertex 17.9953 10 61.8825
    endloop
  endfacet
  facet normal 0.770515 0 -0.637422
    outer loop
      vertex 17.7752 10 61.6164
      vertex 17.9953 0 61.8825
      vertex 17.7752 0 61.6164
    endloop
  endfacet
  facet normal -0.998027 0 0.0627909
    outer loop
      vertex 22.7283 0 59.6553
      vertex 22.75 10 60
      vertex 22.7283 10 59.6553
    endloop
  endfacet
  facet normal -0.998027 0 0.0627909
    outer loop
      vertex 22.75 10 60
      vertex 22.7283 0 59.6553
      vertex 22.75 0 60
    endloop
  endfacet
  facet normal -0.587787 0 0.809015
    outer loop
      vertex 21.4735 10 57.6781
      vertex 21.7529 0 57.8811
      vertex 21.7529 10 57.8811
    endloop
  endfacet
  facet normal -0.587787 0 0.809015
    outer loop
      vertex 21.7529 0 57.8811
      vertex 21.4735 10 57.6781
      vertex 21.4735 0 57.6781
    endloop
  endfacet
  facet normal -0.58778 0 -0.809021
    outer loop
      vertex 21.4735 0 62.3219
      vertex 21.7529 10 62.1189
      vertex 21.7529 0 62.1189
    endloop
  endfacet
  facet normal -0.58778 0 -0.809021
    outer loop
      vertex 21.7529 10 62.1189
      vertex 21.4735 0 62.3219
      vertex 21.4735 10 62.3219
    endloop
  endfacet
  facet normal 0.125328 0 -0.992115
    outer loop
      vertex 19.4847 0 62.7013
      vertex 19.8273 10 62.7446
      vertex 19.8273 0 62.7446
    endloop
  endfacet
  facet normal 0.125328 0 -0.992115
    outer loop
      vertex 19.8273 10 62.7446
      vertex 19.4847 0 62.7013
      vertex 19.4847 10 62.7013
    endloop
  endfacet
  facet normal -0.125328 0 -0.992115
    outer loop
      vertex 20.1727 0 62.7446
      vertex 20.5153 10 62.7013
      vertex 20.5153 0 62.7013
    endloop
  endfacet
  facet normal -0.125328 0 -0.992115
    outer loop
      vertex 20.5153 10 62.7013
      vertex 20.1727 0 62.7446
      vertex 20.1727 10 62.7446
    endloop
  endfacet
  facet normal -0.248688 0 -0.968584
    outer loop
      vertex 20.5153 0 62.7013
      vertex 20.8498 10 62.6154
      vertex 20.8498 0 62.6154
    endloop
  endfacet
  facet normal -0.248688 0 -0.968584
    outer loop
      vertex 20.8498 10 62.6154
      vertex 20.5153 0 62.7013
      vertex 20.5153 10 62.7013
    endloop
  endfacet
  facet normal 0.998027 -0 0.0627854
    outer loop
      vertex 17.25 0 60
      vertex 17.2717 10 59.6553
      vertex 17.25 10 60
    endloop
  endfacet
  facet normal 0.998027 0 0.0627854
    outer loop
      vertex 17.2717 10 59.6553
      vertex 17.25 0 60
      vertex 17.2717 0 59.6553
    endloop
  endfacet
  facet normal 0.982287 0 -0.187382
    outer loop
      vertex 17.3364 0 60.6839
      vertex 17.2717 10 60.3447
      vertex 17.3364 10 60.6839
    endloop
  endfacet
  facet normal 0.982287 0 -0.187382
    outer loop
      vertex 17.2717 10 60.3447
      vertex 17.3364 0 60.6839
      vertex 17.2717 0 60.3447
    endloop
  endfacet
  facet normal 0.904826 0 -0.425781
    outer loop
      vertex 17.5902 0 61.3248
      vertex 17.4431 10 61.0123
      vertex 17.5902 10 61.3248
    endloop
  endfacet
  facet normal 0.904826 0 -0.425781
    outer loop
      vertex 17.4431 10 61.0123
      vertex 17.5902 0 61.3248
      vertex 17.4431 0 61.0123
    endloop
  endfacet
  facet normal 0.844328 0 -0.535827
    outer loop
      vertex 17.7752 0 61.6164
      vertex 17.5902 10 61.3248
      vertex 17.7752 10 61.6164
    endloop
  endfacet
  facet normal 0.844328 0 -0.535827
    outer loop
      vertex 17.5902 10 61.3248
      vertex 17.7752 0 61.6164
      vertex 17.5902 0 61.3248
    endloop
  endfacet
  facet normal 0.248689 0 -0.968583
    outer loop
      vertex 19.1502 0 62.6154
      vertex 19.4847 10 62.7013
      vertex 19.4847 0 62.7013
    endloop
  endfacet
  facet normal 0.248689 0 -0.968583
    outer loop
      vertex 19.4847 10 62.7013
      vertex 19.1502 0 62.6154
      vertex 19.1502 10 62.6154
    endloop
  endfacet
  facet normal 0.684547 0 -0.728968
    outer loop
      vertex 17.9953 0 61.8825
      vertex 18.2471 10 62.1189
      vertex 18.2471 0 62.1189
    endloop
  endfacet
  facet normal 0.684547 0 -0.728968
    outer loop
      vertex 18.2471 10 62.1189
      vertex 17.9953 0 61.8825
      vertex 17.9953 10 61.8825
    endloop
  endfacet
  facet normal 0.58778 0 -0.809021
    outer loop
      vertex 18.2471 0 62.1189
      vertex 18.5265 10 62.3219
      vertex 18.5265 0 62.3219
    endloop
  endfacet
  facet normal 0.58778 0 -0.809021
    outer loop
      vertex 18.5265 10 62.3219
      vertex 18.2471 0 62.1189
      vertex 18.2471 10 62.1189
    endloop
  endfacet
  facet normal -0.951057 0 0.309016
    outer loop
      vertex 22.5569 0 58.9877
      vertex 22.6636 10 59.3161
      vertex 22.5569 10 58.9877
    endloop
  endfacet
  facet normal -0.951057 0 0.309016
    outer loop
      vertex 22.6636 10 59.3161
      vertex 22.5569 0 58.9877
      vertex 22.6636 0 59.3161
    endloop
  endfacet
  facet normal 0.844328 -0 0.535827
    outer loop
      vertex 17.5902 0 58.6752
      vertex 17.7752 10 58.3836
      vertex 17.5902 10 58.6752
    endloop
  endfacet
  facet normal 0.844328 0 0.535827
    outer loop
      vertex 17.7752 10 58.3836
      vertex 17.5902 0 58.6752
      vertex 17.7752 0 58.3836
    endloop
  endfacet
  facet normal -0.125338 0 0.992114
    outer loop
      vertex 20.1727 10 57.2554
      vertex 20.5153 0 57.2987
      vertex 20.5153 10 57.2987
    endloop
  endfacet
  facet normal -0.125338 0 0.992114
    outer loop
      vertex 20.5153 0 57.2987
      vertex 20.1727 10 57.2554
      vertex 20.1727 0 57.2554
    endloop
  endfacet
  facet normal -0.248688 0 0.968584
    outer loop
      vertex 20.5153 10 57.2987
      vertex 20.8498 0 57.3846
      vertex 20.8498 10 57.3846
    endloop
  endfacet
  facet normal -0.248688 0 0.968584
    outer loop
      vertex 20.8498 0 57.3846
      vertex 20.5153 10 57.2987
      vertex 20.5153 0 57.2987
    endloop
  endfacet
  facet normal -0.904826 0 -0.425781
    outer loop
      vertex 22.5569 0 61.0123
      vertex 22.4098 10 61.3248
      vertex 22.5569 10 61.0123
    endloop
  endfacet
  facet normal -0.904826 -0 -0.425781
    outer loop
      vertex 22.4098 10 61.3248
      vertex 22.5569 0 61.0123
      vertex 22.4098 0 61.3248
    endloop
  endfacet
  facet normal -0.951057 0 -0.309016
    outer loop
      vertex 22.6636 0 60.6839
      vertex 22.5569 10 61.0123
      vertex 22.6636 10 60.6839
    endloop
  endfacet
  facet normal -0.951057 -0 -0.309016
    outer loop
      vertex 22.5569 10 61.0123
      vertex 22.6636 0 60.6839
      vertex 22.5569 0 61.0123
    endloop
  endfacet
  facet normal -0.684547 0 -0.728968
    outer loop
      vertex 21.7529 0 62.1189
      vertex 22.0047 10 61.8825
      vertex 22.0047 0 61.8825
    endloop
  endfacet
  facet normal -0.684547 0 -0.728968
    outer loop
      vertex 22.0047 10 61.8825
      vertex 21.7529 0 62.1189
      vertex 21.7529 10 62.1189
    endloop
  endfacet
  facet normal 0 0 -1
    outer loop
      vertex 19.8273 0 62.7446
      vertex 20.1727 10 62.7446
      vertex 20.1727 0 62.7446
    endloop
  endfacet
  facet normal -0 0 -1
    outer loop
      vertex 20.1727 10 62.7446
      vertex 19.8273 0 62.7446
      vertex 19.8273 10 62.7446
    endloop
  endfacet
  facet normal -0.481759 0 -0.876304
    outer loop
      vertex 21.1709 0 62.4883
      vertex 21.4735 10 62.3219
      vertex 21.4735 0 62.3219
    endloop
  endfacet
  facet normal -0.481759 0 -0.876304
    outer loop
      vertex 21.4735 10 62.3219
      vertex 21.1709 0 62.4883
      vertex 21.1709 10 62.4883
    endloop
  endfacet
  facet normal 0.998027 0 -0.0627854
    outer loop
      vertex 17.2717 0 60.3447
      vertex 17.25 10 60
      vertex 17.2717 10 60.3447
    endloop
  endfacet
  facet normal 0.998027 0 -0.0627854
    outer loop
      vertex 17.25 10 60
      vertex 17.2717 0 60.3447
      vertex 17.25 0 60
    endloop
  endfacet
  facet normal 0.368126 0 -0.929776
    outer loop
      vertex 18.8291 0 62.4883
      vertex 19.1502 10 62.6154
      vertex 19.1502 0 62.6154
    endloop
  endfacet
  facet normal 0.368126 0 -0.929776
    outer loop
      vertex 19.1502 10 62.6154
      vertex 18.8291 0 62.4883
      vertex 18.8291 10 62.4883
    endloop
  endfacet
  facet normal -0.982287 0 0.187382
    outer loop
      vertex 22.6636 0 59.3161
      vertex 22.7283 10 59.6553
      vertex 22.6636 10 59.3161
    endloop
  endfacet
  facet normal -0.982287 0 0.187382
    outer loop
      vertex 22.7283 10 59.6553
      vertex 22.6636 0 59.3161
      vertex 22.7283 0 59.6553
    endloop
  endfacet
  facet normal -0.684541 0 0.728974
    outer loop
      vertex 21.7529 10 57.8811
      vertex 22.0047 0 58.1175
      vertex 22.0047 10 58.1175
    endloop
  endfacet
  facet normal -0.684541 0 0.728974
    outer loop
      vertex 22.0047 0 58.1175
      vertex 21.7529 10 57.8811
      vertex 21.7529 0 57.8811
    endloop
  endfacet
  facet normal -0.770517 0 0.63742
    outer loop
      vertex 22.0047 0 58.1175
      vertex 22.2248 10 58.3836
      vertex 22.0047 10 58.1175
    endloop
  endfacet
  facet normal -0.770517 0 0.63742
    outer loop
      vertex 22.2248 10 58.3836
      vertex 22.0047 0 58.1175
      vertex 22.2248 0 58.3836
    endloop
  endfacet
  facet normal -0 0 1
    outer loop
      vertex 19.8273 10 57.2554
      vertex 20.1727 0 57.2554
      vertex 20.1727 10 57.2554
    endloop
  endfacet
  facet normal 0 0 1
    outer loop
      vertex 20.1727 0 57.2554
      vertex 19.8273 10 57.2554
      vertex 19.8273 0 57.2554
    endloop
  endfacet
  facet normal 0.982287 -0 0.187382
    outer loop
      vertex 17.2717 0 59.6553
      vertex 17.3364 10 59.3161
      vertex 17.2717 10 59.6553
    endloop
  endfacet
  facet normal 0.982287 0 0.187382
    outer loop
      vertex 17.3364 10 59.3161
      vertex 17.2717 0 59.6553
      vertex 17.3364 0 59.3161
    endloop
  endfacet
  facet normal 0.951055 -0 0.309021
    outer loop
      vertex 17.3364 0 59.3161
      vertex 17.4431 10 58.9877
      vertex 17.3364 10 59.3161
    endloop
  endfacet
  facet normal 0.951055 0 0.309021
    outer loop
      vertex 17.4431 10 58.9877
      vertex 17.3364 0 59.3161
      vertex 17.4431 0 58.9877
    endloop
  endfacet
  facet normal 0.684541 0 0.728974
    outer loop
      vertex 17.9953 10 58.1175
      vertex 18.2471 0 57.8811
      vertex 18.2471 10 57.8811
    endloop
  endfacet
  facet normal 0.684541 0 0.728974
    outer loop
      vertex 18.2471 0 57.8811
      vertex 17.9953 10 58.1175
      vertex 17.9953 0 58.1175
    endloop
  endfacet
  facet normal -0.368128 0 0.929775
    outer loop
      vertex 20.8498 10 57.3846
      vertex 21.1709 0 57.5117
      vertex 21.1709 10 57.5117
    endloop
  endfacet
  facet normal -0.368128 0 0.929775
    outer loop
      vertex 21.1709 0 57.5117
      vertex 20.8498 10 57.3846
      vertex 20.8498 0 57.3846
    endloop
  endfacet
  facet normal -0.48175 0 0.876309
    outer loop
      vertex 21.1709 10 57.5117
      vertex 21.4735 0 57.6781
      vertex 21.4735 10 57.6781
    endloop
  endfacet
  facet normal -0.48175 0 0.876309
    outer loop
      vertex 21.4735 0 57.6781
      vertex 21.1709 10 57.5117
      vertex 21.1709 0 57.5117
    endloop
  endfacet
  facet normal -0.982287 0 -0.187382
    outer loop
      vertex 22.7283 0 60.3447
      vertex 22.6636 10 60.6839
      vertex 22.7283 10 60.3447
    endloop
  endfacet
  facet normal -0.982287 -0 -0.187382
    outer loop
      vertex 22.6636 10 60.6839
      vertex 22.7283 0 60.3447
      vertex 22.6636 0 60.6839
    endloop
  endfacet
  facet normal -0.844328 0 0.535827
    outer loop
      vertex 22.2248 0 58.3836
      vertex 22.4098 10 58.6752
      vertex 22.2248 10 58.3836
    endloop
  endfacet
  facet normal -0.844328 0 0.535827
    outer loop
      vertex 22.4098 10 58.6752
      vertex 22.2248 0 58.3836
      vertex 22.4098 0 58.6752
    endloop
  endfacet
  facet normal -0.904826 0 0.425781
    outer loop
      vertex 22.4098 0 58.6752
      vertex 22.5569 10 58.9877
      vertex 22.4098 10 58.6752
    endloop
  endfacet
  facet normal -0.904826 0 0.425781
    outer loop
      vertex 22.5569 10 58.9877
      vertex 22.4098 0 58.6752
      vertex 22.5569 0 58.9877
    endloop
  endfacet
  facet normal 0.368126 0 0.929776
    outer loop
      vertex 18.8291 10 57.5117
      vertex 19.1502 0 57.3846
      vertex 19.1502 10 57.3846
    endloop
  endfacet
  facet normal 0.368126 0 0.929776
    outer loop
      vertex 19.1502 0 57.3846
      vertex 18.8291 10 57.5117
      vertex 18.8291 0 57.5117
    endloop
  endfacet
  facet normal 0.125338 0 0.992114
    outer loop
      vertex 19.4847 10 57.2987
      vertex 19.8273 0 57.2554
      vertex 19.8273 10 57.2554
    endloop
  endfacet
  facet normal 0.125338 0 0.992114
    outer loop
      vertex 19.8273 0 57.2554
      vertex 19.4847 10 57.2987
      vertex 19.4847 0 57.2987
    endloop
  endfacet
  facet normal 0.77052 -0 0.637416
    outer loop
      vertex 17.7752 0 58.3836
      vertex 17.9953 10 58.1175
      vertex 17.7752 10 58.3836
    endloop
  endfacet
  facet normal 0.77052 0 0.637416
    outer loop
      vertex 17.9953 10 58.1175
      vertex 17.7752 0 58.3836
      vertex 17.9953 0 58.1175
    endloop
  endfacet
  facet normal 0.48175 0 0.876309
    outer loop
      vertex 18.5265 10 57.6781
      vertex 18.8291 0 57.5117
      vertex 18.8291 10 57.5117
    endloop
  endfacet
  facet normal 0.48175 0 0.876309
    outer loop
      vertex 18.8291 0 57.5117
      vertex 18.5265 10 57.6781
      vertex 18.5265 0 57.6781
    endloop
  endfacet
  facet normal 0.248689 0 0.968583
    outer loop
      vertex 19.1502 10 57.3846
      vertex 19.4847 0 57.2987
      vertex 19.4847 10 57.2987
    endloop
  endfacet
  facet normal 0.248689 0 0.968583
    outer loop
      vertex 19.4847 0 57.2987
      vertex 19.1502 10 57.3846
      vertex 19.1502 0 57.3846
    endloop
  endfacet
  facet normal 0.904826 -0 0.425781
    outer loop
      vertex 17.4431 0 58.9877
      vertex 17.5902 10 58.6752
      vertex 17.4431 10 58.9877
    endloop
  endfacet
  facet normal 0.904826 0 0.425781
    outer loop
      vertex 17.5902 10 58.6752
      vertex 17.4431 0 58.9877
      vertex 17.5902 0 58.6752
    endloop
  endfacet
  facet normal 0.587787 0 0.809015
    outer loop
      vertex 18.2471 10 57.8811
      vertex 18.5265 0 57.6781
      vertex 18.5265 10 57.6781
    endloop
  endfacet
  facet normal 0.587787 0 0.809015
    outer loop
      vertex 18.5265 0 57.6781
      vertex 18.2471 10 57.8811
      vertex 18.2471 0 57.8811
    endloop
  endfacet
  facet normal -0.998027 0 -0.0627909
    outer loop
      vertex 22.75 0 15
      vertex 22.7283 10 15.3447
      vertex 22.75 10 15
    endloop
  endfacet
  facet normal -0.998027 -0 -0.0627909
    outer loop
      vertex 22.7283 10 15.3447
      vertex 22.75 0 15
      vertex 22.7283 0 15.3447
    endloop
  endfacet
  facet normal -0.248688 0 -0.968584
    outer loop
      vertex 20.5153 0 17.7013
      vertex 20.8498 10 17.6154
      vertex 20.8498 0 17.6154
    endloop
  endfacet
  facet normal -0.248688 0 -0.968584
    outer loop
      vertex 20.8498 10 17.6154
      vertex 20.5153 0 17.7013
      vertex 20.5153 10 17.7013
    endloop
  endfacet
  facet normal 0.481754 0 -0.876306
    outer loop
      vertex 18.5265 0 17.3219
      vertex 18.8291 10 17.4883
      vertex 18.8291 0 17.4883
    endloop
  endfacet
  facet normal 0.481754 0 -0.876306
    outer loop
      vertex 18.8291 10 17.4883
      vertex 18.5265 0 17.3219
      vertex 18.5265 10 17.3219
    endloop
  endfacet
  facet normal 0.951055 0 -0.309021
    outer loop
      vertex 17.4431 0 16.0123
      vertex 17.3364 10 15.6839
      vertex 17.4431 10 16.0123
    endloop
  endfacet
  facet normal 0.951055 0 -0.309021
    outer loop
      vertex 17.3364 10 15.6839
      vertex 17.4431 0 16.0123
      vertex 17.3364 0 15.6839
    endloop
  endfacet
  facet normal -0.481754 0 0.876306
    outer loop
      vertex 21.1709 10 12.5117
      vertex 21.4735 0 12.6781
      vertex 21.4735 10 12.6781
    endloop
  endfacet
  facet normal -0.481754 0 0.876306
    outer loop
      vertex 21.4735 0 12.6781
      vertex 21.1709 10 12.5117
      vertex 21.1709 0 12.5117
    endloop
  endfacet
  facet normal -0.844328 0 -0.535827
    outer loop
      vertex 22.4098 0 16.3248
      vertex 22.2248 10 16.6164
      vertex 22.4098 10 16.3248
    endloop
  endfacet
  facet normal -0.844328 -0 -0.535827
    outer loop
      vertex 22.2248 10 16.6164
      vertex 22.4098 0 16.3248
      vertex 22.2248 0 16.6164
    endloop
  endfacet
  facet normal -0.770512 0 -0.637425
    outer loop
      vertex 22.2248 0 16.6164
      vertex 22.0047 10 16.8825
      vertex 22.2248 10 16.6164
    endloop
  endfacet
  facet normal -0.770512 -0 -0.637425
    outer loop
      vertex 22.0047 10 16.8825
      vertex 22.2248 0 16.6164
      vertex 22.0047 0 16.8825
    endloop
  endfacet
  facet normal 0 -1 0
    outer loop
      vertex 19.4847 10 17.7013
      vertex 20.1727 10 17.7446
      vertex 19.8273 10 17.7446
    endloop
  endfacet
  facet normal 0 -1 0
    outer loop
      vertex 19.4847 10 17.7013
      vertex 20.5153 10 17.7013
      vertex 20.1727 10 17.7446
    endloop
  endfacet
  facet normal 0 -1 0
    outer loop
      vertex 19.1502 10 17.6154
      vertex 20.5153 10 17.7013
      vertex 19.4847 10 17.7013
    endloop
  endfacet
  facet normal 0 -1 0
    outer loop
      vertex 19.1502 10 17.6154
      vertex 20.8498 10 17.6154
      vertex 20.5153 10 17.7013
    endloop
  endfacet
  facet normal 0 -1 0
    outer loop
      vertex 18.8291 10 17.4883
      vertex 20.8498 10 17.6154
      vertex 19.1502 10 17.6154
    endloop
  endfacet
  facet normal 0 -1 0
    outer loop
      vertex 18.8291 10 17.4883
      vertex 21.1709 10 17.4883
      vertex 20.8498 10 17.6154
    endloop
  endfacet
  facet normal 0 -1 0
    outer loop
      vertex 18.5265 10 17.3219
      vertex 21.1709 10 17.4883
      vertex 18.8291 10 17.4883
    endloop
  endfacet
  facet normal 0 -1 0
    outer loop
      vertex 18.5265 10 17.3219
      vertex 21.4735 10 17.3219
      vertex 21.1709 10 17.4883
    endloop
  endfacet
  facet normal 0 -1 0
    outer loop
      vertex 18.2471 10 17.1189
      vertex 21.4735 10 17.3219
      vertex 18.5265 10 17.3219
    endloop
  endfacet
  facet normal 0 -1 0
    outer loop
      vertex 18.2471 10 17.1189
      vertex 21.7529 10 17.1189
      vertex 21.4735 10 17.3219
    endloop
  endfacet
  facet normal 0 -1 0
    outer loop
      vertex 17.9953 10 16.8825
      vertex 21.7529 10 17.1189
      vertex 18.2471 10 17.1189
    endloop
  endfacet
  facet normal 0 -1 0
    outer loop
      vertex 17.9953 10 16.8825
      vertex 22.0047 10 16.8825
      vertex 21.7529 10 17.1189
    endloop
  endfacet
  facet normal 0 -1 0
    outer loop
      vertex 17.7752 10 16.6164
      vertex 22.0047 10 16.8825
      vertex 17.9953 10 16.8825
    endloop
  endfacet
  facet normal 0 -1 0
    outer loop
      vertex 17.7752 10 16.6164
      vertex 22.2248 10 16.6164
      vertex 22.0047 10 16.8825
    endloop
  endfacet
  facet normal 0 -1 0
    outer loop
      vertex 17.5902 10 16.3248
      vertex 22.2248 10 16.6164
      vertex 17.7752 10 16.6164
    endloop
  endfacet
  facet normal 0 -1 0
    outer loop
      vertex 17.5902 10 16.3248
      vertex 22.4098 10 16.3248
      vertex 22.2248 10 16.6164
    endloop
  endfacet
  facet normal 0 -1 0
    outer loop
      vertex 17.4431 10 16.0123
      vertex 22.4098 10 16.3248
      vertex 17.5902 10 16.3248
    endloop
  endfacet
  facet normal 0 -1 0
    outer loop
      vertex 17.4431 10 16.0123
      vertex 22.5569 10 16.0123
      vertex 22.4098 10 16.3248
    endloop
  endfacet
  facet normal 0 -1 0
    outer loop
      vertex 17.3364 10 15.6839
      vertex 22.5569 10 16.0123
      vertex 17.4431 10 16.0123
    endloop
  endfacet
  facet normal 0 -1 0
    outer loop
      vertex 17.3364 10 15.6839
      vertex 22.6636 10 15.6839
      vertex 22.5569 10 16.0123
    endloop
  endfacet
  facet normal 0 -1 0
    outer loop
      vertex 17.2717 10 15.3447
      vertex 22.6636 10 15.6839
      vertex 17.3364 10 15.6839
    endloop
  endfacet
  facet normal 0 -1 0
    outer loop
      vertex 17.2717 10 15.3447
      vertex 22.7283 10 15.3447
      vertex 22.6636 10 15.6839
    endloop
  endfacet
  facet normal 0 -1 0
    outer loop
      vertex 17.25 10 15
      vertex 22.7283 10 15.3447
      vertex 17.2717 10 15.3447
    endloop
  endfacet
  facet normal 0 -1 0
    outer loop
      vertex 17.25 10 15
      vertex 22.75 10 15
      vertex 22.7283 10 15.3447
    endloop
  endfacet
  facet normal 0 -1 0
    outer loop
      vertex 17.2717 10 14.6553
      vertex 22.75 10 15
      vertex 17.25 10 15
    endloop
  endfacet
  facet normal 0 -1 0
    outer loop
      vertex 17.2717 10 14.6553
      vertex 22.7283 10 14.6553
      vertex 22.75 10 15
    endloop
  endfacet
  facet normal 0 -1 0
    outer loop
      vertex 17.3364 10 14.3161
      vertex 22.7283 10 14.6553
      vertex 17.2717 10 14.6553
    endloop
  endfacet
  facet normal 0 -1 0
    outer loop
      vertex 17.3364 10 14.3161
      vertex 22.6636 10 14.3161
      vertex 22.7283 10 14.6553
    endloop
  endfacet
  facet normal 0 -1 0
    outer loop
      vertex 17.4431 10 13.9877
      vertex 22.6636 10 14.3161
      vertex 17.3364 10 14.3161
    endloop
  endfacet
  facet normal 0 -1 0
    outer loop
      vertex 17.4431 10 13.9877
      vertex 22.5569 10 13.9877
      vertex 22.6636 10 14.3161
    endloop
  endfacet
  facet normal 0 -1 0
    outer loop
      vertex 17.5902 10 13.6752
      vertex 22.5569 10 13.9877
      vertex 17.4431 10 13.9877
    endloop
  endfacet
  facet normal 0 -1 0
    outer loop
      vertex 17.5902 10 13.6752
      vertex 22.4098 10 13.6752
      vertex 22.5569 10 13.9877
    endloop
  endfacet
  facet normal 0 -1 0
    outer loop
      vertex 17.7752 10 13.3836
      vertex 22.4098 10 13.6752
      vertex 17.5902 10 13.6752
    endloop
  endfacet
  facet normal 0 -1 0
    outer loop
      vertex 17.7752 10 13.3836
      vertex 22.2248 10 13.3836
      vertex 22.4098 10 13.6752
    endloop
  endfacet
  facet normal 0 -1 0
    outer loop
      vertex 17.9953 10 13.1175
      vertex 22.2248 10 13.3836
      vertex 17.7752 10 13.3836
    endloop
  endfacet
  facet normal 0 -1 0
    outer loop
      vertex 17.9953 10 13.1175
      vertex 22.0047 10 13.1175
      vertex 22.2248 10 13.3836
    endloop
  endfacet
  facet normal 0 -1 0
    outer loop
      vertex 18.2471 10 12.8811
      vertex 22.0047 10 13.1175
      vertex 17.9953 10 13.1175
    endloop
  endfacet
  facet normal 0 -1 0
    outer loop
      vertex 18.2471 10 12.8811
      vertex 21.7529 10 12.8811
      vertex 22.0047 10 13.1175
    endloop
  endfacet
  facet normal 0 -1 0
    outer loop
      vertex 18.5265 10 12.6781
      vertex 21.7529 10 12.8811
      vertex 18.2471 10 12.8811
    endloop
  endfacet
  facet normal 0 -1 0
    outer loop
      vertex 18.5265 10 12.6781
      vertex 21.4735 10 12.6781
      vertex 21.7529 10 12.8811
    endloop
  endfacet
  facet normal 0 -1 0
    outer loop
      vertex 18.8291 10 12.5117
      vertex 21.4735 10 12.6781
      vertex 18.5265 10 12.6781
    endloop
  endfacet
  facet normal 0 -1 0
    outer loop
      vertex 18.8291 10 12.5117
      vertex 21.1709 10 12.5117
      vertex 21.4735 10 12.6781
    endloop
  endfacet
  facet normal 0 -1 0
    outer loop
      vertex 19.1502 10 12.3846
      vertex 21.1709 10 12.5117
      vertex 18.8291 10 12.5117
    endloop
  endfacet
  facet normal 0 -1 0
    outer loop
      vertex 19.1502 10 12.3846
      vertex 20.8498 10 12.3846
      vertex 21.1709 10 12.5117
    endloop
  endfacet
  facet normal 0 -1 0
    outer loop
      vertex 19.4847 10 12.2987
      vertex 20.8498 10 12.3846
      vertex 19.1502 10 12.3846
    endloop
  endfacet
  facet normal 0 -1 0
    outer loop
      vertex 19.4847 10 12.2987
      vertex 20.5153 10 12.2987
      vertex 20.8498 10 12.3846
    endloop
  endfacet
  facet normal 0 -1 0
    outer loop
      vertex 19.8273 10 12.2554
      vertex 20.5153 10 12.2987
      vertex 19.4847 10 12.2987
    endloop
  endfacet
  facet normal 0 -1 0
    outer loop
      vertex 20.5153 10 12.2987
      vertex 19.8273 10 12.2554
      vertex 20.1727 10 12.2554
    endloop
  endfacet
  facet normal 0.998027 -0 0.0627852
    outer loop
      vertex 17.25 0 15
      vertex 17.2717 10 14.6553
      vertex 17.25 10 15
    endloop
  endfacet
  facet normal 0.998027 0 0.0627852
    outer loop
      vertex 17.2717 10 14.6553
      vertex 17.25 0 15
      vertex 17.2717 0 14.6553
    endloop
  endfacet
  facet normal 0.770515 0 -0.637422
    outer loop
      vertex 17.9953 0 16.8825
      vertex 17.7752 10 16.6164
      vertex 17.9953 10 16.8825
    endloop
  endfacet
  facet normal 0.770515 0 -0.637422
    outer loop
      vertex 17.7752 10 16.6164
      vertex 17.9953 0 16.8825
      vertex 17.7752 0 16.6164
    endloop
  endfacet
  facet normal -0.982287 0 0.187383
    outer loop
      vertex 22.6636 0 14.3161
      vertex 22.7283 10 14.6553
      vertex 22.6636 10 14.3161
    endloop
  endfacet
  facet normal -0.982287 0 0.187383
    outer loop
      vertex 22.7283 10 14.6553
      vertex 22.6636 0 14.3161
      vertex 22.7283 0 14.6553
    endloop
  endfacet
  facet normal -0.587784 0 -0.809018
    outer loop
      vertex 21.4735 0 17.3219
      vertex 21.7529 10 17.1189
      vertex 21.7529 0 17.1189
    endloop
  endfacet
  facet normal -0.587784 0 -0.809018
    outer loop
      vertex 21.7529 10 17.1189
      vertex 21.4735 0 17.3219
      vertex 21.4735 10 17.3219
    endloop
  endfacet
  facet normal 0.125328 0 -0.992115
    outer loop
      vertex 19.4847 0 17.7013
      vertex 19.8273 10 17.7446
      vertex 19.8273 0 17.7446
    endloop
  endfacet
  facet normal 0.125328 0 -0.992115
    outer loop
      vertex 19.8273 10 17.7446
      vertex 19.4847 0 17.7013
      vertex 19.4847 10 17.7013
    endloop
  endfacet
  facet normal 0 0 -1
    outer loop
      vertex 19.8273 0 17.7446
      vertex 20.1727 10 17.7446
      vertex 20.1727 0 17.7446
    endloop
  endfacet
  facet normal -0 0 -1
    outer loop
      vertex 20.1727 10 17.7446
      vertex 19.8273 0 17.7446
      vertex 19.8273 10 17.7446
    endloop
  endfacet
  facet normal -0.125328 0 -0.992115
    outer loop
      vertex 20.1727 0 17.7446
      vertex 20.5153 10 17.7013
      vertex 20.5153 0 17.7013
    endloop
  endfacet
  facet normal -0.125328 0 -0.992115
    outer loop
      vertex 20.5153 10 17.7013
      vertex 20.1727 0 17.7446
      vertex 20.1727 10 17.7446
    endloop
  endfacet
  facet normal 0.982287 0 -0.187383
    outer loop
      vertex 17.3364 0 15.6839
      vertex 17.2717 10 15.3447
      vertex 17.3364 10 15.6839
    endloop
  endfacet
  facet normal 0.982287 0 -0.187383
    outer loop
      vertex 17.2717 10 15.3447
      vertex 17.3364 0 15.6839
      vertex 17.2717 0 15.3447
    endloop
  endfacet
  facet normal 0.904827 0 -0.425779
    outer loop
      vertex 17.5902 0 16.3248
      vertex 17.4431 10 16.0123
      vertex 17.5902 10 16.3248
    endloop
  endfacet
  facet normal 0.904827 0 -0.425779
    outer loop
      vertex 17.4431 10 16.0123
      vertex 17.5902 0 16.3248
      vertex 17.4431 0 16.0123
    endloop
  endfacet
  facet normal 0.248689 0 -0.968583
    outer loop
      vertex 19.1502 0 17.6154
      vertex 19.4847 10 17.7013
      vertex 19.4847 0 17.7013
    endloop
  endfacet
  facet normal 0.248689 0 -0.968583
    outer loop
      vertex 19.4847 10 17.7013
      vertex 19.1502 0 17.6154
      vertex 19.1502 10 17.6154
    endloop
  endfacet
  facet normal -0.951057 0 0.309016
    outer loop
      vertex 22.5569 0 13.9877
      vertex 22.6636 10 14.3161
      vertex 22.5569 10 13.9877
    endloop
  endfacet
  facet normal -0.951057 0 0.309016
    outer loop
      vertex 22.6636 10 14.3161
      vertex 22.5569 0 13.9877
      vertex 22.6636 0 14.3161
    endloop
  endfacet
  facet normal -0.770514 0 0.637424
    outer loop
      vertex 22.0047 0 13.1175
      vertex 22.2248 10 13.3836
      vertex 22.0047 10 13.1175
    endloop
  endfacet
  facet normal -0.770514 0 0.637424
    outer loop
      vertex 22.2248 10 13.3836
      vertex 22.0047 0 13.1175
      vertex 22.2248 0 13.3836
    endloop
  endfacet
  facet normal -0.125333 0 0.992115
    outer loop
      vertex 20.1727 10 12.2554
      vertex 20.5153 0 12.2987
      vertex 20.5153 10 12.2987
    endloop
  endfacet
  facet normal -0.125333 0 0.992115
    outer loop
      vertex 20.5153 0 12.2987
      vertex 20.1727 10 12.2554
      vertex 20.1727 0 12.2554
    endloop
  endfacet
  facet normal -0.248688 0 0.968584
    outer loop
      vertex 20.5153 10 12.2987
      vertex 20.8498 0 12.3846
      vertex 20.8498 10 12.3846
    endloop
  endfacet
  facet normal -0.248688 0 0.968584
    outer loop
      vertex 20.8498 0 12.3846
      vertex 20.5153 10 12.2987
      vertex 20.5153 0 12.2987
    endloop
  endfacet
  facet normal -0.904827 0 -0.425779
    outer loop
      vertex 22.5569 0 16.0123
      vertex 22.4098 10 16.3248
      vertex 22.5569 10 16.0123
    endloop
  endfacet
  facet normal -0.904827 -0 -0.425779
    outer loop
      vertex 22.4098 10 16.3248
      vertex 22.5569 0 16.0123
      vertex 22.4098 0 16.3248
    endloop
  endfacet
  facet normal -0.684547 0 -0.728968
    outer loop
      vertex 21.7529 0 17.1189
      vertex 22.0047 10 16.8825
      vertex 22.0047 0 16.8825
    endloop
  endfacet
  facet normal -0.684547 0 -0.728968
    outer loop
      vertex 22.0047 10 16.8825
      vertex 21.7529 0 17.1189
      vertex 21.7529 10 17.1189
    endloop
  endfacet
  facet normal -0.481754 0 -0.876306
    outer loop
      vertex 21.1709 0 17.4883
      vertex 21.4735 10 17.3219
      vertex 21.4735 0 17.3219
    endloop
  endfacet
  facet normal -0.481754 0 -0.876306
    outer loop
      vertex 21.4735 10 17.3219
      vertex 21.1709 0 17.4883
      vertex 21.1709 10 17.4883
    endloop
  endfacet
  facet normal -0.368128 0 -0.929775
    outer loop
      vertex 20.8498 0 17.6154
      vertex 21.1709 10 17.4883
      vertex 21.1709 0 17.4883
    endloop
  endfacet
  facet normal -0.368128 0 -0.929775
    outer loop
      vertex 21.1709 10 17.4883
      vertex 20.8498 0 17.6154
      vertex 20.8498 10 17.6154
    endloop
  endfacet
  facet normal 0.998027 0 -0.0627854
    outer loop
      vertex 17.2717 0 15.3447
      vertex 17.25 10 15
      vertex 17.2717 10 15.3447
    endloop
  endfacet
  facet normal 0.998027 0 -0.0627854
    outer loop
      vertex 17.25 10 15
      vertex 17.2717 0 15.3447
      vertex 17.25 0 15
    endloop
  endfacet
  facet normal 0.844328 0 -0.535827
    outer loop
      vertex 17.7752 0 16.6164
      vertex 17.5902 10 16.3248
      vertex 17.7752 10 16.6164
    endloop
  endfacet
  facet normal 0.844328 0 -0.535827
    outer loop
      vertex 17.5902 10 16.3248
      vertex 17.7752 0 16.6164
      vertex 17.5902 0 16.3248
    endloop
  endfacet
  facet normal 0.368126 0 -0.929776
    outer loop
      vertex 18.8291 0 17.4883
      vertex 19.1502 10 17.6154
      vertex 19.1502 0 17.6154
    endloop
  endfacet
  facet normal 0.368126 0 -0.929776
    outer loop
      vertex 19.1502 10 17.6154
      vertex 18.8291 0 17.4883
      vertex 18.8291 10 17.4883
    endloop
  endfacet
  facet normal 0.587784 0 -0.809018
    outer loop
      vertex 18.2471 0 17.1189
      vertex 18.5265 10 17.3219
      vertex 18.5265 0 17.3219
    endloop
  endfacet
  facet normal 0.587784 0 -0.809018
    outer loop
      vertex 18.5265 10 17.3219
      vertex 18.2471 0 17.1189
      vertex 18.2471 10 17.1189
    endloop
  endfacet
  facet normal 0.684547 0 -0.728968
    outer loop
      vertex 17.9953 0 16.8825
      vertex 18.2471 10 17.1189
      vertex 18.2471 0 17.1189
    endloop
  endfacet
  facet normal 0.684547 0 -0.728968
    outer loop
      vertex 18.2471 10 17.1189
      vertex 17.9953 0 16.8825
      vertex 17.9953 10 16.8825
    endloop
  endfacet
  facet normal -0.998027 0 0.0627907
    outer loop
      vertex 22.7283 0 14.6553
      vertex 22.75 10 15
      vertex 22.7283 10 14.6553
    endloop
  endfacet
  facet normal -0.998027 0 0.0627907
    outer loop
      vertex 22.75 10 15
      vertex 22.7283 0 14.6553
      vertex 22.75 0 15
    endloop
  endfacet
  facet normal -0.587786 0 0.809017
    outer loop
      vertex 21.4735 10 12.6781
      vertex 21.7529 0 12.8811
      vertex 21.7529 10 12.8811
    endloop
  endfacet
  facet normal -0.587786 0 0.809017
    outer loop
      vertex 21.7529 0 12.8811
      vertex 21.4735 10 12.6781
      vertex 21.4735 0 12.6781
    endloop
  endfacet
  facet normal -0.844327 0 0.535828
    outer loop
      vertex 22.2248 0 13.3836
      vertex 22.4098 10 13.6752
      vertex 22.2248 10 13.3836
    endloop
  endfacet
  facet normal -0.844327 0 0.535828
    outer loop
      vertex 22.4098 10 13.6752
      vertex 22.2248 0 13.3836
      vertex 22.4098 0 13.6752
    endloop
  endfacet
  facet normal 0.248689 0 0.968583
    outer loop
      vertex 19.1502 10 12.3846
      vertex 19.4847 0 12.2987
      vertex 19.4847 10 12.2987
    endloop
  endfacet
  facet normal 0.248689 0 0.968583
    outer loop
      vertex 19.4847 0 12.2987
      vertex 19.1502 10 12.3846
      vertex 19.1502 0 12.3846
    endloop
  endfacet
  facet normal -0 0 1
    outer loop
      vertex 19.8273 10 12.2554
      vertex 20.1727 0 12.2554
      vertex 20.1727 10 12.2554
    endloop
  endfacet
  facet normal 0 0 1
    outer loop
      vertex 20.1727 0 12.2554
      vertex 19.8273 10 12.2554
      vertex 19.8273 0 12.2554
    endloop
  endfacet
  facet normal 0.982287 -0 0.187383
    outer loop
      vertex 17.2717 0 14.6553
      vertex 17.3364 10 14.3161
      vertex 17.2717 10 14.6553
    endloop
  endfacet
  facet normal 0.982287 0 0.187383
    outer loop
      vertex 17.3364 10 14.3161
      vertex 17.2717 0 14.6553
      vertex 17.3364 0 14.3161
    endloop
  endfacet
  facet normal 0.844327 -0 0.535828
    outer loop
      vertex 17.5902 0 13.6752
      vertex 17.7752 10 13.3836
      vertex 17.5902 10 13.6752
    endloop
  endfacet
  facet normal 0.844327 0 0.535828
    outer loop
      vertex 17.7752 10 13.3836
      vertex 17.5902 0 13.6752
      vertex 17.7752 0 13.3836
    endloop
  endfacet
  facet normal 0.904828 -0 0.425778
    outer loop
      vertex 17.4431 0 13.9877
      vertex 17.5902 10 13.6752
      vertex 17.4431 10 13.9877
    endloop
  endfacet
  facet normal 0.904828 0 0.425778
    outer loop
      vertex 17.5902 10 13.6752
      vertex 17.4431 0 13.9877
      vertex 17.5902 0 13.6752
    endloop
  endfacet
  facet normal 0.684544 0 0.728971
    outer loop
      vertex 17.9953 10 13.1175
      vertex 18.2471 0 12.8811
      vertex 18.2471 10 12.8811
    endloop
  endfacet
  facet normal 0.684544 0 0.728971
    outer loop
      vertex 18.2471 0 12.8811
      vertex 17.9953 10 13.1175
      vertex 17.9953 0 13.1175
    endloop
  endfacet
  facet normal -0.368126 0 0.929776
    outer loop
      vertex 20.8498 10 12.3846
      vertex 21.1709 0 12.5117
      vertex 21.1709 10 12.5117
    endloop
  endfacet
  facet normal -0.368126 0 0.929776
    outer loop
      vertex 21.1709 0 12.5117
      vertex 20.8498 10 12.3846
      vertex 20.8498 0 12.3846
    endloop
  endfacet
  facet normal -0.982287 0 -0.187383
    outer loop
      vertex 22.7283 0 15.3447
      vertex 22.6636 10 15.6839
      vertex 22.7283 10 15.3447
    endloop
  endfacet
  facet normal -0.982287 -0 -0.187383
    outer loop
      vertex 22.6636 10 15.6839
      vertex 22.7283 0 15.3447
      vertex 22.6636 0 15.6839
    endloop
  endfacet
  facet normal -0.951057 0 -0.309016
    outer loop
      vertex 22.6636 0 15.6839
      vertex 22.5569 10 16.0123
      vertex 22.6636 10 15.6839
    endloop
  endfacet
  facet normal -0.951057 -0 -0.309016
    outer loop
      vertex 22.5569 10 16.0123
      vertex 22.6636 0 15.6839
      vertex 22.5569 0 16.0123
    endloop
  endfacet
  facet normal -0.684544 0 0.728971
    outer loop
      vertex 21.7529 10 12.8811
      vertex 22.0047 0 13.1175
      vertex 22.0047 10 13.1175
    endloop
  endfacet
  facet normal -0.684544 0 0.728971
    outer loop
      vertex 22.0047 0 13.1175
      vertex 21.7529 10 12.8811
      vertex 21.7529 0 12.8811
    endloop
  endfacet
  facet normal -0.904828 0 0.425778
    outer loop
      vertex 22.4098 0 13.6752
      vertex 22.5569 10 13.9877
      vertex 22.4098 10 13.6752
    endloop
  endfacet
  facet normal -0.904828 0 0.425778
    outer loop
      vertex 22.5569 10 13.9877
      vertex 22.4098 0 13.6752
      vertex 22.5569 0 13.9877
    endloop
  endfacet
  facet normal 0.587786 0 0.809017
    outer loop
      vertex 18.2471 10 12.8811
      vertex 18.5265 0 12.6781
      vertex 18.5265 10 12.6781
    endloop
  endfacet
  facet normal 0.587786 0 0.809017
    outer loop
      vertex 18.5265 0 12.6781
      vertex 18.2471 10 12.8811
      vertex 18.2471 0 12.8811
    endloop
  endfacet
  facet normal 0.481754 0 0.876306
    outer loop
      vertex 18.5265 10 12.6781
      vertex 18.8291 0 12.5117
      vertex 18.8291 10 12.5117
    endloop
  endfacet
  facet normal 0.481754 0 0.876306
    outer loop
      vertex 18.8291 0 12.5117
      vertex 18.5265 10 12.6781
      vertex 18.5265 0 12.6781
    endloop
  endfacet
  facet normal 0.125333 0 0.992115
    outer loop
      vertex 19.4847 10 12.2987
      vertex 19.8273 0 12.2554
      vertex 19.8273 10 12.2554
    endloop
  endfacet
  facet normal 0.125333 0 0.992115
    outer loop
      vertex 19.8273 0 12.2554
      vertex 19.4847 10 12.2987
      vertex 19.4847 0 12.2987
    endloop
  endfacet
  facet normal 0.951055 -0 0.309021
    outer loop
      vertex 17.3364 0 14.3161
      vertex 17.4431 10 13.9877
      vertex 17.3364 10 14.3161
    endloop
  endfacet
  facet normal 0.951055 0 0.309021
    outer loop
      vertex 17.4431 10 13.9877
      vertex 17.3364 0 14.3161
      vertex 17.4431 0 13.9877
    endloop
  endfacet
  facet normal 0.770516 -0 0.63742
    outer loop
      vertex 17.7752 0 13.3836
      vertex 17.9953 10 13.1175
      vertex 17.7752 10 13.3836
    endloop
  endfacet
  facet normal 0.770516 0 0.63742
    outer loop
      vertex 17.9953 10 13.1175
      vertex 17.7752 0 13.3836
      vertex 17.9953 0 13.1175
    endloop
  endfacet
  facet normal 0.368124 0 0.929777
    outer loop
      vertex 18.8291 10 12.5117
      vertex 19.1502 0 12.3846
      vertex 19.1502 10 12.3846
    endloop
  endfacet
  facet normal 0.368124 0 0.929777
    outer loop
      vertex 19.1502 0 12.3846
      vertex 18.8291 10 12.5117
      vertex 18.8291 0 12.5117
    endloop
  endfacet
endsolid OpenSCAD_Model
