solid OpenSCAD_Model
  facet normal 1 0 0
    outer loop
      vertex 300 100.88 200.88
      vertex 300 100.44 200.44
      vertex 300 100.88 0
    endloop
  endfacet
  facet normal 1 0 0
    outer loop
      vertex 300 100.88 200.88
      vertex 300 0.44 200.44
      vertex 300 100.44 200.44
    endloop
  endfacet
  facet normal 1 -0 0
    outer loop
      vertex 300 0 200.88
      vertex 300 0.44 200.44
      vertex 300 100.88 200.88
    endloop
  endfacet
  facet normal 1 0 0
    outer loop
      vertex 300 0 0
      vertex 300 0.44 200.44
      vertex 300 0 200.88
    endloop
  endfacet
  facet normal 1 0 0
    outer loop
      vertex 300 0.44 200.44
      vertex 300 0 0
      vertex 300 0.44 0
    endloop
  endfacet
  facet normal 1 0 0
    outer loop
      vertex 300 100.88 0
      vertex 300 100.44 200.44
      vertex 300 100.44 0
    endloop
  endfacet
  facet normal -0 0 1
    outer loop
      vertex 0 100.88 200.88
      vertex 300 0 200.88
      vertex 300 100.88 200.88
    endloop
  endfacet
  facet normal 0 0 1
    outer loop
      vertex 300 0 200.88
      vertex 0 100.88 200.88
      vertex 0 0 200.88
    endloop
  endfacet
  facet normal 0 0 -1
    outer loop
      vertex 0 100.44 0
      vertex 300 100.88 0
      vertex 300 100.44 0
    endloop
  endfacet
  facet normal -0 0 -1
    outer loop
      vertex 300 100.88 0
      vertex 0 100.44 0
      vertex 0 100.88 0
    endloop
  endfacet
  facet normal 0 0 -1
    outer loop
      vertex 0 0 0
      vertex 300 0.44 0
      vertex 300 0 0
    endloop
  endfacet
  facet normal -0 0 -1
    outer loop
      vertex 300 0.44 0
      vertex 0 0 0
      vertex 0 0.44 0
    endloop
  endfacet
  facet normal -1 0 0
    outer loop
      vertex 0 0.44 0
      vertex 0 0 0
      vertex 0 0.44 200.44
    endloop
  endfacet
  facet normal -1 0 0
    outer loop
      vertex 0 100.44 200.44
      vertex 0 100.88 0
      vertex 0 100.44 0
    endloop
  endfacet
  facet normal -1 0 0
    outer loop
      vertex 0 100.88 0
      vertex 0 100.44 200.44
      vertex 0 100.88 200.88
    endloop
  endfacet
  facet normal -1 0 0
    outer loop
      vertex 0 0.44 200.44
      vertex 0 100.88 200.88
      vertex 0 100.44 200.44
    endloop
  endfacet
  facet normal -1 0 0
    outer loop
      vertex 0 0.44 200.44
      vertex 0 0 200.88
      vertex 0 100.88 200.88
    endloop
  endfacet
  facet normal -1 0 0
    outer loop
      vertex 0 0 200.88
      vertex 0 0.44 200.44
      vertex 0 0 0
    endloop
  endfacet
  facet normal 0 1 0
    outer loop
      vertex 300 100.88 200.88
      vertex 154.709 100.88 174.852
      vertex 0 100.88 200.88
    endloop
  endfacet
  facet normal 0 1 0
    outer loop
      vertex 300 100.88 200.88
      vertex 164.054 100.88 173.672
      vertex 154.709 100.88 174.852
    endloop
  endfacet
  facet normal 0 1 0
    outer loop
      vertex 300 100.88 200.88
      vertex 173.176 100.88 171.329
      vertex 164.054 100.88 173.672
    endloop
  endfacet
  facet normal 0 1 0
    outer loop
      vertex 300 100.88 200.88
      vertex 181.933 100.88 167.862
      vertex 173.176 100.88 171.329
    endloop
  endfacet
  facet normal 0 1 0
    outer loop
      vertex 300 100.88 200.88
      vertex 190.187 100.88 163.325
      vertex 181.933 100.88 167.862
    endloop
  endfacet
  facet normal 0 1 0
    outer loop
      vertex 300 100.88 200.88
      vertex 197.807 100.88 157.788
      vertex 190.187 100.88 163.325
    endloop
  endfacet
  facet normal 0 1 0
    outer loop
      vertex 300 100.88 200.88
      vertex 204.673 100.88 151.341
      vertex 197.807 100.88 157.788
    endloop
  endfacet
  facet normal 0 1 0
    outer loop
      vertex 300 100.88 200.88
      vertex 210.676 100.88 144.084
      vertex 204.673 100.88 151.341
    endloop
  endfacet
  facet normal 0 1 0
    outer loop
      vertex 300 100.88 200.88
      vertex 215.723 100.88 136.132
      vertex 210.676 100.88 144.084
    endloop
  endfacet
  facet normal 0 1 0
    outer loop
      vertex 300 100.88 200.88
      vertex 219.733 100.88 127.609
      vertex 215.723 100.88 136.132
    endloop
  endfacet
  facet normal 0 1 0
    outer loop
      vertex 300 100.88 200.88
      vertex 222.644 100.88 118.652
      vertex 219.733 100.88 127.609
    endloop
  endfacet
  facet normal 0 1 0
    outer loop
      vertex 300 100.88 200.88
      vertex 224.409 100.88 109.4
      vertex 222.644 100.88 118.652
    endloop
  endfacet
  facet normal 0 1 0
    outer loop
      vertex 300 100.88 200.88
      vertex 225 100.88 100
      vertex 224.409 100.88 109.4
    endloop
  endfacet
  facet normal 0 1 -0
    outer loop
      vertex 300 100.88 0
      vertex 225 100.88 100
      vertex 300 100.88 200.88
    endloop
  endfacet
  facet normal 0 1 0
    outer loop
      vertex 225 100.88 100
      vertex 300 100.88 0
      vertex 224.409 100.88 90.6
    endloop
  endfacet
  facet normal 0 1 0
    outer loop
      vertex 224.409 100.88 90.6
      vertex 300 100.88 0
      vertex 222.644 100.88 81.3483
    endloop
  endfacet
  facet normal 0 1 0
    outer loop
      vertex 222.644 100.88 81.3483
      vertex 300 100.88 0
      vertex 219.733 100.88 72.3907
    endloop
  endfacet
  facet normal 0 1 0
    outer loop
      vertex 154.709 100.88 25.148
      vertex 300 100.88 0
      vertex 145.291 100.88 25.148
    endloop
  endfacet
  facet normal 0 1 0
    outer loop
      vertex 164.054 100.88 26.3285
      vertex 300 100.88 0
      vertex 154.709 100.88 25.148
    endloop
  endfacet
  facet normal 0 1 0
    outer loop
      vertex 173.176 100.88 28.6708
      vertex 300 100.88 0
      vertex 164.054 100.88 26.3285
    endloop
  endfacet
  facet normal 0 1 0
    outer loop
      vertex 181.933 100.88 32.138
      vertex 300 100.88 0
      vertex 173.176 100.88 28.6708
    endloop
  endfacet
  facet normal 0 1 0
    outer loop
      vertex 190.187 100.88 36.6754
      vertex 300 100.88 0
      vertex 181.933 100.88 32.138
    endloop
  endfacet
  facet normal 0 1 0
    outer loop
      vertex 197.807 100.88 42.2115
      vertex 300 100.88 0
      vertex 190.187 100.88 36.6754
    endloop
  endfacet
  facet normal 0 1 0
    outer loop
      vertex 204.673 100.88 48.659
      vertex 300 100.88 0
      vertex 197.807 100.88 42.2115
    endloop
  endfacet
  facet normal 0 1 0
    outer loop
      vertex 210.676 100.88 55.9161
      vertex 300 100.88 0
      vertex 204.673 100.88 48.659
    endloop
  endfacet
  facet normal 0 1 0
    outer loop
      vertex 215.723 100.88 63.8685
      vertex 300 100.88 0
      vertex 210.676 100.88 55.9161
    endloop
  endfacet
  facet normal 0 1 0
    outer loop
      vertex 219.733 100.88 72.3907
      vertex 300 100.88 0
      vertex 215.723 100.88 63.8685
    endloop
  endfacet
  facet normal 0 1 -0
    outer loop
      vertex 145.291 100.88 174.852
      vertex 0 100.88 200.88
      vertex 154.709 100.88 174.852
    endloop
  endfacet
  facet normal 0 1 -0
    outer loop
      vertex 135.946 100.88 173.672
      vertex 0 100.88 200.88
      vertex 145.291 100.88 174.852
    endloop
  endfacet
  facet normal 0 1 -0
    outer loop
      vertex 126.824 100.88 171.329
      vertex 0 100.88 200.88
      vertex 135.946 100.88 173.672
    endloop
  endfacet
  facet normal 0 1 -0
    outer loop
      vertex 118.067 100.88 167.862
      vertex 0 100.88 200.88
      vertex 126.824 100.88 171.329
    endloop
  endfacet
  facet normal 0 1 -0
    outer loop
      vertex 109.813 100.88 163.325
      vertex 0 100.88 200.88
      vertex 118.067 100.88 167.862
    endloop
  endfacet
  facet normal 0 1 -0
    outer loop
      vertex 102.193 100.88 157.788
      vertex 0 100.88 200.88
      vertex 109.813 100.88 163.325
    endloop
  endfacet
  facet normal 0 1 -0
    outer loop
      vertex 95.3274 100.88 151.341
      vertex 0 100.88 200.88
      vertex 102.193 100.88 157.788
    endloop
  endfacet
  facet normal 0 1 -0
    outer loop
      vertex 89.3237 100.88 144.084
      vertex 0 100.88 200.88
      vertex 95.3274 100.88 151.341
    endloop
  endfacet
  facet normal 0 1 -0
    outer loop
      vertex 84.277 100.88 136.132
      vertex 0 100.88 200.88
      vertex 89.3237 100.88 144.084
    endloop
  endfacet
  facet normal 0 1 -0
    outer loop
      vertex 80.2668 100.88 127.609
      vertex 0 100.88 200.88
      vertex 84.277 100.88 136.132
    endloop
  endfacet
  facet normal 0 1 -0
    outer loop
      vertex 77.3563 100.88 118.652
      vertex 0 100.88 200.88
      vertex 80.2668 100.88 127.609
    endloop
  endfacet
  facet normal 0 1 -0
    outer loop
      vertex 75.5914 100.88 109.4
      vertex 0 100.88 200.88
      vertex 77.3563 100.88 118.652
    endloop
  endfacet
  facet normal 0 1 -0
    outer loop
      vertex 75 100.88 100
      vertex 0 100.88 200.88
      vertex 75.5914 100.88 109.4
    endloop
  endfacet
  facet normal 0 1 0
    outer loop
      vertex 0 100.88 0
      vertex 75 100.88 100
      vertex 75.5914 100.88 90.6
    endloop
  endfacet
  facet normal 0 1 0
    outer loop
      vertex 0 100.88 0
      vertex 75.5914 100.88 90.6
      vertex 77.3563 100.88 81.3483
    endloop
  endfacet
  facet normal 0 1 0
    outer loop
      vertex 0 100.88 0
      vertex 77.3563 100.88 81.3483
      vertex 80.2668 100.88 72.3907
    endloop
  endfacet
  facet normal 0 1 0
    outer loop
      vertex 0 100.88 0
      vertex 80.2668 100.88 72.3907
      vertex 84.277 100.88 63.8685
    endloop
  endfacet
  facet normal 0 1 0
    outer loop
      vertex 0 100.88 0
      vertex 145.291 100.88 25.148
      vertex 300 100.88 0
    endloop
  endfacet
  facet normal 0 1 0
    outer loop
      vertex 75 100.88 100
      vertex 0 100.88 0
      vertex 0 100.88 200.88
    endloop
  endfacet
  facet normal 0 1 0
    outer loop
      vertex 89.3237 100.88 55.9161
      vertex 0 100.88 0
      vertex 84.277 100.88 63.8685
    endloop
  endfacet
  facet normal 0 1 0
    outer loop
      vertex 95.3274 100.88 48.659
      vertex 0 100.88 0
      vertex 89.3237 100.88 55.9161
    endloop
  endfacet
  facet normal 0 1 0
    outer loop
      vertex 102.193 100.88 42.2115
      vertex 0 100.88 0
      vertex 95.3274 100.88 48.659
    endloop
  endfacet
  facet normal 0 1 0
    outer loop
      vertex 109.813 100.88 36.6754
      vertex 0 100.88 0
      vertex 102.193 100.88 42.2115
    endloop
  endfacet
  facet normal 0 1 0
    outer loop
      vertex 118.067 100.88 32.138
      vertex 0 100.88 0
      vertex 109.813 100.88 36.6754
    endloop
  endfacet
  facet normal 0 1 0
    outer loop
      vertex 126.824 100.88 28.6708
      vertex 0 100.88 0
      vertex 118.067 100.88 32.138
    endloop
  endfacet
  facet normal 0 1 0
    outer loop
      vertex 135.946 100.88 26.3285
      vertex 0 100.88 0
      vertex 126.824 100.88 28.6708
    endloop
  endfacet
  facet normal 0 1 0
    outer loop
      vertex 145.291 100.88 25.148
      vertex 0 100.88 0
      vertex 135.946 100.88 26.3285
    endloop
  endfacet
  facet normal 0 -1 0
    outer loop
      vertex 0 0 200.88
      vertex 145.291 0 174.852
      vertex 300 0 200.88
    endloop
  endfacet
  facet normal 0 -1 0
    outer loop
      vertex 0 0 200.88
      vertex 135.946 0 173.672
      vertex 145.291 0 174.852
    endloop
  endfacet
  facet normal 0 -1 0
    outer loop
      vertex 0 0 200.88
      vertex 126.824 0 171.329
      vertex 135.946 0 173.672
    endloop
  endfacet
  facet normal 0 -1 0
    outer loop
      vertex 0 0 200.88
      vertex 118.067 0 167.862
      vertex 126.824 0 171.329
    endloop
  endfacet
  facet normal 0 -1 0
    outer loop
      vertex 0 0 200.88
      vertex 109.813 0 163.325
      vertex 118.067 0 167.862
    endloop
  endfacet
  facet normal 0 -1 0
    outer loop
      vertex 0 0 200.88
      vertex 102.193 0 157.788
      vertex 109.813 0 163.325
    endloop
  endfacet
  facet normal 0 -1 0
    outer loop
      vertex 0 0 200.88
      vertex 95.3274 0 151.341
      vertex 102.193 0 157.788
    endloop
  endfacet
  facet normal 0 -1 0
    outer loop
      vertex 0 0 200.88
      vertex 89.3237 0 144.084
      vertex 95.3274 0 151.341
    endloop
  endfacet
  facet normal 0 -1 0
    outer loop
      vertex 0 0 200.88
      vertex 84.277 0 136.132
      vertex 89.3237 0 144.084
    endloop
  endfacet
  facet normal 0 -1 0
    outer loop
      vertex 0 0 200.88
      vertex 80.2668 0 127.609
      vertex 84.277 0 136.132
    endloop
  endfacet
  facet normal 0 -1 0
    outer loop
      vertex 0 0 200.88
      vertex 77.3563 0 118.652
      vertex 80.2668 0 127.609
    endloop
  endfacet
  facet normal 0 -1 0
    outer loop
      vertex 0 0 200.88
      vertex 75.5914 0 109.4
      vertex 77.3563 0 118.652
    endloop
  endfacet
  facet normal 0 -1 0
    outer loop
      vertex 0 0 200.88
      vertex 75 0 100
      vertex 75.5914 0 109.4
    endloop
  endfacet
  facet normal 0 -1 0
    outer loop
      vertex 0 0 0
      vertex 75 0 100
      vertex 0 0 200.88
    endloop
  endfacet
  facet normal 0 -1 -0
    outer loop
      vertex 75 0 100
      vertex 0 0 0
      vertex 75.5914 0 90.6
    endloop
  endfacet
  facet normal 0 -1 -0
    outer loop
      vertex 75.5914 0 90.6
      vertex 0 0 0
      vertex 77.3563 0 81.3483
    endloop
  endfacet
  facet normal 0 -1 -0
    outer loop
      vertex 77.3563 0 81.3483
      vertex 0 0 0
      vertex 80.2668 0 72.3907
    endloop
  endfacet
  facet normal 0 -1 -0
    outer loop
      vertex 145.291 0 25.148
      vertex 0 0 0
      vertex 154.709 0 25.148
    endloop
  endfacet
  facet normal 0 -1 -0
    outer loop
      vertex 135.946 0 26.3285
      vertex 0 0 0
      vertex 145.291 0 25.148
    endloop
  endfacet
  facet normal 0 -1 -0
    outer loop
      vertex 126.824 0 28.6708
      vertex 0 0 0
      vertex 135.946 0 26.3285
    endloop
  endfacet
  facet normal 0 -1 -0
    outer loop
      vertex 118.067 0 32.138
      vertex 0 0 0
      vertex 126.824 0 28.6708
    endloop
  endfacet
  facet normal 0 -1 -0
    outer loop
      vertex 109.813 0 36.6754
      vertex 0 0 0
      vertex 118.067 0 32.138
    endloop
  endfacet
  facet normal 0 -1 -0
    outer loop
      vertex 102.193 0 42.2115
      vertex 0 0 0
      vertex 109.813 0 36.6754
    endloop
  endfacet
  facet normal 0 -1 -0
    outer loop
      vertex 95.3274 0 48.659
      vertex 0 0 0
      vertex 102.193 0 42.2115
    endloop
  endfacet
  facet normal 0 -1 -0
    outer loop
      vertex 89.3237 0 55.9161
      vertex 0 0 0
      vertex 95.3274 0 48.659
    endloop
  endfacet
  facet normal 0 -1 -0
    outer loop
      vertex 84.277 0 63.8685
      vertex 0 0 0
      vertex 89.3237 0 55.9161
    endloop
  endfacet
  facet normal 0 -1 -0
    outer loop
      vertex 80.2668 0 72.3907
      vertex 0 0 0
      vertex 84.277 0 63.8685
    endloop
  endfacet
  facet normal 0 -1 0
    outer loop
      vertex 154.709 0 174.852
      vertex 300 0 200.88
      vertex 145.291 0 174.852
    endloop
  endfacet
  facet normal 0 -1 0
    outer loop
      vertex 164.054 0 173.672
      vertex 300 0 200.88
      vertex 154.709 0 174.852
    endloop
  endfacet
  facet normal 0 -1 0
    outer loop
      vertex 173.176 0 171.329
      vertex 300 0 200.88
      vertex 164.054 0 173.672
    endloop
  endfacet
  facet normal 0 -1 0
    outer loop
      vertex 181.933 0 167.862
      vertex 300 0 200.88
      vertex 173.176 0 171.329
    endloop
  endfacet
  facet normal 0 -1 0
    outer loop
      vertex 190.187 0 163.325
      vertex 300 0 200.88
      vertex 181.933 0 167.862
    endloop
  endfacet
  facet normal 0 -1 0
    outer loop
      vertex 197.807 0 157.788
      vertex 300 0 200.88
      vertex 190.187 0 163.325
    endloop
  endfacet
  facet normal 0 -1 0
    outer loop
      vertex 204.673 0 151.341
      vertex 300 0 200.88
      vertex 197.807 0 157.788
    endloop
  endfacet
  facet normal 0 -1 0
    outer loop
      vertex 210.676 0 144.084
      vertex 300 0 200.88
      vertex 204.673 0 151.341
    endloop
  endfacet
  facet normal 0 -1 0
    outer loop
      vertex 215.723 0 136.132
      vertex 300 0 200.88
      vertex 210.676 0 144.084
    endloop
  endfacet
  facet normal 0 -1 0
    outer loop
      vertex 219.733 0 127.609
      vertex 300 0 200.88
      vertex 215.723 0 136.132
    endloop
  endfacet
  facet normal 0 -1 0
    outer loop
      vertex 222.644 0 118.652
      vertex 300 0 200.88
      vertex 219.733 0 127.609
    endloop
  endfacet
  facet normal 0 -1 0
    outer loop
      vertex 224.409 0 109.4
      vertex 300 0 200.88
      vertex 222.644 0 118.652
    endloop
  endfacet
  facet normal 0 -1 0
    outer loop
      vertex 225 0 100
      vertex 300 0 200.88
      vertex 224.409 0 109.4
    endloop
  endfacet
  facet normal 0 -1 0
    outer loop
      vertex 300 0 0
      vertex 225 0 100
      vertex 224.409 0 90.6
    endloop
  endfacet
  facet normal 0 -1 0
    outer loop
      vertex 300 0 0
      vertex 224.409 0 90.6
      vertex 222.644 0 81.3483
    endloop
  endfacet
  facet normal 0 -1 0
    outer loop
      vertex 300 0 0
      vertex 222.644 0 81.3483
      vertex 219.733 0 72.3907
    endloop
  endfacet
  facet normal 0 -1 0
    outer loop
      vertex 300 0 0
      vertex 219.733 0 72.3907
      vertex 215.723 0 63.8685
    endloop
  endfacet
  facet normal 0 -1 0
    outer loop
      vertex 300 0 0
      vertex 154.709 0 25.148
      vertex 0 0 0
    endloop
  endfacet
  facet normal 0 -1 0
    outer loop
      vertex 225 0 100
      vertex 300 0 0
      vertex 300 0 200.88
    endloop
  endfacet
  facet normal 0 -1 0
    outer loop
      vertex 210.676 0 55.9161
      vertex 300 0 0
      vertex 215.723 0 63.8685
    endloop
  endfacet
  facet normal 0 -1 0
    outer loop
      vertex 204.673 0 48.659
      vertex 300 0 0
      vertex 210.676 0 55.9161
    endloop
  endfacet
  facet normal 0 -1 0
    outer loop
      vertex 197.807 0 42.2115
      vertex 300 0 0
      vertex 204.673 0 48.659
    endloop
  endfacet
  facet normal 0 -1 0
    outer loop
      vertex 190.187 0 36.6754
      vertex 300 0 0
      vertex 197.807 0 42.2115
    endloop
  endfacet
  facet normal 0 -1 0
    outer loop
      vertex 181.933 0 32.138
      vertex 300 0 0
      vertex 190.187 0 36.6754
    endloop
  endfacet
  facet normal 0 -1 0
    outer loop
      vertex 173.176 0 28.6708
      vertex 300 0 0
      vertex 181.933 0 32.138
    endloop
  endfacet
  facet normal 0 -1 0
    outer loop
      vertex 164.054 0 26.3285
      vertex 300 0 0
      vertex 173.176 0 28.6708
    endloop
  endfacet
  facet normal 0 -1 0
    outer loop
      vertex 154.709 0 25.148
      vertex 300 0 0
      vertex 164.054 0 26.3285
    endloop
  endfacet
  facet normal 0 0 -1
    outer loop
      vertex 0 0.44 200.44
      vertex 300 100.44 200.44
      vertex 300 0.44 200.44
    endloop
  endfacet
  facet normal -0 0 -1
    outer loop
      vertex 300 100.44 200.44
      vertex 0 0.44 200.44
      vertex 0 100.44 200.44
    endloop
  endfacet
  facet normal 0 -1 0
    outer loop
      vertex 0 100.44 200.44
      vertex 145.291 100.44 174.852
      vertex 300 100.44 200.44
    endloop
  endfacet
  facet normal 0 -1 0
    outer loop
      vertex 0 100.44 200.44
      vertex 135.946 100.44 173.672
      vertex 145.291 100.44 174.852
    endloop
  endfacet
  facet normal 0 -1 0
    outer loop
      vertex 0 100.44 200.44
      vertex 126.824 100.44 171.329
      vertex 135.946 100.44 173.672
    endloop
  endfacet
  facet normal 0 -1 0
    outer loop
      vertex 0 100.44 200.44
      vertex 118.067 100.44 167.862
      vertex 126.824 100.44 171.329
    endloop
  endfacet
  facet normal 0 -1 0
    outer loop
      vertex 0 100.44 200.44
      vertex 109.813 100.44 163.325
      vertex 118.067 100.44 167.862
    endloop
  endfacet
  facet normal 0 -1 0
    outer loop
      vertex 0 100.44 200.44
      vertex 102.193 100.44 157.788
      vertex 109.813 100.44 163.325
    endloop
  endfacet
  facet normal 0 -1 0
    outer loop
      vertex 0 100.44 200.44
      vertex 95.3274 100.44 151.341
      vertex 102.193 100.44 157.788
    endloop
  endfacet
  facet normal 0 -1 0
    outer loop
      vertex 0 100.44 200.44
      vertex 89.3237 100.44 144.084
      vertex 95.3274 100.44 151.341
    endloop
  endfacet
  facet normal 0 -1 0
    outer loop
      vertex 0 100.44 200.44
      vertex 84.277 100.44 136.132
      vertex 89.3237 100.44 144.084
    endloop
  endfacet
  facet normal 0 -1 0
    outer loop
      vertex 0 100.44 200.44
      vertex 80.2668 100.44 127.609
      vertex 84.277 100.44 136.132
    endloop
  endfacet
  facet normal 0 -1 0
    outer loop
      vertex 0 100.44 200.44
      vertex 77.3563 100.44 118.652
      vertex 80.2668 100.44 127.609
    endloop
  endfacet
  facet normal 0 -1 0
    outer loop
      vertex 0 100.44 200.44
      vertex 75.5914 100.44 109.4
      vertex 77.3563 100.44 118.652
    endloop
  endfacet
  facet normal 0 -1 0
    outer loop
      vertex 0 100.44 200.44
      vertex 75 100.44 100
      vertex 75.5914 100.44 109.4
    endloop
  endfacet
  facet normal 0 -1 0
    outer loop
      vertex 0 100.44 0
      vertex 75 100.44 100
      vertex 0 100.44 200.44
    endloop
  endfacet
  facet normal 0 -1 -0
    outer loop
      vertex 75 100.44 100
      vertex 0 100.44 0
      vertex 75.5914 100.44 90.6
    endloop
  endfacet
  facet normal 0 -1 -0
    outer loop
      vertex 75.5914 100.44 90.6
      vertex 0 100.44 0
      vertex 77.3563 100.44 81.3483
    endloop
  endfacet
  facet normal 0 -1 -0
    outer loop
      vertex 77.3563 100.44 81.3483
      vertex 0 100.44 0
      vertex 80.2668 100.44 72.3907
    endloop
  endfacet
  facet normal 0 -1 -0
    outer loop
      vertex 145.291 100.44 25.148
      vertex 0 100.44 0
      vertex 154.709 100.44 25.148
    endloop
  endfacet
  facet normal 0 -1 -0
    outer loop
      vertex 135.946 100.44 26.3285
      vertex 0 100.44 0
      vertex 145.291 100.44 25.148
    endloop
  endfacet
  facet normal 0 -1 -0
    outer loop
      vertex 126.824 100.44 28.6708
      vertex 0 100.44 0
      vertex 135.946 100.44 26.3285
    endloop
  endfacet
  facet normal 0 -1 -0
    outer loop
      vertex 118.067 100.44 32.138
      vertex 0 100.44 0
      vertex 126.824 100.44 28.6708
    endloop
  endfacet
  facet normal 0 -1 -0
    outer loop
      vertex 109.813 100.44 36.6754
      vertex 0 100.44 0
      vertex 118.067 100.44 32.138
    endloop
  endfacet
  facet normal 0 -1 -0
    outer loop
      vertex 102.193 100.44 42.2115
      vertex 0 100.44 0
      vertex 109.813 100.44 36.6754
    endloop
  endfacet
  facet normal 0 -1 -0
    outer loop
      vertex 95.3274 100.44 48.659
      vertex 0 100.44 0
      vertex 102.193 100.44 42.2115
    endloop
  endfacet
  facet normal 0 -1 -0
    outer loop
      vertex 89.3237 100.44 55.9161
      vertex 0 100.44 0
      vertex 95.3274 100.44 48.659
    endloop
  endfacet
  facet normal 0 -1 -0
    outer loop
      vertex 84.277 100.44 63.8685
      vertex 0 100.44 0
      vertex 89.3237 100.44 55.9161
    endloop
  endfacet
  facet normal 0 -1 -0
    outer loop
      vertex 80.2668 100.44 72.3907
      vertex 0 100.44 0
      vertex 84.277 100.44 63.8685
    endloop
  endfacet
  facet normal 0 -1 0
    outer loop
      vertex 154.709 100.44 174.852
      vertex 300 100.44 200.44
      vertex 145.291 100.44 174.852
    endloop
  endfacet
  facet normal 0 -1 0
    outer loop
      vertex 164.054 100.44 173.672
      vertex 300 100.44 200.44
      vertex 154.709 100.44 174.852
    endloop
  endfacet
  facet normal 0 -1 0
    outer loop
      vertex 173.176 100.44 171.329
      vertex 300 100.44 200.44
      vertex 164.054 100.44 173.672
    endloop
  endfacet
  facet normal 0 -1 0
    outer loop
      vertex 181.933 100.44 167.862
      vertex 300 100.44 200.44
      vertex 173.176 100.44 171.329
    endloop
  endfacet
  facet normal 0 -1 0
    outer loop
      vertex 190.187 100.44 163.325
      vertex 300 100.44 200.44
      vertex 181.933 100.44 167.862
    endloop
  endfacet
  facet normal 0 -1 0
    outer loop
      vertex 197.807 100.44 157.788
      vertex 300 100.44 200.44
      vertex 190.187 100.44 163.325
    endloop
  endfacet
  facet normal 0 -1 0
    outer loop
      vertex 204.673 100.44 151.341
      vertex 300 100.44 200.44
      vertex 197.807 100.44 157.788
    endloop
  endfacet
  facet normal 0 -1 0
    outer loop
      vertex 210.676 100.44 144.084
      vertex 300 100.44 200.44
      vertex 204.673 100.44 151.341
    endloop
  endfacet
  facet normal 0 -1 0
    outer loop
      vertex 215.723 100.44 136.132
      vertex 300 100.44 200.44
      vertex 210.676 100.44 144.084
    endloop
  endfacet
  facet normal 0 -1 0
    outer loop
      vertex 219.733 100.44 127.609
      vertex 300 100.44 200.44
      vertex 215.723 100.44 136.132
    endloop
  endfacet
  facet normal 0 -1 0
    outer loop
      vertex 222.644 100.44 118.652
      vertex 300 100.44 200.44
      vertex 219.733 100.44 127.609
    endloop
  endfacet
  facet normal 0 -1 0
    outer loop
      vertex 224.409 100.44 109.4
      vertex 300 100.44 200.44
      vertex 222.644 100.44 118.652
    endloop
  endfacet
  facet normal 0 -1 0
    outer loop
      vertex 225 100.44 100
      vertex 300 100.44 200.44
      vertex 224.409 100.44 109.4
    endloop
  endfacet
  facet normal 0 -1 0
    outer loop
      vertex 300 100.44 0
      vertex 225 100.44 100
      vertex 224.409 100.44 90.6
    endloop
  endfacet
  facet normal 0 -1 0
    outer loop
      vertex 300 100.44 0
      vertex 224.409 100.44 90.6
      vertex 222.644 100.44 81.3483
    endloop
  endfacet
  facet normal 0 -1 0
    outer loop
      vertex 300 100.44 0
      vertex 222.644 100.44 81.3483
      vertex 219.733 100.44 72.3907
    endloop
  endfacet
  facet normal 0 -1 0
    outer loop
      vertex 300 100.44 0
      vertex 219.733 100.44 72.3907
      vertex 215.723 100.44 63.8685
    endloop
  endfacet
  facet normal 0 -1 0
    outer loop
      vertex 300 100.44 0
      vertex 154.709 100.44 25.148
      vertex 0 100.44 0
    endloop
  endfacet
  facet normal 0 -1 0
    outer loop
      vertex 225 100.44 100
      vertex 300 100.44 0
      vertex 300 100.44 200.44
    endloop
  endfacet
  facet normal 0 -1 0
    outer loop
      vertex 210.676 100.44 55.9161
      vertex 300 100.44 0
      vertex 215.723 100.44 63.8685
    endloop
  endfacet
  facet normal 0 -1 0
    outer loop
      vertex 204.673 100.44 48.659
      vertex 300 100.44 0
      vertex 210.676 100.44 55.9161
    endloop
  endfacet
  facet normal 0 -1 0
    outer loop
      vertex 197.807 100.44 42.2115
      vertex 300 100.44 0
      vertex 204.673 100.44 48.659
    endloop
  endfacet
  facet normal 0 -1 0
    outer loop
      vertex 190.187 100.44 36.6754
      vertex 300 100.44 0
      vertex 197.807 100.44 42.2115
    endloop
  endfacet
  facet normal 0 -1 0
    outer loop
      vertex 181.933 100.44 32.138
      vertex 300 100.44 0
      vertex 190.187 100.44 36.6754
    endloop
  endfacet
  facet normal 0 -1 0
    outer loop
      vertex 173.176 100.44 28.6708
      vertex 300 100.44 0
      vertex 181.933 100.44 32.138
    endloop
  endfacet
  facet normal 0 -1 0
    outer loop
      vertex 164.054 100.44 26.3285
      vertex 300 100.44 0
      vertex 173.176 100.44 28.6708
    endloop
  endfacet
  facet normal 0 -1 0
    outer loop
      vertex 154.709 100.44 25.148
      vertex 300 100.44 0
      vertex 164.054 100.44 26.3285
    endloop
  endfacet
  facet normal 0 1 0
    outer loop
      vertex 300 0.44 200.44
      vertex 154.709 0.44 174.852
      vertex 0 0.44 200.44
    endloop
  endfacet
  facet normal 0 1 0
    outer loop
      vertex 300 0.44 200.44
      vertex 164.054 0.44 173.672
      vertex 154.709 0.44 174.852
    endloop
  endfacet
  facet normal 0 1 0
    outer loop
      vertex 300 0.44 200.44
      vertex 173.176 0.44 171.329
      vertex 164.054 0.44 173.672
    endloop
  endfacet
  facet normal 0 1 0
    outer loop
      vertex 300 0.44 200.44
      vertex 181.933 0.44 167.862
      vertex 173.176 0.44 171.329
    endloop
  endfacet
  facet normal 0 1 0
    outer loop
      vertex 300 0.44 200.44
      vertex 190.187 0.44 163.325
      vertex 181.933 0.44 167.862
    endloop
  endfacet
  facet normal 0 1 0
    outer loop
      vertex 300 0.44 200.44
      vertex 197.807 0.44 157.788
      vertex 190.187 0.44 163.325
    endloop
  endfacet
  facet normal 0 1 0
    outer loop
      vertex 300 0.44 200.44
      vertex 204.673 0.44 151.341
      vertex 197.807 0.44 157.788
    endloop
  endfacet
  facet normal 0 1 0
    outer loop
      vertex 300 0.44 200.44
      vertex 210.676 0.44 144.084
      vertex 204.673 0.44 151.341
    endloop
  endfacet
  facet normal 0 1 0
    outer loop
      vertex 300 0.44 200.44
      vertex 215.723 0.44 136.132
      vertex 210.676 0.44 144.084
    endloop
  endfacet
  facet normal 0 1 0
    outer loop
      vertex 300 0.44 200.44
      vertex 219.733 0.44 127.609
      vertex 215.723 0.44 136.132
    endloop
  endfacet
  facet normal 0 1 0
    outer loop
      vertex 300 0.44 200.44
      vertex 222.644 0.44 118.652
      vertex 219.733 0.44 127.609
    endloop
  endfacet
  facet normal 0 1 0
    outer loop
      vertex 300 0.44 200.44
      vertex 224.409 0.44 109.4
      vertex 222.644 0.44 118.652
    endloop
  endfacet
  facet normal 0 1 0
    outer loop
      vertex 300 0.44 200.44
      vertex 225 0.44 100
      vertex 224.409 0.44 109.4
    endloop
  endfacet
  facet normal 0 1 -0
    outer loop
      vertex 300 0.44 0
      vertex 225 0.44 100
      vertex 300 0.44 200.44
    endloop
  endfacet
  facet normal 0 1 0
    outer loop
      vertex 225 0.44 100
      vertex 300 0.44 0
      vertex 224.409 0.44 90.6
    endloop
  endfacet
  facet normal 0 1 0
    outer loop
      vertex 224.409 0.44 90.6
      vertex 300 0.44 0
      vertex 222.644 0.44 81.3483
    endloop
  endfacet
  facet normal 0 1 0
    outer loop
      vertex 222.644 0.44 81.3483
      vertex 300 0.44 0
      vertex 219.733 0.44 72.3907
    endloop
  endfacet
  facet normal 0 1 0
    outer loop
      vertex 154.709 0.44 25.148
      vertex 300 0.44 0
      vertex 145.291 0.44 25.148
    endloop
  endfacet
  facet normal 0 1 0
    outer loop
      vertex 164.054 0.44 26.3285
      vertex 300 0.44 0
      vertex 154.709 0.44 25.148
    endloop
  endfacet
  facet normal 0 1 0
    outer loop
      vertex 173.176 0.44 28.6708
      vertex 300 0.44 0
      vertex 164.054 0.44 26.3285
    endloop
  endfacet
  facet normal 0 1 0
    outer loop
      vertex 181.933 0.44 32.138
      vertex 300 0.44 0
      vertex 173.176 0.44 28.6708
    endloop
  endfacet
  facet normal 0 1 0
    outer loop
      vertex 190.187 0.44 36.6754
      vertex 300 0.44 0
      vertex 181.933 0.44 32.138
    endloop
  endfacet
  facet normal 0 1 0
    outer loop
      vertex 197.807 0.44 42.2115
      vertex 300 0.44 0
      vertex 190.187 0.44 36.6754
    endloop
  endfacet
  facet normal 0 1 0
    outer loop
      vertex 204.673 0.44 48.659
      vertex 300 0.44 0
      vertex 197.807 0.44 42.2115
    endloop
  endfacet
  facet normal 0 1 0
    outer loop
      vertex 210.676 0.44 55.9161
      vertex 300 0.44 0
      vertex 204.673 0.44 48.659
    endloop
  endfacet
  facet normal 0 1 0
    outer loop
      vertex 215.723 0.44 63.8685
      vertex 300 0.44 0
      vertex 210.676 0.44 55.9161
    endloop
  endfacet
  facet normal 0 1 0
    outer loop
      vertex 219.733 0.44 72.3907
      vertex 300 0.44 0
      vertex 215.723 0.44 63.8685
    endloop
  endfacet
  facet normal 0 1 -0
    outer loop
      vertex 145.291 0.44 174.852
      vertex 0 0.44 200.44
      vertex 154.709 0.44 174.852
    endloop
  endfacet
  facet normal 0 1 -0
    outer loop
      vertex 135.946 0.44 173.672
      vertex 0 0.44 200.44
      vertex 145.291 0.44 174.852
    endloop
  endfacet
  facet normal 0 1 -0
    outer loop
      vertex 126.824 0.44 171.329
      vertex 0 0.44 200.44
      vertex 135.946 0.44 173.672
    endloop
  endfacet
  facet normal 0 1 -0
    outer loop
      vertex 118.067 0.44 167.862
      vertex 0 0.44 200.44
      vertex 126.824 0.44 171.329
    endloop
  endfacet
  facet normal 0 1 -0
    outer loop
      vertex 109.813 0.44 163.325
      vertex 0 0.44 200.44
      vertex 118.067 0.44 167.862
    endloop
  endfacet
  facet normal 0 1 -0
    outer loop
      vertex 102.193 0.44 157.788
      vertex 0 0.44 200.44
      vertex 109.813 0.44 163.325
    endloop
  endfacet
  facet normal 0 1 -0
    outer loop
      vertex 95.3274 0.44 151.341
      vertex 0 0.44 200.44
      vertex 102.193 0.44 157.788
    endloop
  endfacet
  facet normal 0 1 -0
    outer loop
      vertex 89.3237 0.44 144.084
      vertex 0 0.44 200.44
      vertex 95.3274 0.44 151.341
    endloop
  endfacet
  facet normal 0 1 -0
    outer loop
      vertex 84.277 0.44 136.132
      vertex 0 0.44 200.44
      vertex 89.3237 0.44 144.084
    endloop
  endfacet
  facet normal 0 1 -0
    outer loop
      vertex 80.2668 0.44 127.609
      vertex 0 0.44 200.44
      vertex 84.277 0.44 136.132
    endloop
  endfacet
  facet normal 0 1 -0
    outer loop
      vertex 77.3563 0.44 118.652
      vertex 0 0.44 200.44
      vertex 80.2668 0.44 127.609
    endloop
  endfacet
  facet normal 0 1 -0
    outer loop
      vertex 75.5914 0.44 109.4
      vertex 0 0.44 200.44
      vertex 77.3563 0.44 118.652
    endloop
  endfacet
  facet normal 0 1 -0
    outer loop
      vertex 75 0.44 100
      vertex 0 0.44 200.44
      vertex 75.5914 0.44 109.4
    endloop
  endfacet
  facet normal 0 1 0
    outer loop
      vertex 0 0.44 0
      vertex 75 0.44 100
      vertex 75.5914 0.44 90.6
    endloop
  endfacet
  facet normal 0 1 0
    outer loop
      vertex 0 0.44 0
      vertex 75.5914 0.44 90.6
      vertex 77.3563 0.44 81.3483
    endloop
  endfacet
  facet normal 0 1 0
    outer loop
      vertex 0 0.44 0
      vertex 77.3563 0.44 81.3483
      vertex 80.2668 0.44 72.3907
    endloop
  endfacet
  facet normal 0 1 0
    outer loop
      vertex 0 0.44 0
      vertex 80.2668 0.44 72.3907
      vertex 84.277 0.44 63.8685
    endloop
  endfacet
  facet normal 0 1 0
    outer loop
      vertex 0 0.44 0
      vertex 145.291 0.44 25.148
      vertex 300 0.44 0
    endloop
  endfacet
  facet normal 0 1 0
    outer loop
      vertex 75 0.44 100
      vertex 0 0.44 0
      vertex 0 0.44 200.44
    endloop
  endfacet
  facet normal 0 1 0
    outer loop
      vertex 89.3237 0.44 55.9161
      vertex 0 0.44 0
      vertex 84.277 0.44 63.8685
    endloop
  endfacet
  facet normal 0 1 0
    outer loop
      vertex 95.3274 0.44 48.659
      vertex 0 0.44 0
      vertex 89.3237 0.44 55.9161
    endloop
  endfacet
  facet normal 0 1 0
    outer loop
      vertex 102.193 0.44 42.2115
      vertex 0 0.44 0
      vertex 95.3274 0.44 48.659
    endloop
  endfacet
  facet normal 0 1 0
    outer loop
      vertex 109.813 0.44 36.6754
      vertex 0 0.44 0
      vertex 102.193 0.44 42.2115
    endloop
  endfacet
  facet normal 0 1 0
    outer loop
      vertex 118.067 0.44 32.138
      vertex 0 0.44 0
      vertex 109.813 0.44 36.6754
    endloop
  endfacet
  facet normal 0 1 0
    outer loop
      vertex 126.824 0.44 28.6708
      vertex 0 0.44 0
      vertex 118.067 0.44 32.138
    endloop
  endfacet
  facet normal 0 1 0
    outer loop
      vertex 135.946 0.44 26.3285
      vertex 0 0.44 0
      vertex 126.824 0.44 28.6708
    endloop
  endfacet
  facet normal 0 1 0
    outer loop
      vertex 145.291 0.44 25.148
      vertex 0 0.44 0
      vertex 135.946 0.44 26.3285
    endloop
  endfacet
  facet normal -0.982286 0 -0.18739
    outer loop
      vertex 224.409 0 109.4
      vertex 222.644 0.44 118.652
      vertex 224.409 0.44 109.4
    endloop
  endfacet
  facet normal -0.982286 -0 -0.18739
    outer loop
      vertex 222.644 0.44 118.652
      vertex 224.409 0 109.4
      vertex 222.644 0 118.652
    endloop
  endfacet
  facet normal -0.982286 0 -0.18739
    outer loop
      vertex 224.409 100.44 109.4
      vertex 222.644 100.88 118.652
      vertex 224.409 100.88 109.4
    endloop
  endfacet
  facet normal -0.982286 -0 -0.18739
    outer loop
      vertex 222.644 100.88 118.652
      vertex 224.409 100.44 109.4
      vertex 222.644 100.44 118.652
    endloop
  endfacet
  facet normal -0.998029 0 -0.0627484
    outer loop
      vertex 225 100.44 100
      vertex 224.409 100.88 109.4
      vertex 225 100.88 100
    endloop
  endfacet
  facet normal -0.998029 -0 -0.0627484
    outer loop
      vertex 224.409 100.88 109.4
      vertex 225 100.44 100
      vertex 224.409 100.44 109.4
    endloop
  endfacet
  facet normal -0.998029 0 -0.0627484
    outer loop
      vertex 225 0 100
      vertex 224.409 0.44 109.4
      vertex 225 0.44 100
    endloop
  endfacet
  facet normal -0.998029 -0 -0.0627484
    outer loop
      vertex 224.409 0.44 109.4
      vertex 225 0 100
      vertex 224.409 0 109.4
    endloop
  endfacet
  facet normal 0.587775 0 0.809025
    outer loop
      vertex 102.193 0.44 42.2115
      vertex 109.813 0 36.6754
      vertex 109.813 0.44 36.6754
    endloop
  endfacet
  facet normal 0.587775 0 0.809025
    outer loop
      vertex 109.813 0 36.6754
      vertex 102.193 0.44 42.2115
      vertex 102.193 0 42.2115
    endloop
  endfacet
  facet normal 0.587775 0 0.809025
    outer loop
      vertex 102.193 100.88 42.2115
      vertex 109.813 100.44 36.6754
      vertex 109.813 100.88 36.6754
    endloop
  endfacet
  facet normal 0.587775 0 0.809025
    outer loop
      vertex 109.813 100.44 36.6754
      vertex 102.193 100.88 42.2115
      vertex 102.193 100.44 42.2115
    endloop
  endfacet
  facet normal 0.998027 0 -0.0627907
    outer loop
      vertex 75.5914 0 109.4
      vertex 75 0.44 100
      vertex 75.5914 0.44 109.4
    endloop
  endfacet
  facet normal 0.998027 0 -0.0627907
    outer loop
      vertex 75 0.44 100
      vertex 75.5914 0 109.4
      vertex 75 0 100
    endloop
  endfacet
  facet normal 0.998027 0 -0.0627907
    outer loop
      vertex 75.5914 100.44 109.4
      vertex 75 100.88 100
      vertex 75.5914 100.88 109.4
    endloop
  endfacet
  facet normal 0.998027 0 -0.0627907
    outer loop
      vertex 75 100.88 100
      vertex 75.5914 100.44 109.4
      vertex 75 100.44 100
    endloop
  endfacet
  facet normal -0.587837 0 -0.808979
    outer loop
      vertex 190.187 0 163.325
      vertex 197.807 0.44 157.788
      vertex 197.807 0 157.788
    endloop
  endfacet
  facet normal -0.587837 0 -0.808979
    outer loop
      vertex 197.807 0.44 157.788
      vertex 190.187 0 163.325
      vertex 190.187 0.44 163.325
    endloop
  endfacet
  facet normal -0.587837 0 -0.808979
    outer loop
      vertex 190.187 100.44 163.325
      vertex 197.807 100.88 157.788
      vertex 197.807 100.44 157.788
    endloop
  endfacet
  facet normal -0.587837 0 -0.808979
    outer loop
      vertex 197.807 100.88 157.788
      vertex 190.187 100.44 163.325
      vertex 190.187 100.88 163.325
    endloop
  endfacet
  facet normal -0.844316 0 0.535846
    outer loop
      vertex 210.676 0 55.9161
      vertex 215.723 0.44 63.8685
      vertex 210.676 0.44 55.9161
    endloop
  endfacet
  facet normal -0.844316 0 0.535846
    outer loop
      vertex 215.723 0.44 63.8685
      vertex 210.676 0 55.9161
      vertex 215.723 0 63.8685
    endloop
  endfacet
  facet normal -0.844316 0 0.535846
    outer loop
      vertex 210.676 100.44 55.9161
      vertex 215.723 100.88 63.8685
      vertex 210.676 100.88 55.9161
    endloop
  endfacet
  facet normal -0.844316 0 0.535846
    outer loop
      vertex 215.723 100.88 63.8685
      vertex 210.676 100.44 55.9161
      vertex 215.723 100.44 63.8685
    endloop
  endfacet
  facet normal 0.481731 0 0.876319
    outer loop
      vertex 109.813 0.44 36.6754
      vertex 118.067 0 32.138
      vertex 118.067 0.44 32.138
    endloop
  endfacet
  facet normal 0.481731 0 0.876319
    outer loop
      vertex 118.067 0 32.138
      vertex 109.813 0.44 36.6754
      vertex 109.813 0 36.6754
    endloop
  endfacet
  facet normal 0.481731 0 0.876319
    outer loop
      vertex 109.813 100.88 36.6754
      vertex 118.067 100.44 32.138
      vertex 118.067 100.88 32.138
    endloop
  endfacet
  facet normal 0.481731 0 0.876319
    outer loop
      vertex 118.067 100.44 32.138
      vertex 109.813 100.88 36.6754
      vertex 109.813 100.44 36.6754
    endloop
  endfacet
  facet normal -0.684541 0 0.728974
    outer loop
      vertex 197.807 0.44 42.2115
      vertex 204.673 0 48.659
      vertex 204.673 0.44 48.659
    endloop
  endfacet
  facet normal -0.684541 0 0.728974
    outer loop
      vertex 204.673 0 48.659
      vertex 197.807 0.44 42.2115
      vertex 197.807 0 42.2115
    endloop
  endfacet
  facet normal -0.684541 0 0.728974
    outer loop
      vertex 197.807 100.88 42.2115
      vertex 204.673 100.44 48.659
      vertex 204.673 100.88 48.659
    endloop
  endfacet
  facet normal -0.684541 0 0.728974
    outer loop
      vertex 204.673 100.44 48.659
      vertex 197.807 100.88 42.2115
      vertex 197.807 100.44 42.2115
    endloop
  endfacet
  facet normal 0.125276 0 -0.992122
    outer loop
      vertex 135.946 100.44 173.672
      vertex 145.291 100.88 174.852
      vertex 145.291 100.44 174.852
    endloop
  endfacet
  facet normal 0.125276 0 -0.992122
    outer loop
      vertex 145.291 100.88 174.852
      vertex 135.946 100.44 173.672
      vertex 135.946 100.88 173.672
    endloop
  endfacet
  facet normal 0.125276 0 -0.992122
    outer loop
      vertex 135.946 0 173.672
      vertex 145.291 0.44 174.852
      vertex 145.291 0 174.852
    endloop
  endfacet
  facet normal 0.125276 0 -0.992122
    outer loop
      vertex 145.291 0.44 174.852
      vertex 135.946 0 173.672
      vertex 135.946 0.44 173.672
    endloop
  endfacet
  facet normal 0.368112 0 -0.929782
    outer loop
      vertex 118.067 100.44 167.862
      vertex 126.824 100.88 171.329
      vertex 126.824 100.44 171.329
    endloop
  endfacet
  facet normal 0.368112 0 -0.929782
    outer loop
      vertex 126.824 100.88 171.329
      vertex 118.067 100.44 167.862
      vertex 118.067 100.88 167.862
    endloop
  endfacet
  facet normal 0.368112 0 -0.929782
    outer loop
      vertex 118.067 0 167.862
      vertex 126.824 0.44 171.329
      vertex 126.824 0 171.329
    endloop
  endfacet
  facet normal 0.368112 0 -0.929782
    outer loop
      vertex 126.824 0.44 171.329
      vertex 118.067 0 167.862
      vertex 118.067 0.44 167.862
    endloop
  endfacet
  facet normal 0.982286 -0 0.187386
    outer loop
      vertex 75.5914 0 90.6
      vertex 77.3563 0.44 81.3483
      vertex 75.5914 0.44 90.6
    endloop
  endfacet
  facet normal 0.982286 0 0.187386
    outer loop
      vertex 77.3563 0.44 81.3483
      vertex 75.5914 0 90.6
      vertex 77.3563 0 81.3483
    endloop
  endfacet
  facet normal 0.982286 -0 0.187386
    outer loop
      vertex 75.5914 100.44 90.6
      vertex 77.3563 100.88 81.3483
      vertex 75.5914 100.88 90.6
    endloop
  endfacet
  facet normal 0.982286 0 0.187386
    outer loop
      vertex 77.3563 100.88 81.3483
      vertex 75.5914 100.44 90.6
      vertex 77.3563 100.44 81.3483
    endloop
  endfacet
  facet normal -0.844304 0 -0.535865
    outer loop
      vertex 215.723 0 136.132
      vertex 210.676 0.44 144.084
      vertex 215.723 0.44 136.132
    endloop
  endfacet
  facet normal -0.844304 -0 -0.535865
    outer loop
      vertex 210.676 0.44 144.084
      vertex 215.723 0 136.132
      vertex 210.676 0 144.084
    endloop
  endfacet
  facet normal -0.844304 0 -0.535865
    outer loop
      vertex 215.723 100.44 136.132
      vertex 210.676 100.88 144.084
      vertex 215.723 100.88 136.132
    endloop
  endfacet
  facet normal -0.844304 -0 -0.535865
    outer loop
      vertex 210.676 100.88 144.084
      vertex 215.723 100.44 136.132
      vertex 210.676 100.44 144.084
    endloop
  endfacet
  facet normal -0.77054 0 -0.637392
    outer loop
      vertex 210.676 100.44 144.084
      vertex 204.673 100.88 151.341
      vertex 210.676 100.88 144.084
    endloop
  endfacet
  facet normal -0.77054 -0 -0.637392
    outer loop
      vertex 204.673 100.88 151.341
      vertex 210.676 100.44 144.084
      vertex 204.673 100.44 151.341
    endloop
  endfacet
  facet normal -0.77054 0 -0.637392
    outer loop
      vertex 210.676 0 144.084
      vertex 204.673 0.44 151.341
      vertex 210.676 0.44 144.084
    endloop
  endfacet
  facet normal -0.77054 -0 -0.637392
    outer loop
      vertex 204.673 0.44 151.341
      vertex 210.676 0 144.084
      vertex 204.673 0 151.341
    endloop
  endfacet
  facet normal -0.904837 0 0.425758
    outer loop
      vertex 215.723 100.44 63.8685
      vertex 219.733 100.88 72.3907
      vertex 215.723 100.88 63.8685
    endloop
  endfacet
  facet normal -0.904837 0 0.425758
    outer loop
      vertex 219.733 100.88 72.3907
      vertex 215.723 100.44 63.8685
      vertex 219.733 100.44 72.3907
    endloop
  endfacet
  facet normal -0.904837 0 0.425758
    outer loop
      vertex 215.723 0 63.8685
      vertex 219.733 0.44 72.3907
      vertex 215.723 0.44 63.8685
    endloop
  endfacet
  facet normal -0.904837 0 0.425758
    outer loop
      vertex 219.733 0.44 72.3907
      vertex 215.723 0 63.8685
      vertex 219.733 0 72.3907
    endloop
  endfacet
  facet normal 0.248707 0 0.968579
    outer loop
      vertex 126.824 0.44 28.6708
      vertex 135.946 0 26.3285
      vertex 135.946 0.44 26.3285
    endloop
  endfacet
  facet normal 0.248707 0 0.968579
    outer loop
      vertex 135.946 0 26.3285
      vertex 126.824 0.44 28.6708
      vertex 126.824 0 28.6708
    endloop
  endfacet
  facet normal 0.248707 0 0.968579
    outer loop
      vertex 126.824 100.88 28.6708
      vertex 135.946 100.44 26.3285
      vertex 135.946 100.88 26.3285
    endloop
  endfacet
  facet normal 0.248707 0 0.968579
    outer loop
      vertex 135.946 100.44 26.3285
      vertex 126.824 100.88 28.6708
      vertex 126.824 100.44 28.6708
    endloop
  endfacet
  facet normal 0.125328 0 0.992115
    outer loop
      vertex 135.946 0.44 26.3285
      vertex 145.291 0 25.148
      vertex 145.291 0.44 25.148
    endloop
  endfacet
  facet normal 0.125328 0 0.992115
    outer loop
      vertex 145.291 0 25.148
      vertex 135.946 0.44 26.3285
      vertex 135.946 0 26.3285
    endloop
  endfacet
  facet normal 0.125328 0 0.992115
    outer loop
      vertex 135.946 100.88 26.3285
      vertex 145.291 100.44 25.148
      vertex 145.291 100.88 25.148
    endloop
  endfacet
  facet normal 0.125328 0 0.992115
    outer loop
      vertex 145.291 100.44 25.148
      vertex 135.946 100.88 26.3285
      vertex 135.946 100.44 26.3285
    endloop
  endfacet
  facet normal -0.684513 0 -0.729001
    outer loop
      vertex 197.807 0 157.788
      vertex 204.673 0.44 151.341
      vertex 204.673 0 151.341
    endloop
  endfacet
  facet normal -0.684513 0 -0.729001
    outer loop
      vertex 204.673 0.44 151.341
      vertex 197.807 0 157.788
      vertex 197.807 0.44 157.788
    endloop
  endfacet
  facet normal -0.684513 0 -0.729001
    outer loop
      vertex 197.807 100.44 157.788
      vertex 204.673 100.88 151.341
      vertex 204.673 100.44 151.341
    endloop
  endfacet
  facet normal -0.684513 0 -0.729001
    outer loop
      vertex 204.673 100.88 151.341
      vertex 197.807 100.44 157.788
      vertex 197.807 100.88 157.788
    endloop
  endfacet
  facet normal 0.684534 0 -0.728981
    outer loop
      vertex 95.3274 100.44 151.341
      vertex 102.193 100.88 157.788
      vertex 102.193 100.44 157.788
    endloop
  endfacet
  facet normal 0.684534 0 -0.728981
    outer loop
      vertex 102.193 100.88 157.788
      vertex 95.3274 100.44 151.341
      vertex 95.3274 100.88 151.341
    endloop
  endfacet
  facet normal 0.684534 0 -0.728981
    outer loop
      vertex 95.3274 0 151.341
      vertex 102.193 0.44 157.788
      vertex 102.193 0 157.788
    endloop
  endfacet
  facet normal 0.684534 0 -0.728981
    outer loop
      vertex 102.193 0.44 157.788
      vertex 95.3274 0 151.341
      vertex 95.3274 0.44 151.341
    endloop
  endfacet
  facet normal -0.951035 0 -0.309084
    outer loop
      vertex 222.644 0 118.652
      vertex 219.733 0.44 127.609
      vertex 222.644 0.44 118.652
    endloop
  endfacet
  facet normal -0.951035 -0 -0.309084
    outer loop
      vertex 219.733 0.44 127.609
      vertex 222.644 0 118.652
      vertex 219.733 0 127.609
    endloop
  endfacet
  facet normal -0.951035 0 -0.309084
    outer loop
      vertex 222.644 100.44 118.652
      vertex 219.733 100.88 127.609
      vertex 222.644 100.88 118.652
    endloop
  endfacet
  facet normal -0.951035 -0 -0.309084
    outer loop
      vertex 219.733 100.88 127.609
      vertex 222.644 100.44 118.652
      vertex 219.733 100.44 127.609
    endloop
  endfacet
  facet normal 0.84433 -0 0.535823
    outer loop
      vertex 84.277 0 63.8685
      vertex 89.3237 0.44 55.9161
      vertex 84.277 0.44 63.8685
    endloop
  endfacet
  facet normal 0.84433 0 0.535823
    outer loop
      vertex 89.3237 0.44 55.9161
      vertex 84.277 0 63.8685
      vertex 89.3237 0 55.9161
    endloop
  endfacet
  facet normal 0.84433 -0 0.535823
    outer loop
      vertex 84.277 100.44 63.8685
      vertex 89.3237 100.88 55.9161
      vertex 84.277 100.88 63.8685
    endloop
  endfacet
  facet normal 0.84433 0 0.535823
    outer loop
      vertex 89.3237 100.88 55.9161
      vertex 84.277 100.44 63.8685
      vertex 89.3237 100.44 55.9161
    endloop
  endfacet
  facet normal -0.36813 0 0.929774
    outer loop
      vertex 173.176 100.88 28.6708
      vertex 181.933 100.44 32.138
      vertex 181.933 100.88 32.138
    endloop
  endfacet
  facet normal -0.36813 0 0.929774
    outer loop
      vertex 181.933 100.44 32.138
      vertex 173.176 100.88 28.6708
      vertex 173.176 100.44 28.6708
    endloop
  endfacet
  facet normal -0.36813 0 0.929774
    outer loop
      vertex 173.176 0.44 28.6708
      vertex 181.933 0 32.138
      vertex 181.933 0.44 32.138
    endloop
  endfacet
  facet normal -0.36813 0 0.929774
    outer loop
      vertex 181.933 0 32.138
      vertex 173.176 0.44 28.6708
      vertex 173.176 0 28.6708
    endloop
  endfacet
  facet normal 0.844318 0 -0.535842
    outer loop
      vertex 89.3237 0 144.084
      vertex 84.277 0.44 136.132
      vertex 89.3237 0.44 144.084
    endloop
  endfacet
  facet normal 0.844318 0 -0.535842
    outer loop
      vertex 84.277 0.44 136.132
      vertex 89.3237 0 144.084
      vertex 84.277 0 136.132
    endloop
  endfacet
  facet normal 0.844318 0 -0.535842
    outer loop
      vertex 89.3237 100.44 144.084
      vertex 84.277 100.88 136.132
      vertex 89.3237 100.88 144.084
    endloop
  endfacet
  facet normal 0.844318 0 -0.535842
    outer loop
      vertex 84.277 100.88 136.132
      vertex 89.3237 100.44 144.084
      vertex 84.277 100.44 136.132
    endloop
  endfacet
  facet normal -0.125328 0 0.992115
    outer loop
      vertex 154.709 100.88 25.148
      vertex 164.054 100.44 26.3285
      vertex 164.054 100.88 26.3285
    endloop
  endfacet
  facet normal -0.125328 0 0.992115
    outer loop
      vertex 164.054 100.44 26.3285
      vertex 154.709 100.88 25.148
      vertex 154.709 100.44 25.148
    endloop
  endfacet
  facet normal -0.125328 0 0.992115
    outer loop
      vertex 154.709 0.44 25.148
      vertex 164.054 0 26.3285
      vertex 164.054 0.44 26.3285
    endloop
  endfacet
  facet normal -0.125328 0 0.992115
    outer loop
      vertex 164.054 0 26.3285
      vertex 154.709 0.44 25.148
      vertex 154.709 0 25.148
    endloop
  endfacet
  facet normal 0.998027 -0 0.0627907
    outer loop
      vertex 75 0 100
      vertex 75.5914 0.44 90.6
      vertex 75 0.44 100
    endloop
  endfacet
  facet normal 0.998027 0 0.0627907
    outer loop
      vertex 75.5914 0.44 90.6
      vertex 75 0 100
      vertex 75.5914 0 90.6
    endloop
  endfacet
  facet normal 0.998027 -0 0.0627907
    outer loop
      vertex 75 100.44 100
      vertex 75.5914 100.88 90.6
      vertex 75 100.88 100
    endloop
  endfacet
  facet normal 0.998027 0 0.0627907
    outer loop
      vertex 75.5914 100.88 90.6
      vertex 75 100.44 100
      vertex 75.5914 100.44 90.6
    endloop
  endfacet
  facet normal -0.770544 0 0.637386
    outer loop
      vertex 204.673 0 48.659
      vertex 210.676 0.44 55.9161
      vertex 204.673 0.44 48.659
    endloop
  endfacet
  facet normal -0.770544 0 0.637386
    outer loop
      vertex 210.676 0.44 55.9161
      vertex 204.673 0 48.659
      vertex 210.676 0 55.9161
    endloop
  endfacet
  facet normal -0.770544 0 0.637386
    outer loop
      vertex 204.673 100.44 48.659
      vertex 210.676 100.88 55.9161
      vertex 204.673 100.88 48.659
    endloop
  endfacet
  facet normal -0.770544 0 0.637386
    outer loop
      vertex 210.676 100.88 55.9161
      vertex 204.673 100.44 48.659
      vertex 210.676 100.44 55.9161
    endloop
  endfacet
  facet normal -0.368112 0 -0.929782
    outer loop
      vertex 173.176 0 171.329
      vertex 181.933 0.44 167.862
      vertex 181.933 0 167.862
    endloop
  endfacet
  facet normal -0.368112 0 -0.929782
    outer loop
      vertex 181.933 0.44 167.862
      vertex 173.176 0 171.329
      vertex 173.176 0.44 171.329
    endloop
  endfacet
  facet normal -0.368112 0 -0.929782
    outer loop
      vertex 173.176 100.44 171.329
      vertex 181.933 100.88 167.862
      vertex 181.933 100.44 167.862
    endloop
  endfacet
  facet normal -0.368112 0 -0.929782
    outer loop
      vertex 181.933 100.88 167.862
      vertex 173.176 100.44 171.329
      vertex 173.176 100.88 171.329
    endloop
  endfacet
  facet normal 0.904844 0 -0.425743
    outer loop
      vertex 84.277 0 136.132
      vertex 80.2668 0.44 127.609
      vertex 84.277 0.44 136.132
    endloop
  endfacet
  facet normal 0.904844 0 -0.425743
    outer loop
      vertex 80.2668 0.44 127.609
      vertex 84.277 0 136.132
      vertex 80.2668 0 127.609
    endloop
  endfacet
  facet normal 0.904844 0 -0.425743
    outer loop
      vertex 84.277 100.44 136.132
      vertex 80.2668 100.88 127.609
      vertex 84.277 100.88 136.132
    endloop
  endfacet
  facet normal 0.904844 0 -0.425743
    outer loop
      vertex 80.2668 100.88 127.609
      vertex 84.277 100.44 136.132
      vertex 80.2668 100.44 127.609
    endloop
  endfacet
  facet normal 0.770503 0 -0.637436
    outer loop
      vertex 95.3274 0 151.341
      vertex 89.3237 0.44 144.084
      vertex 95.3274 0.44 151.341
    endloop
  endfacet
  facet normal 0.770503 0 -0.637436
    outer loop
      vertex 89.3237 0.44 144.084
      vertex 95.3274 0 151.341
      vertex 89.3237 0 144.084
    endloop
  endfacet
  facet normal 0.770503 0 -0.637436
    outer loop
      vertex 95.3274 100.44 151.341
      vertex 89.3237 100.88 144.084
      vertex 95.3274 100.88 151.341
    endloop
  endfacet
  facet normal 0.770503 0 -0.637436
    outer loop
      vertex 89.3237 100.88 144.084
      vertex 95.3274 100.44 151.341
      vertex 89.3237 100.44 144.084
    endloop
  endfacet
  facet normal -0.951041 0 0.309065
    outer loop
      vertex 219.733 100.44 72.3907
      vertex 222.644 100.88 81.3483
      vertex 219.733 100.88 72.3907
    endloop
  endfacet
  facet normal -0.951041 0 0.309065
    outer loop
      vertex 222.644 100.88 81.3483
      vertex 219.733 100.44 72.3907
      vertex 222.644 100.44 81.3483
    endloop
  endfacet
  facet normal -0.951041 0 0.309065
    outer loop
      vertex 219.733 0 72.3907
      vertex 222.644 0.44 81.3483
      vertex 219.733 0.44 72.3907
    endloop
  endfacet
  facet normal -0.951041 0 0.309065
    outer loop
      vertex 222.644 0.44 81.3483
      vertex 219.733 0 72.3907
      vertex 222.644 0 81.3483
    endloop
  endfacet
  facet normal -0.982284 0 0.187396
    outer loop
      vertex 222.644 100.44 81.3483
      vertex 224.409 100.88 90.6
      vertex 222.644 100.88 81.3483
    endloop
  endfacet
  facet normal -0.982284 0 0.187396
    outer loop
      vertex 224.409 100.88 90.6
      vertex 222.644 100.44 81.3483
      vertex 224.409 100.44 90.6
    endloop
  endfacet
  facet normal -0.982284 0 0.187396
    outer loop
      vertex 222.644 0 81.3483
      vertex 224.409 0.44 90.6
      vertex 222.644 0.44 81.3483
    endloop
  endfacet
  facet normal -0.982284 0 0.187396
    outer loop
      vertex 224.409 0.44 90.6
      vertex 222.644 0 81.3483
      vertex 224.409 0 90.6
    endloop
  endfacet
  facet normal -0 0 1
    outer loop
      vertex 145.291 100.88 25.148
      vertex 154.709 100.44 25.148
      vertex 154.709 100.88 25.148
    endloop
  endfacet
  facet normal 0 0 1
    outer loop
      vertex 154.709 100.44 25.148
      vertex 145.291 100.88 25.148
      vertex 145.291 100.44 25.148
    endloop
  endfacet
  facet normal -0 0 1
    outer loop
      vertex 145.291 0.44 25.148
      vertex 154.709 0 25.148
      vertex 154.709 0.44 25.148
    endloop
  endfacet
  facet normal 0 0 1
    outer loop
      vertex 154.709 0 25.148
      vertex 145.291 0.44 25.148
      vertex 145.291 0 25.148
    endloop
  endfacet
  facet normal 0.951057 -0 0.309017
    outer loop
      vertex 77.3563 0 81.3483
      vertex 80.2668 0.44 72.3907
      vertex 77.3563 0.44 81.3483
    endloop
  endfacet
  facet normal 0.951057 0 0.309017
    outer loop
      vertex 80.2668 0.44 72.3907
      vertex 77.3563 0 81.3483
      vertex 80.2668 0 72.3907
    endloop
  endfacet
  facet normal 0.951057 -0 0.309017
    outer loop
      vertex 77.3563 100.44 81.3483
      vertex 80.2668 100.88 72.3907
      vertex 77.3563 100.88 81.3483
    endloop
  endfacet
  facet normal 0.951057 0 0.309017
    outer loop
      vertex 80.2668 100.88 72.3907
      vertex 77.3563 100.44 81.3483
      vertex 80.2668 100.44 72.3907
    endloop
  endfacet
  facet normal -0.904852 0 -0.425725
    outer loop
      vertex 219.733 0 127.609
      vertex 215.723 0.44 136.132
      vertex 219.733 0.44 127.609
    endloop
  endfacet
  facet normal -0.904852 -0 -0.425725
    outer loop
      vertex 215.723 0.44 136.132
      vertex 219.733 0 127.609
      vertex 215.723 0 136.132
    endloop
  endfacet
  facet normal -0.904852 0 -0.425725
    outer loop
      vertex 219.733 100.44 127.609
      vertex 215.723 100.88 136.132
      vertex 219.733 100.88 127.609
    endloop
  endfacet
  facet normal -0.904852 -0 -0.425725
    outer loop
      vertex 215.723 100.88 136.132
      vertex 219.733 100.44 127.609
      vertex 215.723 100.44 136.132
    endloop
  endfacet
  facet normal -0.248707 0 0.968579
    outer loop
      vertex 164.054 0.44 26.3285
      vertex 173.176 0 28.6708
      vertex 173.176 0.44 28.6708
    endloop
  endfacet
  facet normal -0.248707 0 0.968579
    outer loop
      vertex 173.176 0 28.6708
      vertex 164.054 0.44 26.3285
      vertex 164.054 0 26.3285
    endloop
  endfacet
  facet normal -0.248707 0 0.968579
    outer loop
      vertex 164.054 100.88 26.3285
      vertex 173.176 100.44 28.6708
      vertex 173.176 100.88 28.6708
    endloop
  endfacet
  facet normal -0.248707 0 0.968579
    outer loop
      vertex 173.176 100.44 28.6708
      vertex 164.054 100.88 26.3285
      vertex 164.054 100.44 26.3285
    endloop
  endfacet
  facet normal -0.481699 0 -0.876337
    outer loop
      vertex 181.933 0 167.862
      vertex 190.187 0.44 163.325
      vertex 190.187 0 163.325
    endloop
  endfacet
  facet normal -0.481699 0 -0.876337
    outer loop
      vertex 190.187 0.44 163.325
      vertex 181.933 0 167.862
      vertex 181.933 0.44 167.862
    endloop
  endfacet
  facet normal -0.481699 0 -0.876337
    outer loop
      vertex 181.933 100.44 167.862
      vertex 190.187 100.88 163.325
      vertex 190.187 100.44 163.325
    endloop
  endfacet
  facet normal -0.481699 0 -0.876337
    outer loop
      vertex 190.187 100.88 163.325
      vertex 181.933 100.44 167.862
      vertex 181.933 100.88 167.862
    endloop
  endfacet
  facet normal -0.248776 0 -0.968561
    outer loop
      vertex 164.054 100.44 173.672
      vertex 173.176 100.88 171.329
      vertex 173.176 100.44 171.329
    endloop
  endfacet
  facet normal -0.248776 0 -0.968561
    outer loop
      vertex 173.176 100.88 171.329
      vertex 164.054 100.44 173.672
      vertex 164.054 100.88 173.672
    endloop
  endfacet
  facet normal -0.248776 0 -0.968561
    outer loop
      vertex 164.054 0 173.672
      vertex 173.176 0.44 171.329
      vertex 173.176 0 171.329
    endloop
  endfacet
  facet normal -0.248776 0 -0.968561
    outer loop
      vertex 173.176 0.44 171.329
      vertex 164.054 0 173.672
      vertex 164.054 0.44 173.672
    endloop
  endfacet
  facet normal 0.95105 0 -0.309036
    outer loop
      vertex 80.2668 0 127.609
      vertex 77.3563 0.44 118.652
      vertex 80.2668 0.44 127.609
    endloop
  endfacet
  facet normal 0.95105 0 -0.309036
    outer loop
      vertex 77.3563 0.44 118.652
      vertex 80.2668 0 127.609
      vertex 77.3563 0 118.652
    endloop
  endfacet
  facet normal 0.95105 0 -0.309036
    outer loop
      vertex 80.2668 100.44 127.609
      vertex 77.3563 100.88 118.652
      vertex 80.2668 100.88 127.609
    endloop
  endfacet
  facet normal 0.95105 0 -0.309036
    outer loop
      vertex 77.3563 100.88 118.652
      vertex 80.2668 100.44 127.609
      vertex 77.3563 100.44 118.652
    endloop
  endfacet
  facet normal 0.248776 0 -0.968561
    outer loop
      vertex 126.824 100.44 171.329
      vertex 135.946 100.88 173.672
      vertex 135.946 100.44 173.672
    endloop
  endfacet
  facet normal 0.248776 0 -0.968561
    outer loop
      vertex 135.946 100.88 173.672
      vertex 126.824 100.44 171.329
      vertex 126.824 100.88 171.329
    endloop
  endfacet
  facet normal 0.248776 0 -0.968561
    outer loop
      vertex 126.824 0 171.329
      vertex 135.946 0.44 173.672
      vertex 135.946 0 173.672
    endloop
  endfacet
  facet normal 0.248776 0 -0.968561
    outer loop
      vertex 135.946 0.44 173.672
      vertex 126.824 0 171.329
      vertex 126.824 0.44 171.329
    endloop
  endfacet
  facet normal 0.481699 0 -0.876337
    outer loop
      vertex 109.813 100.44 163.325
      vertex 118.067 100.88 167.862
      vertex 118.067 100.44 167.862
    endloop
  endfacet
  facet normal 0.481699 0 -0.876337
    outer loop
      vertex 118.067 100.88 167.862
      vertex 109.813 100.44 163.325
      vertex 109.813 100.88 163.325
    endloop
  endfacet
  facet normal 0.481699 0 -0.876337
    outer loop
      vertex 109.813 0 163.325
      vertex 118.067 0.44 167.862
      vertex 118.067 0 167.862
    endloop
  endfacet
  facet normal 0.481699 0 -0.876337
    outer loop
      vertex 118.067 0.44 167.862
      vertex 109.813 0 163.325
      vertex 109.813 0.44 163.325
    endloop
  endfacet
  facet normal 0.587837 0 -0.808979
    outer loop
      vertex 102.193 0 157.788
      vertex 109.813 0.44 163.325
      vertex 109.813 0 163.325
    endloop
  endfacet
  facet normal 0.587837 0 -0.808979
    outer loop
      vertex 109.813 0.44 163.325
      vertex 102.193 0 157.788
      vertex 102.193 0.44 157.788
    endloop
  endfacet
  facet normal 0.587837 0 -0.808979
    outer loop
      vertex 102.193 100.44 157.788
      vertex 109.813 100.88 163.325
      vertex 109.813 100.44 163.325
    endloop
  endfacet
  facet normal 0.587837 0 -0.808979
    outer loop
      vertex 109.813 100.88 163.325
      vertex 102.193 100.44 157.788
      vertex 102.193 100.88 157.788
    endloop
  endfacet
  facet normal 0 0 -1
    outer loop
      vertex 145.291 0 174.852
      vertex 154.709 0.44 174.852
      vertex 154.709 0 174.852
    endloop
  endfacet
  facet normal -0 0 -1
    outer loop
      vertex 154.709 0.44 174.852
      vertex 145.291 0 174.852
      vertex 145.291 0.44 174.852
    endloop
  endfacet
  facet normal 0 0 -1
    outer loop
      vertex 145.291 100.44 174.852
      vertex 154.709 100.88 174.852
      vertex 154.709 100.44 174.852
    endloop
  endfacet
  facet normal -0 0 -1
    outer loop
      vertex 154.709 100.88 174.852
      vertex 145.291 100.44 174.852
      vertex 145.291 100.88 174.852
    endloop
  endfacet
  facet normal -0.125276 0 -0.992122
    outer loop
      vertex 154.709 100.44 174.852
      vertex 164.054 100.88 173.672
      vertex 164.054 100.44 173.672
    endloop
  endfacet
  facet normal -0.125276 0 -0.992122
    outer loop
      vertex 164.054 100.88 173.672
      vertex 154.709 100.44 174.852
      vertex 154.709 100.88 174.852
    endloop
  endfacet
  facet normal -0.125276 0 -0.992122
    outer loop
      vertex 154.709 0 174.852
      vertex 164.054 0.44 173.672
      vertex 164.054 0 173.672
    endloop
  endfacet
  facet normal -0.125276 0 -0.992122
    outer loop
      vertex 164.054 0.44 173.672
      vertex 154.709 0 174.852
      vertex 154.709 0.44 174.852
    endloop
  endfacet
  facet normal 0.904829 -0 0.425776
    outer loop
      vertex 80.2668 0 72.3907
      vertex 84.277 0.44 63.8685
      vertex 80.2668 0.44 72.3907
    endloop
  endfacet
  facet normal 0.904829 0 0.425776
    outer loop
      vertex 84.277 0.44 63.8685
      vertex 80.2668 0 72.3907
      vertex 84.277 0 63.8685
    endloop
  endfacet
  facet normal 0.904829 -0 0.425776
    outer loop
      vertex 80.2668 100.44 72.3907
      vertex 84.277 100.88 63.8685
      vertex 80.2668 100.88 72.3907
    endloop
  endfacet
  facet normal 0.904829 0 0.425776
    outer loop
      vertex 84.277 100.88 63.8685
      vertex 80.2668 100.44 72.3907
      vertex 84.277 100.44 63.8685
    endloop
  endfacet
  facet normal -0.587775 0 0.809025
    outer loop
      vertex 190.187 0.44 36.6754
      vertex 197.807 0 42.2115
      vertex 197.807 0.44 42.2115
    endloop
  endfacet
  facet normal -0.587775 0 0.809025
    outer loop
      vertex 197.807 0 42.2115
      vertex 190.187 0.44 36.6754
      vertex 190.187 0 36.6754
    endloop
  endfacet
  facet normal -0.587775 0 0.809025
    outer loop
      vertex 190.187 100.88 36.6754
      vertex 197.807 100.44 42.2115
      vertex 197.807 100.88 42.2115
    endloop
  endfacet
  facet normal -0.587775 0 0.809025
    outer loop
      vertex 197.807 100.44 42.2115
      vertex 190.187 100.88 36.6754
      vertex 190.187 100.44 36.6754
    endloop
  endfacet
  facet normal 0.770508 -0 0.637431
    outer loop
      vertex 89.3237 100.44 55.9161
      vertex 95.3274 100.88 48.659
      vertex 89.3237 100.88 55.9161
    endloop
  endfacet
  facet normal 0.770508 0 0.637431
    outer loop
      vertex 95.3274 100.88 48.659
      vertex 89.3237 100.44 55.9161
      vertex 95.3274 100.44 48.659
    endloop
  endfacet
  facet normal 0.770508 -0 0.637431
    outer loop
      vertex 89.3237 0 55.9161
      vertex 95.3274 0.44 48.659
      vertex 89.3237 0.44 55.9161
    endloop
  endfacet
  facet normal 0.770508 0 0.637431
    outer loop
      vertex 95.3274 0.44 48.659
      vertex 89.3237 0 55.9161
      vertex 95.3274 0 48.659
    endloop
  endfacet
  facet normal 0.684562 0 0.728954
    outer loop
      vertex 95.3274 0.44 48.659
      vertex 102.193 0 42.2115
      vertex 102.193 0.44 42.2115
    endloop
  endfacet
  facet normal 0.684562 0 0.728954
    outer loop
      vertex 102.193 0 42.2115
      vertex 95.3274 0.44 48.659
      vertex 95.3274 0 48.659
    endloop
  endfacet
  facet normal 0.684562 0 0.728954
    outer loop
      vertex 95.3274 100.88 48.659
      vertex 102.193 100.44 42.2115
      vertex 102.193 100.88 42.2115
    endloop
  endfacet
  facet normal 0.684562 0 0.728954
    outer loop
      vertex 102.193 100.44 42.2115
      vertex 95.3274 100.88 48.659
      vertex 95.3274 100.44 48.659
    endloop
  endfacet
  facet normal 0.36813 0 0.929774
    outer loop
      vertex 118.067 0.44 32.138
      vertex 126.824 0 28.6708
      vertex 126.824 0.44 28.6708
    endloop
  endfacet
  facet normal 0.36813 0 0.929774
    outer loop
      vertex 126.824 0 28.6708
      vertex 118.067 0.44 32.138
      vertex 118.067 0 32.138
    endloop
  endfacet
  facet normal 0.36813 0 0.929774
    outer loop
      vertex 118.067 100.88 32.138
      vertex 126.824 100.44 28.6708
      vertex 126.824 100.88 28.6708
    endloop
  endfacet
  facet normal 0.36813 0 0.929774
    outer loop
      vertex 126.824 100.44 28.6708
      vertex 118.067 100.88 32.138
      vertex 118.067 100.44 32.138
    endloop
  endfacet
  facet normal -0.481731 0 0.876319
    outer loop
      vertex 181.933 100.88 32.138
      vertex 190.187 100.44 36.6754
      vertex 190.187 100.88 36.6754
    endloop
  endfacet
  facet normal -0.481731 0 0.876319
    outer loop
      vertex 190.187 100.44 36.6754
      vertex 181.933 100.88 32.138
      vertex 181.933 100.44 32.138
    endloop
  endfacet
  facet normal -0.481731 0 0.876319
    outer loop
      vertex 181.933 0.44 32.138
      vertex 190.187 0 36.6754
      vertex 190.187 0.44 36.6754
    endloop
  endfacet
  facet normal -0.481731 0 0.876319
    outer loop
      vertex 190.187 0 36.6754
      vertex 181.933 0.44 32.138
      vertex 181.933 0 32.138
    endloop
  endfacet
  facet normal -0.998029 0 0.0627484
    outer loop
      vertex 224.409 100.44 90.6
      vertex 225 100.88 100
      vertex 224.409 100.88 90.6
    endloop
  endfacet
  facet normal -0.998029 0 0.0627484
    outer loop
      vertex 225 100.88 100
      vertex 224.409 100.44 90.6
      vertex 225 100.44 100
    endloop
  endfacet
  facet normal -0.998029 0 0.0627484
    outer loop
      vertex 224.409 0 90.6
      vertex 225 0.44 100
      vertex 224.409 0.44 90.6
    endloop
  endfacet
  facet normal -0.998029 0 0.0627484
    outer loop
      vertex 225 0.44 100
      vertex 224.409 0 90.6
      vertex 225 0 100
    endloop
  endfacet
  facet normal 0.982288 0 -0.18738
    outer loop
      vertex 77.3563 0 118.652
      vertex 75.5914 0.44 109.4
      vertex 77.3563 0.44 118.652
    endloop
  endfacet
  facet normal 0.982288 0 -0.18738
    outer loop
      vertex 75.5914 0.44 109.4
      vertex 77.3563 0 118.652
      vertex 75.5914 0 109.4
    endloop
  endfacet
  facet normal 0.982288 0 -0.18738
    outer loop
      vertex 77.3563 100.44 118.652
      vertex 75.5914 100.88 109.4
      vertex 77.3563 100.88 118.652
    endloop
  endfacet
  facet normal 0.982288 0 -0.18738
    outer loop
      vertex 75.5914 100.88 109.4
      vertex 77.3563 100.44 118.652
      vertex 75.5914 100.44 109.4
    endloop
  endfacet
endsolid OpenSCAD_Model
