solid OpenSCAD_Model
  facet normal -0 0 1
    outer loop
      vertex 0 26 14.5
      vertex 21 0 14.5
      vertex 21 26 14.5
    endloop
  endfacet
  facet normal 0 0 1
    outer loop
      vertex 21 0 14.5
      vertex 0 26 14.5
      vertex 0 0 14.5
    endloop
  endfacet
  facet normal 0 0 -1
    outer loop
      vertex 0 0 0
      vertex 21 26 0
      vertex 21 0 0
    endloop
  endfacet
  facet normal -0 0 -1
    outer loop
      vertex 21 26 0
      vertex 0 0 0
      vertex 0 26 0
    endloop
  endfacet
  facet normal 0 -1 0
    outer loop
      vertex 0 0 0
      vertex 21 0 14.5
      vertex 0 0 14.5
    endloop
  endfacet
  facet normal 0 -1 -0
    outer loop
      vertex 21 0 14.5
      vertex 0 0 0
      vertex 21 0 0
    endloop
  endfacet
  facet normal 1 -0 0
    outer loop
      vertex 21 0 14.5
      vertex 21 26 0
      vertex 21 26 14.5
    endloop
  endfacet
  facet normal 1 0 0
    outer loop
      vertex 21 26 0
      vertex 21 0 14.5
      vertex 21 0 0
    endloop
  endfacet
  facet normal 0 1 -0
    outer loop
      vertex 21 26 0
      vertex 0 26 14.5
      vertex 21 26 14.5
    endloop
  endfacet
  facet normal 0 1 0
    outer loop
      vertex 0 26 14.5
      vertex 21 26 0
      vertex 0 26 0
    endloop
  endfacet
  facet normal -1 0 0
    outer loop
      vertex 0 0 0
      vertex 0 26 14.5
      vertex 0 26 0
    endloop
  endfacet
  facet normal -1 -0 0
    outer loop
      vertex 0 26 14.5
      vertex 0 0 0
      vertex 0 0 14.5
    endloop
  endfacet
endsolid OpenSCAD_Model
