solid OpenSCAD_Model
  facet normal 0 -0 1
    outer loop
      vertex -0.936906 -4.91144 30
      vertex 192.679 194.222 30
      vertex -1.54508 -4.75528 30
    endloop
  endfacet
  facet normal 0.481907 -0.876223 0
    outer loop
      vertex 192.679 -4.22164 0
      vertex 192.679 -4.22164 30
      vertex 192.129 -4.52413 0
    endloop
  endfacet
  facet normal -0.844328 -0.535827 -0
    outer loop
      vertex -4.04508 -2.93893 30
      vertex -4.38153 -2.40877 0
      vertex -4.04508 -2.93893 0
    endloop
  endfacet
  facet normal -0.98229 -0.187369 -0
    outer loop
      vertex -4.84292 -1.24345 30
      vertex -4.96057 -0.626666 0
      vertex -4.84292 -1.24345 0
    endloop
  endfacet
  facet normal 0 1 -0
    outer loop
      vertex 190.314 194.99 0
      vertex -0.313952 194.99 0
      vertex 190.314 194.99 30
    endloop
  endfacet
  facet normal 0 0 -1
    outer loop
      vertex 192.129 -4.52413 0
      vertex -2.67913 194.222 0
      vertex 192.679 -4.22164 0
    endloop
  endfacet
  facet normal -0.998026 -0.0627961 0
    outer loop
      vertex -5 0 0
      vertex -4.96057 -0.626666 0
      vertex -5 0 30
    endloop
  endfacet
  facet normal 0 0 -1
    outer loop
      vertex 193.187 -3.85257 0
      vertex -2.67913 194.222 0
      vertex 193.645 -3.42274 0
    endloop
  endfacet
  facet normal -0.844328 -0.535827 -0
    outer loop
      vertex -4.38153 -2.40877 30
      vertex -4.38153 -2.40877 0
      vertex -4.04508 -2.93893 30
    endloop
  endfacet
  facet normal 0 0 -1
    outer loop
      vertex 191.545 -4.75528 0
      vertex -2.67913 194.222 0
      vertex 192.129 -4.52413 0
    endloop
  endfacet
  facet normal 0.998069 -0.0621139 0
    outer loop
      vertex 195 0 30
      vertex 194.961 -0.626666 30
      vertex 195 0 0
    endloop
  endfacet
  facet normal 0 0 -1
    outer loop
      vertex 194.961 -0.626666 0
      vertex -2.67913 194.222 0
      vertex 195 0 0
    endloop
  endfacet
  facet normal 0 0 -1
    outer loop
      vertex 194.382 -2.40877 0
      vertex -2.67913 194.222 0
      vertex 194.649 -1.84062 0
    endloop
  endfacet
  facet normal -0.951179 0.30864 0
    outer loop
      vertex -4.64888 191.841 0
      vertex -4.84292 191.243 30
      vertex -4.64888 191.841 30
    endloop
  endfacet
  facet normal 0 0 1
    outer loop
      vertex 190.314 194.99 30
      vertex 192.679 194.222 30
      vertex 190.937 194.911 30
    endloop
  endfacet
  facet normal -1 0 0
    outer loop
      vertex -5 0 0
      vertex -5 190 30
      vertex -5 190 0
    endloop
  endfacet
  facet normal 0 -0 1
    outer loop
      vertex 192.679 -4.22164 30
      vertex 192.679 194.222 30
      vertex 192.129 -4.52413 30
    endloop
  endfacet
  facet normal 0.843931 -0.536451 0
    outer loop
      vertex 194.045 -2.93893 0
      vertex 194.382 -2.40877 0
      vertex 194.045 -2.93893 30
    endloop
  endfacet
  facet normal -0.982246 0.187599 0
    outer loop
      vertex -4.96057 190.627 0
      vertex -4.96057 190.627 30
      vertex -4.84292 191.243 0
    endloop
  endfacet
  facet normal 0 -0 1
    outer loop
      vertex -0.313952 -4.99013 30
      vertex 192.679 194.222 30
      vertex -0.936906 -4.91144 30
    endloop
  endfacet
  facet normal 0.982187 -0.187907 0
    outer loop
      vertex 194.961 -0.626666 0
      vertex 194.961 -0.626666 30
      vertex 194.843 -1.24345 0
    endloop
  endfacet
  facet normal 0 0 -1
    outer loop
      vertex 194.843 191.243 0
      vertex -2.67913 194.222 0
      vertex 194.649 191.841 0
    endloop
  endfacet
  facet normal -1 0 0
    outer loop
      vertex -5 0 30
      vertex -5 190 30
      vertex -5 0 0
    endloop
  endfacet
  facet normal -0.904828 -0.425778 0
    outer loop
      vertex -4.64888 -1.84062 30
      vertex -4.38153 -2.40877 0
      vertex -4.38153 -2.40877 30
    endloop
  endfacet
  facet normal 1 0 0
    outer loop
      vertex 195 190 30
      vertex 195 0 30
      vertex 195 190 0
    endloop
  endfacet
  facet normal 0.248529 0.968625 -0
    outer loop
      vertex 190.937 194.911 0
      vertex 190.937 194.911 30
      vertex 191.545 194.755 0
    endloop
  endfacet
  facet normal -0.770515 -0.637422 -0
    outer loop
      vertex -3.64484 -3.42274 30
      vertex -4.04508 -2.93893 0
      vertex -3.64484 -3.42274 0
    endloop
  endfacet
  facet normal 0 0 1
    outer loop
      vertex 194.961 190.627 30
      vertex 192.679 194.222 30
      vertex 195 190 30
    endloop
  endfacet
  facet normal 0 -1 0
    outer loop
      vertex -0.313952 -4.99013 0
      vertex 190.314 -4.99013 30
      vertex -0.313952 -4.99013 30
    endloop
  endfacet
  facet normal 0 -1 0
    outer loop
      vertex 190.314 -4.99013 0
      vertex 190.314 -4.99013 30
      vertex -0.313952 -4.99013 0
    endloop
  endfacet
  facet normal -0.125322 -0.992116 -0
    outer loop
      vertex -0.313952 -4.99013 30
      vertex -0.936906 -4.91144 30
      vertex -0.313952 -4.99013 0
    endloop
  endfacet
  facet normal -0.367917 0.929859 0
    outer loop
      vertex -1.54508 194.755 30
      vertex -1.54508 194.755 0
      vertex -2.1289 194.524 30
    endloop
  endfacet
  facet normal 0.770703 -0.637195 0
    outer loop
      vertex 193.645 -3.42274 0
      vertex 194.045 -2.93893 30
      vertex 193.645 -3.42274 30
    endloop
  endfacet
  facet normal 0.368026 -0.929816 0
    outer loop
      vertex 192.129 -4.52413 0
      vertex 191.545 -4.75528 30
      vertex 191.545 -4.75528 0
    endloop
  endfacet
  facet normal 0 0 1
    outer loop
      vertex -4.84292 191.243 30
      vertex 192.679 194.222 30
      vertex -4.64888 191.841 30
    endloop
  endfacet
  facet normal 0 0 -1
    outer loop
      vertex -5 0 0
      vertex -2.67913 194.222 0
      vertex -4.96057 -0.626666 0
    endloop
  endfacet
  facet normal 0 0 -1
    outer loop
      vertex -4.04508 -2.93893 0
      vertex -2.67913 194.222 0
      vertex -3.64484 -3.42274 0
    endloop
  endfacet
  facet normal 0.998069 -0.0621139 0
    outer loop
      vertex 195 0 0
      vertex 194.961 -0.626666 30
      vertex 194.961 -0.626666 0
    endloop
  endfacet
  facet normal -0.587706 0.809075 0
    outer loop
      vertex -2.67913 194.222 30
      vertex -2.67913 194.222 0
      vertex -3.18712 193.853 30
    endloop
  endfacet
  facet normal 1 0 0
    outer loop
      vertex 195 190 0
      vertex 195 0 30
      vertex 195 0 0
    endloop
  endfacet
  facet normal 0 0 1
    outer loop
      vertex 193.187 193.853 30
      vertex 192.679 194.222 30
      vertex 193.645 193.423 30
    endloop
  endfacet
  facet normal -0.998028 0.0627628 0
    outer loop
      vertex -5 190 30
      vertex -4.96057 190.627 30
      vertex -5 190 0
    endloop
  endfacet
  facet normal -0.951179 0.30864 0
    outer loop
      vertex -4.84292 191.243 0
      vertex -4.84292 191.243 30
      vertex -4.64888 191.841 0
    endloop
  endfacet
  facet normal 0 0 -1
    outer loop
      vertex -4.64888 -1.84062 0
      vertex -2.67913 194.222 0
      vertex -4.38153 -2.40877 0
    endloop
  endfacet
  facet normal -0.684693 0.728832 0
    outer loop
      vertex -3.64484 193.423 30
      vertex -3.18712 193.853 0
      vertex -3.64484 193.423 0
    endloop
  endfacet
  facet normal -0.587779 -0.809022 0
    outer loop
      vertex -2.67913 -4.22164 0
      vertex -2.67913 -4.22164 30
      vertex -3.18712 -3.85257 0
    endloop
  endfacet
  facet normal 0 -0 1
    outer loop
      vertex -3.64484 -3.42274 30
      vertex 192.679 194.222 30
      vertex -4.04508 -2.93893 30
    endloop
  endfacet
  facet normal 0 1 0
    outer loop
      vertex 190.314 194.99 30
      vertex -0.313952 194.99 0
      vertex -0.313952 194.99 30
    endloop
  endfacet
  facet normal -0.481152 0.876637 0
    outer loop
      vertex -2.1289 194.524 30
      vertex -2.67913 194.222 0
      vertex -2.67913 194.222 30
    endloop
  endfacet
  facet normal -0.587706 0.809075 0
    outer loop
      vertex -3.18712 193.853 30
      vertex -2.67913 194.222 0
      vertex -3.18712 193.853 0
    endloop
  endfacet
  facet normal 0 0 -1
    outer loop
      vertex -4.38153 -2.40877 0
      vertex -2.67913 194.222 0
      vertex -4.04508 -2.93893 0
    endloop
  endfacet
  facet normal 0.125798 0.992056 0
    outer loop
      vertex 190.314 194.99 0
      vertex 190.937 194.911 30
      vertex 190.937 194.911 0
    endloop
  endfacet
  facet normal -0.951053 -0.309028 -0
    outer loop
      vertex -4.84292 -1.24345 30
      vertex -4.84292 -1.24345 0
      vertex -4.64888 -1.84062 30
    endloop
  endfacet
  facet normal -0.368124 -0.929777 0
    outer loop
      vertex -2.1289 -4.52413 0
      vertex -1.54508 -4.75528 30
      vertex -2.1289 -4.52413 30
    endloop
  endfacet
  facet normal 0.125798 0.992056 0
    outer loop
      vertex 190.314 194.99 30
      vertex 190.937 194.911 30
      vertex 190.314 194.99 0
    endloop
  endfacet
  facet normal 0 0 -1
    outer loop
      vertex 192.679 -4.22164 0
      vertex -2.67913 194.222 0
      vertex 193.187 -3.85257 0
    endloop
  endfacet
  facet normal -0.844255 0.535942 0
    outer loop
      vertex -4.38153 192.409 0
      vertex -4.38153 192.409 30
      vertex -4.04508 192.939 0
    endloop
  endfacet
  facet normal -0.368124 -0.929777 0
    outer loop
      vertex -1.54508 -4.75528 0
      vertex -1.54508 -4.75528 30
      vertex -2.1289 -4.52413 0
    endloop
  endfacet
  facet normal -0.998026 -0.0627961 0
    outer loop
      vertex -5 0 30
      vertex -4.96057 -0.626666 0
      vertex -4.96057 -0.626666 30
    endloop
  endfacet
  facet normal 0.367819 0.929897 -0
    outer loop
      vertex 191.545 194.755 0
      vertex 191.545 194.755 30
      vertex 192.129 194.524 0
    endloop
  endfacet
  facet normal 0 0 -1
    outer loop
      vertex -1.54508 194.755 0
      vertex -2.67913 194.222 0
      vertex -2.1289 194.524 0
    endloop
  endfacet
  facet normal -0.125322 -0.992116 0
    outer loop
      vertex -0.313952 -4.99013 0
      vertex -0.936906 -4.91144 30
      vertex -0.936906 -4.91144 0
    endloop
  endfacet
  facet normal 0.587771 -0.809027 0
    outer loop
      vertex 193.187 -3.85257 0
      vertex 192.679 -4.22164 30
      vertex 192.679 -4.22164 0
    endloop
  endfacet
  facet normal 0 0 -1
    outer loop
      vertex -2.67913 -4.22164 0
      vertex -2.67913 194.222 0
      vertex -2.1289 -4.52413 0
    endloop
  endfacet
  facet normal 0 0 -1
    outer loop
      vertex -5 190 0
      vertex -2.67913 194.222 0
      vertex -5 0 0
    endloop
  endfacet
  facet normal -0 0 -1
    outer loop
      vertex 190.937 194.911 0
      vertex -2.67913 194.222 0
      vertex 190.314 194.99 0
    endloop
  endfacet
  facet normal 0 0 1
    outer loop
      vertex 190.937 194.911 30
      vertex 192.679 194.222 30
      vertex 191.545 194.755 30
    endloop
  endfacet
  facet normal 0 0 1
    outer loop
      vertex 194.649 -1.84062 30
      vertex 192.679 194.222 30
      vertex 194.382 -2.40877 30
    endloop
  endfacet
  facet normal 0.843858 0.536566 -0
    outer loop
      vertex 194.382 192.409 0
      vertex 194.045 192.939 30
      vertex 194.382 192.409 30
    endloop
  endfacet
  facet normal 0 -0 1
    outer loop
      vertex -2.1289 -4.52413 30
      vertex 192.679 194.222 30
      vertex -2.67913 -4.22164 30
    endloop
  endfacet
  facet normal 0 -0 1
    outer loop
      vertex -4.64888 -1.84062 30
      vertex 192.679 194.222 30
      vertex -4.84292 -1.24345 30
    endloop
  endfacet
  facet normal -0.587779 -0.809022 0
    outer loop
      vertex -3.18712 -3.85257 0
      vertex -2.67913 -4.22164 30
      vertex -3.18712 -3.85257 30
    endloop
  endfacet
  facet normal -0.951053 -0.309028 -0
    outer loop
      vertex -4.64888 -1.84062 30
      vertex -4.84292 -1.24345 0
      vertex -4.64888 -1.84062 0
    endloop
  endfacet
  facet normal -0.998028 0.0627628 0
    outer loop
      vertex -5 190 0
      vertex -4.96057 190.627 30
      vertex -4.96057 190.627 0
    endloop
  endfacet
  facet normal -0.248701 -0.96858 0
    outer loop
      vertex -1.54508 -4.75528 0
      vertex -0.936906 -4.91144 30
      vertex -1.54508 -4.75528 30
    endloop
  endfacet
  facet normal 0 -0 1
    outer loop
      vertex -4.04508 -2.93893 30
      vertex 192.679 194.222 30
      vertex -4.38153 -2.40877 30
    endloop
  endfacet
  facet normal 0.248768 -0.968563 0
    outer loop
      vertex 190.937 -4.91144 30
      vertex 190.937 -4.91144 0
      vertex 191.545 -4.75528 30
    endloop
  endfacet
  facet normal -0.125808 0.992055 0
    outer loop
      vertex -0.313952 194.99 30
      vertex -0.936906 194.911 0
      vertex -0.936906 194.911 30
    endloop
  endfacet
  facet normal -0.684549 -0.728967 0
    outer loop
      vertex -3.18712 -3.85257 0
      vertex -3.18712 -3.85257 30
      vertex -3.64484 -3.42274 0
    endloop
  endfacet
  facet normal -0.248701 -0.96858 0
    outer loop
      vertex -0.936906 -4.91144 0
      vertex -0.936906 -4.91144 30
      vertex -1.54508 -4.75528 0
    endloop
  endfacet
  facet normal 0.684327 -0.729176 0
    outer loop
      vertex 193.645 -3.42274 30
      vertex 193.187 -3.85257 30
      vertex 193.645 -3.42274 0
    endloop
  endfacet
  facet normal 0.684327 -0.729176 0
    outer loop
      vertex 193.645 -3.42274 0
      vertex 193.187 -3.85257 30
      vertex 193.187 -3.85257 0
    endloop
  endfacet
  facet normal -0.125808 0.992055 0
    outer loop
      vertex -0.313952 194.99 0
      vertex -0.936906 194.911 0
      vertex -0.313952 194.99 30
    endloop
  endfacet
  facet normal -0.770515 -0.637422 -0
    outer loop
      vertex -4.04508 -2.93893 30
      vertex -4.04508 -2.93893 0
      vertex -3.64484 -3.42274 30
    endloop
  endfacet
  facet normal 0 0 1
    outer loop
      vertex 195 190 30
      vertex 192.679 194.222 30
      vertex 195 0 30
    endloop
  endfacet
  facet normal 0.770826 0.637046 0
    outer loop
      vertex 193.645 193.423 30
      vertex 194.045 192.939 30
      vertex 193.645 193.423 0
    endloop
  endfacet
  facet normal -0.98229 -0.187369 -0
    outer loop
      vertex -4.96057 -0.626666 30
      vertex -4.96057 -0.626666 0
      vertex -4.84292 -1.24345 30
    endloop
  endfacet
  facet normal 0 0 1
    outer loop
      vertex -4.04508 192.939 30
      vertex 192.679 194.222 30
      vertex -3.64484 193.423 30
    endloop
  endfacet
  facet normal -0 0 1
    outer loop
      vertex -0.313952 194.99 30
      vertex 192.679 194.222 30
      vertex 190.314 194.99 30
    endloop
  endfacet
  facet normal 0 0 -1
    outer loop
      vertex 194.649 191.841 0
      vertex -2.67913 194.222 0
      vertex 194.382 192.409 0
    endloop
  endfacet
  facet normal 0 0 -1
    outer loop
      vertex 194.045 -2.93893 0
      vertex -2.67913 194.222 0
      vertex 194.382 -2.40877 0
    endloop
  endfacet
  facet normal 0.68447 0.729041 -0
    outer loop
      vertex 193.645 193.423 0
      vertex 193.187 193.853 30
      vertex 193.645 193.423 30
    endloop
  endfacet
  facet normal 0.951072 -0.30897 0
    outer loop
      vertex 194.843 -1.24345 0
      vertex 194.649 -1.84062 30
      vertex 194.649 -1.84062 0
    endloop
  endfacet
  facet normal -0 0 1
    outer loop
      vertex -2.1289 194.524 30
      vertex 192.679 194.222 30
      vertex -1.54508 194.755 30
    endloop
  endfacet
  facet normal 0 0 -1
    outer loop
      vertex 190.937 -4.91144 0
      vertex -2.67913 194.222 0
      vertex 191.545 -4.75528 0
    endloop
  endfacet
  facet normal -0.481752 -0.876308 -0
    outer loop
      vertex -2.1289 -4.52413 30
      vertex -2.67913 -4.22164 30
      vertex -2.1289 -4.52413 0
    endloop
  endfacet
  facet normal 0.951072 -0.30897 0
    outer loop
      vertex 194.843 -1.24345 30
      vertex 194.649 -1.84062 30
      vertex 194.843 -1.24345 0
    endloop
  endfacet
  facet normal 0.998071 0.062081 -0
    outer loop
      vertex 195 190 0
      vertex 194.961 190.627 30
      vertex 195 190 30
    endloop
  endfacet
  facet normal -0.982246 0.187599 0
    outer loop
      vertex -4.84292 191.243 0
      vertex -4.96057 190.627 30
      vertex -4.84292 191.243 30
    endloop
  endfacet
  facet normal -0.770638 0.637273 0
    outer loop
      vertex -4.04508 192.939 0
      vertex -3.64484 193.423 30
      vertex -3.64484 193.423 0
    endloop
  endfacet
  facet normal -0.844255 0.535942 0
    outer loop
      vertex -4.04508 192.939 0
      vertex -4.38153 192.409 30
      vertex -4.04508 192.939 30
    endloop
  endfacet
  facet normal 0 0 -1
    outer loop
      vertex -0.313952 -4.99013 0
      vertex -2.67913 194.222 0
      vertex 190.314 -4.99013 0
    endloop
  endfacet
  facet normal -0.684549 -0.728967 0
    outer loop
      vertex -3.64484 -3.42274 0
      vertex -3.18712 -3.85257 30
      vertex -3.64484 -3.42274 30
    endloop
  endfacet
  facet normal 0.368026 -0.929816 0
    outer loop
      vertex 192.129 -4.52413 30
      vertex 191.545 -4.75528 30
      vertex 192.129 -4.52413 0
    endloop
  endfacet
  facet normal 0 0 1
    outer loop
      vertex 193.645 -3.42274 30
      vertex 192.679 194.222 30
      vertex 193.187 -3.85257 30
    endloop
  endfacet
  facet normal 0 0 -1
    outer loop
      vertex 192.679 194.222 0
      vertex -2.67913 194.222 0
      vertex 192.129 194.524 0
    endloop
  endfacet
  facet normal 0 0 -1
    outer loop
      vertex -1.54508 -4.75528 0
      vertex -2.67913 194.222 0
      vertex -0.936906 -4.91144 0
    endloop
  endfacet
  facet normal 0.481307 0.876552 0
    outer loop
      vertex 192.129 194.524 30
      vertex 192.679 194.222 30
      vertex 192.129 194.524 0
    endloop
  endfacet
  facet normal 0 0 -1
    outer loop
      vertex -3.18712 -3.85257 0
      vertex -2.67913 194.222 0
      vertex -2.67913 -4.22164 0
    endloop
  endfacet
  facet normal -0.684693 0.728832 0
    outer loop
      vertex -3.18712 193.853 30
      vertex -3.18712 193.853 0
      vertex -3.64484 193.423 30
    endloop
  endfacet
  facet normal 0 -0 1
    outer loop
      vertex 191.545 -4.75528 30
      vertex 192.679 194.222 30
      vertex 190.937 -4.91144 30
    endloop
  endfacet
  facet normal 0 -0 -1
    outer loop
      vertex -4.38153 192.409 0
      vertex -2.67913 194.222 0
      vertex -4.64888 191.841 0
    endloop
  endfacet
  facet normal -0.904828 -0.425778 0
    outer loop
      vertex -4.64888 -1.84062 0
      vertex -4.38153 -2.40877 0
      vertex -4.64888 -1.84062 30
    endloop
  endfacet
  facet normal 0 0 -1
    outer loop
      vertex -0.936906 -4.91144 0
      vertex -2.67913 194.222 0
      vertex -0.313952 -4.99013 0
    endloop
  endfacet
  facet normal 0.770826 0.637046 0
    outer loop
      vertex 193.645 193.423 0
      vertex 194.045 192.939 30
      vertex 194.045 192.939 0
    endloop
  endfacet
  facet normal 0 -0 1
    outer loop
      vertex -3.18712 -3.85257 30
      vertex 192.679 194.222 30
      vertex -3.64484 -3.42274 30
    endloop
  endfacet
  facet normal 0 -0 1
    outer loop
      vertex -2.67913 -4.22164 30
      vertex 192.679 194.222 30
      vertex -3.18712 -3.85257 30
    endloop
  endfacet
  facet normal 0 -0 1
    outer loop
      vertex 190.937 -4.91144 30
      vertex 192.679 194.222 30
      vertex 190.314 -4.99013 30
    endloop
  endfacet
  facet normal 0 -0 1
    outer loop
      vertex 190.314 -4.99013 30
      vertex 192.679 194.222 30
      vertex -0.313952 -4.99013 30
    endloop
  endfacet
  facet normal 0 -0 -1
    outer loop
      vertex -4.04508 192.939 0
      vertex -2.67913 194.222 0
      vertex -4.38153 192.409 0
    endloop
  endfacet
  facet normal 0.982187 -0.187907 0
    outer loop
      vertex 194.843 -1.24345 0
      vertex 194.961 -0.626666 30
      vertex 194.843 -1.24345 30
    endloop
  endfacet
  facet normal 0 0 -1
    outer loop
      vertex 190.314 -4.99013 0
      vertex -2.67913 194.222 0
      vertex 190.937 -4.91144 0
    endloop
  endfacet
  facet normal -0.770638 0.637273 0
    outer loop
      vertex -4.04508 192.939 30
      vertex -3.64484 193.423 30
      vertex -4.04508 192.939 0
    endloop
  endfacet
  facet normal 0.367819 0.929897 -0
    outer loop
      vertex 192.129 194.524 0
      vertex 191.545 194.755 30
      vertex 192.129 194.524 30
    endloop
  endfacet
  facet normal -0.904784 0.42587 0
    outer loop
      vertex -4.64888 191.841 0
      vertex -4.38153 192.409 30
      vertex -4.38153 192.409 0
    endloop
  endfacet
  facet normal -0.904784 0.42587 0
    outer loop
      vertex -4.64888 191.841 30
      vertex -4.38153 192.409 30
      vertex -4.64888 191.841 0
    endloop
  endfacet
  facet normal 0.904999 0.425413 0
    outer loop
      vertex 194.382 192.409 0
      vertex 194.649 191.841 30
      vertex 194.649 191.841 0
    endloop
  endfacet
  facet normal 0 -0 1
    outer loop
      vertex -1.54508 -4.75528 30
      vertex 192.679 194.222 30
      vertex -2.1289 -4.52413 30
    endloop
  endfacet
  facet normal 0.125313 -0.992117 0
    outer loop
      vertex 190.314 -4.99013 30
      vertex 190.937 -4.91144 0
      vertex 190.937 -4.91144 30
    endloop
  endfacet
  facet normal 0 0 -1
    outer loop
      vertex 194.382 192.409 0
      vertex -2.67913 194.222 0
      vertex 194.045 192.939 0
    endloop
  endfacet
  facet normal 0 -0 1
    outer loop
      vertex -4.38153 -2.40877 30
      vertex 192.679 194.222 30
      vertex -4.64888 -1.84062 30
    endloop
  endfacet
  facet normal 0 0 -1
    outer loop
      vertex 194.045 192.939 0
      vertex -2.67913 194.222 0
      vertex 193.645 193.423 0
    endloop
  endfacet
  facet normal 0 0 1
    outer loop
      vertex 194.649 191.841 30
      vertex 192.679 194.222 30
      vertex 194.843 191.243 30
    endloop
  endfacet
  facet normal 0.587698 0.80908 -0
    outer loop
      vertex 192.679 194.222 0
      vertex 192.679 194.222 30
      vertex 193.187 193.853 0
    endloop
  endfacet
  facet normal 0 0 1
    outer loop
      vertex -3.64484 193.423 30
      vertex 192.679 194.222 30
      vertex -3.18712 193.853 30
    endloop
  endfacet
  facet normal 0.905042 -0.425321 0
    outer loop
      vertex 194.649 -1.84062 30
      vertex 194.382 -2.40877 0
      vertex 194.649 -1.84062 0
    endloop
  endfacet
  facet normal 0 0 -1
    outer loop
      vertex -0.313952 194.99 0
      vertex -2.67913 194.222 0
      vertex -0.936906 194.911 0
    endloop
  endfacet
  facet normal 0 0 1
    outer loop
      vertex -4.96057 190.627 30
      vertex 192.679 194.222 30
      vertex -4.84292 191.243 30
    endloop
  endfacet
  facet normal 0.770703 -0.637195 0
    outer loop
      vertex 194.045 -2.93893 0
      vertex 194.045 -2.93893 30
      vertex 193.645 -3.42274 0
    endloop
  endfacet
  facet normal 0.843931 -0.536451 0
    outer loop
      vertex 194.045 -2.93893 30
      vertex 194.382 -2.40877 0
      vertex 194.382 -2.40877 30
    endloop
  endfacet
  facet normal -0.481152 0.876637 0
    outer loop
      vertex -2.1289 194.524 0
      vertex -2.67913 194.222 0
      vertex -2.1289 194.524 30
    endloop
  endfacet
  facet normal -0 0 -1
    outer loop
      vertex 190.314 194.99 0
      vertex -2.67913 194.222 0
      vertex -0.313952 194.99 0
    endloop
  endfacet
  facet normal 0.481907 -0.876223 0
    outer loop
      vertex 192.129 -4.52413 0
      vertex 192.679 -4.22164 30
      vertex 192.129 -4.52413 30
    endloop
  endfacet
  facet normal 0.904999 0.425413 0
    outer loop
      vertex 194.382 192.409 30
      vertex 194.649 191.841 30
      vertex 194.382 192.409 0
    endloop
  endfacet
  facet normal 0.248768 -0.968563 0
    outer loop
      vertex 191.545 -4.75528 30
      vertex 190.937 -4.91144 0
      vertex 191.545 -4.75528 0
    endloop
  endfacet
  facet normal -0 0 -1
    outer loop
      vertex 191.545 194.755 0
      vertex -2.67913 194.222 0
      vertex 190.937 194.911 0
    endloop
  endfacet
  facet normal 0.843858 0.536566 -0
    outer loop
      vertex 194.045 192.939 0
      vertex 194.045 192.939 30
      vertex 194.382 192.409 0
    endloop
  endfacet
  facet normal 0 0 1
    outer loop
      vertex 194.382 -2.40877 30
      vertex 192.679 194.222 30
      vertex 194.045 -2.93893 30
    endloop
  endfacet
  facet normal 0 -0 -1
    outer loop
      vertex -4.84292 191.243 0
      vertex -2.67913 194.222 0
      vertex -4.96057 190.627 0
    endloop
  endfacet
  facet normal 0 0 -1
    outer loop
      vertex -3.64484 -3.42274 0
      vertex -2.67913 194.222 0
      vertex -3.18712 -3.85257 0
    endloop
  endfacet
  facet normal 0 -0 -1
    outer loop
      vertex -3.64484 193.423 0
      vertex -2.67913 194.222 0
      vertex -4.04508 192.939 0
    endloop
  endfacet
  facet normal 0 0 -1
    outer loop
      vertex -4.96057 -0.626666 0
      vertex -2.67913 194.222 0
      vertex -4.84292 -1.24345 0
    endloop
  endfacet
  facet normal 0 0 -1
    outer loop
      vertex -2.1289 -4.52413 0
      vertex -2.67913 194.222 0
      vertex -1.54508 -4.75528 0
    endloop
  endfacet
  facet normal 0 0 1
    outer loop
      vertex -5 190 30
      vertex 192.679 194.222 30
      vertex -4.96057 190.627 30
    endloop
  endfacet
  facet normal 0.587771 -0.809027 0
    outer loop
      vertex 193.187 -3.85257 30
      vertex 192.679 -4.22164 30
      vertex 193.187 -3.85257 0
    endloop
  endfacet
  facet normal -0.481752 -0.876308 0
    outer loop
      vertex -2.1289 -4.52413 0
      vertex -2.67913 -4.22164 30
      vertex -2.67913 -4.22164 0
    endloop
  endfacet
  facet normal 0 0 -1
    outer loop
      vertex 195 0 0
      vertex -2.67913 194.222 0
      vertex 195 190 0
    endloop
  endfacet
  facet normal -0.248462 0.968642 0
    outer loop
      vertex -0.936906 194.911 0
      vertex -1.54508 194.755 0
      vertex -0.936906 194.911 30
    endloop
  endfacet
  facet normal 0 0 -1
    outer loop
      vertex -0.936906 194.911 0
      vertex -2.67913 194.222 0
      vertex -1.54508 194.755 0
    endloop
  endfacet
  facet normal 0.68447 0.729041 -0
    outer loop
      vertex 193.187 193.853 0
      vertex 193.187 193.853 30
      vertex 193.645 193.423 0
    endloop
  endfacet
  facet normal 0 0 1
    outer loop
      vertex -3.18712 193.853 30
      vertex 192.679 194.222 30
      vertex -2.67913 194.222 30
    endloop
  endfacet
  facet normal 0.587698 0.80908 -0
    outer loop
      vertex 193.187 193.853 0
      vertex 192.679 194.222 30
      vertex 193.187 193.853 30
    endloop
  endfacet
  facet normal 0.998071 0.062081 -0
    outer loop
      vertex 194.961 190.627 0
      vertex 194.961 190.627 30
      vertex 195 190 0
    endloop
  endfacet
  facet normal 0.982143 0.188138 0
    outer loop
      vertex 194.843 191.243 30
      vertex 194.961 190.627 30
      vertex 194.843 191.243 0
    endloop
  endfacet
  facet normal 0 0 -1
    outer loop
      vertex 194.961 190.627 0
      vertex -2.67913 194.222 0
      vertex 194.843 191.243 0
    endloop
  endfacet
  facet normal 0.125313 -0.992117 0
    outer loop
      vertex 190.314 -4.99013 0
      vertex 190.937 -4.91144 0
      vertex 190.314 -4.99013 30
    endloop
  endfacet
  facet normal 0 -0 1
    outer loop
      vertex 192.129 -4.52413 30
      vertex 192.679 194.222 30
      vertex 191.545 -4.75528 30
    endloop
  endfacet
  facet normal 0.982143 0.188138 0
    outer loop
      vertex 194.843 191.243 0
      vertex 194.961 190.627 30
      vertex 194.961 190.627 0
    endloop
  endfacet
  facet normal 0 0 1
    outer loop
      vertex 194.961 -0.626666 30
      vertex 192.679 194.222 30
      vertex 194.843 -1.24345 30
    endloop
  endfacet
  facet normal 0 0 1
    outer loop
      vertex 194.045 192.939 30
      vertex 192.679 194.222 30
      vertex 194.382 192.409 30
    endloop
  endfacet
  facet normal 0 0 1
    outer loop
      vertex -2.67913 194.222 30
      vertex 192.679 194.222 30
      vertex -2.1289 194.524 30
    endloop
  endfacet
  facet normal 0.905042 -0.425321 0
    outer loop
      vertex 194.382 -2.40877 30
      vertex 194.382 -2.40877 0
      vertex 194.649 -1.84062 30
    endloop
  endfacet
  facet normal 0.481307 0.876552 0
    outer loop
      vertex 192.129 194.524 0
      vertex 192.679 194.222 30
      vertex 192.679 194.222 0
    endloop
  endfacet
  facet normal -0 0 1
    outer loop
      vertex -1.54508 194.755 30
      vertex 192.679 194.222 30
      vertex -0.936906 194.911 30
    endloop
  endfacet
  facet normal -0.367917 0.929859 0
    outer loop
      vertex -2.1289 194.524 30
      vertex -1.54508 194.755 0
      vertex -2.1289 194.524 0
    endloop
  endfacet
  facet normal -0.248462 0.968642 0
    outer loop
      vertex -0.936906 194.911 30
      vertex -1.54508 194.755 0
      vertex -1.54508 194.755 30
    endloop
  endfacet
  facet normal 0 0 -1
    outer loop
      vertex 193.645 193.423 0
      vertex -2.67913 194.222 0
      vertex 193.187 193.853 0
    endloop
  endfacet
  facet normal 0 0 -1
    outer loop
      vertex 195 190 0
      vertex -2.67913 194.222 0
      vertex 194.961 190.627 0
    endloop
  endfacet
  facet normal 0 -0 1
    outer loop
      vertex -4.84292 -1.24345 30
      vertex 192.679 194.222 30
      vertex -4.96057 -0.626666 30
    endloop
  endfacet
  facet normal 0 0 -1
    outer loop
      vertex 193.645 -3.42274 0
      vertex -2.67913 194.222 0
      vertex 194.045 -2.93893 0
    endloop
  endfacet
  facet normal 0 0 1
    outer loop
      vertex 193.645 193.423 30
      vertex 192.679 194.222 30
      vertex 194.045 192.939 30
    endloop
  endfacet
  facet normal 0.248529 0.968625 -0
    outer loop
      vertex 191.545 194.755 0
      vertex 190.937 194.911 30
      vertex 191.545 194.755 30
    endloop
  endfacet
  facet normal 0 -0 -1
    outer loop
      vertex -4.96057 190.627 0
      vertex -2.67913 194.222 0
      vertex -5 190 0
    endloop
  endfacet
  facet normal 0 0 -1
    outer loop
      vertex -4.84292 -1.24345 0
      vertex -2.67913 194.222 0
      vertex -4.64888 -1.84062 0
    endloop
  endfacet
  facet normal 0 0 1
    outer loop
      vertex 194.843 191.243 30
      vertex 192.679 194.222 30
      vertex 194.961 190.627 30
    endloop
  endfacet
  facet normal 0 0 1
    outer loop
      vertex 194.382 192.409 30
      vertex 192.679 194.222 30
      vertex 194.649 191.841 30
    endloop
  endfacet
  facet normal 0.951198 0.308582 -0
    outer loop
      vertex 194.843 191.243 0
      vertex 194.649 191.841 30
      vertex 194.843 191.243 30
    endloop
  endfacet
  facet normal 0.951198 0.308582 -0
    outer loop
      vertex 194.649 191.841 0
      vertex 194.649 191.841 30
      vertex 194.843 191.243 0
    endloop
  endfacet
  facet normal 0 0 1
    outer loop
      vertex 191.545 194.755 30
      vertex 192.679 194.222 30
      vertex 192.129 194.524 30
    endloop
  endfacet
  facet normal -0 0 1
    outer loop
      vertex -0.936906 194.911 30
      vertex 192.679 194.222 30
      vertex -0.313952 194.99 30
    endloop
  endfacet
  facet normal 0 -0 -1
    outer loop
      vertex -4.64888 191.841 0
      vertex -2.67913 194.222 0
      vertex -4.84292 191.243 0
    endloop
  endfacet
  facet normal 0 -0 -1
    outer loop
      vertex -3.18712 193.853 0
      vertex -2.67913 194.222 0
      vertex -3.64484 193.423 0
    endloop
  endfacet
  facet normal 0 0 1
    outer loop
      vertex -5 0 30
      vertex 192.679 194.222 30
      vertex -5 190 30
    endloop
  endfacet
  facet normal 0 -0 1
    outer loop
      vertex -4.96057 -0.626666 30
      vertex 192.679 194.222 30
      vertex -5 0 30
    endloop
  endfacet
  facet normal 0 0 1
    outer loop
      vertex 193.187 -3.85257 30
      vertex 192.679 194.222 30
      vertex 192.679 -4.22164 30
    endloop
  endfacet
  facet normal 0 0 1
    outer loop
      vertex 194.045 -2.93893 30
      vertex 192.679 194.222 30
      vertex 193.645 -3.42274 30
    endloop
  endfacet
  facet normal 0 0 1
    outer loop
      vertex 194.843 -1.24345 30
      vertex 192.679 194.222 30
      vertex 194.649 -1.84062 30
    endloop
  endfacet
  facet normal 0 0 1
    outer loop
      vertex 195 0 30
      vertex 192.679 194.222 30
      vertex 194.961 -0.626666 30
    endloop
  endfacet
  facet normal -0 0 -1
    outer loop
      vertex 192.129 194.524 0
      vertex -2.67913 194.222 0
      vertex 191.545 194.755 0
    endloop
  endfacet
  facet normal 0 0 -1
    outer loop
      vertex 193.187 193.853 0
      vertex -2.67913 194.222 0
      vertex 192.679 194.222 0
    endloop
  endfacet
  facet normal 0 0 -1
    outer loop
      vertex 194.843 -1.24345 0
      vertex -2.67913 194.222 0
      vertex 194.961 -0.626666 0
    endloop
  endfacet
  facet normal 0 0 -1
    outer loop
      vertex 194.649 -1.84062 0
      vertex -2.67913 194.222 0
      vertex 194.843 -1.24345 0
    endloop
  endfacet
  facet normal 0 0 1
    outer loop
      vertex -4.38153 192.409 30
      vertex 192.679 194.222 30
      vertex -4.04508 192.939 30
    endloop
  endfacet
  facet normal 0 0 1
    outer loop
      vertex -4.64888 191.841 30
      vertex 192.679 194.222 30
      vertex -4.38153 192.409 30
    endloop
  endfacet
endsolid OpenSCAD_Model
